solid Base-cradle
facet normal 0.000197641394114241 0.000386286601191644 0.999999905860266
outer loop
vertex 25.4 -13.97 2.0574
vertex 15.24 0.0 2.0574
vertex 15.24 -13.97 2.0574
endloop
endfacet
facet normal 0.000197641394114241 0.000386286601191644 0.999999905860266
outer loop
vertex 15.24 0.0 2.0574
vertex 25.4 -13.97 2.0574
vertex 15.24 1.27 2.0574
endloop
endfacet
facet normal 0.000197641394114241 0.000386286601191644 0.999999905860266
outer loop
vertex 40.64 1.27 2.032
vertex 39.37 13.97 2.032
vertex 25.4 1.27 2.0574
endloop
endfacet
facet normal 0.000197641394114241 0.000386286601191644 0.999999905860266
outer loop
vertex 39.37 13.97 2.032
vertex 40.64 1.27 2.032
vertex 40.64 13.97 2.032
endloop
endfacet
facet normal 0.000197641394114241 0.000386286601191644 0.999999905860266
outer loop
vertex 15.24 1.27 2.0574
vertex 1.27 52.07 2.032
vertex 1.27 1.27 2.032
endloop
endfacet
facet normal 0.000197641394114241 0.000386286601191644 0.999999905860266
outer loop
vertex 1.27 52.07 2.032
vertex 15.24 1.27 2.0574
vertex 40.64 52.07 2.032
endloop
endfacet
facet normal 0.000197641394114241 0.000386286601191644 0.999999905860266
outer loop
vertex 40.64 52.07 2.032
vertex 15.24 1.27 2.0574
vertex 25.4 1.27 2.0574
endloop
endfacet
facet normal 0.000197641394114241 0.000386286601191644 0.999999905860266
outer loop
vertex 25.4 1.27 2.0574
vertex 15.24 1.27 2.0574
vertex 25.4 -13.97 2.0574
endloop
endfacet
facet normal 0.000197641394114241 0.000386286601191644 0.999999905860266
outer loop
vertex 25.4 1.27 2.0574
vertex 25.4 -13.97 2.0574
vertex 25.4 0.0 2.0574
endloop
endfacet
facet normal 0.000197641394114241 0.000386286601191644 0.999999905860266
outer loop
vertex 40.64 52.07 2.032
vertex 25.4 1.27 2.0574
vertex 39.37 31.75 2.032
endloop
endfacet
facet normal 0.000197641394114241 0.000386286601191644 0.999999905860266
outer loop
vertex 39.37 31.75 2.032
vertex 25.4 1.27 2.0574
vertex 39.37 13.97 2.032
endloop
endfacet
facet normal 0.000197641394114241 0.000386286601191644 0.999999905860266
outer loop
vertex 40.64 52.07 2.032
vertex 39.37 31.75 2.032
vertex 40.64 31.75 2.032
endloop
endfacet
facet normal 0.499999999999999 0.866025403784439 1.74140914790778e-16
outer loop
vertex 19.05 5.67429547438752 0.0
vertex 19.6625996254396 5.42054840122577 -6.35
vertex 19.05 5.67429547438753 -6.35
endloop
endfacet
facet normal 0.25881904510252 0.965925826289069 2.3536285028452e-16
outer loop
vertex 19.6625996254396 5.42054840122577 -6.35
vertex 19.05 5.67429547438752 0.0
vertex 19.6625996254396 5.42054840122577 0.0
endloop
endfacet
facet normal -0.258819045102522 -0.965925826289068 2.92305569114698e-16
outer loop
vertex 20.9774003745604 10.3274515987742 0.0
vertex 20.32 10.414 -6.35
vertex 20.9774003745604 10.3274515987742 -6.35
endloop
endfacet
facet normal -4.45555494782345e-16 -1.0 2.77555756156289e-16
outer loop
vertex 20.32 10.414 -6.35
vertex 20.9774003745604 10.3274515987742 0.0
vertex 20.32 10.414 0.0
endloop
endfacet
facet normal 1.0 0.0 0.0
outer loop
vertex 40.64 0.0 0.0
vertex 40.64 1.27 2.032
vertex 40.64 0.0 12.192
endloop
endfacet
facet normal 1.0 0.0 0.0
outer loop
vertex 40.64 1.27 2.032
vertex 40.64 0.0 0.0
vertex 40.64 53.34 0.0
endloop
endfacet
facet normal 1.0 0.0 0.0
outer loop
vertex 40.64 1.27 2.032
vertex 40.64 53.34 0.0
vertex 40.64 13.97 2.032
endloop
endfacet
facet normal 1.0 0.0 0.0
outer loop
vertex 40.64 13.97 2.032
vertex 40.64 53.34 0.0
vertex 40.64 31.75 2.032
endloop
endfacet
facet normal 1.0 0.0 0.0
outer loop
vertex 40.64 13.97 2.032
vertex 40.64 31.75 2.032
vertex 40.64 13.97 12.192
endloop
endfacet
facet normal 1.0 0.0 0.0
outer loop
vertex 40.64 31.75 2.032
vertex 40.64 53.34 0.0
vertex 40.64 52.07 2.032
endloop
endfacet
facet normal 1.0 0.0 0.0
outer loop
vertex 40.64 52.07 2.032
vertex 40.64 53.34 0.0
vertex 40.64 52.07 12.192
endloop
endfacet
facet normal 1.0 0.0 0.0
outer loop
vertex 40.64 52.07 12.192
vertex 40.64 53.34 0.0
vertex 40.64 53.34 12.192
endloop
endfacet
facet normal 1.0 0.0 0.0
outer loop
vertex 40.64 31.75 12.192
vertex 40.64 13.97 12.192
vertex 40.64 31.75 2.032
endloop
endfacet
facet normal 1.0 0.0 0.0
outer loop
vertex 40.64 1.27 12.192
vertex 40.64 0.0 12.192
vertex 40.64 1.27 2.032
endloop
endfacet
facet normal -0.500000000000001 -0.866025403784438 1.81854152738718e-16
outer loop
vertex 21.59 10.0737045256125 0.0
vertex 20.9774003745604 10.3274515987742 -6.35
vertex 21.59 10.0737045256125 -6.35
endloop
endfacet
facet normal -0.258819045102522 -0.965925826289068 2.92305569114698e-16
outer loop
vertex 20.9774003745604 10.3274515987742 -6.35
vertex 21.59 10.0737045256125 0.0
vertex 20.9774003745604 10.3274515987742 0.0
endloop
endfacet
facet normal -0.866025403784439 -0.499999999999999 -1.70113918791473e-16
outer loop
vertex 22.5197045256125 9.144 0.0
vertex 22.1160512242138 9.67005122421383 -6.35
vertex 22.5197045256125 9.144 -6.35
endloop
endfacet
facet normal -0.707106781186549 -0.707106781186546 -6.50906356707019e-17
outer loop
vertex 22.1160512242138 9.67005122421383 -6.35
vertex 22.5197045256125 9.144 0.0
vertex 22.1160512242138 9.67005122421383 0.0
endloop
endfacet
facet normal -0.25881904510252 0.965925826289069 2.18910670728939e-16
outer loop
vertex 18.676499063599 14.0076289969356 0.0
vertex 20.32 14.224 -6.35
vertex 18.676499063599 14.0076289969356 -6.35
endloop
endfacet
facet normal -2.94066626556348e-16 1.0 4.44089209850063e-16
outer loop
vertex 20.32 14.224 -6.35
vertex 18.676499063599 14.0076289969356 0.0
vertex 20.32 14.224 0.0
endloop
endfacet
facet normal 0.965925826289068 -0.258819045102524 2.26218852432487e-16
outer loop
vertex 17.8665484012258 8.5314003745604 -6.35
vertex 17.78 7.874 0.0
vertex 17.78 7.874 -6.35
endloop
endfacet
facet normal 1.0 1.20299983591233e-15 3.4768327079464e-16
outer loop
vertex 17.78 7.874 0.0
vertex 17.8665484012258 8.5314003745604 -6.35
vertex 17.8665484012258 8.53140037456041 0.0
endloop
endfacet
facet normal 1.0 0.0 0.0
outer loop
vertex 22.352 106.68 2.54
vertex 22.352 100.33 40.64
vertex 22.352 100.33 2.54
endloop
endfacet
facet normal 1.0 0.0 0.0
outer loop
vertex 22.352 100.33 40.64
vertex 22.352 106.68 2.54
vertex 22.352 106.68 40.64
endloop
endfacet
facet normal 0.0 0.0 -1.0
outer loop
vertex 17.8665484012258 8.53140037456041 0.0
vertex 17.8665484012258 7.2165996254396 0.0
vertex 17.78 7.874 0.0
endloop
endfacet
facet normal 0.0 0.0 -1.0
outer loop
vertex 17.8665484012258 7.2165996254396 0.0
vertex 17.8665484012258 8.53140037456041 0.0
vertex 18.1202954743875 9.144 0.0
endloop
endfacet
facet normal 0.0 0.0 -1.0
outer loop
vertex 17.8665484012258 7.2165996254396 0.0
vertex 18.1202954743875 9.144 0.0
vertex 18.1202954743875 6.604 0.0
endloop
endfacet
facet normal 0.0 0.0 -1.0
outer loop
vertex 18.1202954743875 6.604 0.0
vertex 18.1202954743875 9.144 0.0
vertex 18.5239487757862 6.07794877578616 0.0
endloop
endfacet
facet normal 0.0 0.0 -1.0
outer loop
vertex 18.5239487757862 6.07794877578616 0.0
vertex 18.1202954743875 9.144 0.0
vertex 18.5239487757862 9.67005122421383 0.0
endloop
endfacet
facet normal 0.0 0.0 -1.0
outer loop
vertex 18.5239487757862 6.07794877578616 0.0
vertex 18.5239487757862 9.67005122421383 0.0
vertex 19.05 10.0737045256125 0.0
endloop
endfacet
facet normal 0.0 0.0 -1.0
outer loop
vertex 18.5239487757862 6.07794877578616 0.0
vertex 19.05 10.0737045256125 0.0
vertex 19.05 5.67429547438752 0.0
endloop
endfacet
facet normal 0.0 0.0 -1.0
outer loop
vertex 19.05 5.67429547438752 0.0
vertex 19.05 10.0737045256125 0.0
vertex 19.6625996254396 10.3274515987742 0.0
endloop
endfacet
facet normal 0.0 0.0 -1.0
outer loop
vertex 19.05 5.67429547438752 0.0
vertex 19.6625996254396 10.3274515987742 0.0
vertex 19.6625996254396 5.42054840122577 0.0
endloop
endfacet
facet normal 0.0 0.0 -1.0
outer loop
vertex 19.6625996254396 5.42054840122577 0.0
vertex 19.6625996254396 10.3274515987742 0.0
vertex 20.32 10.414 0.0
endloop
endfacet
facet normal 0.0 0.0 -1.0
outer loop
vertex 19.6625996254396 5.42054840122577 0.0
vertex 20.32 10.414 0.0
vertex 20.32 5.334 0.0
endloop
endfacet
facet normal 0.0 0.0 -1.0
outer loop
vertex 20.32 5.334 0.0
vertex 20.32 10.414 0.0
vertex 20.9774003745604 5.42054840122577 0.0
endloop
endfacet
facet normal 0.0 0.0 -1.0
outer loop
vertex 20.9774003745604 5.42054840122577 0.0
vertex 20.32 10.414 0.0
vertex 20.9774003745604 10.3274515987742 0.0
endloop
endfacet
facet normal 0.0 0.0 -1.0
outer loop
vertex 20.9774003745604 5.42054840122577 0.0
vertex 20.9774003745604 10.3274515987742 0.0
vertex 21.59 5.67429547438753 0.0
endloop
endfacet
facet normal 0.0 0.0 -1.0
outer loop
vertex 21.59 5.67429547438753 0.0
vertex 20.9774003745604 10.3274515987742 0.0
vertex 21.59 10.0737045256125 0.0
endloop
endfacet
facet normal 0.0 0.0 -1.0
outer loop
vertex 21.59 5.67429547438753 0.0
vertex 21.59 10.0737045256125 0.0
vertex 22.1160512242138 6.07794877578617 0.0
endloop
endfacet
facet normal 0.0 0.0 -1.0
outer loop
vertex 22.1160512242138 6.07794877578617 0.0
vertex 21.59 10.0737045256125 0.0
vertex 22.1160512242138 9.67005122421383 0.0
endloop
endfacet
facet normal 0.0 0.0 -1.0
outer loop
vertex 22.1160512242138 6.07794877578617 0.0
vertex 22.1160512242138 9.67005122421383 0.0
vertex 22.5197045256125 9.144 0.0
endloop
endfacet
facet normal 0.0 0.0 -1.0
outer loop
vertex 22.1160512242138 6.07794877578617 0.0
vertex 22.5197045256125 9.144 0.0
vertex 22.5197045256125 6.604 0.0
endloop
endfacet
facet normal 0.0 0.0 -1.0
outer loop
vertex 22.5197045256125 6.604 0.0
vertex 22.5197045256125 9.144 0.0
vertex 22.7734515987742 8.5314003745604 0.0
endloop
endfacet
facet normal 0.0 0.0 -1.0
outer loop
vertex 22.5197045256125 6.604 0.0
vertex 22.7734515987742 8.5314003745604 0.0
vertex 22.7734515987742 7.2165996254396 0.0
endloop
endfacet
facet normal 0.0 0.0 -1.0
outer loop
vertex 22.7734515987742 7.2165996254396 0.0
vertex 22.7734515987742 8.5314003745604 0.0
vertex 22.86 7.874 0.0
endloop
endfacet
facet normal 0.0 1.0 0.0
outer loop
vertex 39.37 31.75 12.192
vertex 40.64 31.75 2.032
vertex 39.37 31.75 2.032
endloop
endfacet
facet normal 0.0 1.0 0.0
outer loop
vertex 40.64 31.75 2.032
vertex 39.37 31.75 12.192
vertex 40.64 31.75 12.192
endloop
endfacet
facet normal -1.0 0.0 0.0
outer loop
vertex 20.32 106.68 40.64
vertex 20.32 100.33 2.54
vertex 20.32 100.33 40.64
endloop
endfacet
facet normal -1.0 0.0 0.0
outer loop
vertex 20.32 100.33 2.54
vertex 20.32 106.68 40.64
vertex 20.32 106.68 2.54
endloop
endfacet
facet normal -0.707106781186549 -0.707106781186546 -6.50906356707018e-17
outer loop
vertex 22.1160512242138 9.67005122421383 0.0
vertex 21.59 10.0737045256125 -6.35
vertex 22.1160512242138 9.67005122421383 -6.35
endloop
endfacet
facet normal -0.500000000000001 -0.866025403784438 1.81854152738718e-16
outer loop
vertex 21.59 10.0737045256125 -6.35
vertex 22.1160512242138 9.67005122421383 0.0
vertex 21.59 10.0737045256125 0.0
endloop
endfacet
facet normal 0.707106781186547 0.707106781186548 -6.09126211533488e-17
outer loop
vertex 18.5239487757862 6.07794877578617 -6.35
vertex 18.1202954743875 6.604 0.0
vertex 18.5239487757862 6.07794877578616 0.0
endloop
endfacet
facet normal 0.866025403784438 0.500000000000001 -9.60966247150283e-17
outer loop
vertex 18.1202954743875 6.604 0.0
vertex 18.5239487757862 6.07794877578617 -6.35
vertex 18.1202954743875 6.604 -6.35
endloop
endfacet
facet normal -0.965925826289069 0.25881904510252 -1.89918179684263e-16
outer loop
vertex 22.7734515987742 7.2165996254396 0.0
vertex 22.5197045256125 6.604 -6.35
vertex 22.5197045256125 6.604 0.0
endloop
endfacet
facet normal -0.86602540378444 0.499999999999998 4.52310981638631e-17
outer loop
vertex 22.5197045256125 6.604 -6.35
vertex 22.7734515987742 7.2165996254396 0.0
vertex 22.7734515987742 7.2165996254396 -6.35
endloop
endfacet
facet normal 0.866025403784439 0.499999999999999 4.53448597200578e-16
outer loop
vertex 25.8192613140312 11.049 -6.35
vertex 26.4536289969356 9.51750093640101 0.0
vertex 26.4536289969356 9.517500936401 -6.35
endloop
endfacet
facet normal 0.965925826289069 0.258819045102521 1.4012857523063e-15
outer loop
vertex 26.4536289969356 9.51750093640101 0.0
vertex 25.8192613140312 11.049 -6.35
vertex 25.8192613140312 11.049 0.0
endloop
endfacet
facet normal 0.5 -0.866025403784438 1.96093081011764e-16
outer loop
vertex 23.495 2.37473868596882 0.0
vertex 21.963500936401 1.74037100306442 -6.35
vertex 23.495 2.37473868596881 -6.35
endloop
endfacet
facet normal 0.258819045102521 -0.965925826289068 -6.00327200504322e-17
outer loop
vertex 21.963500936401 1.74037100306442 -6.35
vertex 23.495 2.37473868596882 0.0
vertex 21.963500936401 1.74037100306442 0.0
endloop
endfacet
facet normal 0.0 -1.0 0.0
outer loop
vertex 22.352 100.33 40.64
vertex 20.32 100.33 2.54
vertex 22.352 100.33 2.54
endloop
endfacet
facet normal 0.0 -1.0 0.0
outer loop
vertex 20.32 100.33 2.54
vertex 22.352 100.33 40.64
vertex 20.32 100.33 40.64
endloop
endfacet
facet normal 0.258819045102521 -0.965925826289068 -6.00327200504322e-17
outer loop
vertex 21.963500936401 1.74037100306442 0.0
vertex 20.32 1.524 -6.35
vertex 21.963500936401 1.74037100306442 -6.35
endloop
endfacet
facet normal -4.63377714573639e-16 -1.0 -1.09545151263957e-16
outer loop
vertex 20.32 1.524 -6.35
vertex 21.963500936401 1.74037100306442 0.0
vertex 20.32 1.524 0.0
endloop
endfacet
facet normal 0.0 -1.0 0.0
outer loop
vertex 40.64 0.0 12.192
vertex 25.4 0.0 0.0126999999999986
vertex 40.64 0.0 0.0
endloop
endfacet
facet normal 0.0 -1.0 0.0
outer loop
vertex 25.4 0.0 0.0126999999999986
vertex 40.64 0.0 12.192
vertex 25.4 0.0 2.0574
endloop
endfacet
facet normal 0.0 -1.0 0.0
outer loop
vertex 25.4 0.0 2.0574
vertex 40.64 0.0 12.192
vertex 25.4 0.0 12.192
endloop
endfacet
facet normal 0.0 0.0 1.0
outer loop
vertex 40.64 13.97 12.192
vertex 39.37 31.75 12.192
vertex 39.37 13.97 12.192
endloop
endfacet
facet normal 0.0 0.0 1.0
outer loop
vertex 39.37 31.75 12.192
vertex 40.64 13.97 12.192
vertex 40.64 31.75 12.192
endloop
endfacet
facet normal -0.25881904510252 -0.965925826289068 3.61935872060137e-17
outer loop
vertex 18.676499063599 1.74037100306442 0.0
vertex 17.145 2.37473868596881 -6.35
vertex 18.676499063599 1.74037100306442 -6.35
endloop
endfacet
facet normal -0.5 -0.866025403784439 6.72928426390384e-17
outer loop
vertex 17.145 2.37473868596881 -6.35
vertex 18.676499063599 1.74037100306442 0.0
vertex 17.145 2.37473868596881 0.0
endloop
endfacet
facet normal 0.0 -1.0 0.0
outer loop
vertex 22.352 62.23 40.64
vertex 20.32 62.23 2.54
vertex 22.352 62.23 2.54
endloop
endfacet
facet normal 0.0 -1.0 0.0
outer loop
vertex 20.32 62.23 2.54
vertex 22.352 62.23 40.64
vertex 20.32 62.23 40.64
endloop
endfacet
facet normal -0.499999999999999 0.866025403784439 -2.79788410664323e-17
outer loop
vertex 21.59 5.67429547438753 0.0
vertex 22.1160512242138 6.07794877578617 -6.35
vertex 21.59 5.67429547438753 -6.35
endloop
endfacet
facet normal -0.707106781186547 0.707106781186548 1.33259928923447e-16
outer loop
vertex 22.1160512242138 6.07794877578617 -6.35
vertex 21.59 5.67429547438753 0.0
vertex 22.1160512242138 6.07794877578617 0.0
endloop
endfacet
facet normal 0.0 -1.0 0.0
outer loop
vertex 40.64 13.97 12.192
vertex 39.37 13.97 2.032
vertex 40.64 13.97 2.032
endloop
endfacet
facet normal 0.0 -1.0 0.0
outer loop
vertex 39.37 13.97 2.032
vertex 40.64 13.97 12.192
vertex 39.37 13.97 12.192
endloop
endfacet
facet normal -0.965925826289068 0.258819045102521 -4.6500010498246e-16
outer loop
vertex 14.1863710030644 9.51750093640101 0.0
vertex 13.97 7.874 -6.35
vertex 13.97 7.874 0.0
endloop
endfacet
facet normal -1.0 -1.07824429737328e-15 -2.22044604925031e-16
outer loop
vertex 13.97 7.874 -6.35
vertex 14.1863710030644 9.51750093640101 0.0
vertex 14.1863710030644 9.51750093640101 -6.35
endloop
endfacet
facet normal 1.0 0.0 0.0
outer loop
vertex 1.27 52.07 2.032
vertex 1.27 1.27 12.192
vertex 1.27 1.27 2.032
endloop
endfacet
facet normal 1.0 0.0 0.0
outer loop
vertex 1.27 1.27 12.192
vertex 1.27 52.07 2.032
vertex 1.27 52.07 12.192
endloop
endfacet
facet normal -0.707106781186547 0.707106781186548 1.33259928923447e-16
outer loop
vertex 22.1160512242138 6.07794877578617 0.0
vertex 22.5197045256125 6.604 -6.35
vertex 22.1160512242138 6.07794877578617 -6.35
endloop
endfacet
facet normal -0.86602540378444 0.499999999999998 4.52310981638631e-17
outer loop
vertex 22.5197045256125 6.604 -6.35
vertex 22.1160512242138 6.07794877578617 0.0
vertex 22.5197045256125 6.604 0.0
endloop
endfacet
facet normal 0.965925826289069 0.25881904510252 1.4012857523063e-15
outer loop
vertex 26.4536289969356 9.517500936401 -6.35
vertex 26.67 7.874 0.0
vertex 26.67 7.874 -6.35
endloop
endfacet
facet normal 1.0 1.8624219681902e-15 1.32495944784664e-15
outer loop
vertex 26.67 7.874 0.0
vertex 26.4536289969356 9.517500936401 -6.35
vertex 26.4536289969356 9.51750093640101 0.0
endloop
endfacet
facet normal 0.707106781186548 -0.707106781186548 1.95491892939961e-16
outer loop
vertex 24.8101280605346 3.38387193946542 0.0
vertex 23.495 2.37473868596881 -6.35
vertex 24.8101280605346 3.38387193946542 -6.35
endloop
endfacet
facet normal 0.5 -0.866025403784438 1.96093081011764e-16
outer loop
vertex 23.495 2.37473868596881 -6.35
vertex 24.8101280605346 3.38387193946542 0.0
vertex 23.495 2.37473868596882 0.0
endloop
endfacet
facet normal 0.5 0.866025403784439 -2.08995208615984e-16
outer loop
vertex 23.495 13.3732613140312 0.0
vertex 24.8101280605346 12.3641280605346 -6.35
vertex 23.495 13.3732613140312 -6.35
endloop
endfacet
facet normal 0.707106781186549 0.707106781186546 -3.51181795945172e-16
outer loop
vertex 24.8101280605346 12.3641280605346 -6.35
vertex 23.495 13.3732613140312 0.0
vertex 24.8101280605346 12.3641280605346 0.0
endloop
endfacet
facet normal -1.0 0.0 0.0
outer loop
vertex 20.32 68.58 40.64
vertex 20.32 62.23 2.54
vertex 20.32 62.23 40.64
endloop
endfacet
facet normal -1.0 0.0 0.0
outer loop
vertex 20.32 62.23 2.54
vertex 20.32 68.58 40.64
vertex 20.32 68.58 2.54
endloop
endfacet
facet normal -0.965925826289068 -0.258819045102522 -5.32951251094084e-17
outer loop
vertex 22.7734515987742 8.5314003745604 0.0
vertex 22.86 7.874 -6.35
vertex 22.86 7.874 0.0
endloop
endfacet
facet normal -1.0 1.13171095674716e-15 -1.18330484166063e-16
outer loop
vertex 22.86 7.874 -6.35
vertex 22.7734515987742 8.5314003745604 0.0
vertex 22.7734515987742 8.5314003745604 -6.35
endloop
endfacet
facet normal -1.0 0.0 0.0
outer loop
vertex 39.37 31.75 12.192
vertex 39.37 13.97 2.032
vertex 39.37 13.97 12.192
endloop
endfacet
facet normal -1.0 0.0 0.0
outer loop
vertex 39.37 13.97 2.032
vertex 39.37 31.75 12.192
vertex 39.37 31.75 2.032
endloop
endfacet
facet normal 1.0 0.0 0.0
outer loop
vertex 24.13 106.68 0.0
vertex 24.13 53.34 2.54
vertex 24.13 53.34 0.0
endloop
endfacet
facet normal 1.0 0.0 0.0
outer loop
vertex 24.13 53.34 2.54
vertex 24.13 106.68 0.0
vertex 24.13 106.68 2.54
endloop
endfacet
facet normal 0.0 0.0 1.0
outer loop
vertex 22.352 62.23 40.64
vertex 20.32 68.58 40.64
vertex 20.32 62.23 40.64
endloop
endfacet
facet normal 0.0 0.0 1.0
outer loop
vertex 20.32 68.58 40.64
vertex 22.352 62.23 40.64
vertex 22.352 68.58 40.64
endloop
endfacet
facet normal 0.707106781186547 -0.707106781186548 -2.35513868802566e-16
outer loop
vertex 18.5239487757862 9.67005122421383 -6.35
vertex 18.1202954743875 9.144 0.0
vertex 18.1202954743875 9.144 -6.35
endloop
endfacet
facet normal 0.866025403784437 -0.500000000000003 -2.02686874933844e-16
outer loop
vertex 18.1202954743875 9.144 0.0
vertex 18.5239487757862 9.67005122421383 -6.35
vertex 18.5239487757862 9.67005122421383 0.0
endloop
endfacet
facet normal 0.866025403784438 -0.500000000000001 9.39799791493294e-17
outer loop
vertex 25.8192613140312 4.699 -6.35
vertex 24.8101280605346 3.38387193946542 0.0
vertex 24.8101280605346 3.38387193946542 -6.35
endloop
endfacet
facet normal 0.707106781186548 -0.707106781186548 1.95491892939961e-16
outer loop
vertex 24.8101280605346 3.38387193946542 0.0
vertex 25.8192613140312 4.699 -6.35
vertex 25.8192613140312 4.699 0.0
endloop
endfacet
facet normal 1.0 1.8624219681902e-15 1.32495944784664e-15
outer loop
vertex 26.67 7.874 -6.35
vertex 26.4536289969356 6.23049906359899 0.0
vertex 26.4536289969356 6.23049906359899 -6.35
endloop
endfacet
facet normal 0.965925826289069 -0.258819045102519 5.01558582466926e-16
outer loop
vertex 26.4536289969356 6.23049906359899 0.0
vertex 26.67 7.874 -6.35
vertex 26.67 7.874 0.0
endloop
endfacet
facet normal -1.0 0.0 0.0
outer loop
vertex 16.51 106.68 2.54
vertex 16.51 53.34 0.0
vertex 16.51 53.34 2.54
endloop
endfacet
facet normal -1.0 0.0 0.0
outer loop
vertex 16.51 53.34 0.0
vertex 16.51 106.68 2.54
vertex 16.51 106.68 0.0
endloop
endfacet
facet normal -0.258819045102522 0.965925826289068 -5.17281580113625e-17
outer loop
vertex 20.9774003745604 5.42054840122577 0.0
vertex 21.59 5.67429547438753 -6.35
vertex 20.9774003745604 5.42054840122577 -6.35
endloop
endfacet
facet normal -0.499999999999999 0.866025403784439 -2.79788410664323e-17
outer loop
vertex 21.59 5.67429547438753 -6.35
vertex 20.9774003745604 5.42054840122577 0.0
vertex 21.59 5.67429547438753 0.0
endloop
endfacet
facet normal -0.965925826289069 -0.25881904510252 1.46163634070937e-17
outer loop
vertex 14.1863710030644 6.23049906359899 0.0
vertex 14.8207386859688 4.699 -6.35
vertex 14.8207386859688 4.699 0.0
endloop
endfacet
facet normal -0.866025403784439 -0.5 -8.88399526156314e-17
outer loop
vertex 14.8207386859688 4.699 -6.35
vertex 14.1863710030644 6.23049906359899 0.0
vertex 14.1863710030644 6.23049906359899 -6.35
endloop
endfacet
facet normal -0.5 -0.866025403784439 6.72928426390384e-17
outer loop
vertex 17.145 2.37473868596881 0.0
vertex 15.8298719394654 3.38387193946542 -6.35
vertex 17.145 2.37473868596881 -6.35
endloop
endfacet
facet normal -0.707106781186547 -0.707106781186548 -5.55249703847695e-17
outer loop
vertex 15.8298719394654 3.38387193946542 -6.35
vertex 17.145 2.37473868596881 0.0
vertex 15.8298719394654 3.38387193946542 0.0
endloop
endfacet
facet normal 0.258819045102521 0.965925826289068 2.68031548330893e-16
outer loop
vertex 21.963500936401 14.0076289969356 0.0
vertex 23.495 13.3732613140312 -6.35
vertex 21.963500936401 14.0076289969356 -6.35
endloop
endfacet
facet normal 0.5 0.866025403784439 -2.08995208615984e-16
outer loop
vertex 23.495 13.3732613140312 -6.35
vertex 21.963500936401 14.0076289969356 0.0
vertex 23.495 13.3732613140312 0.0
endloop
endfacet
facet normal 0.0 0.0 1.0
outer loop
vertex 16.51 53.34 2.54
vertex 20.32 62.23 2.54
vertex 16.51 106.68 2.54
endloop
endfacet
facet normal 0.0 0.0 1.0
outer loop
vertex 20.32 62.23 2.54
vertex 16.51 53.34 2.54
vertex 24.13 53.34 2.54
endloop
endfacet
facet normal 0.0 0.0 1.0
outer loop
vertex 20.32 62.23 2.54
vertex 24.13 53.34 2.54
vertex 22.352 62.23 2.54
endloop
endfacet
facet normal 0.0 0.0 1.0
outer loop
vertex 22.352 62.23 2.54
vertex 24.13 53.34 2.54
vertex 22.352 68.58 2.54
endloop
endfacet
facet normal 0.0 0.0 1.0
outer loop
vertex 22.352 68.58 2.54
vertex 24.13 53.34 2.54
vertex 22.352 100.33 2.54
endloop
endfacet
facet normal 0.0 0.0 1.0
outer loop
vertex 22.352 100.33 2.54
vertex 24.13 53.34 2.54
vertex 22.352 106.68 2.54
endloop
endfacet
facet normal 0.0 0.0 1.0
outer loop
vertex 22.352 106.68 2.54
vertex 24.13 53.34 2.54
vertex 24.13 106.68 2.54
endloop
endfacet
facet normal 0.0 0.0 1.0
outer loop
vertex 22.352 68.58 2.54
vertex 20.32 100.33 2.54
vertex 20.32 68.58 2.54
endloop
endfacet
facet normal 0.0 0.0 1.0
outer loop
vertex 20.32 100.33 2.54
vertex 22.352 68.58 2.54
vertex 22.352 100.33 2.54
endloop
endfacet
facet normal 0.0 0.0 1.0
outer loop
vertex 20.32 62.23 2.54
vertex 20.32 106.68 2.54
vertex 16.51 106.68 2.54
endloop
endfacet
facet normal 0.0 0.0 1.0
outer loop
vertex 20.32 106.68 2.54
vertex 20.32 62.23 2.54
vertex 20.32 68.58 2.54
endloop
endfacet
facet normal 0.0 0.0 1.0
outer loop
vertex 20.32 106.68 2.54
vertex 20.32 68.58 2.54
vertex 20.32 100.33 2.54
endloop
endfacet
facet normal 0.0 1.0 0.0
outer loop
vertex 0.0 53.34 12.192
vertex 16.51 53.34 0.0
vertex 0.0 53.34 0.0
endloop
endfacet
facet normal 0.0 1.0 0.0
outer loop
vertex 16.51 53.34 0.0
vertex 0.0 53.34 12.192
vertex 16.51 53.34 2.54
endloop
endfacet
facet normal 0.0 1.0 0.0
outer loop
vertex 16.51 53.34 2.54
vertex 0.0 53.34 12.192
vertex 24.13 53.34 2.54
endloop
endfacet
facet normal 0.0 1.0 0.0
outer loop
vertex 24.13 53.34 2.54
vertex 40.64 53.34 0.0
vertex 24.13 53.34 0.0
endloop
endfacet
facet normal 0.0 1.0 0.0
outer loop
vertex 40.64 53.34 0.0
vertex 24.13 53.34 2.54
vertex 40.64 53.34 12.192
endloop
endfacet
facet normal 0.0 1.0 0.0
outer loop
vertex 40.64 53.34 12.192
vertex 24.13 53.34 2.54
vertex 0.0 53.34 12.192
endloop
endfacet
facet normal -0.707106781186547 0.707106781186548 -1.30181271341403e-16
outer loop
vertex 15.8298719394654 12.3641280605346 0.0
vertex 17.145 13.3732613140312 -6.35
vertex 15.8298719394654 12.3641280605346 -6.35
endloop
endfacet
facet normal -0.499999999999999 0.86602540378444 -1.00432935054729e-16
outer loop
vertex 17.145 13.3732613140312 -6.35
vertex 15.8298719394654 12.3641280605346 0.0
vertex 17.145 13.3732613140312 0.0
endloop
endfacet
facet normal 0.0 1.0 0.0
outer loop
vertex 25.4 1.27 2.0574
vertex 40.64 1.27 12.192
vertex 40.64 1.27 2.032
endloop
endfacet
facet normal 0.0 1.0 0.0
outer loop
vertex 40.64 1.27 12.192
vertex 25.4 1.27 2.0574
vertex 25.4 1.27 12.192
endloop
endfacet
facet normal -2.13866637495526e-16 1.0 4.44089209850063e-16
outer loop
vertex 20.32 14.224 0.0
vertex 21.963500936401 14.0076289969356 -6.35
vertex 20.32 14.224 -6.35
endloop
endfacet
facet normal 0.258819045102521 0.965925826289068 2.68031548330893e-16
outer loop
vertex 21.963500936401 14.0076289969356 -6.35
vertex 20.32 14.224 0.0
vertex 21.963500936401 14.0076289969356 0.0
endloop
endfacet
facet normal -1.0 -1.07824429737328e-15 -2.22044604925031e-16
outer loop
vertex 13.97 7.874 0.0
vertex 14.1863710030644 6.23049906359899 -6.35
vertex 14.1863710030644 6.23049906359899 0.0
endloop
endfacet
facet normal -0.965925826289069 -0.25881904510252 1.46163634070937e-17
outer loop
vertex 14.1863710030644 6.23049906359899 -6.35
vertex 13.97 7.874 0.0
vertex 13.97 7.874 -6.35
endloop
endfacet
facet normal 0.707106781186547 0.707106781186548 -6.09126211533486e-17
outer loop
vertex 18.5239487757862 6.07794877578616 0.0
vertex 19.05 5.67429547438753 -6.35
vertex 18.5239487757862 6.07794877578617 -6.35
endloop
endfacet
facet normal 0.5 0.866025403784439 1.74140914790778e-16
outer loop
vertex 19.05 5.67429547438753 -6.35
vertex 18.5239487757862 6.07794877578616 0.0
vertex 19.05 5.67429547438752 0.0
endloop
endfacet
facet normal -1.47675975838252e-19 -6.80272107269377e-05 -0.999999997686149
outer loop
vertex 24.13 106.68 0.0
vertex 16.51 53.34 0.0
vertex 16.51 106.68 0.0
endloop
endfacet
facet normal -1.47675975838252e-19 -6.80272107269377e-05 -0.999999997686149
outer loop
vertex 16.51 53.34 0.0
vertex 24.13 106.68 0.0
vertex 17.145 13.3732613140312 0.0
endloop
endfacet
facet normal -1.47675975838252e-19 -6.80272107269377e-05 -0.999999997686149
outer loop
vertex 17.145 13.3732613140312 0.0
vertex 24.13 106.68 0.0
vertex 18.676499063599 14.0076289969356 0.0
endloop
endfacet
facet normal -1.47675975838252e-19 -6.80272107269377e-05 -0.999999997686149
outer loop
vertex 18.676499063599 14.0076289969356 0.0
vertex 24.13 106.68 0.0
vertex 20.32 14.224 0.0
endloop
endfacet
facet normal -1.47675975838252e-19 -6.80272107269377e-05 -0.999999997686149
outer loop
vertex 20.32 14.224 0.0
vertex 24.13 106.68 0.0
vertex 21.963500936401 14.0076289969356 0.0
endloop
endfacet
facet normal -1.47675975838252e-19 -6.80272107269377e-05 -0.999999997686149
outer loop
vertex 21.963500936401 14.0076289969356 0.0
vertex 24.13 106.68 0.0
vertex 23.495 13.3732613140312 0.0
endloop
endfacet
facet normal -1.47675975838252e-19 -6.80272107269377e-05 -0.999999997686149
outer loop
vertex 23.495 13.3732613140312 0.0
vertex 24.13 106.68 0.0
vertex 24.13 53.34 0.0
endloop
endfacet
facet normal -1.47675975838252e-19 -6.80272107269377e-05 -0.999999997686149
outer loop
vertex 23.495 13.3732613140312 0.0
vertex 24.13 53.34 0.0
vertex 24.8101280605346 12.3641280605346 0.0
endloop
endfacet
facet normal -1.47675975838252e-19 -6.80272107269377e-05 -0.999999997686149
outer loop
vertex 24.8101280605346 12.3641280605346 0.0
vertex 24.13 53.34 0.0
vertex 40.64 53.34 0.0
endloop
endfacet
facet normal -1.47675975838252e-19 -6.80272107269377e-05 -0.999999997686149
outer loop
vertex 24.8101280605346 12.3641280605346 0.0
vertex 40.64 53.34 0.0
vertex 25.8192613140312 11.049 0.0
endloop
endfacet
facet normal -1.47675975838252e-19 -6.80272107269377e-05 -0.999999997686149
outer loop
vertex 25.8192613140312 11.049 0.0
vertex 40.64 53.34 0.0
vertex 26.4536289969356 9.51750093640101 0.0
endloop
endfacet
facet normal -1.47675975838252e-19 -6.80272107269377e-05 -0.999999997686149
outer loop
vertex 26.4536289969356 9.51750093640101 0.0
vertex 40.64 53.34 0.0
vertex 26.67 7.874 0.0
endloop
endfacet
facet normal -1.47675975838252e-19 -6.80272107269377e-05 -0.999999997686149
outer loop
vertex 0.0 0.0 0.0
vertex 14.1863710030644 6.23049906359899 0.0
vertex 15.24 0.0 0.0126999999999986
endloop
endfacet
facet normal -1.47675975838252e-19 -6.80272107269377e-05 -0.999999997686149
outer loop
vertex 14.1863710030644 6.23049906359899 0.0
vertex 0.0 0.0 0.0
vertex 13.97 7.874 0.0
endloop
endfacet
facet normal -1.47675975838252e-19 -6.80272107269377e-05 -0.999999997686149
outer loop
vertex 15.24 0.0 0.0126999999999986
vertex 14.1863710030644 6.23049906359899 0.0
vertex 14.8207386859688 4.699 0.0
endloop
endfacet
facet normal -1.47675975838252e-19 -6.80272107269377e-05 -0.999999997686149
outer loop
vertex 15.24 0.0 0.0126999999999986
vertex 14.8207386859688 4.699 0.0
vertex 15.8298719394654 3.38387193946542 0.0
endloop
endfacet
facet normal -1.47675975838252e-19 -6.80272107269377e-05 -0.999999997686149
outer loop
vertex 15.24 0.0 0.0126999999999986
vertex 15.8298719394654 3.38387193946542 0.0
vertex 17.145 2.37473868596881 0.0
endloop
endfacet
facet normal -1.47675975838252e-19 -6.80272107269377e-05 -0.999999997686149
outer loop
vertex 15.24 0.0 0.0126999999999986
vertex 17.145 2.37473868596881 0.0
vertex 18.676499063599 1.74037100306442 0.0
endloop
endfacet
facet normal -1.47675975838252e-19 -6.80272107269377e-05 -0.999999997686149
outer loop
vertex 15.24 0.0 0.0126999999999986
vertex 18.676499063599 1.74037100306442 0.0
vertex 25.4 0.0 0.0126999999999986
endloop
endfacet
facet normal -1.47675975838252e-19 -6.80272107269377e-05 -0.999999997686149
outer loop
vertex 25.4 0.0 0.0126999999999986
vertex 18.676499063599 1.74037100306442 0.0
vertex 20.32 1.524 0.0
endloop
endfacet
facet normal -1.47675975838252e-19 -6.80272107269377e-05 -0.999999997686149
outer loop
vertex 25.4 0.0 0.0126999999999986
vertex 20.32 1.524 0.0
vertex 21.963500936401 1.74037100306442 0.0
endloop
endfacet
facet normal -1.47675975838252e-19 -6.80272107269377e-05 -0.999999997686149
outer loop
vertex 25.4 0.0 0.0126999999999986
vertex 21.963500936401 1.74037100306442 0.0
vertex 23.495 2.37473868596882 0.0
endloop
endfacet
facet normal -1.47675975838252e-19 -6.80272107269377e-05 -0.999999997686149
outer loop
vertex 25.4 0.0 0.0126999999999986
vertex 23.495 2.37473868596882 0.0
vertex 24.8101280605346 3.38387193946542 0.0
endloop
endfacet
facet normal -1.47675975838252e-19 -6.80272107269377e-05 -0.999999997686149
outer loop
vertex 25.4 0.0 0.0126999999999986
vertex 24.8101280605346 3.38387193946542 0.0
vertex 25.8192613140312 4.699 0.0
endloop
endfacet
facet normal -1.47675975838252e-19 -6.80272107269377e-05 -0.999999997686149
outer loop
vertex 25.4 0.0 0.0126999999999986
vertex 25.8192613140312 4.699 0.0
vertex 40.64 0.0 0.0
endloop
endfacet
facet normal -1.47675975838252e-19 -6.80272107269377e-05 -0.999999997686149
outer loop
vertex 40.64 0.0 0.0
vertex 25.8192613140312 4.699 0.0
vertex 26.4536289969356 6.23049906359899 0.0
endloop
endfacet
facet normal -1.47675975838252e-19 -6.80272107269377e-05 -0.999999997686149
outer loop
vertex 40.64 0.0 0.0
vertex 26.4536289969356 6.23049906359899 0.0
vertex 26.67 7.874 0.0
endloop
endfacet
facet normal -1.47675975838252e-19 -6.80272107269377e-05 -0.999999997686149
outer loop
vertex 40.64 0.0 0.0
vertex 26.67 7.874 0.0
vertex 40.64 53.34 0.0
endloop
endfacet
facet normal -1.47675975838252e-19 -6.80272107269377e-05 -0.999999997686149
outer loop
vertex 16.51 53.34 0.0
vertex 0.0 0.0 0.0
vertex 0.0 53.34 0.0
endloop
endfacet
facet normal -1.47675975838252e-19 -6.80272107269377e-05 -0.999999997686149
outer loop
vertex 0.0 0.0 0.0
vertex 16.51 53.34 0.0
vertex 13.97 7.874 0.0
endloop
endfacet
facet normal -1.47675975838252e-19 -6.80272107269377e-05 -0.999999997686149
outer loop
vertex 13.97 7.874 0.0
vertex 16.51 53.34 0.0
vertex 14.1863710030644 9.51750093640101 0.0
endloop
endfacet
facet normal -1.47675975838252e-19 -6.80272107269377e-05 -0.999999997686149
outer loop
vertex 14.1863710030644 9.51750093640101 0.0
vertex 16.51 53.34 0.0
vertex 14.8207386859688 11.049 0.0
endloop
endfacet
facet normal -1.47675975838252e-19 -6.80272107269377e-05 -0.999999997686149
outer loop
vertex 14.8207386859688 11.049 0.0
vertex 16.51 53.34 0.0
vertex 15.8298719394654 12.3641280605346 0.0
endloop
endfacet
facet normal -1.47675975838252e-19 -6.80272107269377e-05 -0.999999997686149
outer loop
vertex 15.8298719394654 12.3641280605346 0.0
vertex 16.51 53.34 0.0
vertex 17.145 13.3732613140312 0.0
endloop
endfacet
facet normal -0.707106781186547 0.707106781186548 -1.30181271341403e-16
outer loop
vertex 15.8298719394654 12.3641280605346 0.0
vertex 14.8207386859688 11.049 -6.35
vertex 14.8207386859688 11.049 0.0
endloop
endfacet
facet normal -0.866025403784438 0.500000000000001 -2.75837770540196e-16
outer loop
vertex 14.8207386859688 11.049 -6.35
vertex 15.8298719394654 12.3641280605346 0.0
vertex 15.8298719394654 12.3641280605346 -6.35
endloop
endfacet
facet normal 0.965925826289068 0.258819045102522 1.03714120758969e-16
outer loop
vertex 17.8665484012258 7.2165996254396 -6.35
vertex 18.1202954743875 6.604 0.0
vertex 18.1202954743875 6.604 -6.35
endloop
endfacet
facet normal 0.866025403784438 0.500000000000001 -9.60966247150283e-17
outer loop
vertex 18.1202954743875 6.604 0.0
vertex 17.8665484012258 7.2165996254396 -6.35
vertex 17.8665484012258 7.2165996254396 0.0
endloop
endfacet
facet normal 0.0 0.0 1.0
outer loop
vertex 22.352 100.33 40.64
vertex 20.32 106.68 40.64
vertex 20.32 100.33 40.64
endloop
endfacet
facet normal 0.0 0.0 1.0
outer loop
vertex 20.32 106.68 40.64
vertex 22.352 100.33 40.64
vertex 22.352 106.68 40.64
endloop
endfacet
facet normal -0.866025403784438 0.500000000000001 -2.75837770540196e-16
outer loop
vertex 14.8207386859688 11.049 0.0
vertex 14.1863710030644 9.51750093640101 -6.35
vertex 14.1863710030644 9.51750093640101 0.0
endloop
endfacet
facet normal -0.965925826289068 0.258819045102521 -4.6500010498246e-16
outer loop
vertex 14.1863710030644 9.51750093640101 -6.35
vertex 14.8207386859688 11.049 0.0
vertex 14.8207386859688 11.049 -6.35
endloop
endfacet
facet normal 0.707106781186549 0.707106781186546 -3.51181795945172e-16
outer loop
vertex 24.8101280605346 12.3641280605346 -6.35
vertex 25.8192613140312 11.049 0.0
vertex 25.8192613140312 11.049 -6.35
endloop
endfacet
facet normal 0.866025403784439 0.499999999999999 4.53448597200577e-16
outer loop
vertex 25.8192613140312 11.049 0.0
vertex 24.8101280605346 12.3641280605346 -6.35
vertex 24.8101280605346 12.3641280605346 0.0
endloop
endfacet
facet normal 0.0 -1.0 0.0
outer loop
vertex 40.64 52.07 2.032
vertex 1.27 52.07 12.192
vertex 1.27 52.07 2.032
endloop
endfacet
facet normal 0.0 -1.0 0.0
outer loop
vertex 1.27 52.07 12.192
vertex 40.64 52.07 2.032
vertex 40.64 52.07 12.192
endloop
endfacet
facet normal -9.17844319251631e-16 1.0 9.64059390554221e-17
outer loop
vertex 20.32 5.334 0.0
vertex 20.9774003745604 5.42054840122577 -6.35
vertex 20.32 5.334 -6.35
endloop
endfacet
facet normal -0.258819045102522 0.965925826289068 -5.17281580113625e-17
outer loop
vertex 20.9774003745604 5.42054840122577 -6.35
vertex 20.32 5.334 0.0
vertex 20.9774003745604 5.42054840122577 0.0
endloop
endfacet
facet normal 0.25881904510252 -0.965925826289069 2.01037967888635e-16
outer loop
vertex 19.6625996254396 10.3274515987742 0.0
vertex 19.05 10.0737045256125 -6.35
vertex 19.6625996254396 10.3274515987742 -6.35
endloop
endfacet
facet normal 0.5 -0.866025403784439 2.77763129442356e-17
outer loop
vertex 19.05 10.0737045256125 -6.35
vertex 19.6625996254396 10.3274515987742 0.0
vertex 19.05 10.0737045256125 0.0
endloop
endfacet
facet normal -0.499999999999999 0.866025403784439 -1.00432935054729e-16
outer loop
vertex 17.145 13.3732613140312 0.0
vertex 18.676499063599 14.0076289969356 -6.35
vertex 17.145 13.3732613140312 -6.35
endloop
endfacet
facet normal -0.25881904510252 0.965925826289069 2.18910670728939e-16
outer loop
vertex 18.676499063599 14.0076289969356 -6.35
vertex 17.145 13.3732613140312 0.0
vertex 18.676499063599 14.0076289969356 0.0
endloop
endfacet
facet normal -3.7426661561717e-16 -1.0 -1.09545151263958e-16
outer loop
vertex 20.32 1.524 0.0
vertex 18.676499063599 1.74037100306442 -6.35
vertex 20.32 1.524 -6.35
endloop
endfacet
facet normal -0.258819045102521 -0.965925826289068 3.61935872060137e-17
outer loop
vertex 18.676499063599 1.74037100306442 -6.35
vertex 20.32 1.524 0.0
vertex 18.676499063599 1.74037100306442 0.0
endloop
endfacet
facet normal 0.25881904510252 0.965925826289069 2.3536285028452e-16
outer loop
vertex 19.6625996254396 5.42054840122577 0.0
vertex 20.32 5.334 -6.35
vertex 19.6625996254396 5.42054840122577 -6.35
endloop
endfacet
facet normal -9.17844319251631e-16 1.0 9.64059390554221e-17
outer loop
vertex 20.32 5.334 -6.35
vertex 19.6625996254396 5.42054840122577 0.0
vertex 20.32 5.334 0.0
endloop
endfacet
facet normal -0.965925826289068 -0.258819045102522 -5.32951251094084e-17
outer loop
vertex 22.7734515987742 8.5314003745604 0.0
vertex 22.5197045256125 9.144 -6.35
vertex 22.7734515987742 8.5314003745604 -6.35
endloop
endfacet
facet normal -0.866025403784439 -0.499999999999999 -1.70113918791473e-16
outer loop
vertex 22.5197045256125 9.144 -6.35
vertex 22.7734515987742 8.5314003745604 0.0
vertex 22.5197045256125 9.144 0.0
endloop
endfacet
facet normal -5.88133253112696e-16 -1.0 2.7755575615629e-16
outer loop
vertex 20.32 10.414 0.0
vertex 19.6625996254396 10.3274515987742 -6.35
vertex 20.32 10.414 -6.35
endloop
endfacet
facet normal 0.25881904510252 -0.965925826289068 2.01037967888635e-16
outer loop
vertex 19.6625996254396 10.3274515987742 -6.35
vertex 20.32 10.414 0.0
vertex 19.6625996254396 10.3274515987742 0.0
endloop
endfacet
facet normal 0.866025403784437 -0.500000000000003 -2.02686874933844e-16
outer loop
vertex 18.1202954743875 9.144 -6.35
vertex 17.8665484012258 8.53140037456041 0.0
vertex 17.8665484012258 8.5314003745604 -6.35
endloop
endfacet
facet normal 0.965925826289068 -0.258819045102524 2.26218852432487e-16
outer loop
vertex 17.8665484012258 8.53140037456041 0.0
vertex 18.1202954743875 9.144 -6.35
vertex 18.1202954743875 9.144 0.0
endloop
endfacet
facet normal -1.0 1.13171095674716e-15 -1.18330484166063e-16
outer loop
vertex 22.86 7.874 0.0
vertex 22.7734515987742 7.2165996254396 -6.35
vertex 22.7734515987742 7.2165996254396 0.0
endloop
endfacet
facet normal -0.965925826289069 0.25881904510252 -1.89918179684263e-16
outer loop
vertex 22.7734515987742 7.2165996254396 -6.35
vertex 22.86 7.874 0.0
vertex 22.86 7.874 -6.35
endloop
endfacet
facet normal -1.0 0.0 0.0
outer loop
vertex 0.0 53.34 12.192
vertex 0.0 0.0 0.0
vertex 0.0 0.0 12.192
endloop
endfacet
facet normal -1.0 0.0 0.0
outer loop
vertex 0.0 0.0 0.0
vertex 0.0 53.34 12.192
vertex 0.0 53.34 0.0
endloop
endfacet
facet normal 0.0 1.0 0.0
outer loop
vertex 20.32 106.68 40.64
vertex 22.352 106.68 2.54
vertex 20.32 106.68 2.54
endloop
endfacet
facet normal 0.0 1.0 0.0
outer loop
vertex 22.352 106.68 2.54
vertex 20.32 106.68 40.64
vertex 22.352 106.68 40.64
endloop
endfacet
facet normal 0.0 1.0 0.0
outer loop
vertex 16.51 106.68 2.54
vertex 24.13 106.68 0.0
vertex 16.51 106.68 0.0
endloop
endfacet
facet normal 0.0 1.0 0.0
outer loop
vertex 24.13 106.68 0.0
vertex 16.51 106.68 2.54
vertex 24.13 106.68 2.54
endloop
endfacet
facet normal 0.0 1.0 0.0
outer loop
vertex 24.13 106.68 2.54
vertex 16.51 106.68 2.54
vertex 20.32 106.68 2.54
endloop
endfacet
facet normal 0.0 1.0 0.0
outer loop
vertex 24.13 106.68 2.54
vertex 20.32 106.68 2.54
vertex 22.352 106.68 2.54
endloop
endfacet
facet normal 0.0 1.0 0.0
outer loop
vertex 20.32 68.58 40.64
vertex 22.352 68.58 2.54
vertex 20.32 68.58 2.54
endloop
endfacet
facet normal 0.0 1.0 0.0
outer loop
vertex 22.352 68.58 2.54
vertex 20.32 68.58 40.64
vertex 22.352 68.58 40.64
endloop
endfacet
facet normal -1.0 8.0995811217212e-16 5.55100737841735e-15
outer loop
vertex 15.24 0.0 2.0574
vertex 15.24 -13.97 0.0253999999999958
vertex 15.24 -13.97 2.0574
endloop
endfacet
facet normal -1.0 8.0995811217212e-16 5.55100737841735e-15
outer loop
vertex 15.24 -13.97 0.0253999999999958
vertex 15.24 0.0 2.0574
vertex 15.24 0.0 0.0126999999999986
endloop
endfacet
facet normal 1.0 0.0 0.0
outer loop
vertex 22.352 68.58 2.54
vertex 22.352 62.23 40.64
vertex 22.352 62.23 2.54
endloop
endfacet
facet normal 1.0 0.0 0.0
outer loop
vertex 22.352 62.23 40.64
vertex 22.352 68.58 2.54
vertex 22.352 68.58 40.64
endloop
endfacet
facet normal 0.5 -0.866025403784439 2.77763129442357e-17
outer loop
vertex 19.05 10.0737045256125 0.0
vertex 18.5239487757862 9.67005122421383 -6.35
vertex 19.05 10.0737045256125 -6.35
endloop
endfacet
facet normal 0.707106781186547 -0.707106781186548 -2.35513868802566e-16
outer loop
vertex 18.5239487757862 9.67005122421383 -6.35
vertex 19.05 10.0737045256125 0.0
vertex 18.5239487757862 9.67005122421383 0.0
endloop
endfacet
facet normal 1.0 1.20299983591233e-15 3.4768327079464e-16
outer loop
vertex 17.78 7.874 -6.35
vertex 17.8665484012258 7.2165996254396 0.0
vertex 17.8665484012258 7.2165996254396 -6.35
endloop
endfacet
facet normal 0.965925826289068 0.258819045102522 1.03714120758969e-16
outer loop
vertex 17.8665484012258 7.2165996254396 0.0
vertex 17.78 7.874 -6.35
vertex 17.78 7.874 0.0
endloop
endfacet
facet normal 0.965925826289069 -0.25881904510252 5.01558582466926e-16
outer loop
vertex 26.4536289969356 6.23049906359899 -6.35
vertex 25.8192613140312 4.699 0.0
vertex 25.8192613140312 4.699 -6.35
endloop
endfacet
facet normal 0.866025403784438 -0.500000000000001 9.39799791493294e-17
outer loop
vertex 25.8192613140312 4.699 0.0
vertex 26.4536289969356 6.23049906359899 -6.35
vertex 26.4536289969356 6.23049906359899 0.0
endloop
endfacet
facet normal -0.707106781186547 -0.707106781186548 -5.55249703847695e-17
outer loop
vertex 15.8298719394654 3.38387193946542 0.0
vertex 14.8207386859688 4.699 -6.35
vertex 15.8298719394654 3.38387193946542 -6.35
endloop
endfacet
facet normal -0.866025403784439 -0.5 -8.88399526156314e-17
outer loop
vertex 14.8207386859688 4.699 -6.35
vertex 15.8298719394654 3.38387193946542 0.0
vertex 14.8207386859688 4.699 0.0
endloop
endfacet
facet normal 0.0 0.0 -1.0
outer loop
vertex 17.145 13.3732613140312 -6.35
vertex 17.8665484012258 8.5314003745604 -6.35
vertex 17.78 7.874 -6.35
endloop
endfacet
facet normal 0.0 0.0 -1.0
outer loop
vertex 17.8665484012258 8.5314003745604 -6.35
vertex 17.145 13.3732613140312 -6.35
vertex 18.676499063599 14.0076289969356 -6.35
endloop
endfacet
facet normal 0.0 0.0 -1.0
outer loop
vertex 17.8665484012258 8.5314003745604 -6.35
vertex 18.676499063599 14.0076289969356 -6.35
vertex 18.1202954743875 9.144 -6.35
endloop
endfacet
facet normal 0.0 0.0 -1.0
outer loop
vertex 18.1202954743875 9.144 -6.35
vertex 18.676499063599 14.0076289969356 -6.35
vertex 18.5239487757862 9.67005122421383 -6.35
endloop
endfacet
facet normal 0.0 0.0 -1.0
outer loop
vertex 18.5239487757862 9.67005122421383 -6.35
vertex 18.676499063599 14.0076289969356 -6.35
vertex 19.05 10.0737045256125 -6.35
endloop
endfacet
facet normal 0.0 0.0 -1.0
outer loop
vertex 19.05 10.0737045256125 -6.35
vertex 18.676499063599 14.0076289969356 -6.35
vertex 20.32 14.224 -6.35
endloop
endfacet
facet normal 0.0 0.0 -1.0
outer loop
vertex 19.05 10.0737045256125 -6.35
vertex 20.32 14.224 -6.35
vertex 19.6625996254396 10.3274515987742 -6.35
endloop
endfacet
facet normal 0.0 0.0 -1.0
outer loop
vertex 19.6625996254396 10.3274515987742 -6.35
vertex 20.32 14.224 -6.35
vertex 20.32 10.414 -6.35
endloop
endfacet
facet normal 0.0 0.0 -1.0
outer loop
vertex 20.32 10.414 -6.35
vertex 20.32 14.224 -6.35
vertex 21.963500936401 14.0076289969356 -6.35
endloop
endfacet
facet normal 0.0 0.0 -1.0
outer loop
vertex 20.32 10.414 -6.35
vertex 21.963500936401 14.0076289969356 -6.35
vertex 20.9774003745604 10.3274515987742 -6.35
endloop
endfacet
facet normal 0.0 0.0 -1.0
outer loop
vertex 20.9774003745604 10.3274515987742 -6.35
vertex 21.963500936401 14.0076289969356 -6.35
vertex 21.59 10.0737045256125 -6.35
endloop
endfacet
facet normal 0.0 0.0 -1.0
outer loop
vertex 21.59 10.0737045256125 -6.35
vertex 21.963500936401 14.0076289969356 -6.35
vertex 22.1160512242138 9.67005122421383 -6.35
endloop
endfacet
facet normal 0.0 0.0 -1.0
outer loop
vertex 22.1160512242138 9.67005122421383 -6.35
vertex 21.963500936401 14.0076289969356 -6.35
vertex 23.495 13.3732613140312 -6.35
endloop
endfacet
facet normal 0.0 0.0 -1.0
outer loop
vertex 22.1160512242138 9.67005122421383 -6.35
vertex 23.495 13.3732613140312 -6.35
vertex 22.5197045256125 9.144 -6.35
endloop
endfacet
facet normal 0.0 0.0 -1.0
outer loop
vertex 22.5197045256125 9.144 -6.35
vertex 23.495 13.3732613140312 -6.35
vertex 22.7734515987742 8.5314003745604 -6.35
endloop
endfacet
facet normal 0.0 0.0 -1.0
outer loop
vertex 22.7734515987742 8.5314003745604 -6.35
vertex 23.495 13.3732613140312 -6.35
vertex 22.86 7.874 -6.35
endloop
endfacet
facet normal 0.0 0.0 -1.0
outer loop
vertex 22.86 7.874 -6.35
vertex 23.495 13.3732613140312 -6.35
vertex 23.495 2.37473868596881 -6.35
endloop
endfacet
facet normal 0.0 0.0 -1.0
outer loop
vertex 23.495 2.37473868596881 -6.35
vertex 23.495 13.3732613140312 -6.35
vertex 24.8101280605346 3.38387193946542 -6.35
endloop
endfacet
facet normal 0.0 0.0 -1.0
outer loop
vertex 24.8101280605346 3.38387193946542 -6.35
vertex 23.495 13.3732613140312 -6.35
vertex 24.8101280605346 12.3641280605346 -6.35
endloop
endfacet
facet normal 0.0 0.0 -1.0
outer loop
vertex 24.8101280605346 3.38387193946542 -6.35
vertex 24.8101280605346 12.3641280605346 -6.35
vertex 25.8192613140312 4.699 -6.35
endloop
endfacet
facet normal 0.0 0.0 -1.0
outer loop
vertex 25.8192613140312 4.699 -6.35
vertex 24.8101280605346 12.3641280605346 -6.35
vertex 25.8192613140312 11.049 -6.35
endloop
endfacet
facet normal 0.0 0.0 -1.0
outer loop
vertex 25.8192613140312 4.699 -6.35
vertex 25.8192613140312 11.049 -6.35
vertex 26.4536289969356 9.517500936401 -6.35
endloop
endfacet
facet normal 0.0 0.0 -1.0
outer loop
vertex 25.8192613140312 4.699 -6.35
vertex 26.4536289969356 9.517500936401 -6.35
vertex 26.4536289969356 6.23049906359899 -6.35
endloop
endfacet
facet normal 0.0 0.0 -1.0
outer loop
vertex 26.4536289969356 6.23049906359899 -6.35
vertex 26.4536289969356 9.517500936401 -6.35
vertex 26.67 7.874 -6.35
endloop
endfacet
facet normal 0.0 0.0 -1.0
outer loop
vertex 14.1863710030644 9.51750093640101 -6.35
vertex 14.1863710030644 6.23049906359899 -6.35
vertex 13.97 7.874 -6.35
endloop
endfacet
facet normal 0.0 0.0 -1.0
outer loop
vertex 14.1863710030644 6.23049906359899 -6.35
vertex 14.1863710030644 9.51750093640101 -6.35
vertex 14.8207386859688 11.049 -6.35
endloop
endfacet
facet normal 0.0 0.0 -1.0
outer loop
vertex 14.1863710030644 6.23049906359899 -6.35
vertex 14.8207386859688 11.049 -6.35
vertex 14.8207386859688 4.699 -6.35
endloop
endfacet
facet normal 0.0 0.0 -1.0
outer loop
vertex 14.8207386859688 4.699 -6.35
vertex 14.8207386859688 11.049 -6.35
vertex 15.8298719394654 3.38387193946542 -6.35
endloop
endfacet
facet normal 0.0 0.0 -1.0
outer loop
vertex 15.8298719394654 3.38387193946542 -6.35
vertex 14.8207386859688 11.049 -6.35
vertex 15.8298719394654 12.3641280605346 -6.35
endloop
endfacet
facet normal 0.0 0.0 -1.0
outer loop
vertex 15.8298719394654 3.38387193946542 -6.35
vertex 15.8298719394654 12.3641280605346 -6.35
vertex 17.145 13.3732613140312 -6.35
endloop
endfacet
facet normal 0.0 0.0 -1.0
outer loop
vertex 15.8298719394654 3.38387193946542 -6.35
vertex 17.145 13.3732613140312 -6.35
vertex 17.145 2.37473868596881 -6.35
endloop
endfacet
facet normal 0.0 0.0 -1.0
outer loop
vertex 17.145 2.37473868596881 -6.35
vertex 17.145 13.3732613140312 -6.35
vertex 17.78 7.874 -6.35
endloop
endfacet
facet normal 0.0 0.0 -1.0
outer loop
vertex 17.145 2.37473868596881 -6.35
vertex 17.78 7.874 -6.35
vertex 17.8665484012258 7.2165996254396 -6.35
endloop
endfacet
facet normal 0.0 0.0 -1.0
outer loop
vertex 17.145 2.37473868596881 -6.35
vertex 17.8665484012258 7.2165996254396 -6.35
vertex 18.676499063599 1.74037100306442 -6.35
endloop
endfacet
facet normal 0.0 0.0 -1.0
outer loop
vertex 18.676499063599 1.74037100306442 -6.35
vertex 17.8665484012258 7.2165996254396 -6.35
vertex 18.1202954743875 6.604 -6.35
endloop
endfacet
facet normal 0.0 0.0 -1.0
outer loop
vertex 18.676499063599 1.74037100306442 -6.35
vertex 18.1202954743875 6.604 -6.35
vertex 18.5239487757862 6.07794877578617 -6.35
endloop
endfacet
facet normal 0.0 0.0 -1.0
outer loop
vertex 18.676499063599 1.74037100306442 -6.35
vertex 18.5239487757862 6.07794877578617 -6.35
vertex 19.05 5.67429547438753 -6.35
endloop
endfacet
facet normal 0.0 0.0 -1.0
outer loop
vertex 18.676499063599 1.74037100306442 -6.35
vertex 19.05 5.67429547438753 -6.35
vertex 20.32 1.524 -6.35
endloop
endfacet
facet normal 0.0 0.0 -1.0
outer loop
vertex 20.32 1.524 -6.35
vertex 19.05 5.67429547438753 -6.35
vertex 19.6625996254396 5.42054840122577 -6.35
endloop
endfacet
facet normal 0.0 0.0 -1.0
outer loop
vertex 20.32 1.524 -6.35
vertex 19.6625996254396 5.42054840122577 -6.35
vertex 20.32 5.334 -6.35
endloop
endfacet
facet normal 0.0 0.0 -1.0
outer loop
vertex 20.32 1.524 -6.35
vertex 20.32 5.334 -6.35
vertex 20.9774003745604 5.42054840122577 -6.35
endloop
endfacet
facet normal 0.0 0.0 -1.0
outer loop
vertex 20.32 1.524 -6.35
vertex 20.9774003745604 5.42054840122577 -6.35
vertex 21.963500936401 1.74037100306442 -6.35
endloop
endfacet
facet normal 0.0 0.0 -1.0
outer loop
vertex 21.963500936401 1.74037100306442 -6.35
vertex 20.9774003745604 5.42054840122577 -6.35
vertex 21.59 5.67429547438753 -6.35
endloop
endfacet
facet normal 0.0 0.0 -1.0
outer loop
vertex 21.963500936401 1.74037100306442 -6.35
vertex 21.59 5.67429547438753 -6.35
vertex 22.1160512242138 6.07794877578617 -6.35
endloop
endfacet
facet normal 0.0 0.0 -1.0
outer loop
vertex 21.963500936401 1.74037100306442 -6.35
vertex 22.1160512242138 6.07794877578617 -6.35
vertex 23.495 2.37473868596881 -6.35
endloop
endfacet
facet normal 0.0 0.0 -1.0
outer loop
vertex 23.495 2.37473868596881 -6.35
vertex 22.1160512242138 6.07794877578617 -6.35
vertex 22.5197045256125 6.604 -6.35
endloop
endfacet
facet normal 0.0 0.0 -1.0
outer loop
vertex 23.495 2.37473868596881 -6.35
vertex 22.5197045256125 6.604 -6.35
vertex 22.7734515987742 7.2165996254396 -6.35
endloop
endfacet
facet normal 0.0 0.0 -1.0
outer loop
vertex 23.495 2.37473868596881 -6.35
vertex 22.7734515987742 7.2165996254396 -6.35
vertex 22.86 7.874 -6.35
endloop
endfacet
facet normal 0.0 1.0 0.0
outer loop
vertex 1.27 1.27 12.192
vertex 15.24 1.27 2.0574
vertex 1.27 1.27 2.032
endloop
endfacet
facet normal 0.0 1.0 0.0
outer loop
vertex 15.24 1.27 2.0574
vertex 1.27 1.27 12.192
vertex 15.24 1.27 12.192
endloop
endfacet
facet normal 1.69665301953281e-18 -1.0 -2.62127139933476e-18
outer loop
vertex 15.24 0.0 0.0126999999999986
vertex 0.0 0.0 12.192
vertex 0.0 0.0 0.0
endloop
endfacet
facet normal 1.69665301953281e-18 -1.0 -2.62127139933476e-18
outer loop
vertex 0.0 0.0 12.192
vertex 15.24 0.0 0.0126999999999986
vertex 15.24 0.0 2.0574
endloop
endfacet
facet normal 1.69665301953281e-18 -1.0 -2.62127139933476e-18
outer loop
vertex 0.0 0.0 12.192
vertex 15.24 0.0 2.0574
vertex 15.24 0.0 12.192
endloop
endfacet
facet normal -1.0 0.0 0.0
outer loop
vertex 25.4 1.27 12.192
vertex 25.4 0.0 2.0574
vertex 25.4 0.0 12.192
endloop
endfacet
facet normal -1.0 0.0 0.0
outer loop
vertex 25.4 0.0 2.0574
vertex 25.4 1.27 12.192
vertex 25.4 1.27 2.0574
endloop
endfacet
facet normal 1.0 1.00613967728513e-16 -6.93875922302169e-16
outer loop
vertex 25.4 0.0 0.0126999999999986
vertex 25.4 -13.97 2.0574
vertex 25.4 -13.97 0.0253999999999958
endloop
endfacet
facet normal 1.0 1.00613967728513e-16 -6.93875922302169e-16
outer loop
vertex 25.4 -13.97 2.0574
vertex 25.4 0.0 0.0126999999999986
vertex 25.4 0.0 2.0574
endloop
endfacet
facet normal 0.0 0.0 1.0
outer loop
vertex 0.0 0.0 12.192
vertex 1.27 1.27 12.192
vertex 0.0 53.34 12.192
endloop
endfacet
facet normal 0.0 0.0 1.0
outer loop
vertex 1.27 1.27 12.192
vertex 0.0 0.0 12.192
vertex 15.24 0.0 12.192
endloop
endfacet
facet normal 0.0 0.0 1.0
outer loop
vertex 1.27 1.27 12.192
vertex 15.24 0.0 12.192
vertex 15.24 1.27 12.192
endloop
endfacet
facet normal 0.0 0.0 1.0
outer loop
vertex 0.0 53.34 12.192
vertex 1.27 52.07 12.192
vertex 40.64 53.34 12.192
endloop
endfacet
facet normal 0.0 0.0 1.0
outer loop
vertex 1.27 52.07 12.192
vertex 0.0 53.34 12.192
vertex 1.27 1.27 12.192
endloop
endfacet
facet normal 0.0 0.0 1.0
outer loop
vertex 40.64 53.34 12.192
vertex 1.27 52.07 12.192
vertex 40.64 52.07 12.192
endloop
endfacet
facet normal 1.0 0.0 0.0
outer loop
vertex 15.24 1.27 2.0574
vertex 15.24 0.0 12.192
vertex 15.24 0.0 2.0574
endloop
endfacet
facet normal 1.0 0.0 0.0
outer loop
vertex 15.24 0.0 12.192
vertex 15.24 1.27 2.0574
vertex 15.24 1.27 12.192
endloop
endfacet
facet normal 0.0 0.0 1.0
outer loop
vertex 40.64 0.0 12.192
vertex 25.4 1.27 12.192
vertex 25.4 0.0 12.192
endloop
endfacet
facet normal 0.0 0.0 1.0
outer loop
vertex 25.4 1.27 12.192
vertex 40.64 0.0 12.192
vertex 40.64 1.27 12.192
endloop
endfacet
facet normal 1.17044504346279e-20 -0.00090909053343359 -0.999999586777116
outer loop
vertex 25.4 0.0 0.0126999999999986
vertex 15.24 -13.97 0.0253999999999958
vertex 15.24 0.0 0.0126999999999986
endloop
endfacet
facet normal 1.17044504346279e-20 -0.00090909053343359 -0.999999586777116
outer loop
vertex 15.24 -13.97 0.0253999999999958
vertex 25.4 0.0 0.0126999999999986
vertex 25.4 -13.97 0.0253999999999958
endloop
endfacet
facet normal -0.0 -1.0 -0.0
outer loop
vertex 25.4 -13.97 2.0574
vertex 15.24 -13.97 0.0253999999999958
vertex 25.4 -13.97 0.0253999999999958
endloop
endfacet
facet normal -0.0 -1.0 -0.0
outer loop
vertex 15.24 -13.97 0.0253999999999958
vertex 25.4 -13.97 2.0574
vertex 15.24 -13.97 2.0574
endloop
endfacet
endsolid Base-cradle
