solid Bearing-Top-002
facet normal -0.866025403784439 0.5 0.0
outer loop
vertex 6.59911357683742 -3.81 1.905
vertex 5.38815367264149 -5.38815367264149 0.0
vertex 5.38815367264149 -5.38815367264149 1.905
endloop
endfacet
facet normal -0.707106781186547 0.707106781186548 0.0
outer loop
vertex 5.38815367264149 -5.38815367264149 0.0
vertex 6.59911357683742 -3.81 1.905
vertex 6.59911357683742 -3.81 0.0
endloop
endfacet
facet normal -0.258819045102521 0.965925826289068 0.0
outer loop
vertex 2.82682161060973 -10.5498418747292 5.715
vertex 5.461 -9.45872946013364 1.905
vertex 2.82682161060973 -10.5498418747292 1.905
endloop
endfacet
facet normal -0.5 0.866025403784439 0.0
outer loop
vertex 5.461 -9.45872946013364 1.905
vertex 2.82682161060973 -10.5498418747292 5.715
vertex 5.461 -9.45872946013364 5.715
endloop
endfacet
facet normal -0.5 -0.866025403784439 0.0
outer loop
vertex 3.81 6.59911357683742 1.905
vertex 1.97220112368121 7.3603547963227 0.0
vertex 3.81 6.59911357683742 0.0
endloop
endfacet
facet normal -0.258819045102521 -0.965925826289068 0.0
outer loop
vertex 1.97220112368121 7.3603547963227 0.0
vertex 3.81 6.59911357683742 1.905
vertex 1.97220112368121 7.3603547963227 1.905
endloop
endfacet
facet normal -0.707106781186547 -0.707106781186548 0.0
outer loop
vertex 5.38815367264149 5.38815367264149 1.905
vertex 3.81 6.59911357683742 0.0
vertex 5.38815367264149 5.38815367264149 0.0
endloop
endfacet
facet normal -0.5 -0.866025403784439 0.0
outer loop
vertex 3.81 6.59911357683742 0.0
vertex 5.38815367264149 5.38815367264149 1.905
vertex 3.81 6.59911357683742 1.905
endloop
endfacet
facet normal -0.258819045102521 -0.965925826289068 0.0
outer loop
vertex 1.97220112368121 7.3603547963227 1.905
vertex 0.0 7.62 0.0
vertex 1.97220112368121 7.3603547963227 0.0
endloop
endfacet
facet normal -2.67333296869407e-16 -1.0 0.0
outer loop
vertex 0.0 7.62 0.0
vertex 1.97220112368121 7.3603547963227 1.905
vertex 0.0 7.62 1.905
endloop
endfacet
facet normal 0.5 -0.866025403784439 0.0
outer loop
vertex -3.81 6.59911357683742 1.905
vertex -5.38815367264149 5.38815367264149 0.0
vertex -3.81 6.59911357683742 0.0
endloop
endfacet
facet normal 0.707106781186547 -0.707106781186548 0.0
outer loop
vertex -5.38815367264149 5.38815367264149 0.0
vertex -3.81 6.59911357683742 1.905
vertex -5.38815367264149 5.38815367264149 1.905
endloop
endfacet
facet normal -0.866025403784438 -0.5 0.0
outer loop
vertex 9.45872946013363 5.461 5.715
vertex 10.5498418747292 2.82682161060974 1.905
vertex 10.5498418747292 2.82682161060974 5.715
endloop
endfacet
facet normal -0.965925826289068 -0.258819045102521 0.0
outer loop
vertex 10.5498418747292 2.82682161060974 1.905
vertex 9.45872946013363 5.461 5.715
vertex 9.45872946013363 5.461 1.905
endloop
endfacet
facet normal -0.965925826289068 -0.258819045102521 0.0
outer loop
vertex 10.5498418747292 2.82682161060974 5.715
vertex 10.922 0.0 1.905
vertex 10.922 0.0 5.715
endloop
endfacet
facet normal -1.0 1.96044417704232e-16 0.0
outer loop
vertex 10.922 0.0 1.905
vertex 10.5498418747292 2.82682161060974 5.715
vertex 10.5498418747292 2.82682161060974 1.905
endloop
endfacet
facet normal -0.866025403784439 0.5 0.0
outer loop
vertex 9.45872946013364 -5.461 5.715
vertex 7.72302026411947 -7.72302026411947 1.905
vertex 7.72302026411947 -7.72302026411947 5.715
endloop
endfacet
facet normal -0.707106781186548 0.707106781186547 0.0
outer loop
vertex 7.72302026411947 -7.72302026411947 1.905
vertex 9.45872946013364 -5.461 5.715
vertex 9.45872946013364 -5.461 1.905
endloop
endfacet
facet normal 1.0 3.56444395825876e-16 0.0
outer loop
vertex -10.922 -2.8199664825479e-15 1.905
vertex -10.5498418747292 -2.82682161060973 5.715
vertex -10.5498418747292 -2.82682161060973 1.905
endloop
endfacet
facet normal 0.965925826289068 0.258819045102521 0.0
outer loop
vertex -10.5498418747292 -2.82682161060973 5.715
vertex -10.922 -2.8199664825479e-15 1.905
vertex -10.922 -2.8199664825479e-15 5.715
endloop
endfacet
facet normal -1.0 1.96044417704232e-16 0.0
outer loop
vertex 10.922 0.0 5.715
vertex 10.5498418747292 -2.82682161060973 1.905
vertex 10.5498418747292 -2.82682161060973 5.715
endloop
endfacet
facet normal -0.965925826289068 0.258819045102521 0.0
outer loop
vertex 10.5498418747292 -2.82682161060973 1.905
vertex 10.922 0.0 5.715
vertex 10.922 0.0 1.905
endloop
endfacet
facet normal -0.707106781186547 -0.707106781186548 0.0
outer loop
vertex 7.72302026411947 7.72302026411947 5.715
vertex 5.46099999999999 9.45872946013364 1.905
vertex 7.72302026411947 7.72302026411947 1.905
endloop
endfacet
facet normal -0.499999999999999 -0.866025403784439 0.0
outer loop
vertex 5.46099999999999 9.45872946013364 1.905
vertex 7.72302026411947 7.72302026411947 5.715
vertex 5.46099999999999 9.45872946013364 5.715
endloop
endfacet
facet normal -0.499999999999999 -0.866025403784439 0.0
outer loop
vertex 5.46099999999999 9.45872946013364 5.715
vertex 2.82682161060973 10.5498418747292 1.905
vertex 5.46099999999999 9.45872946013364 1.905
endloop
endfacet
facet normal -0.25881904510252 -0.965925826289069 0.0
outer loop
vertex 2.82682161060973 10.5498418747292 1.905
vertex 5.46099999999999 9.45872946013364 5.715
vertex 2.82682161060973 10.5498418747292 5.715
endloop
endfacet
facet normal -0.25881904510252 -0.965925826289069 0.0
outer loop
vertex 2.82682161060973 10.5498418747292 5.715
vertex 0.0 10.922 1.905
vertex 2.82682161060973 10.5498418747292 1.905
endloop
endfacet
facet normal 2.04955527599879e-16 -1.0 0.0
outer loop
vertex 0.0 10.922 1.905
vertex 2.82682161060973 10.5498418747292 5.715
vertex 0.0 10.922 5.715
endloop
endfacet
facet normal 2.04955527599879e-16 -1.0 0.0
outer loop
vertex 0.0 10.922 5.715
vertex -2.82682161060974 10.5498418747292 1.905
vertex 0.0 10.922 1.905
endloop
endfacet
facet normal 0.258819045102521 -0.965925826289068 0.0
outer loop
vertex -2.82682161060974 10.5498418747292 1.905
vertex 0.0 10.922 5.715
vertex -2.82682161060974 10.5498418747292 5.715
endloop
endfacet
facet normal -0.5 0.866025403784439 0.0
outer loop
vertex 5.461 -9.45872946013364 5.715
vertex 7.72302026411947 -7.72302026411947 1.905
vertex 5.461 -9.45872946013364 1.905
endloop
endfacet
facet normal -0.707106781186548 0.707106781186547 0.0
outer loop
vertex 7.72302026411947 -7.72302026411947 1.905
vertex 5.461 -9.45872946013364 5.715
vertex 7.72302026411947 -7.72302026411947 5.715
endloop
endfacet
facet normal 0.707106781186548 -0.707106781186547 0.0
outer loop
vertex -7.72302026411948 7.72302026411947 1.905
vertex -9.45872946013364 5.461 5.715
vertex -9.45872946013364 5.461 1.905
endloop
endfacet
facet normal 0.866025403784439 -0.5 0.0
outer loop
vertex -9.45872946013364 5.461 5.715
vertex -7.72302026411948 7.72302026411947 1.905
vertex -7.72302026411948 7.72302026411947 5.715
endloop
endfacet
facet normal -0.965925826289068 0.258819045102521 0.0
outer loop
vertex 10.5498418747292 -2.82682161060973 5.715
vertex 9.45872946013364 -5.461 1.905
vertex 9.45872946013364 -5.461 5.715
endloop
endfacet
facet normal -0.866025403784439 0.5 0.0
outer loop
vertex 9.45872946013364 -5.461 1.905
vertex 10.5498418747292 -2.82682161060973 5.715
vertex 10.5498418747292 -2.82682161060973 1.905
endloop
endfacet
facet normal 0.258819045102521 -0.965925826289068 0.0
outer loop
vertex -2.82682161060974 10.5498418747292 5.715
vertex -5.461 9.45872946013363 1.905
vertex -2.82682161060974 10.5498418747292 1.905
endloop
endfacet
facet normal 0.500000000000001 -0.866025403784438 0.0
outer loop
vertex -5.461 9.45872946013363 1.905
vertex -2.82682161060974 10.5498418747292 5.715
vertex -5.461 9.45872946013363 5.715
endloop
endfacet
facet normal -0.707106781186547 -0.707106781186548 0.0
outer loop
vertex 7.72302026411947 7.72302026411947 5.715
vertex 9.45872946013363 5.461 1.905
vertex 9.45872946013363 5.461 5.715
endloop
endfacet
facet normal -0.866025403784438 -0.5 0.0
outer loop
vertex 9.45872946013363 5.461 1.905
vertex 7.72302026411947 7.72302026411947 5.715
vertex 7.72302026411947 7.72302026411947 1.905
endloop
endfacet
facet normal 0.965925826289068 0.258819045102521 0.0
outer loop
vertex -10.5498418747292 -2.82682161060973 1.905
vertex -9.45872946013364 -5.461 5.715
vertex -9.45872946013364 -5.461 1.905
endloop
endfacet
facet normal 0.866025403784439 0.5 0.0
outer loop
vertex -9.45872946013364 -5.461 5.715
vertex -10.5498418747292 -2.82682161060973 1.905
vertex -10.5498418747292 -2.82682161060973 5.715
endloop
endfacet
facet normal 0.5 0.866025403784439 0.0
outer loop
vertex -5.461 -9.45872946013364 5.715
vertex -2.82682161060973 -10.5498418747292 1.905
vertex -5.461 -9.45872946013364 1.905
endloop
endfacet
facet normal 0.258819045102521 0.965925826289068 0.0
outer loop
vertex -2.82682161060973 -10.5498418747292 1.905
vertex -5.461 -9.45872946013364 5.715
vertex -2.82682161060973 -10.5498418747292 5.715
endloop
endfacet
facet normal 0.258819045102521 0.965925826289068 0.0
outer loop
vertex -2.82682161060973 -10.5498418747292 5.715
vertex 0.0 -10.922 1.905
vertex -2.82682161060973 -10.5498418747292 1.905
endloop
endfacet
facet normal -1.33666648434704e-16 1.0 0.0
outer loop
vertex 0.0 -10.922 1.905
vertex -2.82682161060973 -10.5498418747292 5.715
vertex 0.0 -10.922 5.715
endloop
endfacet
facet normal -1.33666648434704e-16 1.0 0.0
outer loop
vertex 0.0 -10.922 5.715
vertex 2.82682161060973 -10.5498418747292 1.905
vertex 0.0 -10.922 1.905
endloop
endfacet
facet normal -0.258819045102521 0.965925826289068 0.0
outer loop
vertex 2.82682161060973 -10.5498418747292 1.905
vertex 0.0 -10.922 5.715
vertex 2.82682161060973 -10.5498418747292 5.715
endloop
endfacet
facet normal 0.707106781186547 0.707106781186548 0.0
outer loop
vertex -7.72302026411947 -7.72302026411947 5.715
vertex -5.461 -9.45872946013364 1.905
vertex -7.72302026411947 -7.72302026411947 1.905
endloop
endfacet
facet normal 0.5 0.866025403784439 0.0
outer loop
vertex -5.461 -9.45872946013364 1.905
vertex -7.72302026411947 -7.72302026411947 5.715
vertex -5.461 -9.45872946013364 5.715
endloop
endfacet
facet normal 0.258819045102521 -0.965925826289068 0.0
outer loop
vertex -1.97220112368121 7.3603547963227 1.905
vertex -3.81 6.59911357683742 0.0
vertex -1.97220112368121 7.3603547963227 0.0
endloop
endfacet
facet normal 0.5 -0.866025403784439 0.0
outer loop
vertex -3.81 6.59911357683742 0.0
vertex -1.97220112368121 7.3603547963227 1.905
vertex -3.81 6.59911357683742 1.905
endloop
endfacet
facet normal 0.866025403784439 0.5 0.0
outer loop
vertex -9.45872946013364 -5.461 1.905
vertex -7.72302026411947 -7.72302026411947 5.715
vertex -7.72302026411947 -7.72302026411947 1.905
endloop
endfacet
facet normal 0.707106781186547 0.707106781186548 0.0
outer loop
vertex -7.72302026411947 -7.72302026411947 5.715
vertex -9.45872946013364 -5.461 1.905
vertex -9.45872946013364 -5.461 5.715
endloop
endfacet
facet normal 0.500000000000001 -0.866025403784438 0.0
outer loop
vertex -5.461 9.45872946013363 5.715
vertex -7.72302026411948 7.72302026411947 1.905
vertex -5.461 9.45872946013363 1.905
endloop
endfacet
facet normal 0.707106781186548 -0.707106781186547 0.0
outer loop
vertex -7.72302026411948 7.72302026411947 1.905
vertex -5.461 9.45872946013363 5.715
vertex -7.72302026411948 7.72302026411947 5.715
endloop
endfacet
facet normal -0.499999999999999 0.866025403784439 0.0
outer loop
vertex 3.80999999999999 -6.59911357683742 1.905
vertex 5.38815367264149 -5.38815367264149 0.0
vertex 3.80999999999999 -6.59911357683742 0.0
endloop
endfacet
facet normal -0.707106781186547 0.707106781186548 0.0
outer loop
vertex 5.38815367264149 -5.38815367264149 0.0
vertex 3.80999999999999 -6.59911357683742 1.905
vertex 5.38815367264149 -5.38815367264149 1.905
endloop
endfacet
facet normal -0.258819045102521 0.965925826289068 0.0
outer loop
vertex 1.97220112368121 -7.3603547963227 1.905
vertex 3.80999999999999 -6.59911357683742 0.0
vertex 1.97220112368121 -7.3603547963227 0.0
endloop
endfacet
facet normal -0.499999999999999 0.866025403784439 0.0
outer loop
vertex 3.80999999999999 -6.59911357683742 0.0
vertex 1.97220112368121 -7.3603547963227 1.905
vertex 3.80999999999999 -6.59911357683742 1.905
endloop
endfacet
facet normal 4.99022154156227e-16 1.0 0.0
outer loop
vertex 0.0 -7.62 1.905
vertex 1.97220112368121 -7.3603547963227 0.0
vertex 0.0 -7.62 0.0
endloop
endfacet
facet normal -0.258819045102521 0.965925826289068 0.0
outer loop
vertex 1.97220112368121 -7.3603547963227 0.0
vertex 0.0 -7.62 1.905
vertex 1.97220112368121 -7.3603547963227 1.905
endloop
endfacet
facet normal 0.258819045102521 0.965925826289068 0.0
outer loop
vertex -1.97220112368121 -7.3603547963227 1.905
vertex 0.0 -7.62 0.0
vertex -1.97220112368121 -7.3603547963227 0.0
endloop
endfacet
facet normal 4.99022154156227e-16 1.0 0.0
outer loop
vertex 0.0 -7.62 0.0
vertex -1.97220112368121 -7.3603547963227 1.905
vertex 0.0 -7.62 1.905
endloop
endfacet
facet normal 0.5 0.866025403784439 0.0
outer loop
vertex -3.81 -6.59911357683742 1.905
vertex -1.97220112368121 -7.3603547963227 0.0
vertex -3.81 -6.59911357683742 0.0
endloop
endfacet
facet normal 0.258819045102521 0.965925826289068 0.0
outer loop
vertex -1.97220112368121 -7.3603547963227 0.0
vertex -3.81 -6.59911357683742 1.905
vertex -1.97220112368121 -7.3603547963227 1.905
endloop
endfacet
facet normal -0.707106781186547 -0.707106781186548 0.0
outer loop
vertex 5.38815367264149 5.38815367264149 1.905
vertex 6.59911357683742 3.81 0.0
vertex 6.59911357683742 3.81 1.905
endloop
endfacet
facet normal -0.866025403784439 -0.5 0.0
outer loop
vertex 6.59911357683742 3.81 0.0
vertex 5.38815367264149 5.38815367264149 1.905
vertex 5.38815367264149 5.38815367264149 0.0
endloop
endfacet
facet normal -0.866025403784439 -0.5 0.0
outer loop
vertex 6.59911357683742 3.81 1.905
vertex 7.3603547963227 1.97220112368121 0.0
vertex 7.3603547963227 1.97220112368121 1.905
endloop
endfacet
facet normal -0.965925826289068 -0.258819045102521 0.0
outer loop
vertex 7.3603547963227 1.97220112368121 0.0
vertex 6.59911357683742 3.81 1.905
vertex 6.59911357683742 3.81 0.0
endloop
endfacet
facet normal -2.67333296869407e-16 -1.0 0.0
outer loop
vertex 0.0 7.62 1.905
vertex -1.97220112368121 7.3603547963227 0.0
vertex 0.0 7.62 0.0
endloop
endfacet
facet normal 0.258819045102521 -0.965925826289068 0.0
outer loop
vertex -1.97220112368121 7.3603547963227 0.0
vertex 0.0 7.62 1.905
vertex -1.97220112368121 7.3603547963227 1.905
endloop
endfacet
facet normal 0.707106781186547 -0.707106781186548 0.0
outer loop
vertex -5.38815367264149 5.38815367264149 0.0
vertex -6.59911357683742 3.81 1.905
vertex -6.59911357683742 3.81 0.0
endloop
endfacet
facet normal 0.866025403784438 -0.5 0.0
outer loop
vertex -6.59911357683742 3.81 1.905
vertex -5.38815367264149 5.38815367264149 0.0
vertex -5.38815367264149 5.38815367264149 1.905
endloop
endfacet
facet normal 0.866025403784438 -0.5 0.0
outer loop
vertex -6.59911357683742 3.81 0.0
vertex -7.3603547963227 1.97220112368121 1.905
vertex -7.3603547963227 1.97220112368121 0.0
endloop
endfacet
facet normal 0.965925826289068 -0.258819045102521 0.0
outer loop
vertex -7.3603547963227 1.97220112368121 1.905
vertex -6.59911357683742 3.81 0.0
vertex -6.59911357683742 3.81 1.905
endloop
endfacet
facet normal -0.965925826289068 -0.258819045102521 0.0
outer loop
vertex 7.3603547963227 1.97220112368121 1.905
vertex 7.62 0.0 0.0
vertex 7.62 0.0 1.905
endloop
endfacet
facet normal -1.0 4.9011104426058e-16 0.0
outer loop
vertex 7.62 0.0 0.0
vertex 7.3603547963227 1.97220112368121 1.905
vertex 7.3603547963227 1.97220112368121 0.0
endloop
endfacet
facet normal -1.0 4.9011104426058e-16 0.0
outer loop
vertex 7.62 0.0 1.905
vertex 7.3603547963227 -1.97220112368121 0.0
vertex 7.3603547963227 -1.97220112368121 1.905
endloop
endfacet
facet normal -0.965925826289068 0.258819045102521 0.0
outer loop
vertex 7.3603547963227 -1.97220112368121 0.0
vertex 7.62 0.0 1.905
vertex 7.62 0.0 0.0
endloop
endfacet
facet normal -0.965925826289068 0.258819045102521 0.0
outer loop
vertex 7.3603547963227 -1.97220112368121 1.905
vertex 6.59911357683742 -3.81 0.0
vertex 6.59911357683742 -3.81 1.905
endloop
endfacet
facet normal -0.866025403784439 0.5 0.0
outer loop
vertex 6.59911357683742 -3.81 0.0
vertex 7.3603547963227 -1.97220112368121 1.905
vertex 7.3603547963227 -1.97220112368121 0.0
endloop
endfacet
facet normal 0.965925826289068 -0.258819045102521 0.0
outer loop
vertex -7.3603547963227 1.97220112368121 0.0
vertex -7.62 0.0 1.905
vertex -7.62 0.0 0.0
endloop
endfacet
facet normal 1.0 -2.49511077078113e-16 0.0
outer loop
vertex -7.62 0.0 1.905
vertex -7.3603547963227 1.97220112368121 0.0
vertex -7.3603547963227 1.97220112368121 1.905
endloop
endfacet
facet normal 1.0 -2.49511077078113e-16 0.0
outer loop
vertex -7.62 0.0 0.0
vertex -7.3603547963227 -1.97220112368121 1.905
vertex -7.3603547963227 -1.97220112368121 0.0
endloop
endfacet
facet normal 0.965925826289068 0.25881904510252 0.0
outer loop
vertex -7.3603547963227 -1.97220112368121 1.905
vertex -7.62 0.0 0.0
vertex -7.62 0.0 1.905
endloop
endfacet
facet normal 0.965925826289068 0.25881904510252 0.0
outer loop
vertex -7.3603547963227 -1.97220112368121 0.0
vertex -6.59911357683742 -3.81 1.905
vertex -6.59911357683742 -3.81 0.0
endloop
endfacet
facet normal 0.866025403784439 0.5 0.0
outer loop
vertex -6.59911357683742 -3.81 1.905
vertex -7.3603547963227 -1.97220112368121 0.0
vertex -7.3603547963227 -1.97220112368121 1.905
endloop
endfacet
facet normal 0.866025403784439 0.5 0.0
outer loop
vertex -6.59911357683742 -3.81 0.0
vertex -5.3881536726415 -5.38815367264149 1.905
vertex -5.3881536726415 -5.38815367264149 0.0
endloop
endfacet
facet normal 0.707106781186548 0.707106781186547 0.0
outer loop
vertex -5.3881536726415 -5.38815367264149 1.905
vertex -6.59911357683742 -3.81 0.0
vertex -6.59911357683742 -3.81 1.905
endloop
endfacet
facet normal 0.707106781186548 0.707106781186547 0.0
outer loop
vertex -5.3881536726415 -5.38815367264149 1.905
vertex -3.81 -6.59911357683742 0.0
vertex -5.3881536726415 -5.38815367264149 0.0
endloop
endfacet
facet normal 0.5 0.866025403784439 0.0
outer loop
vertex -3.81 -6.59911357683742 0.0
vertex -5.3881536726415 -5.38815367264149 1.905
vertex -3.81 -6.59911357683742 1.905
endloop
endfacet
facet normal 0.866025403784439 -0.5 0.0
outer loop
vertex -9.45872946013364 5.461 1.905
vertex -10.5498418747292 2.82682161060973 5.715
vertex -10.5498418747292 2.82682161060973 1.905
endloop
endfacet
facet normal 0.965925826289068 -0.25881904510252 0.0
outer loop
vertex -10.5498418747292 2.82682161060973 5.715
vertex -9.45872946013364 5.461 1.905
vertex -9.45872946013364 5.461 5.715
endloop
endfacet
facet normal 0.965925826289068 -0.25881904510252 0.0
outer loop
vertex -10.5498418747292 2.82682161060973 1.905
vertex -10.922 -2.8199664825479e-15 5.715
vertex -10.922 -2.8199664825479e-15 1.905
endloop
endfacet
facet normal 1.0 3.56444395825876e-16 0.0
outer loop
vertex -10.922 -2.8199664825479e-15 5.715
vertex -10.5498418747292 2.82682161060973 1.905
vertex -10.5498418747292 2.82682161060973 5.715
endloop
endfacet
facet normal 0.0 0.0 1.0
outer loop
vertex -15.7762217477017 -1.23262570230076 5.715
vertex -15.7762217477017 1.23262570230076 5.715
vertex -15.9385 -2.8199664825479e-15 5.715
endloop
endfacet
facet normal 0.0 0.0 1.0
outer loop
vertex -15.7762217477017 1.23262570230076 5.715
vertex -15.7762217477017 -1.23262570230076 5.715
vertex -15.3004459855234 -2.38125 5.715
endloop
endfacet
facet normal 0.0 0.0 1.0
outer loop
vertex -15.7762217477017 1.23262570230076 5.715
vertex -15.3004459855234 -2.38125 5.715
vertex -15.3004459855234 2.38125 5.715
endloop
endfacet
facet normal 0.0 0.0 1.0
outer loop
vertex -15.3004459855234 2.38125 5.715
vertex -15.3004459855234 -2.38125 5.715
vertex -14.5435960454009 -3.36759604540093 5.715
endloop
endfacet
facet normal 0.0 0.0 1.0
outer loop
vertex -15.3004459855234 2.38125 5.715
vertex -14.5435960454009 -3.36759604540093 5.715
vertex -14.5435960454009 3.36759604540093 5.715
endloop
endfacet
facet normal 0.0 0.0 1.0
outer loop
vertex -14.5435960454009 3.36759604540093 5.715
vertex -14.5435960454009 -3.36759604540093 5.715
vertex -13.55725 -4.12444598552339 5.715
endloop
endfacet
facet normal 0.0 0.0 1.0
outer loop
vertex -14.5435960454009 3.36759604540093 5.715
vertex -13.55725 -4.12444598552339 5.715
vertex -13.55725 4.12444598552339 5.715
endloop
endfacet
facet normal 0.0 0.0 1.0
outer loop
vertex -13.55725 4.12444598552339 5.715
vertex -13.55725 -4.12444598552339 5.715
vertex -12.4086257023008 -4.60022174770169 5.715
endloop
endfacet
facet normal 0.0 0.0 1.0
outer loop
vertex -13.55725 4.12444598552339 5.715
vertex -12.4086257023008 -4.60022174770169 5.715
vertex -12.4086257023008 4.60022174770168 5.715
endloop
endfacet
facet normal 0.0 0.0 1.0
outer loop
vertex -12.4086257023008 4.60022174770168 5.715
vertex -12.4086257023008 -4.60022174770169 5.715
vertex -11.6837768737647 -4.69564990635176 5.715
endloop
endfacet
facet normal 0.0 0.0 1.0
outer loop
vertex -12.4086257023008 4.60022174770168 5.715
vertex -11.6837768737647 -4.69564990635176 5.715
vertex -11.6837768737647 4.69564990635176 5.715
endloop
endfacet
facet normal 0.0 0.0 1.0
outer loop
vertex -11.6837768737647 4.69564990635176 5.715
vertex -11.6837768737647 -4.69564990635176 5.715
vertex -10.9985226280624 6.35 5.715
endloop
endfacet
facet normal 0.0 0.0 1.0
outer loop
vertex -10.9985226280624 6.35 5.715
vertex -11.6837768737647 -4.69564990635176 5.715
vertex -10.9985226280624 -6.35 5.715
endloop
endfacet
facet normal 0.0 0.0 1.0
outer loop
vertex -10.9985226280624 6.35 5.715
vertex -10.9985226280624 -6.35 5.715
vertex -10.922 -2.8199664825479e-15 5.715
endloop
endfacet
facet normal 0.0 0.0 1.0
outer loop
vertex -10.922 -2.8199664825479e-15 5.715
vertex -10.9985226280624 -6.35 5.715
vertex -10.5498418747292 -2.82682161060973 5.715
endloop
endfacet
facet normal 0.0 0.0 1.0
outer loop
vertex -10.5498418747292 -2.82682161060973 5.715
vertex -10.9985226280624 -6.35 5.715
vertex -8.98025612106916 -8.98025612106915 5.715
endloop
endfacet
facet normal 0.0 0.0 1.0
outer loop
vertex -10.5498418747292 -2.82682161060973 5.715
vertex -8.98025612106916 -8.98025612106915 5.715
vertex -9.45872946013364 -5.461 5.715
endloop
endfacet
facet normal 0.0 0.0 1.0
outer loop
vertex -9.45872946013364 -5.461 5.715
vertex -8.98025612106916 -8.98025612106915 5.715
vertex -7.72302026411947 -7.72302026411947 5.715
endloop
endfacet
facet normal 0.0 0.0 1.0
outer loop
vertex -7.72302026411947 -7.72302026411947 5.715
vertex -8.98025612106916 -8.98025612106915 5.715
vertex -6.35 -10.9985226280624 5.715
endloop
endfacet
facet normal 0.0 0.0 1.0
outer loop
vertex -7.72302026411947 -7.72302026411947 5.715
vertex -6.35 -10.9985226280624 5.715
vertex -5.461 -9.45872946013364 5.715
endloop
endfacet
facet normal 0.0 0.0 1.0
outer loop
vertex -5.461 -9.45872946013364 5.715
vertex -6.35 -10.9985226280624 5.715
vertex -4.69564990635176 -11.6837768737647 5.715
endloop
endfacet
facet normal 0.0 0.0 1.0
outer loop
vertex -5.461 -9.45872946013364 5.715
vertex -4.69564990635176 -11.6837768737647 5.715
vertex -2.82682161060973 -10.5498418747292 5.715
endloop
endfacet
facet normal 0.0 0.0 1.0
outer loop
vertex -2.82682161060973 -10.5498418747292 5.715
vertex -4.69564990635176 -11.6837768737647 5.715
vertex -4.60022174770169 -12.4086257023008 5.715
endloop
endfacet
facet normal 0.0 0.0 1.0
outer loop
vertex -2.82682161060973 -10.5498418747292 5.715
vertex -4.60022174770169 -12.4086257023008 5.715
vertex -4.12444598552339 -13.55725 5.715
endloop
endfacet
facet normal 0.0 0.0 1.0
outer loop
vertex -2.82682161060973 -10.5498418747292 5.715
vertex -4.12444598552339 -13.55725 5.715
vertex -3.36759604540094 -14.5435960454009 5.715
endloop
endfacet
facet normal 0.0 0.0 1.0
outer loop
vertex -2.82682161060973 -10.5498418747292 5.715
vertex -3.36759604540094 -14.5435960454009 5.715
vertex -2.38125000000001 -15.3004459855234 5.715
endloop
endfacet
facet normal 0.0 0.0 1.0
outer loop
vertex -2.82682161060973 -10.5498418747292 5.715
vertex -2.38125000000001 -15.3004459855234 5.715
vertex 0.0 -10.922 5.715
endloop
endfacet
facet normal 0.0 0.0 1.0
outer loop
vertex 0.0 -10.922 5.715
vertex -2.38125000000001 -15.3004459855234 5.715
vertex -1.23262570230076 -15.7762217477017 5.715
endloop
endfacet
facet normal 0.0 0.0 1.0
outer loop
vertex 0.0 -10.922 5.715
vertex -1.23262570230076 -15.7762217477017 5.715
vertex -2.8199664825479e-15 -15.9385 5.715
endloop
endfacet
facet normal 0.0 0.0 1.0
outer loop
vertex 0.0 -10.922 5.715
vertex -2.8199664825479e-15 -15.9385 5.715
vertex 1.23262570230075 -15.7762217477017 5.715
endloop
endfacet
facet normal 0.0 0.0 1.0
outer loop
vertex 0.0 -10.922 5.715
vertex 1.23262570230075 -15.7762217477017 5.715
vertex 2.82682161060973 -10.5498418747292 5.715
endloop
endfacet
facet normal 0.0 0.0 1.0
outer loop
vertex 2.82682161060973 -10.5498418747292 5.715
vertex 1.23262570230075 -15.7762217477017 5.715
vertex 2.38125 -15.3004459855234 5.715
endloop
endfacet
facet normal 0.0 0.0 1.0
outer loop
vertex 2.82682161060973 -10.5498418747292 5.715
vertex 2.38125 -15.3004459855234 5.715
vertex 3.36759604540093 -14.5435960454009 5.715
endloop
endfacet
facet normal 0.0 0.0 1.0
outer loop
vertex 2.82682161060973 -10.5498418747292 5.715
vertex 3.36759604540093 -14.5435960454009 5.715
vertex 5.461 -9.45872946013364 5.715
endloop
endfacet
facet normal 0.0 0.0 1.0
outer loop
vertex 5.461 -9.45872946013364 5.715
vertex 3.36759604540093 -14.5435960454009 5.715
vertex 4.69564990635176 -11.6837768737647 5.715
endloop
endfacet
facet normal 0.0 0.0 1.0
outer loop
vertex 4.69564990635176 -11.6837768737647 5.715
vertex 3.36759604540093 -14.5435960454009 5.715
vertex 4.12444598552339 -13.55725 5.715
endloop
endfacet
facet normal 0.0 0.0 1.0
outer loop
vertex 4.69564990635176 -11.6837768737647 5.715
vertex 4.12444598552339 -13.55725 5.715
vertex 4.60022174770169 -12.4086257023008 5.715
endloop
endfacet
facet normal 0.0 0.0 1.0
outer loop
vertex 5.461 -9.45872946013364 5.715
vertex 4.69564990635176 -11.6837768737647 5.715
vertex 6.34999999999999 -10.9985226280624 5.715
endloop
endfacet
facet normal 0.0 0.0 1.0
outer loop
vertex 5.461 -9.45872946013364 5.715
vertex 6.34999999999999 -10.9985226280624 5.715
vertex 7.72302026411947 -7.72302026411947 5.715
endloop
endfacet
facet normal 0.0 0.0 1.0
outer loop
vertex 7.72302026411947 -7.72302026411947 5.715
vertex 6.34999999999999 -10.9985226280624 5.715
vertex 8.98025612106915 -8.98025612106916 5.715
endloop
endfacet
facet normal 0.0 0.0 1.0
outer loop
vertex 7.72302026411947 -7.72302026411947 5.715
vertex 8.98025612106915 -8.98025612106916 5.715
vertex 9.45872946013364 -5.461 5.715
endloop
endfacet
facet normal 0.0 0.0 1.0
outer loop
vertex 9.45872946013364 -5.461 5.715
vertex 8.98025612106915 -8.98025612106916 5.715
vertex 10.9985226280624 -6.35 5.715
endloop
endfacet
facet normal 0.0 0.0 1.0
outer loop
vertex 9.45872946013364 -5.461 5.715
vertex 10.9985226280624 -6.35 5.715
vertex 10.5498418747292 -2.82682161060973 5.715
endloop
endfacet
facet normal 0.0 0.0 1.0
outer loop
vertex 10.5498418747292 -2.82682161060973 5.715
vertex 10.9985226280624 -6.35 5.715
vertex 10.922 0.0 5.715
endloop
endfacet
facet normal 0.0 0.0 1.0
outer loop
vertex -10.9985226280624 6.35 5.715
vertex -10.5498418747292 2.82682161060973 5.715
vertex -8.98025612106915 8.98025612106915 5.715
endloop
endfacet
facet normal 0.0 0.0 1.0
outer loop
vertex -10.5498418747292 2.82682161060973 5.715
vertex -10.9985226280624 6.35 5.715
vertex -10.922 -2.8199664825479e-15 5.715
endloop
endfacet
facet normal 0.0 0.0 1.0
outer loop
vertex -8.98025612106915 8.98025612106915 5.715
vertex -10.5498418747292 2.82682161060973 5.715
vertex -9.45872946013364 5.461 5.715
endloop
endfacet
facet normal 0.0 0.0 1.0
outer loop
vertex -8.98025612106915 8.98025612106915 5.715
vertex -9.45872946013364 5.461 5.715
vertex -7.72302026411948 7.72302026411947 5.715
endloop
endfacet
facet normal 0.0 0.0 1.0
outer loop
vertex -8.98025612106915 8.98025612106915 5.715
vertex -7.72302026411948 7.72302026411947 5.715
vertex -6.35 10.9985226280624 5.715
endloop
endfacet
facet normal 0.0 0.0 1.0
outer loop
vertex -6.35 10.9985226280624 5.715
vertex -7.72302026411948 7.72302026411947 5.715
vertex -5.461 9.45872946013363 5.715
endloop
endfacet
facet normal 0.0 0.0 1.0
outer loop
vertex -6.35 10.9985226280624 5.715
vertex -5.461 9.45872946013363 5.715
vertex -4.69564990635176 11.6837768737647 5.715
endloop
endfacet
facet normal 0.0 0.0 1.0
outer loop
vertex -4.69564990635176 11.6837768737647 5.715
vertex -5.461 9.45872946013363 5.715
vertex -2.82682161060974 10.5498418747292 5.715
endloop
endfacet
facet normal 0.0 0.0 1.0
outer loop
vertex -4.69564990635176 11.6837768737647 5.715
vertex -2.82682161060974 10.5498418747292 5.715
vertex -4.60022174770169 12.4086257023008 5.715
endloop
endfacet
facet normal 0.0 0.0 1.0
outer loop
vertex -4.60022174770169 12.4086257023008 5.715
vertex -2.82682161060974 10.5498418747292 5.715
vertex -4.12444598552339 13.55725 5.715
endloop
endfacet
facet normal 0.0 0.0 1.0
outer loop
vertex -4.12444598552339 13.55725 5.715
vertex -2.82682161060974 10.5498418747292 5.715
vertex -3.36759604540093 14.5435960454009 5.715
endloop
endfacet
facet normal 0.0 0.0 1.0
outer loop
vertex -3.36759604540093 14.5435960454009 5.715
vertex -2.82682161060974 10.5498418747292 5.715
vertex -2.38125 15.3004459855234 5.715
endloop
endfacet
facet normal 0.0 0.0 1.0
outer loop
vertex -2.38125 15.3004459855234 5.715
vertex -2.82682161060974 10.5498418747292 5.715
vertex 0.0 10.922 5.715
endloop
endfacet
facet normal 0.0 0.0 1.0
outer loop
vertex -2.38125 15.3004459855234 5.715
vertex 0.0 10.922 5.715
vertex -1.23262570230075 15.7762217477017 5.715
endloop
endfacet
facet normal 0.0 0.0 1.0
outer loop
vertex -1.23262570230075 15.7762217477017 5.715
vertex 0.0 10.922 5.715
vertex 0.0 15.9385 5.715
endloop
endfacet
facet normal 0.0 0.0 1.0
outer loop
vertex 0.0 15.9385 5.715
vertex 0.0 10.922 5.715
vertex 2.82682161060973 10.5498418747292 5.715
endloop
endfacet
facet normal 0.0 0.0 1.0
outer loop
vertex 0.0 15.9385 5.715
vertex 2.82682161060973 10.5498418747292 5.715
vertex 1.23262570230076 15.7762217477017 5.715
endloop
endfacet
facet normal 0.0 0.0 1.0
outer loop
vertex 1.23262570230076 15.7762217477017 5.715
vertex 2.82682161060973 10.5498418747292 5.715
vertex 2.38125 15.3004459855234 5.715
endloop
endfacet
facet normal 0.0 0.0 1.0
outer loop
vertex 2.38125 15.3004459855234 5.715
vertex 2.82682161060973 10.5498418747292 5.715
vertex 3.36759604540093 14.5435960454009 5.715
endloop
endfacet
facet normal 0.0 0.0 1.0
outer loop
vertex 3.36759604540093 14.5435960454009 5.715
vertex 2.82682161060973 10.5498418747292 5.715
vertex 5.46099999999999 9.45872946013364 5.715
endloop
endfacet
facet normal 0.0 0.0 1.0
outer loop
vertex 3.36759604540093 14.5435960454009 5.715
vertex 5.46099999999999 9.45872946013364 5.715
vertex 4.69564990635176 11.6837768737647 5.715
endloop
endfacet
facet normal 0.0 0.0 1.0
outer loop
vertex 3.36759604540093 14.5435960454009 5.715
vertex 4.69564990635176 11.6837768737647 5.715
vertex 4.12444598552339 13.55725 5.715
endloop
endfacet
facet normal 0.0 0.0 1.0
outer loop
vertex 4.12444598552339 13.55725 5.715
vertex 4.69564990635176 11.6837768737647 5.715
vertex 4.60022174770169 12.4086257023007 5.715
endloop
endfacet
facet normal 0.0 0.0 1.0
outer loop
vertex 4.69564990635176 11.6837768737647 5.715
vertex 5.46099999999999 9.45872946013364 5.715
vertex 6.35 10.9985226280624 5.715
endloop
endfacet
facet normal 0.0 0.0 1.0
outer loop
vertex 6.35 10.9985226280624 5.715
vertex 5.46099999999999 9.45872946013364 5.715
vertex 7.72302026411947 7.72302026411947 5.715
endloop
endfacet
facet normal 0.0 0.0 1.0
outer loop
vertex 6.35 10.9985226280624 5.715
vertex 7.72302026411947 7.72302026411947 5.715
vertex 8.98025612106915 8.98025612106915 5.715
endloop
endfacet
facet normal 0.0 0.0 1.0
outer loop
vertex 8.98025612106915 8.98025612106915 5.715
vertex 7.72302026411947 7.72302026411947 5.715
vertex 9.45872946013363 5.461 5.715
endloop
endfacet
facet normal 0.0 0.0 1.0
outer loop
vertex 8.98025612106915 8.98025612106915 5.715
vertex 9.45872946013363 5.461 5.715
vertex 10.9985226280624 6.35 5.715
endloop
endfacet
facet normal 0.0 0.0 1.0
outer loop
vertex 10.9985226280624 6.35 5.715
vertex 9.45872946013363 5.461 5.715
vertex 10.5498418747292 2.82682161060974 5.715
endloop
endfacet
facet normal 0.0 0.0 1.0
outer loop
vertex 10.9985226280624 6.35 5.715
vertex 10.5498418747292 2.82682161060974 5.715
vertex 10.922 0.0 5.715
endloop
endfacet
facet normal 0.0 0.0 1.0
outer loop
vertex 10.9985226280624 6.35 5.715
vertex 10.922 0.0 5.715
vertex 10.9985226280624 -6.35 5.715
endloop
endfacet
facet normal 0.0 0.0 1.0
outer loop
vertex 10.9985226280624 6.35 5.715
vertex 10.9985226280624 -6.35 5.715
vertex 11.6837768737647 -4.69564990635176 5.715
endloop
endfacet
facet normal 0.0 0.0 1.0
outer loop
vertex 10.9985226280624 6.35 5.715
vertex 11.6837768737647 -4.69564990635176 5.715
vertex 11.6837768737647 4.69564990635176 5.715
endloop
endfacet
facet normal 0.0 0.0 1.0
outer loop
vertex 11.6837768737647 4.69564990635176 5.715
vertex 11.6837768737647 -4.69564990635176 5.715
vertex 12.4086257023007 -4.60022174770169 5.715
endloop
endfacet
facet normal 0.0 0.0 1.0
outer loop
vertex 11.6837768737647 4.69564990635176 5.715
vertex 12.4086257023007 -4.60022174770169 5.715
vertex 12.4086257023008 4.60022174770168 5.715
endloop
endfacet
facet normal 0.0 0.0 1.0
outer loop
vertex 12.4086257023008 4.60022174770168 5.715
vertex 12.4086257023007 -4.60022174770169 5.715
vertex 13.55725 -4.1244459855234 5.715
endloop
endfacet
facet normal 0.0 0.0 1.0
outer loop
vertex 12.4086257023008 4.60022174770168 5.715
vertex 13.55725 -4.1244459855234 5.715
vertex 13.55725 4.12444598552338 5.715
endloop
endfacet
facet normal 0.0 0.0 1.0
outer loop
vertex 13.55725 4.12444598552338 5.715
vertex 13.55725 -4.1244459855234 5.715
vertex 14.5435960454009 -3.36759604540095 5.715
endloop
endfacet
facet normal 0.0 0.0 1.0
outer loop
vertex 13.55725 4.12444598552338 5.715
vertex 14.5435960454009 -3.36759604540095 5.715
vertex 14.5435960454009 3.36759604540092 5.715
endloop
endfacet
facet normal 0.0 0.0 1.0
outer loop
vertex 14.5435960454009 3.36759604540092 5.715
vertex 14.5435960454009 -3.36759604540095 5.715
vertex 15.3004459855234 -2.38125000000002 5.715
endloop
endfacet
facet normal 0.0 0.0 1.0
outer loop
vertex 14.5435960454009 3.36759604540092 5.715
vertex 15.3004459855234 -2.38125000000002 5.715
vertex 15.3004459855234 2.38124999999998 5.715
endloop
endfacet
facet normal 0.0 0.0 1.0
outer loop
vertex 15.3004459855234 2.38124999999998 5.715
vertex 15.3004459855234 -2.38125000000002 5.715
vertex 15.7762217477017 -1.23262570230078 5.715
endloop
endfacet
facet normal 0.0 0.0 1.0
outer loop
vertex 15.3004459855234 2.38124999999998 5.715
vertex 15.7762217477017 -1.23262570230078 5.715
vertex 15.7762217477017 1.23262570230074 5.715
endloop
endfacet
facet normal 0.0 0.0 1.0
outer loop
vertex 15.7762217477017 1.23262570230074 5.715
vertex 15.7762217477017 -1.23262570230078 5.715
vertex 15.9385 -1.97397653778353e-14 5.715
endloop
endfacet
facet normal 1.0763264517037e-32 1.45824874101792e-32 1.0
outer loop
vertex -7.72302026411947 -7.72302026411947 1.905
vertex -7.3603547963227 -1.97220112368121 1.905
vertex -7.62 0.0 1.905
endloop
endfacet
facet normal 1.0763264517037e-32 1.45824874101792e-32 1.0
outer loop
vertex -7.3603547963227 -1.97220112368121 1.905
vertex -7.72302026411947 -7.72302026411947 1.905
vertex -5.461 -9.45872946013364 1.905
endloop
endfacet
facet normal 1.0763264517037e-32 1.45824874101792e-32 1.0
outer loop
vertex -7.3603547963227 -1.97220112368121 1.905
vertex -5.461 -9.45872946013364 1.905
vertex -6.59911357683742 -3.81 1.905
endloop
endfacet
facet normal 1.0763264517037e-32 1.45824874101792e-32 1.0
outer loop
vertex -6.59911357683742 -3.81 1.905
vertex -5.461 -9.45872946013364 1.905
vertex -5.3881536726415 -5.38815367264149 1.905
endloop
endfacet
facet normal 1.0763264517037e-32 1.45824874101792e-32 1.0
outer loop
vertex -5.3881536726415 -5.38815367264149 1.905
vertex -5.461 -9.45872946013364 1.905
vertex -2.82682161060973 -10.5498418747292 1.905
endloop
endfacet
facet normal 1.0763264517037e-32 1.45824874101792e-32 1.0
outer loop
vertex -5.3881536726415 -5.38815367264149 1.905
vertex -2.82682161060973 -10.5498418747292 1.905
vertex -3.81 -6.59911357683742 1.905
endloop
endfacet
facet normal 1.0763264517037e-32 1.45824874101792e-32 1.0
outer loop
vertex -3.81 -6.59911357683742 1.905
vertex -2.82682161060973 -10.5498418747292 1.905
vertex -1.97220112368121 -7.3603547963227 1.905
endloop
endfacet
facet normal 1.0763264517037e-32 1.45824874101792e-32 1.0
outer loop
vertex -1.97220112368121 -7.3603547963227 1.905
vertex -2.82682161060973 -10.5498418747292 1.905
vertex 0.0 -10.922 1.905
endloop
endfacet
facet normal 1.0763264517037e-32 1.45824874101792e-32 1.0
outer loop
vertex -1.97220112368121 -7.3603547963227 1.905
vertex 0.0 -10.922 1.905
vertex 0.0 -7.62 1.905
endloop
endfacet
facet normal 1.0763264517037e-32 1.45824874101792e-32 1.0
outer loop
vertex 0.0 -7.62 1.905
vertex 0.0 -10.922 1.905
vertex 2.82682161060973 -10.5498418747292 1.905
endloop
endfacet
facet normal 1.0763264517037e-32 1.45824874101792e-32 1.0
outer loop
vertex 0.0 -7.62 1.905
vertex 2.82682161060973 -10.5498418747292 1.905
vertex 1.97220112368121 -7.3603547963227 1.905
endloop
endfacet
facet normal 1.0763264517037e-32 1.45824874101792e-32 1.0
outer loop
vertex 1.97220112368121 -7.3603547963227 1.905
vertex 2.82682161060973 -10.5498418747292 1.905
vertex 3.80999999999999 -6.59911357683742 1.905
endloop
endfacet
facet normal 1.0763264517037e-32 1.45824874101792e-32 1.0
outer loop
vertex 3.80999999999999 -6.59911357683742 1.905
vertex 2.82682161060973 -10.5498418747292 1.905
vertex 5.461 -9.45872946013364 1.905
endloop
endfacet
facet normal 1.0763264517037e-32 1.45824874101792e-32 1.0
outer loop
vertex 3.80999999999999 -6.59911357683742 1.905
vertex 5.461 -9.45872946013364 1.905
vertex 5.38815367264149 -5.38815367264149 1.905
endloop
endfacet
facet normal 1.0763264517037e-32 1.45824874101792e-32 1.0
outer loop
vertex 5.38815367264149 -5.38815367264149 1.905
vertex 5.461 -9.45872946013364 1.905
vertex 6.59911357683742 -3.81 1.905
endloop
endfacet
facet normal 1.0763264517037e-32 1.45824874101792e-32 1.0
outer loop
vertex 6.59911357683742 -3.81 1.905
vertex 5.461 -9.45872946013364 1.905
vertex 7.72302026411947 -7.72302026411947 1.905
endloop
endfacet
facet normal 1.0763264517037e-32 1.45824874101792e-32 1.0
outer loop
vertex 6.59911357683742 -3.81 1.905
vertex 7.72302026411947 -7.72302026411947 1.905
vertex 7.3603547963227 -1.97220112368121 1.905
endloop
endfacet
facet normal 1.0763264517037e-32 1.45824874101792e-32 1.0
outer loop
vertex 7.3603547963227 -1.97220112368121 1.905
vertex 7.72302026411947 -7.72302026411947 1.905
vertex 7.62 0.0 1.905
endloop
endfacet
facet normal 1.0763264517037e-32 1.45824874101792e-32 1.0
outer loop
vertex -10.5498418747292 -2.82682161060973 1.905
vertex -10.5498418747292 2.82682161060973 1.905
vertex -10.922 -2.8199664825479e-15 1.905
endloop
endfacet
facet normal 1.0763264517037e-32 1.45824874101792e-32 1.0
outer loop
vertex -10.5498418747292 2.82682161060973 1.905
vertex -10.5498418747292 -2.82682161060973 1.905
vertex -9.45872946013364 5.461 1.905
endloop
endfacet
facet normal 1.0763264517037e-32 1.45824874101792e-32 1.0
outer loop
vertex -9.45872946013364 5.461 1.905
vertex -10.5498418747292 -2.82682161060973 1.905
vertex -9.45872946013364 -5.461 1.905
endloop
endfacet
facet normal 1.0763264517037e-32 1.45824874101792e-32 1.0
outer loop
vertex -9.45872946013364 5.461 1.905
vertex -9.45872946013364 -5.461 1.905
vertex -7.72302026411948 7.72302026411947 1.905
endloop
endfacet
facet normal 1.0763264517037e-32 1.45824874101792e-32 1.0
outer loop
vertex -7.72302026411948 7.72302026411947 1.905
vertex -9.45872946013364 -5.461 1.905
vertex -7.72302026411947 -7.72302026411947 1.905
endloop
endfacet
facet normal 1.0763264517037e-32 1.45824874101792e-32 1.0
outer loop
vertex -7.72302026411948 7.72302026411947 1.905
vertex -7.72302026411947 -7.72302026411947 1.905
vertex -7.62 0.0 1.905
endloop
endfacet
facet normal 1.0763264517037e-32 1.45824874101792e-32 1.0
outer loop
vertex -7.72302026411948 7.72302026411947 1.905
vertex -7.62 0.0 1.905
vertex -7.3603547963227 1.97220112368121 1.905
endloop
endfacet
facet normal 1.0763264517037e-32 1.45824874101792e-32 1.0
outer loop
vertex -7.72302026411948 7.72302026411947 1.905
vertex -7.3603547963227 1.97220112368121 1.905
vertex -5.461 9.45872946013363 1.905
endloop
endfacet
facet normal 1.0763264517037e-32 1.45824874101792e-32 1.0
outer loop
vertex -5.461 9.45872946013363 1.905
vertex -7.3603547963227 1.97220112368121 1.905
vertex -6.59911357683742 3.81 1.905
endloop
endfacet
facet normal 1.0763264517037e-32 1.45824874101792e-32 1.0
outer loop
vertex -5.461 9.45872946013363 1.905
vertex -6.59911357683742 3.81 1.905
vertex -5.38815367264149 5.38815367264149 1.905
endloop
endfacet
facet normal 1.0763264517037e-32 1.45824874101792e-32 1.0
outer loop
vertex -5.461 9.45872946013363 1.905
vertex -5.38815367264149 5.38815367264149 1.905
vertex -2.82682161060974 10.5498418747292 1.905
endloop
endfacet
facet normal 1.0763264517037e-32 1.45824874101792e-32 1.0
outer loop
vertex -2.82682161060974 10.5498418747292 1.905
vertex -5.38815367264149 5.38815367264149 1.905
vertex -3.81 6.59911357683742 1.905
endloop
endfacet
facet normal 1.0763264517037e-32 1.45824874101792e-32 1.0
outer loop
vertex -2.82682161060974 10.5498418747292 1.905
vertex -3.81 6.59911357683742 1.905
vertex -1.97220112368121 7.3603547963227 1.905
endloop
endfacet
facet normal 1.0763264517037e-32 1.45824874101792e-32 1.0
outer loop
vertex -2.82682161060974 10.5498418747292 1.905
vertex -1.97220112368121 7.3603547963227 1.905
vertex 0.0 10.922 1.905
endloop
endfacet
facet normal 1.0763264517037e-32 1.45824874101792e-32 1.0
outer loop
vertex 0.0 10.922 1.905
vertex -1.97220112368121 7.3603547963227 1.905
vertex 0.0 7.62 1.905
endloop
endfacet
facet normal 1.0763264517037e-32 1.45824874101792e-32 1.0
outer loop
vertex 0.0 10.922 1.905
vertex 0.0 7.62 1.905
vertex 1.97220112368121 7.3603547963227 1.905
endloop
endfacet
facet normal 1.0763264517037e-32 1.45824874101792e-32 1.0
outer loop
vertex 0.0 10.922 1.905
vertex 1.97220112368121 7.3603547963227 1.905
vertex 2.82682161060973 10.5498418747292 1.905
endloop
endfacet
facet normal 1.0763264517037e-32 1.45824874101792e-32 1.0
outer loop
vertex 2.82682161060973 10.5498418747292 1.905
vertex 1.97220112368121 7.3603547963227 1.905
vertex 3.81 6.59911357683742 1.905
endloop
endfacet
facet normal 1.0763264517037e-32 1.45824874101792e-32 1.0
outer loop
vertex 2.82682161060973 10.5498418747292 1.905
vertex 3.81 6.59911357683742 1.905
vertex 5.46099999999999 9.45872946013364 1.905
endloop
endfacet
facet normal 1.0763264517037e-32 1.45824874101792e-32 1.0
outer loop
vertex 5.46099999999999 9.45872946013364 1.905
vertex 3.81 6.59911357683742 1.905
vertex 5.38815367264149 5.38815367264149 1.905
endloop
endfacet
facet normal 1.0763264517037e-32 1.45824874101792e-32 1.0
outer loop
vertex 5.46099999999999 9.45872946013364 1.905
vertex 5.38815367264149 5.38815367264149 1.905
vertex 6.59911357683742 3.81 1.905
endloop
endfacet
facet normal 1.0763264517037e-32 1.45824874101792e-32 1.0
outer loop
vertex 5.46099999999999 9.45872946013364 1.905
vertex 6.59911357683742 3.81 1.905
vertex 7.72302026411947 7.72302026411947 1.905
endloop
endfacet
facet normal 1.0763264517037e-32 1.45824874101792e-32 1.0
outer loop
vertex 7.72302026411947 7.72302026411947 1.905
vertex 6.59911357683742 3.81 1.905
vertex 7.3603547963227 1.97220112368121 1.905
endloop
endfacet
facet normal 1.0763264517037e-32 1.45824874101792e-32 1.0
outer loop
vertex 7.72302026411947 7.72302026411947 1.905
vertex 7.3603547963227 1.97220112368121 1.905
vertex 7.62 0.0 1.905
endloop
endfacet
facet normal 1.0763264517037e-32 1.45824874101792e-32 1.0
outer loop
vertex 7.72302026411947 7.72302026411947 1.905
vertex 7.62 0.0 1.905
vertex 7.72302026411947 -7.72302026411947 1.905
endloop
endfacet
facet normal 1.0763264517037e-32 1.45824874101792e-32 1.0
outer loop
vertex 7.72302026411947 7.72302026411947 1.905
vertex 7.72302026411947 -7.72302026411947 1.905
vertex 9.45872946013364 -5.461 1.905
endloop
endfacet
facet normal 1.0763264517037e-32 1.45824874101792e-32 1.0
outer loop
vertex 7.72302026411947 7.72302026411947 1.905
vertex 9.45872946013364 -5.461 1.905
vertex 9.45872946013363 5.461 1.905
endloop
endfacet
facet normal 1.0763264517037e-32 1.45824874101792e-32 1.0
outer loop
vertex 9.45872946013363 5.461 1.905
vertex 9.45872946013364 -5.461 1.905
vertex 10.5498418747292 2.82682161060974 1.905
endloop
endfacet
facet normal 1.0763264517037e-32 1.45824874101792e-32 1.0
outer loop
vertex 10.5498418747292 2.82682161060974 1.905
vertex 9.45872946013364 -5.461 1.905
vertex 10.5498418747292 -2.82682161060973 1.905
endloop
endfacet
facet normal 1.0763264517037e-32 1.45824874101792e-32 1.0
outer loop
vertex 10.5498418747292 2.82682161060974 1.905
vertex 10.5498418747292 -2.82682161060973 1.905
vertex 10.922 0.0 1.905
endloop
endfacet
facet normal -0.130526192220053 -0.99144486137381 0.0
outer loop
vertex -11.6837768737647 -4.69564990635176 5.715
vertex -12.4086257023008 -4.60022174770169 0.0
vertex -11.6837768737647 -4.69564990635176 0.0
endloop
endfacet
facet normal -0.258819045102521 -0.965925826289068 0.0
outer loop
vertex -12.4086257023008 -4.60022174770169 0.0
vertex -11.6837768737647 -4.69564990635176 5.715
vertex -12.4086257023008 -4.60022174770169 5.715
endloop
endfacet
facet normal -0.258819045102521 0.965925826289068 1.81990852969183e-17
outer loop
vertex -12.4086257023008 4.60022174770168 5.715
vertex -11.6837768737647 4.69564990635176 0.0
vertex -12.4086257023008 4.60022174770168 0.0
endloop
endfacet
facet normal -0.130526192220052 0.99144486137381 3.60867791986665e-17
outer loop
vertex -11.6837768737647 4.69564990635176 0.0
vertex -12.4086257023008 4.60022174770168 5.715
vertex -11.6837768737647 4.69564990635176 5.715
endloop
endfacet
facet normal -0.258819045102521 -0.965925826289068 0.0
outer loop
vertex -12.4086257023008 -4.60022174770169 5.715
vertex -13.55725 -4.12444598552339 0.0
vertex -12.4086257023008 -4.60022174770169 0.0
endloop
endfacet
facet normal -0.5 -0.866025403784439 0.0
outer loop
vertex -13.55725 -4.12444598552339 0.0
vertex -12.4086257023008 -4.60022174770169 5.715
vertex -13.55725 -4.12444598552339 5.715
endloop
endfacet
facet normal -0.5 -0.866025403784439 0.0
outer loop
vertex -13.55725 -4.12444598552339 5.715
vertex -14.5435960454009 -3.36759604540093 0.0
vertex -13.55725 -4.12444598552339 0.0
endloop
endfacet
facet normal -0.707106781186548 -0.707106781186547 0.0
outer loop
vertex -14.5435960454009 -3.36759604540093 0.0
vertex -13.55725 -4.12444598552339 5.715
vertex -14.5435960454009 -3.36759604540093 5.715
endloop
endfacet
facet normal -0.866025403784439 -0.5 0.0
outer loop
vertex -15.3004459855234 -2.38125 5.715
vertex -14.5435960454009 -3.36759604540093 0.0
vertex -14.5435960454009 -3.36759604540093 5.715
endloop
endfacet
facet normal -0.707106781186548 -0.707106781186547 0.0
outer loop
vertex -14.5435960454009 -3.36759604540093 0.0
vertex -15.3004459855234 -2.38125 5.715
vertex -15.3004459855234 -2.38125 0.0
endloop
endfacet
facet normal -0.965925826289068 -0.258819045102521 0.0
outer loop
vertex -15.7762217477017 -1.23262570230076 5.715
vertex -15.3004459855234 -2.38125 0.0
vertex -15.3004459855234 -2.38125 5.715
endloop
endfacet
facet normal -0.866025403784439 -0.5 0.0
outer loop
vertex -15.3004459855234 -2.38125 0.0
vertex -15.7762217477017 -1.23262570230076 5.715
vertex -15.7762217477017 -1.23262570230076 0.0
endloop
endfacet
facet normal -0.965925826289068 0.258819045102521 0.0
outer loop
vertex -15.7762217477017 1.23262570230076 5.715
vertex -15.9385 -2.8199664825479e-15 0.0
vertex -15.9385 -2.8199664825479e-15 5.715
endloop
endfacet
facet normal -1.0 3.56444395825876e-16 0.0
outer loop
vertex -15.9385 -2.8199664825479e-15 0.0
vertex -15.7762217477017 1.23262570230076 5.715
vertex -15.7762217477017 1.23262570230076 0.0
endloop
endfacet
facet normal -0.866025403784439 0.5 0.0
outer loop
vertex -15.3004459855234 2.38125 5.715
vertex -15.7762217477017 1.23262570230076 0.0
vertex -15.7762217477017 1.23262570230076 5.715
endloop
endfacet
facet normal -0.965925826289068 0.258819045102521 0.0
outer loop
vertex -15.7762217477017 1.23262570230076 0.0
vertex -15.3004459855234 2.38125 5.715
vertex -15.3004459855234 2.38125 0.0
endloop
endfacet
facet normal -0.707106781186547 0.707106781186548 0.0
outer loop
vertex -14.5435960454009 3.36759604540093 5.715
vertex -15.3004459855234 2.38125 0.0
vertex -15.3004459855234 2.38125 5.715
endloop
endfacet
facet normal -0.866025403784439 0.5 0.0
outer loop
vertex -15.3004459855234 2.38125 0.0
vertex -14.5435960454009 3.36759604540093 5.715
vertex -14.5435960454009 3.36759604540093 0.0
endloop
endfacet
facet normal -0.707106781186547 0.707106781186548 0.0
outer loop
vertex -14.5435960454009 3.36759604540093 5.715
vertex -13.55725 4.12444598552339 0.0
vertex -14.5435960454009 3.36759604540093 0.0
endloop
endfacet
facet normal -0.5 0.866025403784439 0.0
outer loop
vertex -13.55725 4.12444598552339 0.0
vertex -14.5435960454009 3.36759604540093 5.715
vertex -13.55725 4.12444598552339 5.715
endloop
endfacet
facet normal -0.5 0.866025403784439 0.0
outer loop
vertex -13.55725 4.12444598552339 5.715
vertex -12.4086257023008 4.60022174770168 0.0
vertex -13.55725 4.12444598552339 0.0
endloop
endfacet
facet normal -0.258819045102521 0.965925826289068 1.81990852969183e-17
outer loop
vertex -12.4086257023008 4.60022174770168 0.0
vertex -13.55725 4.12444598552339 5.715
vertex -12.4086257023008 4.60022174770168 5.715
endloop
endfacet
facet normal -1.0 3.56444395825876e-16 0.0
outer loop
vertex -15.9385 -2.8199664825479e-15 5.715
vertex -15.7762217477017 -1.23262570230076 0.0
vertex -15.7762217477017 -1.23262570230076 5.715
endloop
endfacet
facet normal -0.965925826289068 -0.258819045102521 0.0
outer loop
vertex -15.7762217477017 -1.23262570230076 0.0
vertex -15.9385 -2.8199664825479e-15 5.715
vertex -15.9385 -2.8199664825479e-15 0.0
endloop
endfacet
facet normal -0.923879532511287 -0.382683432365089 0.0
outer loop
vertex -11.6837768737647 -4.69564990635176 5.715
vertex -10.9985226280624 -6.35 0.0
vertex -10.9985226280624 -6.35 5.715
endloop
endfacet
facet normal -0.866025403784439 -0.5 0.0
outer loop
vertex -10.9985226280624 -6.35 0.0
vertex -11.6837768737647 -4.69564990635176 5.715
vertex -11.6837768737647 -4.69564990635176 0.0
endloop
endfacet
facet normal 0.0 0.0 -1.0
outer loop
vertex -6.35 10.9985226280624 0.0
vertex -7.62 0.0 0.0
vertex -8.98025612106915 8.98025612106915 0.0
endloop
endfacet
facet normal 0.0 0.0 -1.0
outer loop
vertex -7.62 0.0 0.0
vertex -6.35 10.9985226280624 0.0
vertex -7.3603547963227 1.97220112368121 0.0
endloop
endfacet
facet normal 0.0 0.0 -1.0
outer loop
vertex -7.3603547963227 1.97220112368121 0.0
vertex -6.35 10.9985226280624 0.0
vertex -6.59911357683742 3.81 0.0
endloop
endfacet
facet normal 0.0 0.0 -1.0
outer loop
vertex -6.59911357683742 3.81 0.0
vertex -6.35 10.9985226280624 0.0
vertex -5.38815367264149 5.38815367264149 0.0
endloop
endfacet
facet normal 0.0 0.0 -1.0
outer loop
vertex -5.38815367264149 5.38815367264149 0.0
vertex -6.35 10.9985226280624 0.0
vertex -4.69564990635176 11.6837768737647 0.0
endloop
endfacet
facet normal 0.0 0.0 -1.0
outer loop
vertex -5.38815367264149 5.38815367264149 0.0
vertex -4.69564990635176 11.6837768737647 0.0
vertex -3.81 6.59911357683742 0.0
endloop
endfacet
facet normal 0.0 0.0 -1.0
outer loop
vertex -3.81 6.59911357683742 0.0
vertex -4.69564990635176 11.6837768737647 0.0
vertex -4.60022174770169 12.4086257023008 0.0
endloop
endfacet
facet normal 0.0 0.0 -1.0
outer loop
vertex -3.81 6.59911357683742 0.0
vertex -4.60022174770169 12.4086257023008 0.0
vertex -4.12444598552339 13.55725 0.0
endloop
endfacet
facet normal 0.0 0.0 -1.0
outer loop
vertex -3.81 6.59911357683742 0.0
vertex -4.12444598552339 13.55725 0.0
vertex -3.36759604540093 14.5435960454009 0.0
endloop
endfacet
facet normal 0.0 0.0 -1.0
outer loop
vertex -3.81 6.59911357683742 0.0
vertex -3.36759604540093 14.5435960454009 0.0
vertex -1.97220112368121 7.3603547963227 0.0
endloop
endfacet
facet normal 0.0 0.0 -1.0
outer loop
vertex -1.97220112368121 7.3603547963227 0.0
vertex -3.36759604540093 14.5435960454009 0.0
vertex -2.38125 15.3004459855234 0.0
endloop
endfacet
facet normal 0.0 0.0 -1.0
outer loop
vertex -1.97220112368121 7.3603547963227 0.0
vertex -2.38125 15.3004459855234 0.0
vertex -1.23262570230075 15.7762217477017 0.0
endloop
endfacet
facet normal 0.0 0.0 -1.0
outer loop
vertex -1.97220112368121 7.3603547963227 0.0
vertex -1.23262570230075 15.7762217477017 0.0
vertex 0.0 7.62 0.0
endloop
endfacet
facet normal 0.0 0.0 -1.0
outer loop
vertex 0.0 7.62 0.0
vertex -1.23262570230075 15.7762217477017 0.0
vertex 0.0 15.9385 0.0
endloop
endfacet
facet normal 0.0 0.0 -1.0
outer loop
vertex 0.0 7.62 0.0
vertex 0.0 15.9385 0.0
vertex 1.23262570230076 15.7762217477017 0.0
endloop
endfacet
facet normal 0.0 0.0 -1.0
outer loop
vertex 0.0 7.62 0.0
vertex 1.23262570230076 15.7762217477017 0.0
vertex 1.97220112368121 7.3603547963227 0.0
endloop
endfacet
facet normal 0.0 0.0 -1.0
outer loop
vertex 1.97220112368121 7.3603547963227 0.0
vertex 1.23262570230076 15.7762217477017 0.0
vertex 2.38125 15.3004459855234 0.0
endloop
endfacet
facet normal 0.0 0.0 -1.0
outer loop
vertex 1.97220112368121 7.3603547963227 0.0
vertex 2.38125 15.3004459855234 0.0
vertex 3.81 6.59911357683742 0.0
endloop
endfacet
facet normal 0.0 0.0 -1.0
outer loop
vertex 3.81 6.59911357683742 0.0
vertex 2.38125 15.3004459855234 0.0
vertex 3.36759604540093 14.5435960454009 0.0
endloop
endfacet
facet normal 0.0 0.0 -1.0
outer loop
vertex 3.81 6.59911357683742 0.0
vertex 3.36759604540093 14.5435960454009 0.0
vertex 4.12444598552339 13.55725 0.0
endloop
endfacet
facet normal 0.0 0.0 -1.0
outer loop
vertex 3.81 6.59911357683742 0.0
vertex 4.12444598552339 13.55725 0.0
vertex 5.38815367264149 5.38815367264149 0.0
endloop
endfacet
facet normal 0.0 0.0 -1.0
outer loop
vertex 5.38815367264149 5.38815367264149 0.0
vertex 4.12444598552339 13.55725 0.0
vertex 4.60022174770169 12.4086257023007 0.0
endloop
endfacet
facet normal 0.0 0.0 -1.0
outer loop
vertex 5.38815367264149 5.38815367264149 0.0
vertex 4.60022174770169 12.4086257023007 0.0
vertex 4.69564990635176 11.6837768737647 0.0
endloop
endfacet
facet normal 0.0 0.0 -1.0
outer loop
vertex 5.38815367264149 5.38815367264149 0.0
vertex 4.69564990635176 11.6837768737647 0.0
vertex 6.35 10.9985226280624 0.0
endloop
endfacet
facet normal 0.0 0.0 -1.0
outer loop
vertex 5.38815367264149 5.38815367264149 0.0
vertex 6.35 10.9985226280624 0.0
vertex 6.59911357683742 3.81 0.0
endloop
endfacet
facet normal 0.0 0.0 -1.0
outer loop
vertex 6.59911357683742 3.81 0.0
vertex 6.35 10.9985226280624 0.0
vertex 8.98025612106915 8.98025612106915 0.0
endloop
endfacet
facet normal 0.0 0.0 -1.0
outer loop
vertex 6.59911357683742 3.81 0.0
vertex 8.98025612106915 8.98025612106915 0.0
vertex 7.3603547963227 1.97220112368121 0.0
endloop
endfacet
facet normal 0.0 0.0 -1.0
outer loop
vertex 7.3603547963227 1.97220112368121 0.0
vertex 8.98025612106915 8.98025612106915 0.0
vertex 7.62 0.0 0.0
endloop
endfacet
facet normal 0.0 0.0 -1.0
outer loop
vertex -15.7762217477017 1.23262570230076 0.0
vertex -15.7762217477017 -1.23262570230076 0.0
vertex -15.9385 -2.8199664825479e-15 0.0
endloop
endfacet
facet normal 0.0 0.0 -1.0
outer loop
vertex -15.7762217477017 -1.23262570230076 0.0
vertex -15.7762217477017 1.23262570230076 0.0
vertex -15.3004459855234 2.38125 0.0
endloop
endfacet
facet normal 0.0 0.0 -1.0
outer loop
vertex -15.7762217477017 -1.23262570230076 0.0
vertex -15.3004459855234 2.38125 0.0
vertex -15.3004459855234 -2.38125 0.0
endloop
endfacet
facet normal 0.0 0.0 -1.0
outer loop
vertex -15.3004459855234 -2.38125 0.0
vertex -15.3004459855234 2.38125 0.0
vertex -14.5435960454009 3.36759604540093 0.0
endloop
endfacet
facet normal 0.0 0.0 -1.0
outer loop
vertex -15.3004459855234 -2.38125 0.0
vertex -14.5435960454009 3.36759604540093 0.0
vertex -14.5435960454009 -3.36759604540093 0.0
endloop
endfacet
facet normal 0.0 0.0 -1.0
outer loop
vertex -14.5435960454009 -3.36759604540093 0.0
vertex -14.5435960454009 3.36759604540093 0.0
vertex -13.55725 4.12444598552339 0.0
endloop
endfacet
facet normal 0.0 0.0 -1.0
outer loop
vertex -14.5435960454009 -3.36759604540093 0.0
vertex -13.55725 4.12444598552339 0.0
vertex -13.55725 -4.12444598552339 0.0
endloop
endfacet
facet normal 0.0 0.0 -1.0
outer loop
vertex -13.55725 -4.12444598552339 0.0
vertex -13.55725 4.12444598552339 0.0
vertex -12.4086257023008 -4.60022174770169 0.0
endloop
endfacet
facet normal 0.0 0.0 -1.0
outer loop
vertex -12.4086257023008 -4.60022174770169 0.0
vertex -13.55725 4.12444598552339 0.0
vertex -12.4086257023008 4.60022174770168 0.0
endloop
endfacet
facet normal 0.0 0.0 -1.0
outer loop
vertex -12.4086257023008 -4.60022174770169 0.0
vertex -12.4086257023008 4.60022174770168 0.0
vertex -11.6837768737647 -4.69564990635176 0.0
endloop
endfacet
facet normal 0.0 0.0 -1.0
outer loop
vertex -11.6837768737647 -4.69564990635176 0.0
vertex -12.4086257023008 4.60022174770168 0.0
vertex -11.6837768737647 4.69564990635176 0.0
endloop
endfacet
facet normal 0.0 0.0 -1.0
outer loop
vertex -11.6837768737647 -4.69564990635176 0.0
vertex -11.6837768737647 4.69564990635176 0.0
vertex -10.9985226280624 6.35 0.0
endloop
endfacet
facet normal 0.0 0.0 -1.0
outer loop
vertex -11.6837768737647 -4.69564990635176 0.0
vertex -10.9985226280624 6.35 0.0
vertex -10.9985226280624 -6.35 0.0
endloop
endfacet
facet normal 0.0 0.0 -1.0
outer loop
vertex -10.9985226280624 -6.35 0.0
vertex -10.9985226280624 6.35 0.0
vertex -8.98025612106916 -8.98025612106915 0.0
endloop
endfacet
facet normal 0.0 0.0 -1.0
outer loop
vertex -8.98025612106916 -8.98025612106915 0.0
vertex -10.9985226280624 6.35 0.0
vertex -8.98025612106915 8.98025612106915 0.0
endloop
endfacet
facet normal 0.0 0.0 -1.0
outer loop
vertex -8.98025612106916 -8.98025612106915 0.0
vertex -8.98025612106915 8.98025612106915 0.0
vertex -6.35 -10.9985226280624 0.0
endloop
endfacet
facet normal 0.0 0.0 -1.0
outer loop
vertex -6.35 -10.9985226280624 0.0
vertex -8.98025612106915 8.98025612106915 0.0
vertex -7.62 0.0 0.0
endloop
endfacet
facet normal 0.0 0.0 -1.0
outer loop
vertex -6.35 -10.9985226280624 0.0
vertex -7.62 0.0 0.0
vertex -7.3603547963227 -1.97220112368121 0.0
endloop
endfacet
facet normal 0.0 0.0 -1.0
outer loop
vertex -6.35 -10.9985226280624 0.0
vertex -7.3603547963227 -1.97220112368121 0.0
vertex -6.59911357683742 -3.81 0.0
endloop
endfacet
facet normal 0.0 0.0 -1.0
outer loop
vertex -6.35 -10.9985226280624 0.0
vertex -6.59911357683742 -3.81 0.0
vertex -5.3881536726415 -5.38815367264149 0.0
endloop
endfacet
facet normal 0.0 0.0 -1.0
outer loop
vertex -6.35 -10.9985226280624 0.0
vertex -5.3881536726415 -5.38815367264149 0.0
vertex -4.69564990635176 -11.6837768737647 0.0
endloop
endfacet
facet normal 0.0 0.0 -1.0
outer loop
vertex -4.69564990635176 -11.6837768737647 0.0
vertex -5.3881536726415 -5.38815367264149 0.0
vertex -3.81 -6.59911357683742 0.0
endloop
endfacet
facet normal 0.0 0.0 -1.0
outer loop
vertex -4.69564990635176 -11.6837768737647 0.0
vertex -3.81 -6.59911357683742 0.0
vertex -4.60022174770169 -12.4086257023008 0.0
endloop
endfacet
facet normal 0.0 0.0 -1.0
outer loop
vertex -4.60022174770169 -12.4086257023008 0.0
vertex -3.81 -6.59911357683742 0.0
vertex -4.12444598552339 -13.55725 0.0
endloop
endfacet
facet normal 0.0 0.0 -1.0
outer loop
vertex -4.12444598552339 -13.55725 0.0
vertex -3.81 -6.59911357683742 0.0
vertex -3.36759604540094 -14.5435960454009 0.0
endloop
endfacet
facet normal 0.0 0.0 -1.0
outer loop
vertex -3.36759604540094 -14.5435960454009 0.0
vertex -3.81 -6.59911357683742 0.0
vertex -1.97220112368121 -7.3603547963227 0.0
endloop
endfacet
facet normal 0.0 0.0 -1.0
outer loop
vertex -3.36759604540094 -14.5435960454009 0.0
vertex -1.97220112368121 -7.3603547963227 0.0
vertex -2.38125000000001 -15.3004459855234 0.0
endloop
endfacet
facet normal 0.0 0.0 -1.0
outer loop
vertex -2.38125000000001 -15.3004459855234 0.0
vertex -1.97220112368121 -7.3603547963227 0.0
vertex -1.23262570230076 -15.7762217477017 0.0
endloop
endfacet
facet normal 0.0 0.0 -1.0
outer loop
vertex -1.23262570230076 -15.7762217477017 0.0
vertex -1.97220112368121 -7.3603547963227 0.0
vertex 0.0 -7.62 0.0
endloop
endfacet
facet normal 0.0 0.0 -1.0
outer loop
vertex -1.23262570230076 -15.7762217477017 0.0
vertex 0.0 -7.62 0.0
vertex -2.8199664825479e-15 -15.9385 0.0
endloop
endfacet
facet normal 0.0 0.0 -1.0
outer loop
vertex -2.8199664825479e-15 -15.9385 0.0
vertex 0.0 -7.62 0.0
vertex 1.23262570230075 -15.7762217477017 0.0
endloop
endfacet
facet normal 0.0 0.0 -1.0
outer loop
vertex 1.23262570230075 -15.7762217477017 0.0
vertex 0.0 -7.62 0.0
vertex 1.97220112368121 -7.3603547963227 0.0
endloop
endfacet
facet normal 0.0 0.0 -1.0
outer loop
vertex 1.23262570230075 -15.7762217477017 0.0
vertex 1.97220112368121 -7.3603547963227 0.0
vertex 2.38125 -15.3004459855234 0.0
endloop
endfacet
facet normal 0.0 0.0 -1.0
outer loop
vertex 2.38125 -15.3004459855234 0.0
vertex 1.97220112368121 -7.3603547963227 0.0
vertex 3.80999999999999 -6.59911357683742 0.0
endloop
endfacet
facet normal 0.0 0.0 -1.0
outer loop
vertex 2.38125 -15.3004459855234 0.0
vertex 3.80999999999999 -6.59911357683742 0.0
vertex 3.36759604540093 -14.5435960454009 0.0
endloop
endfacet
facet normal 0.0 0.0 -1.0
outer loop
vertex 3.36759604540093 -14.5435960454009 0.0
vertex 3.80999999999999 -6.59911357683742 0.0
vertex 4.12444598552339 -13.55725 0.0
endloop
endfacet
facet normal 0.0 0.0 -1.0
outer loop
vertex 4.12444598552339 -13.55725 0.0
vertex 3.80999999999999 -6.59911357683742 0.0
vertex 5.38815367264149 -5.38815367264149 0.0
endloop
endfacet
facet normal 0.0 0.0 -1.0
outer loop
vertex 4.12444598552339 -13.55725 0.0
vertex 5.38815367264149 -5.38815367264149 0.0
vertex 4.60022174770169 -12.4086257023008 0.0
endloop
endfacet
facet normal 0.0 0.0 -1.0
outer loop
vertex 4.60022174770169 -12.4086257023008 0.0
vertex 5.38815367264149 -5.38815367264149 0.0
vertex 4.69564990635176 -11.6837768737647 0.0
endloop
endfacet
facet normal 0.0 0.0 -1.0
outer loop
vertex 4.69564990635176 -11.6837768737647 0.0
vertex 5.38815367264149 -5.38815367264149 0.0
vertex 6.34999999999999 -10.9985226280624 0.0
endloop
endfacet
facet normal 0.0 0.0 -1.0
outer loop
vertex 6.34999999999999 -10.9985226280624 0.0
vertex 5.38815367264149 -5.38815367264149 0.0
vertex 6.59911357683742 -3.81 0.0
endloop
endfacet
facet normal 0.0 0.0 -1.0
outer loop
vertex 6.34999999999999 -10.9985226280624 0.0
vertex 6.59911357683742 -3.81 0.0
vertex 8.98025612106915 -8.98025612106916 0.0
endloop
endfacet
facet normal 0.0 0.0 -1.0
outer loop
vertex 8.98025612106915 -8.98025612106916 0.0
vertex 6.59911357683742 -3.81 0.0
vertex 7.3603547963227 -1.97220112368121 0.0
endloop
endfacet
facet normal 0.0 0.0 -1.0
outer loop
vertex 8.98025612106915 -8.98025612106916 0.0
vertex 7.3603547963227 -1.97220112368121 0.0
vertex 7.62 0.0 0.0
endloop
endfacet
facet normal 0.0 0.0 -1.0
outer loop
vertex 8.98025612106915 -8.98025612106916 0.0
vertex 7.62 0.0 0.0
vertex 8.98025612106915 8.98025612106915 0.0
endloop
endfacet
facet normal 0.0 0.0 -1.0
outer loop
vertex 8.98025612106915 -8.98025612106916 0.0
vertex 8.98025612106915 8.98025612106915 0.0
vertex 10.9985226280624 6.35 0.0
endloop
endfacet
facet normal 0.0 0.0 -1.0
outer loop
vertex 8.98025612106915 -8.98025612106916 0.0
vertex 10.9985226280624 6.35 0.0
vertex 10.9985226280624 -6.35 0.0
endloop
endfacet
facet normal 0.0 0.0 -1.0
outer loop
vertex 10.9985226280624 -6.35 0.0
vertex 10.9985226280624 6.35 0.0
vertex 11.6837768737647 -4.69564990635176 0.0
endloop
endfacet
facet normal 0.0 0.0 -1.0
outer loop
vertex 11.6837768737647 -4.69564990635176 0.0
vertex 10.9985226280624 6.35 0.0
vertex 11.6837768737647 4.69564990635176 0.0
endloop
endfacet
facet normal 0.0 0.0 -1.0
outer loop
vertex 11.6837768737647 -4.69564990635176 0.0
vertex 11.6837768737647 4.69564990635176 0.0
vertex 12.4086257023008 4.60022174770168 0.0
endloop
endfacet
facet normal 0.0 0.0 -1.0
outer loop
vertex 11.6837768737647 -4.69564990635176 0.0
vertex 12.4086257023008 4.60022174770168 0.0
vertex 12.4086257023007 -4.60022174770169 0.0
endloop
endfacet
facet normal 0.0 0.0 -1.0
outer loop
vertex 12.4086257023007 -4.60022174770169 0.0
vertex 12.4086257023008 4.60022174770168 0.0
vertex 13.55725 -4.1244459855234 0.0
endloop
endfacet
facet normal 0.0 0.0 -1.0
outer loop
vertex 13.55725 -4.1244459855234 0.0
vertex 12.4086257023008 4.60022174770168 0.0
vertex 13.55725 4.12444598552338 0.0
endloop
endfacet
facet normal 0.0 0.0 -1.0
outer loop
vertex 13.55725 -4.1244459855234 0.0
vertex 13.55725 4.12444598552338 0.0
vertex 14.5435960454009 -3.36759604540095 0.0
endloop
endfacet
facet normal 0.0 0.0 -1.0
outer loop
vertex 14.5435960454009 -3.36759604540095 0.0
vertex 13.55725 4.12444598552338 0.0
vertex 14.5435960454009 3.36759604540092 0.0
endloop
endfacet
facet normal 0.0 0.0 -1.0
outer loop
vertex 14.5435960454009 -3.36759604540095 0.0
vertex 14.5435960454009 3.36759604540092 0.0
vertex 15.3004459855234 -2.38125000000002 0.0
endloop
endfacet
facet normal 0.0 0.0 -1.0
outer loop
vertex 15.3004459855234 -2.38125000000002 0.0
vertex 14.5435960454009 3.36759604540092 0.0
vertex 15.3004459855234 2.38124999999998 0.0
endloop
endfacet
facet normal 0.0 0.0 -1.0
outer loop
vertex 15.3004459855234 -2.38125000000002 0.0
vertex 15.3004459855234 2.38124999999998 0.0
vertex 15.7762217477017 -1.23262570230078 0.0
endloop
endfacet
facet normal 0.0 0.0 -1.0
outer loop
vertex 15.7762217477017 -1.23262570230078 0.0
vertex 15.3004459855234 2.38124999999998 0.0
vertex 15.7762217477017 1.23262570230074 0.0
endloop
endfacet
facet normal 0.0 0.0 -1.0
outer loop
vertex 15.7762217477017 -1.23262570230078 0.0
vertex 15.7762217477017 1.23262570230074 0.0
vertex 15.9385 -1.97397653778353e-14 0.0
endloop
endfacet
facet normal -0.866025403784439 0.5 1.31341026200725e-16
outer loop
vertex -10.9985226280624 6.35 5.715
vertex -11.6837768737647 4.69564990635176 0.0
vertex -11.6837768737647 4.69564990635176 5.715
endloop
endfacet
facet normal -0.923879532511287 0.38268343236509 2.60434771028544e-16
outer loop
vertex -11.6837768737647 4.69564990635176 0.0
vertex -10.9985226280624 6.35 5.715
vertex -10.9985226280624 6.35 0.0
endloop
endfacet
facet normal -0.500000000000001 -0.866025403784438 1.41369829777251e-16
outer loop
vertex -6.35 -10.9985226280624 5.715
vertex -8.98025612106916 -8.98025612106915 0.0
vertex -6.35 -10.9985226280624 0.0
endloop
endfacet
facet normal -0.707106781186548 -0.707106781186547 0.0
outer loop
vertex -8.98025612106916 -8.98025612106915 0.0
vertex -6.35 -10.9985226280624 5.715
vertex -8.98025612106916 -8.98025612106915 5.715
endloop
endfacet
facet normal 8.73288769773397e-16 1.0 0.0
outer loop
vertex 0.0 15.9385 5.715
vertex 1.23262570230076 15.7762217477017 0.0
vertex 0.0 15.9385 0.0
endloop
endfacet
facet normal 0.258819045102522 0.965925826289068 0.0
outer loop
vertex 1.23262570230076 15.7762217477017 0.0
vertex 0.0 15.9385 5.715
vertex 1.23262570230076 15.7762217477017 5.715
endloop
endfacet
facet normal 0.25881904510252 -0.965925826289068 0.0
outer loop
vertex 1.23262570230075 -15.7762217477017 5.715
vertex -2.8199664825479e-15 -15.9385 0.0
vertex 1.23262570230075 -15.7762217477017 0.0
endloop
endfacet
facet normal -8.73288769773397e-16 -1.0 0.0
outer loop
vertex -2.8199664825479e-15 -15.9385 0.0
vertex 1.23262570230075 -15.7762217477017 5.715
vertex -2.8199664825479e-15 -15.9385 5.715
endloop
endfacet
facet normal -0.866025403784439 -0.5 0.0
outer loop
vertex -10.9985226280624 -6.35 5.715
vertex -8.98025612106916 -8.98025612106915 0.0
vertex -8.98025612106916 -8.98025612106915 5.715
endloop
endfacet
facet normal -0.707106781186548 -0.707106781186547 0.0
outer loop
vertex -8.98025612106916 -8.98025612106915 0.0
vertex -10.9985226280624 -6.35 5.715
vertex -10.9985226280624 -6.35 0.0
endloop
endfacet
facet normal 0.258819045102524 0.965925826289068 0.0
outer loop
vertex 12.4086257023008 4.60022174770168 5.715
vertex 13.55725 4.12444598552338 0.0
vertex 12.4086257023008 4.60022174770168 0.0
endloop
endfacet
facet normal 0.500000000000004 0.866025403784437 0.0
outer loop
vertex 13.55725 4.12444598552338 0.0
vertex 12.4086257023008 4.60022174770168 5.715
vertex 13.55725 4.12444598552338 5.715
endloop
endfacet
facet normal -0.25881904510252 0.965925826289068 0.0
outer loop
vertex -1.23262570230075 15.7762217477017 5.715
vertex 0.0 15.9385 0.0
vertex -1.23262570230075 15.7762217477017 0.0
endloop
endfacet
facet normal 8.73288769773397e-16 1.0 0.0
outer loop
vertex 0.0 15.9385 0.0
vertex -1.23262570230075 15.7762217477017 5.715
vertex 0.0 15.9385 5.715
endloop
endfacet
facet normal -0.258819045102522 -0.965925826289068 0.0
outer loop
vertex -1.23262570230076 -15.7762217477017 5.715
vertex -2.38125000000001 -15.3004459855234 0.0
vertex -1.23262570230076 -15.7762217477017 0.0
endloop
endfacet
facet normal -0.500000000000001 -0.866025403784438 0.0
outer loop
vertex -2.38125000000001 -15.3004459855234 0.0
vertex -1.23262570230076 -15.7762217477017 5.715
vertex -2.38125000000001 -15.3004459855234 5.715
endloop
endfacet
facet normal 0.965925826289067 -0.258819045102525 0.0
outer loop
vertex 15.7762217477017 -1.23262570230078 0.0
vertex 15.3004459855234 -2.38125000000002 5.715
vertex 15.3004459855234 -2.38125000000002 0.0
endloop
endfacet
facet normal 0.866025403784436 -0.500000000000004 0.0
outer loop
vertex 15.3004459855234 -2.38125000000002 5.715
vertex 15.7762217477017 -1.23262570230078 0.0
vertex 15.7762217477017 -1.23262570230078 5.715
endloop
endfacet
facet normal 0.866025403784436 -0.500000000000004 0.0
outer loop
vertex 15.3004459855234 -2.38125000000002 0.0
vertex 14.5435960454009 -3.36759604540095 5.715
vertex 14.5435960454009 -3.36759604540095 0.0
endloop
endfacet
facet normal 0.707106781186544 -0.707106781186551 0.0
outer loop
vertex 14.5435960454009 -3.36759604540095 5.715
vertex 15.3004459855234 -2.38125000000002 0.0
vertex 15.3004459855234 -2.38125000000002 5.715
endloop
endfacet
facet normal 0.707106781186548 0.707106781186547 0.0
outer loop
vertex 3.36759604540093 14.5435960454009 0.0
vertex 4.12444598552339 13.55725 5.715
vertex 4.12444598552339 13.55725 0.0
endloop
endfacet
facet normal 0.866025403784439 0.499999999999999 0.0
outer loop
vertex 4.12444598552339 13.55725 5.715
vertex 3.36759604540093 14.5435960454009 0.0
vertex 3.36759604540093 14.5435960454009 5.715
endloop
endfacet
facet normal 0.130526192220055 0.99144486137381 0.0
outer loop
vertex 11.6837768737647 4.69564990635176 5.715
vertex 12.4086257023008 4.60022174770168 0.0
vertex 11.6837768737647 4.69564990635176 0.0
endloop
endfacet
facet normal 0.258819045102524 0.965925826289068 0.0
outer loop
vertex 12.4086257023008 4.60022174770168 0.0
vertex 11.6837768737647 4.69564990635176 5.715
vertex 12.4086257023008 4.60022174770168 5.715
endloop
endfacet
facet normal 0.866025403784438 0.500000000000001 0.0
outer loop
vertex 10.9985226280624 6.35 0.0
vertex 11.6837768737647 4.69564990635176 5.715
vertex 11.6837768737647 4.69564990635176 0.0
endloop
endfacet
facet normal 0.923879532511287 0.38268343236509 0.0
outer loop
vertex 11.6837768737647 4.69564990635176 5.715
vertex 10.9985226280624 6.35 0.0
vertex 10.9985226280624 6.35 5.715
endloop
endfacet
facet normal 0.866025403784438 -0.5 0.0
outer loop
vertex 4.12444598552339 -13.55725 0.0
vertex 3.36759604540093 -14.5435960454009 5.715
vertex 3.36759604540093 -14.5435960454009 0.0
endloop
endfacet
facet normal 0.707106781186547 -0.707106781186548 0.0
outer loop
vertex 3.36759604540093 -14.5435960454009 5.715
vertex 4.12444598552339 -13.55725 0.0
vertex 4.12444598552339 -13.55725 5.715
endloop
endfacet
facet normal -0.707106781186547 0.707106781186548 0.0
outer loop
vertex -8.98025612106915 8.98025612106915 5.715
vertex -10.9985226280624 6.35 0.0
vertex -10.9985226280624 6.35 5.715
endloop
endfacet
facet normal -0.866025403784439 0.5 1.31341026200725e-16
outer loop
vertex -10.9985226280624 6.35 0.0
vertex -8.98025612106915 8.98025612106915 5.715
vertex -8.98025612106915 8.98025612106915 0.0
endloop
endfacet
facet normal 0.707106781186547 -0.707106781186548 0.0
outer loop
vertex 3.36759604540093 -14.5435960454009 5.715
vertex 2.38125 -15.3004459855234 0.0
vertex 3.36759604540093 -14.5435960454009 0.0
endloop
endfacet
facet normal 0.5 -0.866025403784439 0.0
outer loop
vertex 2.38125 -15.3004459855234 0.0
vertex 3.36759604540093 -14.5435960454009 5.715
vertex 2.38125 -15.3004459855234 5.715
endloop
endfacet
facet normal 0.866025403784438 -0.500000000000001 7.82251056422872e-17
outer loop
vertex 10.9985226280624 -6.35 0.0
vertex 8.98025612106915 -8.98025612106916 5.715
vertex 8.98025612106915 -8.98025612106916 0.0
endloop
endfacet
facet normal 0.707106781186547 -0.707106781186548 0.0
outer loop
vertex 8.98025612106915 -8.98025612106916 5.715
vertex 10.9985226280624 -6.35 0.0
vertex 10.9985226280624 -6.35 5.715
endloop
endfacet
facet normal 0.707106781186547 -0.707106781186548 0.0
outer loop
vertex 8.98025612106915 -8.98025612106916 5.715
vertex 6.34999999999999 -10.9985226280624 0.0
vertex 8.98025612106915 -8.98025612106916 0.0
endloop
endfacet
facet normal 0.5 -0.866025403784439 0.0
outer loop
vertex 6.34999999999999 -10.9985226280624 0.0
vertex 8.98025612106915 -8.98025612106916 5.715
vertex 6.34999999999999 -10.9985226280624 5.715
endloop
endfacet
facet normal -0.965925826289068 0.25881904510252 -3.45589442479755e-17
outer loop
vertex -4.60022174770169 12.4086257023008 5.715
vertex -4.69564990635176 11.6837768737647 0.0
vertex -4.69564990635176 11.6837768737647 5.715
endloop
endfacet
facet normal -0.99144486137381 0.130526192220051 -6.85265753783185e-17
outer loop
vertex -4.69564990635176 11.6837768737647 0.0
vertex -4.60022174770169 12.4086257023008 5.715
vertex -4.60022174770169 12.4086257023008 0.0
endloop
endfacet
facet normal 0.5 -0.866025403784439 0.0
outer loop
vertex 6.34999999999999 -10.9985226280624 5.715
vertex 4.69564990635176 -11.6837768737647 0.0
vertex 6.34999999999999 -10.9985226280624 0.0
endloop
endfacet
facet normal 0.382683432365089 -0.923879532511287 0.0
outer loop
vertex 4.69564990635176 -11.6837768737647 0.0
vertex 6.34999999999999 -10.9985226280624 5.715
vertex 4.69564990635176 -11.6837768737647 5.715
endloop
endfacet
facet normal 0.707106781186544 -0.707106781186551 0.0
outer loop
vertex 14.5435960454009 -3.36759604540095 5.715
vertex 13.55725 -4.1244459855234 0.0
vertex 14.5435960454009 -3.36759604540095 0.0
endloop
endfacet
facet normal 0.499999999999996 -0.866025403784441 0.0
outer loop
vertex 13.55725 -4.1244459855234 0.0
vertex 14.5435960454009 -3.36759604540095 5.715
vertex 13.55725 -4.1244459855234 5.715
endloop
endfacet
facet normal -0.382683432365091 -0.923879532511286 2.80320782571892e-16
outer loop
vertex -4.69564990635176 -11.6837768737647 5.715
vertex -6.35 -10.9985226280624 0.0
vertex -4.69564990635176 -11.6837768737647 0.0
endloop
endfacet
facet normal -0.500000000000001 -0.866025403784438 1.41369829777251e-16
outer loop
vertex -6.35 -10.9985226280624 0.0
vertex -4.69564990635176 -11.6837768737647 5.715
vertex -6.35 -10.9985226280624 5.715
endloop
endfacet
facet normal -0.707106781186547 0.707106781186548 0.0
outer loop
vertex -3.36759604540093 14.5435960454009 5.715
vertex -4.12444598552339 13.55725 0.0
vertex -4.12444598552339 13.55725 5.715
endloop
endfacet
facet normal -0.866025403784438 0.500000000000001 0.0
outer loop
vertex -4.12444598552339 13.55725 0.0
vertex -3.36759604540093 14.5435960454009 5.715
vertex -3.36759604540093 14.5435960454009 0.0
endloop
endfacet
facet normal 0.923879532511286 -0.382683432365091 1.55111758038938e-16
outer loop
vertex 11.6837768737647 -4.69564990635176 0.0
vertex 10.9985226280624 -6.35 5.715
vertex 10.9985226280624 -6.35 0.0
endloop
endfacet
facet normal 0.866025403784438 -0.500000000000001 7.82251056422872e-17
outer loop
vertex 10.9985226280624 -6.35 5.715
vertex 11.6837768737647 -4.69564990635176 0.0
vertex 11.6837768737647 -4.69564990635176 5.715
endloop
endfacet
facet normal 0.965925826289068 -0.258819045102522 0.0
outer loop
vertex 4.60022174770169 -12.4086257023008 0.0
vertex 4.12444598552339 -13.55725 5.715
vertex 4.12444598552339 -13.55725 0.0
endloop
endfacet
facet normal 0.866025403784438 -0.5 0.0
outer loop
vertex 4.12444598552339 -13.55725 5.715
vertex 4.60022174770169 -12.4086257023008 0.0
vertex 4.60022174770169 -12.4086257023008 5.715
endloop
endfacet
facet normal 0.96592582628907 0.258819045102517 0.0
outer loop
vertex 15.7762217477017 1.23262570230074 0.0
vertex 15.9385 -1.97397653778353e-14 5.715
vertex 15.9385 -1.97397653778353e-14 0.0
endloop
endfacet
facet normal 1.0 -4.47337716761475e-15 0.0
outer loop
vertex 15.9385 -1.97397653778353e-14 5.715
vertex 15.7762217477017 1.23262570230074 0.0
vertex 15.7762217477017 1.23262570230074 5.715
endloop
endfacet
facet normal -0.866025403784438 0.500000000000001 0.0
outer loop
vertex -4.12444598552339 13.55725 5.715
vertex -4.60022174770169 12.4086257023008 0.0
vertex -4.60022174770169 12.4086257023008 5.715
endloop
endfacet
facet normal -0.965925826289068 0.25881904510252 -3.45589442479755e-17
outer loop
vertex -4.60022174770169 12.4086257023008 0.0
vertex -4.12444598552339 13.55725 5.715
vertex -4.12444598552339 13.55725 0.0
endloop
endfacet
facet normal 0.707106781186551 0.707106781186544 0.0
outer loop
vertex 14.5435960454009 3.36759604540092 0.0
vertex 15.3004459855234 2.38124999999998 5.715
vertex 15.3004459855234 2.38124999999998 0.0
endloop
endfacet
facet normal 0.866025403784441 0.499999999999996 0.0
outer loop
vertex 15.3004459855234 2.38124999999998 5.715
vertex 14.5435960454009 3.36759604540092 0.0
vertex 14.5435960454009 3.36759604540092 5.715
endloop
endfacet
facet normal 0.866025403784441 0.499999999999996 0.0
outer loop
vertex 15.3004459855234 2.38124999999998 0.0
vertex 15.7762217477017 1.23262570230074 5.715
vertex 15.7762217477017 1.23262570230074 0.0
endloop
endfacet
facet normal 0.96592582628907 0.258819045102517 0.0
outer loop
vertex 15.7762217477017 1.23262570230074 5.715
vertex 15.3004459855234 2.38124999999998 0.0
vertex 15.3004459855234 2.38124999999998 5.715
endloop
endfacet
facet normal 0.965925826289068 0.25881904510252 -4.4175722480208e-17
outer loop
vertex 4.60022174770169 12.4086257023007 0.0
vertex 4.69564990635176 11.6837768737647 5.715
vertex 4.69564990635176 11.6837768737647 0.0
endloop
endfacet
facet normal 0.99144486137381 0.130526192220051 -8.75955861009554e-17
outer loop
vertex 4.69564990635176 11.6837768737647 5.715
vertex 4.60022174770169 12.4086257023007 0.0
vertex 4.60022174770169 12.4086257023007 5.715
endloop
endfacet
facet normal 0.99144486137381 -0.130526192220053 0.0
outer loop
vertex 4.69564990635176 -11.6837768737647 0.0
vertex 4.60022174770169 -12.4086257023008 5.715
vertex 4.60022174770169 -12.4086257023008 0.0
endloop
endfacet
facet normal 0.965925826289068 -0.258819045102522 0.0
outer loop
vertex 4.60022174770169 -12.4086257023008 5.715
vertex 4.69564990635176 -11.6837768737647 0.0
vertex 4.69564990635176 -11.6837768737647 5.715
endloop
endfacet
facet normal 0.382683432365091 0.923879532511287 -1.55111758038938e-16
outer loop
vertex 4.69564990635176 11.6837768737647 5.715
vertex 6.35 10.9985226280624 0.0
vertex 4.69564990635176 11.6837768737647 0.0
endloop
endfacet
facet normal 0.5 0.866025403784438 -7.82251056422872e-17
outer loop
vertex 6.35 10.9985226280624 0.0
vertex 4.69564990635176 11.6837768737647 5.715
vertex 6.35 10.9985226280624 5.715
endloop
endfacet
facet normal -0.500000000000001 -0.866025403784438 0.0
outer loop
vertex -2.38125000000001 -15.3004459855234 5.715
vertex -3.36759604540094 -14.5435960454009 0.0
vertex -2.38125000000001 -15.3004459855234 0.0
endloop
endfacet
facet normal -0.707106781186548 -0.707106781186547 0.0
outer loop
vertex -3.36759604540094 -14.5435960454009 0.0
vertex -2.38125000000001 -15.3004459855234 5.715
vertex -3.36759604540094 -14.5435960454009 5.715
endloop
endfacet
facet normal -0.866025403784439 -0.499999999999999 0.0
outer loop
vertex -4.12444598552339 -13.55725 5.715
vertex -3.36759604540094 -14.5435960454009 0.0
vertex -3.36759604540094 -14.5435960454009 5.715
endloop
endfacet
facet normal -0.707106781186548 -0.707106781186547 0.0
outer loop
vertex -3.36759604540094 -14.5435960454009 0.0
vertex -4.12444598552339 -13.55725 5.715
vertex -4.12444598552339 -13.55725 0.0
endloop
endfacet
facet normal -0.965925826289068 -0.25881904510252 5.3114874354637e-17
outer loop
vertex -4.60022174770169 -12.4086257023008 5.715
vertex -4.12444598552339 -13.55725 0.0
vertex -4.12444598552339 -13.55725 5.715
endloop
endfacet
facet normal -0.866025403784439 -0.499999999999999 0.0
outer loop
vertex -4.12444598552339 -13.55725 0.0
vertex -4.60022174770169 -12.4086257023008 5.715
vertex -4.60022174770169 -12.4086257023008 0.0
endloop
endfacet
facet normal 1.0 -4.47337716761475e-15 0.0
outer loop
vertex 15.9385 -1.97397653778353e-14 0.0
vertex 15.7762217477017 -1.23262570230078 5.715
vertex 15.7762217477017 -1.23262570230078 0.0
endloop
endfacet
facet normal 0.965925826289067 -0.258819045102525 0.0
outer loop
vertex 15.7762217477017 -1.23262570230078 5.715
vertex 15.9385 -1.97397653778353e-14 0.0
vertex 15.9385 -1.97397653778353e-14 5.715
endloop
endfacet
facet normal 0.866025403784439 0.499999999999999 0.0
outer loop
vertex 4.12444598552339 13.55725 0.0
vertex 4.60022174770169 12.4086257023007 5.715
vertex 4.60022174770169 12.4086257023007 0.0
endloop
endfacet
facet normal 0.965925826289068 0.25881904510252 -4.4175722480208e-17
outer loop
vertex 4.60022174770169 12.4086257023007 5.715
vertex 4.12444598552339 13.55725 0.0
vertex 4.12444598552339 13.55725 5.715
endloop
endfacet
facet normal 0.258819045102522 0.965925826289068 0.0
outer loop
vertex 1.23262570230076 15.7762217477017 5.715
vertex 2.38125 15.3004459855234 0.0
vertex 1.23262570230076 15.7762217477017 0.0
endloop
endfacet
facet normal 0.500000000000001 0.866025403784438 0.0
outer loop
vertex 2.38125 15.3004459855234 0.0
vertex 1.23262570230076 15.7762217477017 5.715
vertex 2.38125 15.3004459855234 5.715
endloop
endfacet
facet normal -0.5 0.866025403784439 -1.25545925419247e-17
outer loop
vertex -6.35 10.9985226280624 5.715
vertex -4.69564990635176 11.6837768737647 0.0
vertex -6.35 10.9985226280624 0.0
endloop
endfacet
facet normal -0.382683432365089 0.923879532511287 -2.48943725246664e-17
outer loop
vertex -4.69564990635176 11.6837768737647 0.0
vertex -6.35 10.9985226280624 5.715
vertex -4.69564990635176 11.6837768737647 5.715
endloop
endfacet
facet normal 0.258819045102516 -0.96592582628907 4.38188776704642e-17
outer loop
vertex 12.4086257023007 -4.60022174770169 5.715
vertex 11.6837768737647 -4.69564990635176 0.0
vertex 12.4086257023007 -4.60022174770169 0.0
endloop
endfacet
facet normal 0.130526192220047 -0.991444861373811 8.68880021950987e-17
outer loop
vertex 11.6837768737647 -4.69564990635176 0.0
vertex 12.4086257023007 -4.60022174770169 5.715
vertex 11.6837768737647 -4.69564990635176 5.715
endloop
endfacet
facet normal -0.5 0.866025403784439 0.0
outer loop
vertex -2.38125 15.3004459855234 5.715
vertex -1.23262570230075 15.7762217477017 0.0
vertex -2.38125 15.3004459855234 0.0
endloop
endfacet
facet normal -0.25881904510252 0.965925826289068 0.0
outer loop
vertex -1.23262570230075 15.7762217477017 0.0
vertex -2.38125 15.3004459855234 5.715
vertex -1.23262570230075 15.7762217477017 5.715
endloop
endfacet
facet normal -0.99144486137381 -0.130526192220051 1.05320938482841e-16
outer loop
vertex -4.69564990635176 -11.6837768737647 5.715
vertex -4.60022174770169 -12.4086257023008 0.0
vertex -4.60022174770169 -12.4086257023008 5.715
endloop
endfacet
facet normal -0.965925826289068 -0.25881904510252 5.3114874354637e-17
outer loop
vertex -4.60022174770169 -12.4086257023008 0.0
vertex -4.69564990635176 -11.6837768737647 5.715
vertex -4.69564990635176 -11.6837768737647 0.0
endloop
endfacet
facet normal -0.707106781186547 0.707106781186548 0.0
outer loop
vertex -8.98025612106915 8.98025612106915 5.715
vertex -6.35 10.9985226280624 0.0
vertex -8.98025612106915 8.98025612106915 0.0
endloop
endfacet
facet normal -0.5 0.866025403784439 -1.25545925419247e-17
outer loop
vertex -6.35 10.9985226280624 0.0
vertex -8.98025612106915 8.98025612106915 5.715
vertex -6.35 10.9985226280624 5.715
endloop
endfacet
facet normal -0.707106781186547 0.707106781186548 0.0
outer loop
vertex -3.36759604540093 14.5435960454009 5.715
vertex -2.38125 15.3004459855234 0.0
vertex -3.36759604540093 14.5435960454009 0.0
endloop
endfacet
facet normal -0.5 0.866025403784439 0.0
outer loop
vertex -2.38125 15.3004459855234 0.0
vertex -3.36759604540093 14.5435960454009 5.715
vertex -2.38125 15.3004459855234 5.715
endloop
endfacet
facet normal 0.499999999999996 -0.866025403784441 0.0
outer loop
vertex 13.55725 -4.1244459855234 5.715
vertex 12.4086257023007 -4.60022174770169 0.0
vertex 13.55725 -4.1244459855234 0.0
endloop
endfacet
facet normal 0.258819045102516 -0.96592582628907 4.38188776704642e-17
outer loop
vertex 12.4086257023007 -4.60022174770169 0.0
vertex 13.55725 -4.1244459855234 5.715
vertex 12.4086257023007 -4.60022174770169 5.715
endloop
endfacet
facet normal 0.500000000000004 0.866025403784437 0.0
outer loop
vertex 13.55725 4.12444598552338 5.715
vertex 14.5435960454009 3.36759604540092 0.0
vertex 13.55725 4.12444598552338 0.0
endloop
endfacet
facet normal 0.707106781186551 0.707106781186544 0.0
outer loop
vertex 14.5435960454009 3.36759604540092 0.0
vertex 13.55725 4.12444598552338 5.715
vertex 14.5435960454009 3.36759604540092 5.715
endloop
endfacet
facet normal 0.500000000000001 0.866025403784438 0.0
outer loop
vertex 2.38125 15.3004459855234 5.715
vertex 3.36759604540093 14.5435960454009 0.0
vertex 2.38125 15.3004459855234 0.0
endloop
endfacet
facet normal 0.707106781186548 0.707106781186547 0.0
outer loop
vertex 3.36759604540093 14.5435960454009 0.0
vertex 2.38125 15.3004459855234 5.715
vertex 3.36759604540093 14.5435960454009 5.715
endloop
endfacet
facet normal 0.5 0.866025403784438 -7.82251056422872e-17
outer loop
vertex 6.35 10.9985226280624 5.715
vertex 8.98025612106915 8.98025612106915 0.0
vertex 6.35 10.9985226280624 0.0
endloop
endfacet
facet normal 0.707106781186547 0.707106781186548 0.0
outer loop
vertex 8.98025612106915 8.98025612106915 0.0
vertex 6.35 10.9985226280624 5.715
vertex 8.98025612106915 8.98025612106915 5.715
endloop
endfacet
facet normal 0.5 -0.866025403784439 0.0
outer loop
vertex 2.38125 -15.3004459855234 5.715
vertex 1.23262570230075 -15.7762217477017 0.0
vertex 2.38125 -15.3004459855234 0.0
endloop
endfacet
facet normal 0.25881904510252 -0.965925826289068 0.0
outer loop
vertex 1.23262570230075 -15.7762217477017 0.0
vertex 2.38125 -15.3004459855234 5.715
vertex 1.23262570230075 -15.7762217477017 5.715
endloop
endfacet
facet normal -8.73288769773397e-16 -1.0 0.0
outer loop
vertex -2.8199664825479e-15 -15.9385 5.715
vertex -1.23262570230076 -15.7762217477017 0.0
vertex -2.8199664825479e-15 -15.9385 0.0
endloop
endfacet
facet normal -0.258819045102522 -0.965925826289068 0.0
outer loop
vertex -1.23262570230076 -15.7762217477017 0.0
vertex -2.8199664825479e-15 -15.9385 5.715
vertex -1.23262570230076 -15.7762217477017 5.715
endloop
endfacet
facet normal 0.707106781186547 0.707106781186548 0.0
outer loop
vertex 8.98025612106915 8.98025612106915 0.0
vertex 10.9985226280624 6.35 5.715
vertex 10.9985226280624 6.35 0.0
endloop
endfacet
facet normal 0.866025403784438 0.500000000000001 0.0
outer loop
vertex 10.9985226280624 6.35 5.715
vertex 8.98025612106915 8.98025612106915 0.0
vertex 8.98025612106915 8.98025612106915 5.715
endloop
endfacet
endsolid Bearing-Top-002
