solid Camera-Base Covered 001
facet normal 0.946439704690833 0.322880605463891 0.0
outer loop
vertex 12.1438453590158 76.1427455726983 -2.032
vertex 16.4014684979203 60.9814841685745 0.0
vertex 16.4014684979203 60.9814841685745 -2.032
endloop
endfacet
facet normal 0.974808527094954 0.223043348932368 0.0
outer loop
vertex 16.4014684979203 60.9814841685745 0.0
vertex 12.1438453590158 76.1427455726983 -2.032
vertex 12.1438453590158 76.1427455726983 0.0
endloop
endfacet
facet normal -0.827113053044642 -0.562035583822921 0.0
outer loop
vertex -15.3121277087373 -6.87883798854804 0.0
vertex -11.1774891369458 -11.9214890165029 -2.032
vertex -11.1774891369458 -11.9214890165029 0.0
endloop
endfacet
facet normal -0.718900516804526 -0.695112974226626 0.0
outer loop
vertex -11.1774891369458 -11.9214890165029 -2.032
vertex -15.3121277087373 -6.87883798854804 0.0
vertex -15.3121277087373 -6.87883798854804 -2.032
endloop
endfacet
facet normal 0.0 0.0 -1.0
outer loop
vertex -2.25597318603832e-14 101.6 -2.032
vertex -6.35 0.0 -2.032
vertex -6.63289930559146 89.7906972512654 -2.032
endloop
endfacet
facet normal 0.0 0.0 -1.0
outer loop
vertex -6.35 0.0 -2.032
vertex -2.25597318603832e-14 101.6 -2.032
vertex -6.13362899693558 1.64350093640101 -2.032
endloop
endfacet
facet normal 0.0 0.0 -1.0
outer loop
vertex -6.13362899693558 1.64350093640101 -2.032
vertex -2.25597318603832e-14 101.6 -2.032
vertex -5.49926131403118 3.175 -2.032
endloop
endfacet
facet normal 0.0 0.0 -1.0
outer loop
vertex -5.49926131403118 3.175 -2.032
vertex -2.25597318603832e-14 101.6 -2.032
vertex -4.49012806053458 4.49012806053458 -2.032
endloop
endfacet
facet normal 0.0 0.0 -1.0
outer loop
vertex -4.49012806053458 4.49012806053458 -2.032
vertex -2.25597318603832e-14 101.6 -2.032
vertex -3.175 5.49926131403119 -2.032
endloop
endfacet
facet normal 0.0 0.0 -1.0
outer loop
vertex -3.175 5.49926131403119 -2.032
vertex -2.25597318603832e-14 101.6 -2.032
vertex -1.64350093640101 6.13362899693559 -2.032
endloop
endfacet
facet normal 0.0 0.0 -1.0
outer loop
vertex -1.64350093640101 6.13362899693559 -2.032
vertex -2.25597318603832e-14 101.6 -2.032
vertex 0.0 6.35 -2.032
endloop
endfacet
facet normal 0.0 0.0 -1.0
outer loop
vertex 0.0 6.35 -2.032
vertex -2.25597318603832e-14 101.6 -2.032
vertex 6.63289930559144 89.7906972512654 -2.032
endloop
endfacet
facet normal 0.0 0.0 -1.0
outer loop
vertex 0.0 6.35 -2.032
vertex 6.63289930559144 89.7906972512654 -2.032
vertex 1.64350093640101 6.13362899693559 -2.032
endloop
endfacet
facet normal 0.0 0.0 -1.0
outer loop
vertex 1.64350093640101 6.13362899693559 -2.032
vertex 6.63289930559144 89.7906972512654 -2.032
vertex 3.175 5.49926131403119 -2.032
endloop
endfacet
facet normal 0.0 0.0 -1.0
outer loop
vertex 3.175 5.49926131403119 -2.032
vertex 6.63289930559144 89.7906972512654 -2.032
vertex 4.49012806053458 4.49012806053458 -2.032
endloop
endfacet
facet normal 0.0 0.0 -1.0
outer loop
vertex 4.49012806053458 4.49012806053458 -2.032
vertex 6.63289930559144 89.7906972512654 -2.032
vertex 5.49926131403119 3.175 -2.032
endloop
endfacet
facet normal 0.0 0.0 -1.0
outer loop
vertex 5.49926131403119 3.175 -2.032
vertex 6.63289930559144 89.7906972512654 -2.032
vertex 6.13362899693558 1.64350093640101 -2.032
endloop
endfacet
facet normal 0.0 0.0 -1.0
outer loop
vertex 6.13362899693558 1.64350093640101 -2.032
vertex 6.63289930559144 89.7906972512654 -2.032
vertex 6.35 0.0 -2.032
endloop
endfacet
facet normal 0.0 0.0 -1.0
outer loop
vertex -20.783070019748 27.5921446615658 -2.032
vertex -20.1827357989241 4.29508827343194 -2.032
vertex -20.8026000000003 10.1600000000005 -2.032
endloop
endfacet
facet normal 0.0 0.0 -1.0
outer loop
vertex -20.1827357989241 4.29508827343194 -2.032
vertex -20.783070019748 27.5921446615658 -2.032
vertex -19.304275710259 44.668326446355 -2.032
endloop
endfacet
facet normal 0.0 0.0 -1.0
outer loop
vertex -20.1827357989241 4.29508827343194 -2.032
vertex -19.304275710259 44.668326446355 -2.032
vertex -18.3379194881891 -1.43001597438824 -2.032
endloop
endfacet
facet normal 0.0 0.0 -1.0
outer loop
vertex -18.3379194881891 -1.43001597438824 -2.032
vertex -19.304275710259 44.668326446355 -2.032
vertex -16.4014684979203 60.9814841685745 -2.032
endloop
endfacet
facet normal 0.0 0.0 -1.0
outer loop
vertex -18.3379194881891 -1.43001597438824 -2.032
vertex -16.4014684979203 60.9814841685745 -2.032
vertex -15.3121277087373 -6.87883798854804 -2.032
endloop
endfacet
facet normal 0.0 0.0 -1.0
outer loop
vertex -15.3121277087373 -6.87883798854804 -2.032
vertex -16.4014684979203 60.9814841685745 -2.032
vertex -12.1438453590159 76.1427455726984 -2.032
endloop
endfacet
facet normal 0.0 0.0 -1.0
outer loop
vertex -15.3121277087373 -6.87883798854804 -2.032
vertex -12.1438453590159 76.1427455726984 -2.032
vertex -11.1774891369458 -11.9214890165029 -2.032
endloop
endfacet
facet normal 0.0 0.0 -1.0
outer loop
vertex -11.1774891369458 -11.9214890165029 -2.032
vertex -12.1438453590159 76.1427455726984 -2.032
vertex -6.63289930559146 89.7906972512654 -2.032
endloop
endfacet
facet normal 0.0 0.0 -1.0
outer loop
vertex -11.1774891369458 -11.9214890165029 -2.032
vertex -6.63289930559146 89.7906972512654 -2.032
vertex -6.35 0.0 -2.032
endloop
endfacet
facet normal 0.0 0.0 -1.0
outer loop
vertex -11.1774891369458 -11.9214890165029 -2.032
vertex -6.35 0.0 -2.032
vertex -6.03256508476735 -16.4377625898016 -2.032
endloop
endfacet
facet normal 0.0 0.0 -1.0
outer loop
vertex -6.03256508476735 -16.4377625898016 -2.032
vertex -6.35 0.0 -2.032
vertex -6.13362899693558 -1.643500936401 -2.032
endloop
endfacet
facet normal 0.0 0.0 -1.0
outer loop
vertex -6.03256508476735 -16.4377625898016 -2.032
vertex -6.13362899693558 -1.643500936401 -2.032
vertex -5.49926131403119 -3.175 -2.032
endloop
endfacet
facet normal 0.0 0.0 -1.0
outer loop
vertex -6.03256508476735 -16.4377625898016 -2.032
vertex -5.49926131403119 -3.175 -2.032
vertex -5.63993296509579e-15 -20.32 -2.032
endloop
endfacet
facet normal 0.0 0.0 -1.0
outer loop
vertex -5.63993296509579e-15 -20.32 -2.032
vertex -5.49926131403119 -3.175 -2.032
vertex -4.49012806053458 -4.49012806053457 -2.032
endloop
endfacet
facet normal 0.0 0.0 -1.0
outer loop
vertex -5.63993296509579e-15 -20.32 -2.032
vertex -4.49012806053458 -4.49012806053457 -2.032
vertex -3.175 -5.49926131403118 -2.032
endloop
endfacet
facet normal 0.0 0.0 -1.0
outer loop
vertex -5.63993296509579e-15 -20.32 -2.032
vertex -3.175 -5.49926131403118 -2.032
vertex -1.64350093640101 -6.13362899693558 -2.032
endloop
endfacet
facet normal 0.0 0.0 -1.0
outer loop
vertex -5.63993296509579e-15 -20.32 -2.032
vertex -1.64350093640101 -6.13362899693558 -2.032
vertex -2.8199664825479e-15 -6.35 -2.032
endloop
endfacet
facet normal 0.0 0.0 -1.0
outer loop
vertex -5.63993296509579e-15 -20.32 -2.032
vertex -2.8199664825479e-15 -6.35 -2.032
vertex 6.03256508476733 -16.4377625898017 -2.032
endloop
endfacet
facet normal 0.0 0.0 -1.0
outer loop
vertex 6.03256508476733 -16.4377625898017 -2.032
vertex -2.8199664825479e-15 -6.35 -2.032
vertex 1.643500936401 -6.13362899693559 -2.032
endloop
endfacet
facet normal 0.0 0.0 -1.0
outer loop
vertex 6.03256508476733 -16.4377625898017 -2.032
vertex 1.643500936401 -6.13362899693559 -2.032
vertex 3.175 -5.49926131403119 -2.032
endloop
endfacet
facet normal 0.0 0.0 -1.0
outer loop
vertex 6.03256508476733 -16.4377625898017 -2.032
vertex 3.175 -5.49926131403119 -2.032
vertex 4.49012806053458 -4.49012806053458 -2.032
endloop
endfacet
facet normal 0.0 0.0 -1.0
outer loop
vertex 6.03256508476733 -16.4377625898017 -2.032
vertex 4.49012806053458 -4.49012806053458 -2.032
vertex 5.49926131403119 -3.17500000000001 -2.032
endloop
endfacet
facet normal 0.0 0.0 -1.0
outer loop
vertex 6.03256508476733 -16.4377625898017 -2.032
vertex 5.49926131403119 -3.17500000000001 -2.032
vertex 6.13362899693558 -1.64350093640101 -2.032
endloop
endfacet
facet normal 0.0 0.0 -1.0
outer loop
vertex 6.03256508476733 -16.4377625898017 -2.032
vertex 6.13362899693558 -1.64350093640101 -2.032
vertex 11.1774891369457 -11.921489016503 -2.032
endloop
endfacet
facet normal 0.0 0.0 -1.0
outer loop
vertex 11.1774891369457 -11.921489016503 -2.032
vertex 6.13362899693558 -1.64350093640101 -2.032
vertex 6.35 0.0 -2.032
endloop
endfacet
facet normal 0.0 0.0 -1.0
outer loop
vertex 11.1774891369457 -11.921489016503 -2.032
vertex 6.35 0.0 -2.032
vertex 6.63289930559144 89.7906972512654 -2.032
endloop
endfacet
facet normal 0.0 0.0 -1.0
outer loop
vertex 11.1774891369457 -11.921489016503 -2.032
vertex 6.63289930559144 89.7906972512654 -2.032
vertex 12.1438453590158 76.1427455726983 -2.032
endloop
endfacet
facet normal 0.0 0.0 -1.0
outer loop
vertex 11.1774891369457 -11.921489016503 -2.032
vertex 12.1438453590158 76.1427455726983 -2.032
vertex 15.3121277087373 -6.87883798854816 -2.032
endloop
endfacet
facet normal 0.0 0.0 -1.0
outer loop
vertex 15.3121277087373 -6.87883798854816 -2.032
vertex 12.1438453590158 76.1427455726983 -2.032
vertex 16.4014684979203 60.9814841685745 -2.032
endloop
endfacet
facet normal 0.0 0.0 -1.0
outer loop
vertex 15.3121277087373 -6.87883798854816 -2.032
vertex 16.4014684979203 60.9814841685745 -2.032
vertex 18.337919488189 -1.43001597438836 -2.032
endloop
endfacet
facet normal 0.0 0.0 -1.0
outer loop
vertex 18.337919488189 -1.43001597438836 -2.032
vertex 16.4014684979203 60.9814841685745 -2.032
vertex 19.304275710259 44.668326446355 -2.032
endloop
endfacet
facet normal 0.0 0.0 -1.0
outer loop
vertex 18.337919488189 -1.43001597438836 -2.032
vertex 19.304275710259 44.668326446355 -2.032
vertex 20.1827357989241 4.29508827343177 -2.032
endloop
endfacet
facet normal 0.0 0.0 -1.0
outer loop
vertex 20.1827357989241 4.29508827343177 -2.032
vertex 19.304275710259 44.668326446355 -2.032
vertex 20.783070019748 27.5921446615658 -2.032
endloop
endfacet
facet normal 0.0 0.0 -1.0
outer loop
vertex 20.1827357989241 4.29508827343177 -2.032
vertex 20.783070019748 27.5921446615658 -2.032
vertex 20.8026000000003 10.1600000000003 -2.032
endloop
endfacet
facet normal -0.602095207149629 -0.79842429918399 0.0
outer loop
vertex -6.03256508476735 -16.4377625898016 0.0
vertex -11.1774891369458 -11.9214890165029 -2.032
vertex -6.03256508476735 -16.4377625898016 -2.032
endloop
endfacet
facet normal -0.718900516804526 -0.695112974226626 0.0
outer loop
vertex -11.1774891369458 -11.9214890165029 -2.032
vertex -6.03256508476735 -16.4377625898016 0.0
vertex -11.1774891369458 -11.9214890165029 0.0
endloop
endfacet
facet normal 0.871885586738262 0.489709631963756 0.0
outer loop
vertex -2.25597318603832e-14 101.6 -2.032
vertex 6.63289930559144 89.7906972512654 0.0
vertex 6.63289930559144 89.7906972512654 -2.032
endloop
endfacet
facet normal 0.901417319335929 0.432951286406713 0.0
outer loop
vertex 6.63289930559144 89.7906972512654 0.0
vertex -2.25597318603832e-14 101.6 -2.032
vertex -2.25597318603832e-14 101.6 0.0
endloop
endfacet
facet normal -0.91739191102654 -0.397985026832761 0.0
outer loop
vertex -18.3379194881891 -1.43001597438824 0.0
vertex -15.3121277087373 -6.87883798854804 -2.032
vertex -15.3121277087373 -6.87883798854804 0.0
endloop
endfacet
facet normal -0.827113053044642 -0.562035583822921 0.0
outer loop
vertex -15.3121277087373 -6.87883798854804 -2.032
vertex -18.3379194881891 -1.43001597438824 0.0
vertex -18.3379194881891 -1.43001597438824 -2.032
endloop
endfacet
facet normal 0.901417319335929 0.432951286406713 0.0
outer loop
vertex 6.63289930559144 89.7906972512654 -2.032
vertex 12.1438453590158 76.1427455726983 0.0
vertex 12.1438453590158 76.1427455726983 -2.032
endloop
endfacet
facet normal 0.946439704690833 0.322880605463891 0.0
outer loop
vertex 12.1438453590158 76.1427455726983 0.0
vertex 6.63289930559144 89.7906972512654 -2.032
vertex 6.63289930559144 89.7906972512654 0.0
endloop
endfacet
facet normal -0.901417319335929 0.432951286406713 0.0
outer loop
vertex -6.63289930559146 89.7906972512654 0.0
vertex -12.1438453590159 76.1427455726984 -2.032
vertex -12.1438453590159 76.1427455726984 0.0
endloop
endfacet
facet normal -0.946439704690833 0.322880605463892 0.0
outer loop
vertex -12.1438453590159 76.1427455726984 -2.032
vertex -6.63289930559146 89.7906972512654 0.0
vertex -6.63289930559146 89.7906972512654 -2.032
endloop
endfacet
facet normal 0.991400137197656 0.130865457491532 0.0
outer loop
vertex 19.304275710259 44.668326446355 -2.032
vertex 20.783070019748 27.5921446615658 0.0
vertex 20.783070019748 27.5921446615658 -2.032
endloop
endfacet
facet normal 0.999043019750286 0.0437383663187096 0.0
outer loop
vertex 20.783070019748 27.5921446615658 0.0
vertex 19.304275710259 44.668326446355 -2.032
vertex 19.304275710259 44.668326446355 0.0
endloop
endfacet
facet normal -0.871885586738262 0.489709631963754 0.0
outer loop
vertex -2.25597318603832e-14 101.6 0.0
vertex -6.63289930559146 89.7906972512654 -2.032
vertex -6.63289930559146 89.7906972512654 0.0
endloop
endfacet
facet normal -0.901417319335929 0.432951286406713 0.0
outer loop
vertex -6.63289930559146 89.7906972512654 -2.032
vertex -2.25597318603832e-14 101.6 0.0
vertex -2.25597318603832e-14 101.6 -2.032
endloop
endfacet
facet normal -0.994461142300873 -0.105104883110361 -0.0
outer loop
vertex -20.8026000000003 10.1600000000005 0.0
vertex -20.1827357989241 4.29508827343194 -2.032
vertex -20.1827357989241 4.29508827343194 0.0
endloop
endfacet
facet normal -0.978339773122909 -0.207005527283247 0.0
outer loop
vertex -20.1827357989241 4.29508827343194 -2.032
vertex -20.8026000000003 10.1600000000005 0.0
vertex -20.8026000000003 10.1600000000005 -2.032
endloop
endfacet
facet normal -0.946439704690833 0.322880605463892 0.0
outer loop
vertex -12.1438453590159 76.1427455726984 0.0
vertex -16.4014684979203 60.9814841685745 -2.032
vertex -16.4014684979203 60.9814841685745 0.0
endloop
endfacet
facet normal -0.974808527094954 0.223043348932368 0.0
outer loop
vertex -16.4014684979203 60.9814841685745 -2.032
vertex -12.1438453590159 76.1427455726984 0.0
vertex -12.1438453590159 76.1427455726984 -2.032
endloop
endfacet
facet normal 0.917391911026539 -0.397985026832763 0.0
outer loop
vertex 18.337919488189 -1.43001597438836 -2.032
vertex 15.3121277087373 -6.87883798854816 0.0
vertex 15.3121277087373 -6.87883798854816 -2.032
endloop
endfacet
facet normal 0.827113053044642 -0.562035583822921 0.0
outer loop
vertex 15.3121277087373 -6.87883798854816 0.0
vertex 18.337919488189 -1.43001597438836 -2.032
vertex 18.337919488189 -1.43001597438836 0.0
endloop
endfacet
facet normal -0.978339773122909 -0.207005527283247 0.0
outer loop
vertex -20.1827357989241 4.29508827343194 0.0
vertex -18.3379194881891 -1.43001597438824 -2.032
vertex -18.3379194881891 -1.43001597438824 0.0
endloop
endfacet
facet normal -0.91739191102654 -0.397985026832761 0.0
outer loop
vertex -18.3379194881891 -1.43001597438824 -2.032
vertex -20.1827357989241 4.29508827343194 0.0
vertex -20.1827357989241 4.29508827343194 -2.032
endloop
endfacet
facet normal -0.999043019750286 0.0437383663187093 0.0
outer loop
vertex -20.783070019748 27.5921446615658 0.0
vertex -20.8026000000003 10.1600000000005 -2.032
vertex -20.8026000000003 10.1600000000005 0.0
endloop
endfacet
facet normal -0.999999372416436 0.00112034223985319 0.0
outer loop
vertex -20.8026000000003 10.1600000000005 -2.032
vertex -20.783070019748 27.5921446615658 0.0
vertex -20.783070019748 27.5921446615658 -2.032
endloop
endfacet
facet normal 0.999043019750286 0.0437383663187096 0.0
outer loop
vertex 20.783070019748 27.5921446615658 -2.032
vertex 20.8026000000003 10.1600000000003 0.0
vertex 20.8026000000003 10.1600000000003 -2.032
endloop
endfacet
facet normal 0.999999372416436 0.00112034223985415 0.0
outer loop
vertex 20.8026000000003 10.1600000000003 0.0
vertex 20.783070019748 27.5921446615658 -2.032
vertex 20.783070019748 27.5921446615658 0.0
endloop
endfacet
facet normal 0.978339773122908 -0.207005527283253 0.0
outer loop
vertex 20.1827357989241 4.29508827343177 -2.032
vertex 18.337919488189 -1.43001597438836 0.0
vertex 18.337919488189 -1.43001597438836 -2.032
endloop
endfacet
facet normal 0.917391911026539 -0.397985026832763 0.0
outer loop
vertex 18.337919488189 -1.43001597438836 0.0
vertex 20.1827357989241 4.29508827343177 -2.032
vertex 20.1827357989241 4.29508827343177 0.0
endloop
endfacet
facet normal 0.974808527094954 0.223043348932368 0.0
outer loop
vertex 16.4014684979203 60.9814841685745 -2.032
vertex 19.304275710259 44.668326446355 0.0
vertex 19.304275710259 44.668326446355 -2.032
endloop
endfacet
facet normal 0.991400137197656 0.130865457491532 0.0
outer loop
vertex 19.304275710259 44.668326446355 0.0
vertex 16.4014684979203 60.9814841685745 -2.032
vertex 16.4014684979203 60.9814841685745 0.0
endloop
endfacet
facet normal 0.994461142300872 -0.105104883110367 0.0
outer loop
vertex 20.8026000000003 10.1600000000003 -2.032
vertex 20.1827357989241 4.29508827343177 0.0
vertex 20.1827357989241 4.29508827343177 -2.032
endloop
endfacet
facet normal 0.978339773122908 -0.207005527283253 0.0
outer loop
vertex 20.1827357989241 4.29508827343177 0.0
vertex 20.8026000000003 10.1600000000003 -2.032
vertex 20.8026000000003 10.1600000000003 0.0
endloop
endfacet
facet normal 0.718900516804524 -0.695112974226628 0.0
outer loop
vertex 11.1774891369457 -11.921489016503 0.0
vertex 6.03256508476733 -16.4377625898017 -2.032
vertex 11.1774891369457 -11.921489016503 -2.032
endloop
endfacet
facet normal 0.602095207149627 -0.798424299183992 0.0
outer loop
vertex 6.03256508476733 -16.4377625898017 -2.032
vertex 11.1774891369457 -11.921489016503 0.0
vertex 6.03256508476733 -16.4377625898017 0.0
endloop
endfacet
facet normal -0.974808527094954 0.223043348932368 0.0
outer loop
vertex -16.4014684979203 60.9814841685745 0.0
vertex -19.304275710259 44.668326446355 -2.032
vertex -19.304275710259 44.668326446355 0.0
endloop
endfacet
facet normal -0.991400137197656 0.130865457491532 0.0
outer loop
vertex -19.304275710259 44.668326446355 -2.032
vertex -16.4014684979203 60.9814841685745 0.0
vertex -16.4014684979203 60.9814841685745 -2.032
endloop
endfacet
facet normal -0.541167829755712 -0.840914609242516 -0.0
outer loop
vertex -5.63993296509579e-15 -20.32 0.0
vertex -6.03256508476735 -16.4377625898016 -2.032
vertex -5.63993296509579e-15 -20.32 -2.032
endloop
endfacet
facet normal -0.602095207149629 -0.79842429918399 0.0
outer loop
vertex -6.03256508476735 -16.4377625898016 -2.032
vertex -5.63993296509579e-15 -20.32 0.0
vertex -6.03256508476735 -16.4377625898016 0.0
endloop
endfacet
facet normal 0.0 0.0 1.0
outer loop
vertex -5.63993296509579e-15 -20.32 0.0
vertex -2.54 0.0 0.0
vertex -6.03256508476735 -16.4377625898016 0.0
endloop
endfacet
facet normal 0.0 0.0 1.0
outer loop
vertex -2.54 0.0 0.0
vertex -5.63993296509579e-15 -20.32 0.0
vertex -2.45345159877423 -0.657400374560403 0.0
endloop
endfacet
facet normal 0.0 0.0 1.0
outer loop
vertex -2.45345159877423 -0.657400374560403 0.0
vertex -5.63993296509579e-15 -20.32 0.0
vertex -2.19970452561247 -1.27 0.0
endloop
endfacet
facet normal 0.0 0.0 1.0
outer loop
vertex -2.19970452561247 -1.27 0.0
vertex -5.63993296509579e-15 -20.32 0.0
vertex -1.79605122421383 -1.79605122421383 0.0
endloop
endfacet
facet normal 0.0 0.0 1.0
outer loop
vertex -1.79605122421383 -1.79605122421383 0.0
vertex -5.63993296509579e-15 -20.32 0.0
vertex -1.27 -2.19970452561247 0.0
endloop
endfacet
facet normal 0.0 0.0 1.0
outer loop
vertex -1.27 -2.19970452561247 0.0
vertex -5.63993296509579e-15 -20.32 0.0
vertex -0.657400374560403 -2.45345159877423 0.0
endloop
endfacet
facet normal 0.0 0.0 1.0
outer loop
vertex -0.657400374560403 -2.45345159877423 0.0
vertex -5.63993296509579e-15 -20.32 0.0
vertex 0.0 -2.54 0.0
endloop
endfacet
facet normal 0.0 0.0 1.0
outer loop
vertex 0.0 -2.54 0.0
vertex -5.63993296509579e-15 -20.32 0.0
vertex 6.03256508476733 -16.4377625898017 0.0
endloop
endfacet
facet normal 0.0 0.0 1.0
outer loop
vertex 0.0 -2.54 0.0
vertex 6.03256508476733 -16.4377625898017 0.0
vertex 0.657400374560403 -2.45345159877423 0.0
endloop
endfacet
facet normal 0.0 0.0 1.0
outer loop
vertex 0.657400374560403 -2.45345159877423 0.0
vertex 6.03256508476733 -16.4377625898017 0.0
vertex 1.27 -2.19970452561247 0.0
endloop
endfacet
facet normal 0.0 0.0 1.0
outer loop
vertex 1.27 -2.19970452561247 0.0
vertex 6.03256508476733 -16.4377625898017 0.0
vertex 1.79605122421383 -1.79605122421383 0.0
endloop
endfacet
facet normal 0.0 0.0 1.0
outer loop
vertex 1.79605122421383 -1.79605122421383 0.0
vertex 6.03256508476733 -16.4377625898017 0.0
vertex 2.19970452561247 -1.27 0.0
endloop
endfacet
facet normal 0.0 0.0 1.0
outer loop
vertex 2.19970452561247 -1.27 0.0
vertex 6.03256508476733 -16.4377625898017 0.0
vertex 2.45345159877423 -0.657400374560403 0.0
endloop
endfacet
facet normal 0.0 0.0 1.0
outer loop
vertex 2.45345159877423 -0.657400374560403 0.0
vertex 6.03256508476733 -16.4377625898017 0.0
vertex 2.54 0.0 0.0
endloop
endfacet
facet normal 0.0 0.0 1.0
outer loop
vertex -20.1827357989241 4.29508827343194 0.0
vertex -20.783070019748 27.5921446615658 0.0
vertex -20.8026000000003 10.1600000000005 0.0
endloop
endfacet
facet normal 0.0 0.0 1.0
outer loop
vertex -20.783070019748 27.5921446615658 0.0
vertex -20.1827357989241 4.29508827343194 0.0
vertex -19.304275710259 44.668326446355 0.0
endloop
endfacet
facet normal 0.0 0.0 1.0
outer loop
vertex -19.304275710259 44.668326446355 0.0
vertex -20.1827357989241 4.29508827343194 0.0
vertex -18.3379194881891 -1.43001597438824 0.0
endloop
endfacet
facet normal 0.0 0.0 1.0
outer loop
vertex -19.304275710259 44.668326446355 0.0
vertex -18.3379194881891 -1.43001597438824 0.0
vertex -16.4014684979203 60.9814841685745 0.0
endloop
endfacet
facet normal 0.0 0.0 1.0
outer loop
vertex -16.4014684979203 60.9814841685745 0.0
vertex -18.3379194881891 -1.43001597438824 0.0
vertex -15.3121277087373 -6.87883798854804 0.0
endloop
endfacet
facet normal 0.0 0.0 1.0
outer loop
vertex -16.4014684979203 60.9814841685745 0.0
vertex -15.3121277087373 -6.87883798854804 0.0
vertex -12.1438453590159 76.1427455726984 0.0
endloop
endfacet
facet normal 0.0 0.0 1.0
outer loop
vertex -12.1438453590159 76.1427455726984 0.0
vertex -15.3121277087373 -6.87883798854804 0.0
vertex -11.1774891369458 -11.9214890165029 0.0
endloop
endfacet
facet normal 0.0 0.0 1.0
outer loop
vertex -12.1438453590159 76.1427455726984 0.0
vertex -11.1774891369458 -11.9214890165029 0.0
vertex -6.63289930559146 89.7906972512654 0.0
endloop
endfacet
facet normal 0.0 0.0 1.0
outer loop
vertex -6.63289930559146 89.7906972512654 0.0
vertex -11.1774891369458 -11.9214890165029 0.0
vertex -6.03256508476735 -16.4377625898016 0.0
endloop
endfacet
facet normal 0.0 0.0 1.0
outer loop
vertex -6.63289930559146 89.7906972512654 0.0
vertex -6.03256508476735 -16.4377625898016 0.0
vertex -2.25597318603832e-14 101.6 0.0
endloop
endfacet
facet normal 0.0 0.0 1.0
outer loop
vertex -2.25597318603832e-14 101.6 0.0
vertex -6.03256508476735 -16.4377625898016 0.0
vertex -2.54 0.0 0.0
endloop
endfacet
facet normal 0.0 0.0 1.0
outer loop
vertex -2.25597318603832e-14 101.6 0.0
vertex -2.54 0.0 0.0
vertex -2.45345159877424 0.657400374560403 0.0
endloop
endfacet
facet normal 0.0 0.0 1.0
outer loop
vertex -2.25597318603832e-14 101.6 0.0
vertex -2.45345159877424 0.657400374560403 0.0
vertex -2.19970452561248 1.27 0.0
endloop
endfacet
facet normal 0.0 0.0 1.0
outer loop
vertex -2.25597318603832e-14 101.6 0.0
vertex -2.19970452561248 1.27 0.0
vertex -1.79605122421383 1.79605122421383 0.0
endloop
endfacet
facet normal 0.0 0.0 1.0
outer loop
vertex -2.25597318603832e-14 101.6 0.0
vertex -1.79605122421383 1.79605122421383 0.0
vertex -1.27 2.19970452561247 0.0
endloop
endfacet
facet normal 0.0 0.0 1.0
outer loop
vertex -2.25597318603832e-14 101.6 0.0
vertex -1.27 2.19970452561247 0.0
vertex -0.657400374560405 2.45345159877423 0.0
endloop
endfacet
facet normal 0.0 0.0 1.0
outer loop
vertex -2.25597318603832e-14 101.6 0.0
vertex -0.657400374560405 2.45345159877423 0.0
vertex 0.0 2.54 0.0
endloop
endfacet
facet normal 0.0 0.0 1.0
outer loop
vertex -2.25597318603832e-14 101.6 0.0
vertex 0.0 2.54 0.0
vertex 6.63289930559144 89.7906972512654 0.0
endloop
endfacet
facet normal 0.0 0.0 1.0
outer loop
vertex 6.63289930559144 89.7906972512654 0.0
vertex 0.0 2.54 0.0
vertex 0.657400374560403 2.45345159877424 0.0
endloop
endfacet
facet normal 0.0 0.0 1.0
outer loop
vertex 6.63289930559144 89.7906972512654 0.0
vertex 0.657400374560403 2.45345159877424 0.0
vertex 1.27 2.19970452561248 0.0
endloop
endfacet
facet normal 0.0 0.0 1.0
outer loop
vertex 6.63289930559144 89.7906972512654 0.0
vertex 1.27 2.19970452561248 0.0
vertex 1.79605122421383 1.79605122421383 0.0
endloop
endfacet
facet normal 0.0 0.0 1.0
outer loop
vertex 6.63289930559144 89.7906972512654 0.0
vertex 1.79605122421383 1.79605122421383 0.0
vertex 2.19970452561247 1.27 0.0
endloop
endfacet
facet normal 0.0 0.0 1.0
outer loop
vertex 6.63289930559144 89.7906972512654 0.0
vertex 2.19970452561247 1.27 0.0
vertex 2.45345159877423 0.657400374560403 0.0
endloop
endfacet
facet normal 0.0 0.0 1.0
outer loop
vertex 6.63289930559144 89.7906972512654 0.0
vertex 2.45345159877423 0.657400374560403 0.0
vertex 2.54 0.0 0.0
endloop
endfacet
facet normal 0.0 0.0 1.0
outer loop
vertex 6.63289930559144 89.7906972512654 0.0
vertex 2.54 0.0 0.0
vertex 6.03256508476733 -16.4377625898017 0.0
endloop
endfacet
facet normal 0.0 0.0 1.0
outer loop
vertex 6.63289930559144 89.7906972512654 0.0
vertex 6.03256508476733 -16.4377625898017 0.0
vertex 11.1774891369457 -11.921489016503 0.0
endloop
endfacet
facet normal 0.0 0.0 1.0
outer loop
vertex 6.63289930559144 89.7906972512654 0.0
vertex 11.1774891369457 -11.921489016503 0.0
vertex 12.1438453590158 76.1427455726983 0.0
endloop
endfacet
facet normal 0.0 0.0 1.0
outer loop
vertex 12.1438453590158 76.1427455726983 0.0
vertex 11.1774891369457 -11.921489016503 0.0
vertex 15.3121277087373 -6.87883798854816 0.0
endloop
endfacet
facet normal 0.0 0.0 1.0
outer loop
vertex 12.1438453590158 76.1427455726983 0.0
vertex 15.3121277087373 -6.87883798854816 0.0
vertex 16.4014684979203 60.9814841685745 0.0
endloop
endfacet
facet normal 0.0 0.0 1.0
outer loop
vertex 16.4014684979203 60.9814841685745 0.0
vertex 15.3121277087373 -6.87883798854816 0.0
vertex 18.337919488189 -1.43001597438836 0.0
endloop
endfacet
facet normal 0.0 0.0 1.0
outer loop
vertex 16.4014684979203 60.9814841685745 0.0
vertex 18.337919488189 -1.43001597438836 0.0
vertex 19.304275710259 44.668326446355 0.0
endloop
endfacet
facet normal 0.0 0.0 1.0
outer loop
vertex 19.304275710259 44.668326446355 0.0
vertex 18.337919488189 -1.43001597438836 0.0
vertex 20.1827357989241 4.29508827343177 0.0
endloop
endfacet
facet normal 0.0 0.0 1.0
outer loop
vertex 19.304275710259 44.668326446355 0.0
vertex 20.1827357989241 4.29508827343177 0.0
vertex 20.783070019748 27.5921446615658 0.0
endloop
endfacet
facet normal 0.0 0.0 1.0
outer loop
vertex 20.783070019748 27.5921446615658 0.0
vertex 20.1827357989241 4.29508827343177 0.0
vertex 20.8026000000003 10.1600000000003 0.0
endloop
endfacet
facet normal -0.991400137197656 0.130865457491532 0.0
outer loop
vertex -19.304275710259 44.668326446355 0.0
vertex -20.783070019748 27.5921446615658 -2.032
vertex -20.783070019748 27.5921446615658 0.0
endloop
endfacet
facet normal -0.999043019750286 0.0437383663187093 0.0
outer loop
vertex -20.783070019748 27.5921446615658 -2.032
vertex -19.304275710259 44.668326446355 0.0
vertex -19.304275710259 44.668326446355 -2.032
endloop
endfacet
facet normal 0.827113053044642 -0.562035583822921 0.0
outer loop
vertex 15.3121277087373 -6.87883798854816 -2.032
vertex 11.1774891369457 -11.921489016503 0.0
vertex 11.1774891369457 -11.921489016503 -2.032
endloop
endfacet
facet normal 0.718900516804524 -0.695112974226628 0.0
outer loop
vertex 11.1774891369457 -11.921489016503 0.0
vertex 15.3121277087373 -6.87883798854816 -2.032
vertex 15.3121277087373 -6.87883798854816 0.0
endloop
endfacet
facet normal 0.602095207149627 -0.798424299183992 0.0
outer loop
vertex 6.03256508476733 -16.4377625898017 0.0
vertex -5.63993296509579e-15 -20.32 -2.032
vertex 6.03256508476733 -16.4377625898017 -2.032
endloop
endfacet
facet normal 0.541167829755708 -0.840914609242518 0.0
outer loop
vertex -5.63993296509579e-15 -20.32 -2.032
vertex 6.03256508476733 -16.4377625898017 0.0
vertex -5.63993296509579e-15 -20.32 0.0
endloop
endfacet
facet normal 0.866025403784438 -0.500000000000001 -1.24822761685232e-16
outer loop
vertex 5.49926131403118 -3.175 -8.382
vertex 4.49012806053458 -4.49012806053458 -2.032
vertex 4.49012806053458 -4.49012806053458 -8.382
endloop
endfacet
facet normal 0.707106781186547 -0.707106781186548 -2.03958201290584e-17
outer loop
vertex 4.49012806053458 -4.49012806053458 -2.032
vertex 5.49926131403118 -3.175 -8.382
vertex 5.49926131403119 -3.17500000000001 -2.032
endloop
endfacet
facet normal 0.0 0.0 -1.0
outer loop
vertex -3.175 5.49926131403119 -8.382
vertex -2.45345159877423 0.657400374560403 -8.382
vertex -2.54 0.0 -8.382
endloop
endfacet
facet normal 0.0 0.0 -1.0
outer loop
vertex -2.45345159877423 0.657400374560403 -8.382
vertex -3.175 5.49926131403119 -8.382
vertex -1.64350093640101 6.13362899693558 -8.382
endloop
endfacet
facet normal 0.0 0.0 -1.0
outer loop
vertex -2.45345159877423 0.657400374560403 -8.382
vertex -1.64350093640101 6.13362899693558 -8.382
vertex -2.19970452561248 1.27 -8.382
endloop
endfacet
facet normal 0.0 0.0 -1.0
outer loop
vertex -2.19970452561248 1.27 -8.382
vertex -1.64350093640101 6.13362899693558 -8.382
vertex -1.79605122421383 1.79605122421383 -8.382
endloop
endfacet
facet normal 0.0 0.0 -1.0
outer loop
vertex -1.79605122421383 1.79605122421383 -8.382
vertex -1.64350093640101 6.13362899693558 -8.382
vertex -1.27 2.19970452561247 -8.382
endloop
endfacet
facet normal 0.0 0.0 -1.0
outer loop
vertex -1.27 2.19970452561247 -8.382
vertex -1.64350093640101 6.13362899693558 -8.382
vertex 0.0 6.35 -8.382
endloop
endfacet
facet normal 0.0 0.0 -1.0
outer loop
vertex -1.27 2.19970452561247 -8.382
vertex 0.0 6.35 -8.382
vertex -0.657400374560405 2.45345159877423 -8.382
endloop
endfacet
facet normal 0.0 0.0 -1.0
outer loop
vertex -0.657400374560405 2.45345159877423 -8.382
vertex 0.0 6.35 -8.382
vertex 0.0 2.54 -8.382
endloop
endfacet
facet normal 0.0 0.0 -1.0
outer loop
vertex 0.0 2.54 -8.382
vertex 0.0 6.35 -8.382
vertex 1.64350093640101 6.13362899693558 -8.382
endloop
endfacet
facet normal 0.0 0.0 -1.0
outer loop
vertex 0.0 2.54 -8.382
vertex 1.64350093640101 6.13362899693558 -8.382
vertex 0.6574003745604 2.45345159877424 -8.382
endloop
endfacet
facet normal 0.0 0.0 -1.0
outer loop
vertex 0.6574003745604 2.45345159877424 -8.382
vertex 1.64350093640101 6.13362899693558 -8.382
vertex 1.27 2.19970452561247 -8.382
endloop
endfacet
facet normal 0.0 0.0 -1.0
outer loop
vertex 1.27 2.19970452561247 -8.382
vertex 1.64350093640101 6.13362899693558 -8.382
vertex 1.79605122421383 1.79605122421383 -8.382
endloop
endfacet
facet normal 0.0 0.0 -1.0
outer loop
vertex 1.79605122421383 1.79605122421383 -8.382
vertex 1.64350093640101 6.13362899693558 -8.382
vertex 3.175 5.49926131403118 -8.382
endloop
endfacet
facet normal 0.0 0.0 -1.0
outer loop
vertex 1.79605122421383 1.79605122421383 -8.382
vertex 3.175 5.49926131403118 -8.382
vertex 2.19970452561247 1.27 -8.382
endloop
endfacet
facet normal 0.0 0.0 -1.0
outer loop
vertex 2.19970452561247 1.27 -8.382
vertex 3.175 5.49926131403118 -8.382
vertex 2.45345159877423 0.657400374560403 -8.382
endloop
endfacet
facet normal 0.0 0.0 -1.0
outer loop
vertex 2.45345159877423 0.657400374560403 -8.382
vertex 3.175 5.49926131403118 -8.382
vertex 2.54 0.0 -8.382
endloop
endfacet
facet normal 0.0 0.0 -1.0
outer loop
vertex 2.54 0.0 -8.382
vertex 3.175 5.49926131403118 -8.382
vertex 3.175 -5.49926131403119 -8.382
endloop
endfacet
facet normal 0.0 0.0 -1.0
outer loop
vertex 3.175 -5.49926131403119 -8.382
vertex 3.175 5.49926131403118 -8.382
vertex 4.49012806053458 -4.49012806053458 -8.382
endloop
endfacet
facet normal 0.0 0.0 -1.0
outer loop
vertex 4.49012806053458 -4.49012806053458 -8.382
vertex 3.175 5.49926131403118 -8.382
vertex 4.49012806053458 4.49012806053458 -8.382
endloop
endfacet
facet normal 0.0 0.0 -1.0
outer loop
vertex 4.49012806053458 -4.49012806053458 -8.382
vertex 4.49012806053458 4.49012806053458 -8.382
vertex 5.49926131403119 3.175 -8.382
endloop
endfacet
facet normal 0.0 0.0 -1.0
outer loop
vertex 4.49012806053458 -4.49012806053458 -8.382
vertex 5.49926131403119 3.175 -8.382
vertex 5.49926131403118 -3.175 -8.382
endloop
endfacet
facet normal 0.0 0.0 -1.0
outer loop
vertex 5.49926131403118 -3.175 -8.382
vertex 5.49926131403119 3.175 -8.382
vertex 6.13362899693558 -1.64350093640101 -8.382
endloop
endfacet
facet normal 0.0 0.0 -1.0
outer loop
vertex 6.13362899693558 -1.64350093640101 -8.382
vertex 5.49926131403119 3.175 -8.382
vertex 6.13362899693558 1.64350093640101 -8.382
endloop
endfacet
facet normal 0.0 0.0 -1.0
outer loop
vertex 6.13362899693558 -1.64350093640101 -8.382
vertex 6.13362899693558 1.64350093640101 -8.382
vertex 6.35 0.0 -8.382
endloop
endfacet
facet normal 0.0 0.0 -1.0
outer loop
vertex -6.13362899693558 1.64350093640101 -8.382
vertex -6.13362899693558 -1.643500936401 -8.382
vertex -6.35 0.0 -8.382
endloop
endfacet
facet normal 0.0 0.0 -1.0
outer loop
vertex -6.13362899693558 -1.643500936401 -8.382
vertex -6.13362899693558 1.64350093640101 -8.382
vertex -5.49926131403118 3.175 -8.382
endloop
endfacet
facet normal 0.0 0.0 -1.0
outer loop
vertex -6.13362899693558 -1.643500936401 -8.382
vertex -5.49926131403118 3.175 -8.382
vertex -5.49926131403119 -3.175 -8.382
endloop
endfacet
facet normal 0.0 0.0 -1.0
outer loop
vertex -5.49926131403119 -3.175 -8.382
vertex -5.49926131403118 3.175 -8.382
vertex -4.49012806053458 -4.49012806053457 -8.382
endloop
endfacet
facet normal 0.0 0.0 -1.0
outer loop
vertex -4.49012806053458 -4.49012806053457 -8.382
vertex -5.49926131403118 3.175 -8.382
vertex -4.49012806053458 4.49012806053458 -8.382
endloop
endfacet
facet normal 0.0 0.0 -1.0
outer loop
vertex -4.49012806053458 -4.49012806053457 -8.382
vertex -4.49012806053458 4.49012806053458 -8.382
vertex -3.175 -5.49926131403118 -8.382
endloop
endfacet
facet normal 0.0 0.0 -1.0
outer loop
vertex -3.175 -5.49926131403118 -8.382
vertex -4.49012806053458 4.49012806053458 -8.382
vertex -3.175 5.49926131403119 -8.382
endloop
endfacet
facet normal 0.0 0.0 -1.0
outer loop
vertex -3.175 -5.49926131403118 -8.382
vertex -3.175 5.49926131403119 -8.382
vertex -2.54 0.0 -8.382
endloop
endfacet
facet normal 0.0 0.0 -1.0
outer loop
vertex -3.175 -5.49926131403118 -8.382
vertex -2.54 0.0 -8.382
vertex -2.45345159877423 -0.657400374560403 -8.382
endloop
endfacet
facet normal 0.0 0.0 -1.0
outer loop
vertex -3.175 -5.49926131403118 -8.382
vertex -2.45345159877423 -0.657400374560403 -8.382
vertex -1.64350093640101 -6.13362899693558 -8.382
endloop
endfacet
facet normal 0.0 0.0 -1.0
outer loop
vertex -1.64350093640101 -6.13362899693558 -8.382
vertex -2.45345159877423 -0.657400374560403 -8.382
vertex -2.19970452561247 -1.27 -8.382
endloop
endfacet
facet normal 0.0 0.0 -1.0
outer loop
vertex -1.64350093640101 -6.13362899693558 -8.382
vertex -2.19970452561247 -1.27 -8.382
vertex -1.79605122421383 -1.79605122421383 -8.382
endloop
endfacet
facet normal 0.0 0.0 -1.0
outer loop
vertex -1.64350093640101 -6.13362899693558 -8.382
vertex -1.79605122421383 -1.79605122421383 -8.382
vertex -1.27 -2.19970452561247 -8.382
endloop
endfacet
facet normal 0.0 0.0 -1.0
outer loop
vertex -1.64350093640101 -6.13362899693558 -8.382
vertex -1.27 -2.19970452561247 -8.382
vertex -2.8199664825479e-15 -6.35 -8.382
endloop
endfacet
facet normal 0.0 0.0 -1.0
outer loop
vertex -2.8199664825479e-15 -6.35 -8.382
vertex -1.27 -2.19970452561247 -8.382
vertex -0.657400374560403 -2.45345159877424 -8.382
endloop
endfacet
facet normal 0.0 0.0 -1.0
outer loop
vertex -2.8199664825479e-15 -6.35 -8.382
vertex -0.657400374560403 -2.45345159877424 -8.382
vertex 0.0 -2.54 -8.382
endloop
endfacet
facet normal 0.0 0.0 -1.0
outer loop
vertex -2.8199664825479e-15 -6.35 -8.382
vertex 0.0 -2.54 -8.382
vertex 1.643500936401 -6.13362899693559 -8.382
endloop
endfacet
facet normal 0.0 0.0 -1.0
outer loop
vertex 1.643500936401 -6.13362899693559 -8.382
vertex 0.0 -2.54 -8.382
vertex 0.657400374560403 -2.45345159877423 -8.382
endloop
endfacet
facet normal 0.0 0.0 -1.0
outer loop
vertex 1.643500936401 -6.13362899693559 -8.382
vertex 0.657400374560403 -2.45345159877423 -8.382
vertex 1.27 -2.19970452561247 -8.382
endloop
endfacet
facet normal 0.0 0.0 -1.0
outer loop
vertex 1.643500936401 -6.13362899693559 -8.382
vertex 1.27 -2.19970452561247 -8.382
vertex 1.79605122421383 -1.79605122421383 -8.382
endloop
endfacet
facet normal 0.0 0.0 -1.0
outer loop
vertex 1.643500936401 -6.13362899693559 -8.382
vertex 1.79605122421383 -1.79605122421383 -8.382
vertex 3.175 -5.49926131403119 -8.382
endloop
endfacet
facet normal 0.0 0.0 -1.0
outer loop
vertex 3.175 -5.49926131403119 -8.382
vertex 1.79605122421383 -1.79605122421383 -8.382
vertex 2.19970452561248 -1.27 -8.382
endloop
endfacet
facet normal 0.0 0.0 -1.0
outer loop
vertex 3.175 -5.49926131403119 -8.382
vertex 2.19970452561248 -1.27 -8.382
vertex 2.45345159877423 -0.657400374560403 -8.382
endloop
endfacet
facet normal 0.0 0.0 -1.0
outer loop
vertex 3.175 -5.49926131403119 -8.382
vertex 2.45345159877423 -0.657400374560403 -8.382
vertex 2.54 0.0 -8.382
endloop
endfacet
facet normal -0.500000000000001 -0.866025403784438 -7.92947723164915e-17
outer loop
vertex -3.175 -5.49926131403118 -2.032
vertex -4.49012806053458 -4.49012806053457 -8.382
vertex -3.175 -5.49926131403118 -8.382
endloop
endfacet
facet normal -0.707106781186548 -0.707106781186547 -3.92523114670944e-17
outer loop
vertex -4.49012806053458 -4.49012806053457 -8.382
vertex -3.175 -5.49926131403118 -2.032
vertex -4.49012806053458 -4.49012806053457 -2.032
endloop
endfacet
facet normal -0.965925826289068 -0.258819045102521 -1.48929849517132e-17
outer loop
vertex 2.45345159877423 0.657400374560403 0.0
vertex 2.54 0.0 -8.382
vertex 2.54 0.0 0.0
endloop
endfacet
facet normal -1.0 -6.86155461964812e-16 9.13522712943335e-19
outer loop
vertex 2.54 0.0 -8.382
vertex 2.45345159877423 0.657400374560403 0.0
vertex 2.45345159877423 0.657400374560403 -8.382
endloop
endfacet
facet normal -0.258819045102522 -0.965925826289068 -1.70847654763929e-16
outer loop
vertex -1.64350093640101 -6.13362899693558 -2.032
vertex -3.175 -5.49926131403118 -8.382
vertex -1.64350093640101 -6.13362899693558 -8.382
endloop
endfacet
facet normal -0.500000000000001 -0.866025403784438 -7.92947723164915e-17
outer loop
vertex -3.175 -5.49926131403118 -8.382
vertex -1.64350093640101 -6.13362899693558 -2.032
vertex -3.175 -5.49926131403118 -2.032
endloop
endfacet
facet normal -0.866025403784438 -0.5 -7.20552843766828e-17
outer loop
vertex 2.19970452561247 1.27 0.0
vertex 2.45345159877423 0.657400374560403 -8.382
vertex 2.45345159877423 0.657400374560403 0.0
endloop
endfacet
facet normal -0.965925826289068 -0.258819045102521 -1.48929849517132e-17
outer loop
vertex 2.45345159877423 0.657400374560403 -8.382
vertex 2.19970452561247 1.27 0.0
vertex 2.19970452561247 1.27 -8.382
endloop
endfacet
facet normal 0.258819045102521 -0.965925826289068 -2.2593439812389e-17
outer loop
vertex 1.643500936401 -6.13362899693559 -2.032
vertex -2.8199664825479e-15 -6.35 -8.382
vertex 1.643500936401 -6.13362899693559 -8.382
endloop
endfacet
facet normal -2.76244406765054e-16 -1.0 -1.72014589971434e-16
outer loop
vertex -2.8199664825479e-15 -6.35 -8.382
vertex 1.643500936401 -6.13362899693559 -2.032
vertex -2.8199664825479e-15 -6.35 -2.032
endloop
endfacet
facet normal -0.5 0.866025403784438 -2.13012376831633e-17
outer loop
vertex 1.27 -2.19970452561247 0.0
vertex 1.79605122421383 -1.79605122421383 -8.382
vertex 1.27 -2.19970452561247 -8.382
endloop
endfacet
facet normal -0.707106781186548 0.707106781186547 -1.39966922555191e-16
outer loop
vertex 1.79605122421383 -1.79605122421383 -8.382
vertex 1.27 -2.19970452561247 0.0
vertex 1.79605122421383 -1.79605122421383 0.0
endloop
endfacet
facet normal -2.22777747391173e-16 1.0 1.37028406941501e-18
outer loop
vertex 0.0 -2.54 0.0
vertex 0.657400374560403 -2.45345159877423 -8.382
vertex 0.0 -2.54 -8.382
endloop
endfacet
facet normal -0.258819045102521 0.965925826289068 3.48758940690966e-17
outer loop
vertex 0.657400374560403 -2.45345159877423 -8.382
vertex 0.0 -2.54 0.0
vertex 0.657400374560403 -2.45345159877423 0.0
endloop
endfacet
facet normal -0.258819045102521 0.965925826289068 3.48758940690966e-17
outer loop
vertex 0.657400374560403 -2.45345159877423 0.0
vertex 1.27 -2.19970452561247 -8.382
vertex 0.657400374560403 -2.45345159877423 -8.382
endloop
endfacet
facet normal -0.5 0.866025403784438 -2.13012376831633e-17
outer loop
vertex 1.27 -2.19970452561247 -8.382
vertex 0.657400374560403 -2.45345159877423 0.0
vertex 1.27 -2.19970452561247 0.0
endloop
endfacet
facet normal -0.707106781186548 -0.707106781186547 -1.27817424848899e-17
outer loop
vertex 1.79605122421383 1.79605122421383 0.0
vertex 2.19970452561247 1.27 -8.382
vertex 2.19970452561247 1.27 0.0
endloop
endfacet
facet normal -0.866025403784438 -0.5 -7.20552843766828e-17
outer loop
vertex 2.19970452561247 1.27 -8.382
vertex 1.79605122421383 1.79605122421383 0.0
vertex 1.79605122421383 1.79605122421383 -8.382
endloop
endfacet
facet normal -0.965925826289068 -0.25881904510252 -1.43673431542158e-17
outer loop
vertex -6.13362899693558 -1.643500936401 -2.032
vertex -5.49926131403119 -3.175 -8.382
vertex -5.49926131403119 -3.175 -2.032
endloop
endfacet
facet normal -0.866025403784439 -0.5 -2.77555756156289e-17
outer loop
vertex -5.49926131403119 -3.175 -8.382
vertex -6.13362899693558 -1.643500936401 -2.032
vertex -6.13362899693558 -1.643500936401 -8.382
endloop
endfacet
facet normal 0.707106781186547 -0.707106781186548 -2.03958201290584e-17
outer loop
vertex 4.49012806053458 -4.49012806053458 -2.032
vertex 3.175 -5.49926131403119 -8.382
vertex 4.49012806053458 -4.49012806053458 -8.382
endloop
endfacet
facet normal 0.5 -0.866025403784439 7.67247590496428e-17
outer loop
vertex 3.175 -5.49926131403119 -8.382
vertex 4.49012806053458 -4.49012806053458 -2.032
vertex 3.175 -5.49926131403119 -2.032
endloop
endfacet
facet normal 0.5 -0.866025403784439 7.67247590496428e-17
outer loop
vertex 3.175 -5.49926131403119 -2.032
vertex 1.643500936401 -6.13362899693559 -8.382
vertex 3.175 -5.49926131403119 -8.382
endloop
endfacet
facet normal 0.258819045102521 -0.965925826289068 -2.2593439812389e-17
outer loop
vertex 1.643500936401 -6.13362899693559 -8.382
vertex 3.175 -5.49926131403119 -2.032
vertex 1.643500936401 -6.13362899693559 -2.032
endloop
endfacet
facet normal -2.76244406765054e-16 -1.0 -1.72014589971434e-16
outer loop
vertex -2.8199664825479e-15 -6.35 -2.032
vertex -1.64350093640101 -6.13362899693558 -8.382
vertex -2.8199664825479e-15 -6.35 -8.382
endloop
endfacet
facet normal -0.258819045102521 -0.965925826289068 -1.70847654763929e-16
outer loop
vertex -1.64350093640101 -6.13362899693558 -8.382
vertex -2.8199664825479e-15 -6.35 -2.032
vertex -1.64350093640101 -6.13362899693558 -2.032
endloop
endfacet
facet normal -1.0 4.9011104426058e-16 2.59285301897423e-17
outer loop
vertex -6.35 0.0 -2.032
vertex -6.13362899693558 -1.643500936401 -8.382
vertex -6.13362899693558 -1.643500936401 -2.032
endloop
endfacet
facet normal -0.965925826289068 -0.25881904510252 -1.43673431542158e-17
outer loop
vertex -6.13362899693558 -1.643500936401 -8.382
vertex -6.35 0.0 -2.032
vertex -6.35 0.0 -8.382
endloop
endfacet
facet normal 0.5 0.866025403784439 -1.66621150943175e-16
outer loop
vertex 3.175 5.49926131403119 -2.032
vertex 4.49012806053458 4.49012806053458 -8.382
vertex 3.175 5.49926131403118 -8.382
endloop
endfacet
facet normal 0.707106781186547 0.707106781186548 -1.57009245868378e-16
outer loop
vertex 4.49012806053458 4.49012806053458 -8.382
vertex 3.175 5.49926131403119 -2.032
vertex 4.49012806053458 4.49012806053458 -2.032
endloop
endfacet
facet normal 0.707106781186547 0.707106781186548 -1.57009245868378e-16
outer loop
vertex 4.49012806053458 4.49012806053458 -8.382
vertex 5.49926131403119 3.175 -2.032
vertex 5.49926131403119 3.175 -8.382
endloop
endfacet
facet normal 0.866025403784439 0.5 -1.10833341152016e-16
outer loop
vertex 5.49926131403119 3.175 -2.032
vertex 4.49012806053458 4.49012806053458 -8.382
vertex 4.49012806053458 4.49012806053458 -2.032
endloop
endfacet
facet normal 0.866025403784439 0.5 -1.10833341152016e-16
outer loop
vertex 5.49926131403119 3.175 -8.382
vertex 6.13362899693558 1.64350093640101 -2.032
vertex 6.13362899693558 1.64350093640101 -8.382
endloop
endfacet
facet normal 0.965925826289068 0.25881904510252 -4.29775193362084e-17
outer loop
vertex 6.13362899693558 1.64350093640101 -2.032
vertex 5.49926131403119 3.175 -8.382
vertex 5.49926131403119 3.175 -2.032
endloop
endfacet
facet normal 0.965925826289068 0.25881904510252 -4.29775193362084e-17
outer loop
vertex 6.13362899693558 1.64350093640101 -8.382
vertex 6.35 0.0 -2.032
vertex 6.35 0.0 -8.382
endloop
endfacet
facet normal 1.0 1.96044417704232e-16 -1.09622725553201e-17
outer loop
vertex 6.35 0.0 -2.032
vertex 6.13362899693558 1.64350093640101 -8.382
vertex 6.13362899693558 1.64350093640101 -2.032
endloop
endfacet
facet normal 1.0 1.96044417704232e-16 -1.09622725553201e-17
outer loop
vertex 6.35 0.0 -8.382
vertex 6.13362899693558 -1.64350093640101 -2.032
vertex 6.13362899693558 -1.64350093640101 -8.382
endloop
endfacet
facet normal 0.965925826289068 -0.258819045102521 -6.88415983418897e-17
outer loop
vertex 6.13362899693558 -1.64350093640101 -2.032
vertex 6.35 0.0 -8.382
vertex 6.35 0.0 -2.032
endloop
endfacet
facet normal 0.258819045102521 0.965925826289068 -5.61068102655793e-17
outer loop
vertex 1.64350093640101 6.13362899693559 -2.032
vertex 3.175 5.49926131403118 -8.382
vertex 1.64350093640101 6.13362899693558 -8.382
endloop
endfacet
facet normal 0.5 0.866025403784439 -1.66621150943175e-16
outer loop
vertex 3.175 5.49926131403118 -8.382
vertex 1.64350093640101 6.13362899693559 -2.032
vertex 3.175 5.49926131403119 -2.032
endloop
endfacet
facet normal -9.8022208852116e-17 1.0 5.18570603794845e-17
outer loop
vertex 0.0 6.35 -2.032
vertex 1.64350093640101 6.13362899693558 -8.382
vertex 0.0 6.35 -8.382
endloop
endfacet
facet normal 0.258819045102521 0.965925826289068 -5.61068102655794e-17
outer loop
vertex 1.64350093640101 6.13362899693558 -8.382
vertex 0.0 6.35 -2.032
vertex 1.64350093640101 6.13362899693559 -2.032
endloop
endfacet
facet normal -0.25881904510252 0.965925826289069 -1.15623238313247e-17
outer loop
vertex -1.64350093640101 6.13362899693559 -2.032
vertex 0.0 6.35 -8.382
vertex -1.64350093640101 6.13362899693558 -8.382
endloop
endfacet
facet normal -9.8022208852116e-17 1.0 5.18570603794845e-17
outer loop
vertex 0.0 6.35 -8.382
vertex -1.64350093640101 6.13362899693559 -2.032
vertex 0.0 6.35 -2.032
endloop
endfacet
facet normal -0.5 0.866025403784439 -1.1172845742644e-16
outer loop
vertex -3.175 5.49926131403119 -2.032
vertex -1.64350093640101 6.13362899693558 -8.382
vertex -3.175 5.49926131403119 -8.382
endloop
endfacet
facet normal -0.25881904510252 0.965925826289069 -1.15623238313247e-17
outer loop
vertex -1.64350093640101 6.13362899693558 -8.382
vertex -3.175 5.49926131403119 -2.032
vertex -1.64350093640101 6.13362899693559 -2.032
endloop
endfacet
facet normal -0.707106781186547 0.707106781186548 -8.18581197500607e-17
outer loop
vertex -4.49012806053458 4.49012806053458 -2.032
vertex -3.175 5.49926131403119 -8.382
vertex -4.49012806053458 4.49012806053458 -8.382
endloop
endfacet
facet normal -0.5 0.866025403784439 -1.1172845742644e-16
outer loop
vertex -3.175 5.49926131403119 -8.382
vertex -4.49012806053458 4.49012806053458 -2.032
vertex -3.175 5.49926131403119 -2.032
endloop
endfacet
facet normal -0.965925826289068 0.258819045102521 1.1253148420978e-16
outer loop
vertex -6.13362899693558 1.64350093640101 -2.032
vertex -6.35 0.0 -8.382
vertex -6.35 0.0 -2.032
endloop
endfacet
facet normal -1.0 4.9011104426058e-16 2.59285301897423e-17
outer loop
vertex -6.35 0.0 -8.382
vertex -6.13362899693558 1.64350093640101 -2.032
vertex -6.13362899693558 1.64350093640101 -8.382
endloop
endfacet
facet normal -0.866025403784439 0.5 7.62418695365211e-17
outer loop
vertex -5.49926131403118 3.175 -2.032
vertex -6.13362899693558 1.64350093640101 -8.382
vertex -6.13362899693558 1.64350093640101 -2.032
endloop
endfacet
facet normal -0.965925826289068 0.258819045102521 1.1253148420978e-16
outer loop
vertex -6.13362899693558 1.64350093640101 -8.382
vertex -5.49926131403118 3.175 -2.032
vertex -5.49926131403118 3.175 -8.382
endloop
endfacet
facet normal -0.707106781186547 0.707106781186548 -8.18581197500607e-17
outer loop
vertex -4.49012806053458 4.49012806053458 -2.032
vertex -5.49926131403118 3.175 -8.382
vertex -5.49926131403118 3.175 -2.032
endloop
endfacet
facet normal -0.866025403784439 0.5 7.62418695365211e-17
outer loop
vertex -5.49926131403118 3.175 -8.382
vertex -4.49012806053458 4.49012806053458 -2.032
vertex -4.49012806053458 4.49012806053458 -8.382
endloop
endfacet
facet normal 0.866025403784438 -0.500000000000001 -1.24822761685232e-16
outer loop
vertex 5.49926131403118 -3.175 -8.382
vertex 6.13362899693558 -1.64350093640101 -2.032
vertex 5.49926131403119 -3.17500000000001 -2.032
endloop
endfacet
facet normal 0.965925826289068 -0.258819045102521 -6.88415983418897e-17
outer loop
vertex 6.13362899693558 -1.64350093640101 -2.032
vertex 5.49926131403118 -3.175 -8.382
vertex 6.13362899693558 -1.64350093640101 -8.382
endloop
endfacet
facet normal 0.965925826289068 0.258819045102521 1.16267750153858e-17
outer loop
vertex -2.45345159877423 -0.657400374560403 -8.382
vertex -2.19970452561247 -1.27 0.0
vertex -2.19970452561247 -1.27 -8.382
endloop
endfacet
facet normal 0.866025403784438 0.500000000000001 -2.42784783363553e-17
outer loop
vertex -2.19970452561247 -1.27 0.0
vertex -2.45345159877423 -0.657400374560403 -8.382
vertex -2.45345159877423 -0.657400374560403 0.0
endloop
endfacet
facet normal -0.25881904510252 -0.965925826289069 1.29804952719944e-16
outer loop
vertex 0.657400374560403 2.45345159877424 0.0
vertex 0.0 2.54 -8.382
vertex 0.6574003745604 2.45345159877424 -8.382
endloop
endfacet
facet normal 8.55466549982103e-16 -1.0 1.12392586531931e-16
outer loop
vertex 0.0 2.54 -8.382
vertex 0.657400374560403 2.45345159877424 0.0
vertex 0.0 2.54 0.0
endloop
endfacet
facet normal -0.5 -0.866025403784439 1.03426286551536e-16
outer loop
vertex 1.27 2.19970452561248 0.0
vertex 0.6574003745604 2.45345159877424 -8.382
vertex 1.27 2.19970452561247 -8.382
endloop
endfacet
facet normal -0.25881904510252 -0.965925826289069 1.29804952719944e-16
outer loop
vertex 0.6574003745604 2.45345159877424 -8.382
vertex 1.27 2.19970452561248 0.0
vertex 0.657400374560403 2.45345159877424 0.0
endloop
endfacet
facet normal 0.25881904510252 0.965925826289068 -2.41315142350445e-17
outer loop
vertex -0.657400374560403 -2.45345159877423 0.0
vertex 0.0 -2.54 -8.382
vertex -0.657400374560403 -2.45345159877424 -8.382
endloop
endfacet
facet normal -2.22777747391173e-16 1.0 1.37028406941501e-18
outer loop
vertex 0.0 -2.54 -8.382
vertex -0.657400374560403 -2.45345159877423 0.0
vertex 0.0 -2.54 0.0
endloop
endfacet
facet normal -1.0 -6.86155461964812e-16 9.13522712943335e-19
outer loop
vertex 2.54 0.0 0.0
vertex 2.45345159877423 -0.657400374560403 -8.382
vertex 2.45345159877423 -0.657400374560403 0.0
endloop
endfacet
facet normal -0.965925826289068 0.25881904510252 -8.27527080820596e-17
outer loop
vertex 2.45345159877423 -0.657400374560403 -8.382
vertex 2.54 0.0 0.0
vertex 2.54 0.0 -8.382
endloop
endfacet
facet normal -0.866025403784439 0.5 -1.69054686345585e-16
outer loop
vertex 2.19970452561247 -1.27 0.0
vertex 1.79605122421383 -1.79605122421383 -8.382
vertex 1.79605122421383 -1.79605122421383 0.0
endloop
endfacet
facet normal -0.707106781186548 0.707106781186547 -1.39966922555191e-16
outer loop
vertex 1.79605122421383 -1.79605122421383 -8.382
vertex 2.19970452561247 -1.27 0.0
vertex 2.19970452561248 -1.27 -8.382
endloop
endfacet
facet normal 0.258819045102521 -0.965925826289068 7.22322796692785e-17
outer loop
vertex -0.657400374560405 2.45345159877423 0.0
vertex -1.27 2.19970452561247 -8.382
vertex -0.657400374560405 2.45345159877423 -8.382
endloop
endfacet
facet normal 0.5 -0.866025403784438 3.23150840215071e-17
outer loop
vertex -1.27 2.19970452561247 -8.382
vertex -0.657400374560405 2.45345159877423 0.0
vertex -1.27 2.19970452561247 0.0
endloop
endfacet
facet normal 0.5 -0.866025403784438 3.23150840215071e-17
outer loop
vertex -1.27 2.19970452561247 0.0
vertex -1.79605122421383 1.79605122421383 -8.382
vertex -1.27 2.19970452561247 -8.382
endloop
endfacet
facet normal 0.707106781186547 -0.707106781186548 3.24078982184371e-17
outer loop
vertex -1.79605122421383 1.79605122421383 -8.382
vertex -1.27 2.19970452561247 0.0
vertex -1.79605122421383 1.79605122421383 0.0
endloop
endfacet
facet normal -0.866025403784439 -0.5 -2.77555756156289e-17
outer loop
vertex -5.49926131403119 -3.175 -2.032
vertex -4.49012806053458 -4.49012806053457 -8.382
vertex -4.49012806053458 -4.49012806053457 -2.032
endloop
endfacet
facet normal -0.707106781186548 -0.707106781186547 -3.92523114670944e-17
outer loop
vertex -4.49012806053458 -4.49012806053457 -8.382
vertex -5.49926131403119 -3.175 -2.032
vertex -5.49926131403119 -3.175 -8.382
endloop
endfacet
facet normal -0.707106781186548 -0.707106781186547 -1.27817424848899e-17
outer loop
vertex 1.79605122421383 1.79605122421383 0.0
vertex 1.27 2.19970452561247 -8.382
vertex 1.79605122421383 1.79605122421383 -8.382
endloop
endfacet
facet normal -0.5 -0.866025403784439 1.03426286551536e-16
outer loop
vertex 1.27 2.19970452561247 -8.382
vertex 1.79605122421383 1.79605122421383 0.0
vertex 1.27 2.19970452561248 0.0
endloop
endfacet
facet normal 0.866025403784439 -0.5 4.20267716562748e-17
outer loop
vertex -2.19970452561248 1.27 -8.382
vertex -2.45345159877424 0.657400374560403 0.0
vertex -2.45345159877423 0.657400374560403 -8.382
endloop
endfacet
facet normal 0.965925826289068 -0.25881904510252 4.11460429332611e-17
outer loop
vertex -2.45345159877424 0.657400374560403 0.0
vertex -2.19970452561248 1.27 -8.382
vertex -2.19970452561248 1.27 0.0
endloop
endfacet
facet normal 0.707106781186547 -0.707106781186548 3.24078982184371e-17
outer loop
vertex -1.79605122421383 1.79605122421383 -8.382
vertex -2.19970452561248 1.27 0.0
vertex -2.19970452561248 1.27 -8.382
endloop
endfacet
facet normal 0.866025403784439 -0.5 4.20267716562748e-17
outer loop
vertex -2.19970452561248 1.27 0.0
vertex -1.79605122421383 1.79605122421383 -8.382
vertex -1.79605122421383 1.79605122421383 0.0
endloop
endfacet
facet normal 0.5 0.866025403784439 -5.63504511429817e-17
outer loop
vertex -1.27 -2.19970452561247 0.0
vertex -0.657400374560403 -2.45345159877424 -8.382
vertex -1.27 -2.19970452561247 -8.382
endloop
endfacet
facet normal 0.25881904510252 0.965925826289068 -2.41315142350445e-17
outer loop
vertex -0.657400374560403 -2.45345159877424 -8.382
vertex -1.27 -2.19970452561247 0.0
vertex -0.657400374560403 -2.45345159877423 0.0
endloop
endfacet
facet normal 0.707106781186548 0.707106781186548 -8.10884553545494e-17
outer loop
vertex -1.79605122421383 -1.79605122421383 0.0
vertex -1.27 -2.19970452561247 -8.382
vertex -1.79605122421383 -1.79605122421383 -8.382
endloop
endfacet
facet normal 0.5 0.866025403784439 -5.63504511429817e-17
outer loop
vertex -1.27 -2.19970452561247 -8.382
vertex -1.79605122421383 -1.79605122421383 0.0
vertex -1.27 -2.19970452561247 0.0
endloop
endfacet
facet normal 0.965925826289068 -0.25881904510252 4.11460429332611e-17
outer loop
vertex -2.45345159877423 0.657400374560403 -8.382
vertex -2.54 0.0 0.0
vertex -2.54 0.0 -8.382
endloop
endfacet
facet normal 1.0 4.63377714573639e-16 1.70751173031161e-17
outer loop
vertex -2.54 0.0 0.0
vertex -2.45345159877423 0.657400374560403 -8.382
vertex -2.45345159877424 0.657400374560403 0.0
endloop
endfacet
facet normal 1.0 4.63377714573639e-16 1.70751173031161e-17
outer loop
vertex -2.54 0.0 -8.382
vertex -2.45345159877423 -0.657400374560403 0.0
vertex -2.45345159877423 -0.657400374560403 -8.382
endloop
endfacet
facet normal 0.965925826289068 0.258819045102521 1.16267750153858e-17
outer loop
vertex -2.45345159877423 -0.657400374560403 0.0
vertex -2.54 0.0 -8.382
vertex -2.54 0.0 0.0
endloop
endfacet
facet normal 8.55466549982103e-16 -1.0 1.12392586531931e-16
outer loop
vertex 0.0 2.54 0.0
vertex -0.657400374560405 2.45345159877423 -8.382
vertex 0.0 2.54 -8.382
endloop
endfacet
facet normal 0.258819045102521 -0.965925826289068 7.22322796692785e-17
outer loop
vertex -0.657400374560405 2.45345159877423 -8.382
vertex 0.0 2.54 0.0
vertex -0.657400374560405 2.45345159877423 0.0
endloop
endfacet
facet normal 0.866025403784438 0.500000000000001 -2.42784783363553e-17
outer loop
vertex -2.19970452561247 -1.27 -8.382
vertex -1.79605122421383 -1.79605122421383 0.0
vertex -1.79605122421383 -1.79605122421383 -8.382
endloop
endfacet
facet normal 0.707106781186548 0.707106781186548 -8.10884553545494e-17
outer loop
vertex -1.79605122421383 -1.79605122421383 0.0
vertex -2.19970452561247 -1.27 -8.382
vertex -2.19970452561247 -1.27 0.0
endloop
endfacet
facet normal -0.866025403784439 0.5 -1.69054686345585e-16
outer loop
vertex 2.19970452561247 -1.27 0.0
vertex 2.45345159877423 -0.657400374560403 -8.382
vertex 2.19970452561248 -1.27 -8.382
endloop
endfacet
facet normal -0.965925826289068 0.25881904510252 -8.27527080820596e-17
outer loop
vertex 2.45345159877423 -0.657400374560403 -8.382
vertex 2.19970452561247 -1.27 0.0
vertex 2.45345159877423 -0.657400374560403 0.0
endloop
endfacet
endsolid Camera-Base Covered 001
