solid Camera-Base
facet normal 0.0 0.0 -1.0
outer loop
vertex 44.45 44.45 0.0
vertex 0.0 0.0 0.0
vertex 0.0 44.45 0.0
endloop
endfacet
facet normal 0.0 0.0 -1.0
outer loop
vertex 0.0 0.0 0.0
vertex 44.45 44.45 0.0
vertex 44.45 0.0 0.0
endloop
endfacet
facet normal 0.0 -1.0 0.0
outer loop
vertex 44.45 0.0 2.032
vertex 0.0 0.0 0.0
vertex 44.45 0.0 0.0
endloop
endfacet
facet normal 0.0 -1.0 0.0
outer loop
vertex 0.0 0.0 0.0
vertex 44.45 0.0 2.032
vertex 0.0 0.0 2.032
endloop
endfacet
facet normal 0.0 0.0 1.0
outer loop
vertex 0.0 0.0 2.032
vertex 16.0913710030644 4.960499063599 2.032
vertex 0.0 44.45 2.032
endloop
endfacet
facet normal 0.0 0.0 1.0
outer loop
vertex 16.0913710030644 4.960499063599 2.032
vertex 0.0 0.0 2.032
vertex 16.7257386859688 3.429 2.032
endloop
endfacet
facet normal 0.0 0.0 1.0
outer loop
vertex 16.7257386859688 3.429 2.032
vertex 0.0 0.0 2.032
vertex 17.7348719394654 2.11387193946542 2.032
endloop
endfacet
facet normal 0.0 0.0 1.0
outer loop
vertex 17.7348719394654 2.11387193946542 2.032
vertex 0.0 0.0 2.032
vertex 19.05 1.10473868596881 2.032
endloop
endfacet
facet normal 0.0 0.0 1.0
outer loop
vertex 19.05 1.10473868596881 2.032
vertex 0.0 0.0 2.032
vertex 20.581499063599 0.470371003064416 2.032
endloop
endfacet
facet normal 0.0 0.0 1.0
outer loop
vertex 20.581499063599 0.470371003064416 2.032
vertex 0.0 0.0 2.032
vertex 22.225 0.254 2.032
endloop
endfacet
facet normal 0.0 0.0 1.0
outer loop
vertex 22.225 0.254 2.032
vertex 0.0 0.0 2.032
vertex 44.45 0.0 2.032
endloop
endfacet
facet normal 0.0 0.0 1.0
outer loop
vertex 0.0 44.45 2.032
vertex 16.0913710030644 4.960499063599 2.032
vertex 15.875 6.604 2.032
endloop
endfacet
facet normal 0.0 0.0 1.0
outer loop
vertex 22.225 0.254 2.032
vertex 44.45 0.0 2.032
vertex 23.868500936401 0.470371003064424 2.032
endloop
endfacet
facet normal 0.0 0.0 1.0
outer loop
vertex 23.868500936401 0.470371003064424 2.032
vertex 44.45 0.0 2.032
vertex 25.4 1.10473868596882 2.032
endloop
endfacet
facet normal 0.0 0.0 1.0
outer loop
vertex 25.4 1.10473868596882 2.032
vertex 44.45 0.0 2.032
vertex 26.7151280605346 2.11387193946543 2.032
endloop
endfacet
facet normal 0.0 0.0 1.0
outer loop
vertex 26.7151280605346 2.11387193946543 2.032
vertex 44.45 0.0 2.032
vertex 27.7242613140312 3.429 2.032
endloop
endfacet
facet normal 0.0 0.0 1.0
outer loop
vertex 27.7242613140312 3.429 2.032
vertex 44.45 0.0 2.032
vertex 28.3586289969356 4.960499063599 2.032
endloop
endfacet
facet normal 0.0 0.0 1.0
outer loop
vertex 28.3586289969356 4.960499063599 2.032
vertex 44.45 0.0 2.032
vertex 28.575 6.604 2.032
endloop
endfacet
facet normal 0.0 0.0 1.0
outer loop
vertex 0.0 44.45 2.032
vertex 17.7348719394654 11.0941280605346 2.032
vertex 44.45 44.45 2.032
endloop
endfacet
facet normal 0.0 0.0 1.0
outer loop
vertex 17.7348719394654 11.0941280605346 2.032
vertex 0.0 44.45 2.032
vertex 16.7257386859688 9.779 2.032
endloop
endfacet
facet normal 0.0 0.0 1.0
outer loop
vertex 16.7257386859688 9.779 2.032
vertex 0.0 44.45 2.032
vertex 16.0913710030644 8.24750093640101 2.032
endloop
endfacet
facet normal 0.0 0.0 1.0
outer loop
vertex 16.0913710030644 8.24750093640101 2.032
vertex 0.0 44.45 2.032
vertex 15.875 6.604 2.032
endloop
endfacet
facet normal 0.0 0.0 1.0
outer loop
vertex 44.45 44.45 2.032
vertex 17.7348719394654 11.0941280605346 2.032
vertex 19.05 12.1032613140312 2.032
endloop
endfacet
facet normal 0.0 0.0 1.0
outer loop
vertex 44.45 44.45 2.032
vertex 19.05 12.1032613140312 2.032
vertex 20.581499063599 12.7376289969356 2.032
endloop
endfacet
facet normal 0.0 0.0 1.0
outer loop
vertex 44.45 44.45 2.032
vertex 20.581499063599 12.7376289969356 2.032
vertex 22.225 12.954 2.032
endloop
endfacet
facet normal 0.0 0.0 1.0
outer loop
vertex 44.45 44.45 2.032
vertex 22.225 12.954 2.032
vertex 23.868500936401 12.7376289969356 2.032
endloop
endfacet
facet normal 0.0 0.0 1.0
outer loop
vertex 44.45 44.45 2.032
vertex 23.868500936401 12.7376289969356 2.032
vertex 25.4 12.1032613140312 2.032
endloop
endfacet
facet normal 0.0 0.0 1.0
outer loop
vertex 44.45 44.45 2.032
vertex 25.4 12.1032613140312 2.032
vertex 26.7151280605346 11.0941280605346 2.032
endloop
endfacet
facet normal 0.0 0.0 1.0
outer loop
vertex 44.45 44.45 2.032
vertex 26.7151280605346 11.0941280605346 2.032
vertex 27.7242613140312 9.77900000000001 2.032
endloop
endfacet
facet normal 0.0 0.0 1.0
outer loop
vertex 44.45 44.45 2.032
vertex 27.7242613140312 9.77900000000001 2.032
vertex 28.3586289969356 8.24750093640101 2.032
endloop
endfacet
facet normal 0.0 0.0 1.0
outer loop
vertex 44.45 44.45 2.032
vertex 28.3586289969356 8.24750093640101 2.032
vertex 28.575 6.604 2.032
endloop
endfacet
facet normal 0.0 0.0 1.0
outer loop
vertex 44.45 44.45 2.032
vertex 28.575 6.604 2.032
vertex 44.45 0.0 2.032
endloop
endfacet
facet normal 1.0 0.0 0.0
outer loop
vertex 44.45 44.45 0.0
vertex 44.45 0.0 2.032
vertex 44.45 0.0 0.0
endloop
endfacet
facet normal 1.0 0.0 0.0
outer loop
vertex 44.45 0.0 2.032
vertex 44.45 44.45 0.0
vertex 44.45 44.45 2.032
endloop
endfacet
facet normal -1.0 5.26819897540246e-18 -1.66059918789758e-16
outer loop
vertex 0.0 44.45 2.032
vertex 0.0 0.0 0.0
vertex 0.0 0.0 2.032
endloop
endfacet
facet normal -1.0 5.26819897540246e-18 -1.66059918789758e-16
outer loop
vertex 0.0 0.0 0.0
vertex 0.0 44.45 2.032
vertex 0.0 44.45 0.0
endloop
endfacet
facet normal 0.0 1.0 0.0
outer loop
vertex 0.0 44.45 2.032
vertex 44.45 44.45 0.0
vertex 0.0 44.45 0.0
endloop
endfacet
facet normal 0.0 1.0 0.0
outer loop
vertex 44.45 44.45 0.0
vertex 0.0 44.45 2.032
vertex 44.45 44.45 2.032
endloop
endfacet
facet normal -1.24105839606363e-17 -3.94454581731963e-18 1.0
outer loop
vertex 19.7715484012258 5.9465996254396 2.032
vertex 19.7715484012258 7.2614003745604 2.032
vertex 19.685 6.604 2.032
endloop
endfacet
facet normal -1.24105839606363e-17 -3.94454581731963e-18 1.0
outer loop
vertex 19.7715484012258 7.2614003745604 2.032
vertex 19.7715484012258 5.9465996254396 2.032
vertex 20.0252954743875 7.874 2.032
endloop
endfacet
facet normal -1.24105839606363e-17 -3.94454581731963e-18 1.0
outer loop
vertex 20.0252954743875 7.874 2.032
vertex 19.7715484012258 5.9465996254396 2.032
vertex 20.0252954743875 5.334 2.032
endloop
endfacet
facet normal -1.24105839606363e-17 -3.94454581731963e-18 1.0
outer loop
vertex 20.0252954743875 7.874 2.032
vertex 20.0252954743875 5.334 2.032
vertex 20.4289487757862 8.40005122421383 2.032
endloop
endfacet
facet normal -1.24105839606363e-17 -3.94454581731963e-18 1.0
outer loop
vertex 20.4289487757862 8.40005122421383 2.032
vertex 20.0252954743875 5.334 2.032
vertex 20.4289487757862 4.80794877578617 2.032
endloop
endfacet
facet normal -1.24105839606363e-17 -3.94454581731963e-18 1.0
outer loop
vertex 20.4289487757862 8.40005122421383 2.032
vertex 20.4289487757862 4.80794877578617 2.032
vertex 20.955 8.80370452561248 2.032
endloop
endfacet
facet normal -1.24105839606363e-17 -3.94454581731963e-18 1.0
outer loop
vertex 20.955 8.80370452561248 2.032
vertex 20.4289487757862 4.80794877578617 2.032
vertex 20.955 4.40429547438753 2.032
endloop
endfacet
facet normal -1.24105839606363e-17 -3.94454581731963e-18 1.0
outer loop
vertex 20.955 8.80370452561248 2.032
vertex 20.955 4.40429547438753 2.032
vertex 21.5675996254396 4.15054840122577 2.032
endloop
endfacet
facet normal -1.24105839606363e-17 -3.94454581731963e-18 1.0
outer loop
vertex 20.955 8.80370452561248 2.032
vertex 21.5675996254396 4.15054840122577 2.032
vertex 21.5675996254396 9.05745159877423 2.032
endloop
endfacet
facet normal -1.24105839606363e-17 -3.94454581731963e-18 1.0
outer loop
vertex 21.5675996254396 9.05745159877423 2.032
vertex 21.5675996254396 4.15054840122577 2.032
vertex 22.225 4.064 2.032
endloop
endfacet
facet normal -1.24105839606363e-17 -3.94454581731963e-18 1.0
outer loop
vertex 21.5675996254396 9.05745159877423 2.032
vertex 22.225 4.064 2.032
vertex 22.225 9.144 2.032
endloop
endfacet
facet normal -1.24105839606363e-17 -3.94454581731963e-18 1.0
outer loop
vertex 22.225 9.144 2.032
vertex 22.225 4.064 2.032
vertex 22.8824003745604 4.15054840122577 2.032
endloop
endfacet
facet normal -1.24105839606363e-17 -3.94454581731963e-18 1.0
outer loop
vertex 22.225 9.144 2.032
vertex 22.8824003745604 4.15054840122577 2.032
vertex 22.8824003745604 9.05745159877423 2.032
endloop
endfacet
facet normal -1.24105839606363e-17 -3.94454581731963e-18 1.0
outer loop
vertex 22.8824003745604 9.05745159877423 2.032
vertex 22.8824003745604 4.15054840122577 2.032
vertex 23.495 4.40429547438753 2.032
endloop
endfacet
facet normal -1.24105839606363e-17 -3.94454581731963e-18 1.0
outer loop
vertex 22.8824003745604 9.05745159877423 2.032
vertex 23.495 4.40429547438753 2.032
vertex 23.495 8.80370452561247 2.032
endloop
endfacet
facet normal -1.24105839606363e-17 -3.94454581731963e-18 1.0
outer loop
vertex 23.495 8.80370452561247 2.032
vertex 23.495 4.40429547438753 2.032
vertex 24.0210512242138 8.40005122421383 2.032
endloop
endfacet
facet normal -1.24105839606363e-17 -3.94454581731963e-18 1.0
outer loop
vertex 24.0210512242138 8.40005122421383 2.032
vertex 23.495 4.40429547438753 2.032
vertex 24.0210512242138 4.80794877578617 2.032
endloop
endfacet
facet normal -1.24105839606363e-17 -3.94454581731963e-18 1.0
outer loop
vertex 24.0210512242138 8.40005122421383 2.032
vertex 24.0210512242138 4.80794877578617 2.032
vertex 24.4247045256125 7.874 2.032
endloop
endfacet
facet normal -1.24105839606363e-17 -3.94454581731963e-18 1.0
outer loop
vertex 24.4247045256125 7.874 2.032
vertex 24.0210512242138 4.80794877578617 2.032
vertex 24.4247045256125 5.334 2.032
endloop
endfacet
facet normal -1.24105839606363e-17 -3.94454581731963e-18 1.0
outer loop
vertex 24.4247045256125 7.874 2.032
vertex 24.4247045256125 5.334 2.032
vertex 24.6784515987742 7.2614003745604 2.032
endloop
endfacet
facet normal -1.24105839606363e-17 -3.94454581731963e-18 1.0
outer loop
vertex 24.6784515987742 7.2614003745604 2.032
vertex 24.4247045256125 5.334 2.032
vertex 24.6784515987742 5.9465996254396 2.032
endloop
endfacet
facet normal -1.24105839606363e-17 -3.94454581731963e-18 1.0
outer loop
vertex 24.6784515987742 7.2614003745604 2.032
vertex 24.6784515987742 5.9465996254396 2.032
vertex 24.765 6.604 2.032
endloop
endfacet
facet normal -0.965925826289069 0.25881904510252 3.11419348482699e-17
outer loop
vertex 16.0913710030644 8.247500936401 7.874
vertex 15.875 6.604 2.032
vertex 15.875 6.604 7.874
endloop
endfacet
facet normal -1.0 -1.1406220666428e-15 -3.77931869333716e-16
outer loop
vertex 15.875 6.604 2.032
vertex 16.0913710030644 8.247500936401 7.874
vertex 16.0913710030644 8.24750093640101 2.032
endloop
endfacet
facet normal -0.707106781186547 0.707106781186548 3.04266825209826e-16
outer loop
vertex 17.7348719394654 11.0941280605346 7.874
vertex 19.05 12.1032613140312 2.032
vertex 17.7348719394654 11.0941280605346 2.032
endloop
endfacet
facet normal -0.5 0.866025403784439 -5.03324945075089e-17
outer loop
vertex 19.05 12.1032613140312 2.032
vertex 17.7348719394654 11.0941280605346 7.874
vertex 19.05 12.1032613140312 7.874
endloop
endfacet
facet normal 0.707106781186548 -0.707106781186547 6.68191879579583e-17
outer loop
vertex 26.7151280605346 2.11387193946543 2.032
vertex 27.7242613140312 3.429 7.874
vertex 26.7151280605346 2.11387193946542 7.874
endloop
endfacet
facet normal 0.866025403784439 -0.499999999999999 -2.67141248892592e-16
outer loop
vertex 27.7242613140312 3.429 7.874
vertex 26.7151280605346 2.11387193946543 2.032
vertex 27.7242613140312 3.429 2.032
endloop
endfacet
facet normal 0.866025403784439 -0.499999999999999 -2.67141248892592e-16
outer loop
vertex 27.7242613140312 3.429 2.032
vertex 28.3586289969356 4.96049906359899 7.874
vertex 27.7242613140312 3.429 7.874
endloop
endfacet
facet normal 0.965925826289068 -0.258819045102521 -6.02931761581603e-16
outer loop
vertex 28.3586289969356 4.96049906359899 7.874
vertex 27.7242613140312 3.429 2.032
vertex 28.3586289969356 4.960499063599 2.032
endloop
endfacet
facet normal 0.499999999999999 0.866025403784439 2.56728546802219e-16
outer loop
vertex 25.4 12.1032613140312 7.874
vertex 26.7151280605346 11.0941280605346 2.032
vertex 25.4 12.1032613140312 2.032
endloop
endfacet
facet normal 0.707106781186547 0.707106781186548 8.17678539124377e-16
outer loop
vertex 26.7151280605346 11.0941280605346 2.032
vertex 25.4 12.1032613140312 7.874
vertex 26.7151280605346 11.0941280605346 7.874
endloop
endfacet
facet normal -0.5 -0.866025403784439 5.68742253444799e-18
outer loop
vertex 19.05 1.10473868596881 7.874
vertex 17.7348719394654 2.11387193946542 2.032
vertex 19.05 1.10473868596881 2.032
endloop
endfacet
facet normal -0.707106781186548 -0.707106781186547 -2.14487169819602e-16
outer loop
vertex 17.7348719394654 2.11387193946542 2.032
vertex 19.05 1.10473868596881 7.874
vertex 17.7348719394654 2.11387193946542 7.874
endloop
endfacet
facet normal -0.707106781186547 0.707106781186548 3.04266825209826e-16
outer loop
vertex 17.7348719394654 11.0941280605346 7.874
vertex 16.7257386859688 9.779 2.032
vertex 16.7257386859688 9.779 7.874
endloop
endfacet
facet normal -0.866025403784439 0.5 3.42279211579597e-16
outer loop
vertex 16.7257386859688 9.779 2.032
vertex 17.7348719394654 11.0941280605346 7.874
vertex 17.7348719394654 11.0941280605346 2.032
endloop
endfacet
facet normal -1.0 -1.17626650622539e-15 -3.77931869333716e-16
outer loop
vertex 15.875 6.604 7.874
vertex 16.0913710030644 4.960499063599 2.032
vertex 16.0913710030644 4.96049906359899 7.874
endloop
endfacet
facet normal -0.965925826289068 -0.258819045102521 -6.15104081904058e-16
outer loop
vertex 16.0913710030644 4.960499063599 2.032
vertex 15.875 6.604 7.874
vertex 15.875 6.604 2.032
endloop
endfacet
facet normal -0.25881904510252 -0.965925826289068 4.32013061357847e-17
outer loop
vertex 20.581499063599 0.470371003064416 7.874
vertex 19.05 1.10473868596881 2.032
vertex 20.581499063599 0.470371003064416 2.032
endloop
endfacet
facet normal -0.5 -0.866025403784439 5.68742253444799e-18
outer loop
vertex 19.05 1.10473868596881 2.032
vertex 20.581499063599 0.470371003064416 7.874
vertex 19.05 1.10473868596881 7.874
endloop
endfacet
facet normal 0.965925826289068 -0.258819045102521 -5.20496239913555e-16
outer loop
vertex 19.7715484012258 7.2614003745604 2.032
vertex 20.0252954743875 7.874 7.874
vertex 19.7715484012258 7.2614003745604 7.874
endloop
endfacet
facet normal 0.866025403784439 -0.5 -3.66586288012393e-16
outer loop
vertex 20.0252954743875 7.874 7.874
vertex 19.7715484012258 7.2614003745604 2.032
vertex 20.0252954743875 7.874 2.032
endloop
endfacet
facet normal 0.5 -0.866025403784439 -1.08949036127528e-16
outer loop
vertex 20.955 8.80370452561247 7.874
vertex 20.4289487757862 8.40005122421383 2.032
vertex 20.955 8.80370452561248 2.032
endloop
endfacet
facet normal 0.707106781186548 -0.707106781186547 -1.19275868877239e-16
outer loop
vertex 20.4289487757862 8.40005122421383 2.032
vertex 20.955 8.80370452561247 7.874
vertex 20.4289487757862 8.40005122421383 7.874
endloop
endfacet
facet normal 0.866025403784439 -0.5 -3.66586288012393e-16
outer loop
vertex 20.0252954743875 7.874 2.032
vertex 20.4289487757862 8.40005122421383 7.874
vertex 20.0252954743875 7.874 7.874
endloop
endfacet
facet normal 0.707106781186548 -0.707106781186547 -1.19275868877239e-16
outer loop
vertex 20.4289487757862 8.40005122421383 7.874
vertex 20.0252954743875 7.874 2.032
vertex 20.4289487757862 8.40005122421383 2.032
endloop
endfacet
facet normal 0.25881904510252 -0.965925826289069 -1.13542222289811e-16
outer loop
vertex 21.5675996254396 9.05745159877423 7.874
vertex 20.955 8.80370452561248 2.032
vertex 21.5675996254396 9.05745159877423 2.032
endloop
endfacet
facet normal 0.5 -0.866025403784439 -1.08949036127528e-16
outer loop
vertex 20.955 8.80370452561248 2.032
vertex 21.5675996254396 9.05745159877423 7.874
vertex 20.955 8.80370452561247 7.874
endloop
endfacet
facet normal -1.24755538539057e-16 -1.0 -7.61247189540797e-17
outer loop
vertex 22.225 9.144 7.874
vertex 21.5675996254396 9.05745159877423 2.032
vertex 22.225 9.144 2.032
endloop
endfacet
facet normal 0.258819045102519 -0.965925826289069 -1.13542222289811e-16
outer loop
vertex 21.5675996254396 9.05745159877423 2.032
vertex 22.225 9.144 7.874
vertex 21.5675996254396 9.05745159877423 7.874
endloop
endfacet
facet normal 0.707106781186547 0.707106781186548 2.46005008202843e-17
outer loop
vertex 20.4289487757862 4.80794877578617 7.874
vertex 20.955 4.40429547438753 2.032
vertex 20.4289487757862 4.80794877578617 2.032
endloop
endfacet
facet normal 0.5 0.866025403784439 5.30845507586128e-17
outer loop
vertex 20.955 4.40429547438753 2.032
vertex 20.4289487757862 4.80794877578617 7.874
vertex 20.955 4.40429547438753 7.874
endloop
endfacet
facet normal 0.965925826289068 -0.258819045102521 -5.20496239913555e-16
outer loop
vertex 19.7715484012258 7.2614003745604 2.032
vertex 19.685 6.604 7.874
vertex 19.685 6.604 2.032
endloop
endfacet
facet normal 1.0 8.82199879669044e-16 -3.74383228563061e-16
outer loop
vertex 19.685 6.604 7.874
vertex 19.7715484012258 7.2614003745604 2.032
vertex 19.7715484012258 7.2614003745604 7.874
endloop
endfacet
facet normal 1.0 8.82199879669044e-16 -3.74383228563061e-16
outer loop
vertex 19.685 6.604 2.032
vertex 19.7715484012258 5.9465996254396 7.874
vertex 19.7715484012258 5.9465996254396 2.032
endloop
endfacet
facet normal 0.965925826289068 0.258819045102522 -1.37791022871735e-16
outer loop
vertex 19.7715484012258 5.9465996254396 7.874
vertex 19.685 6.604 2.032
vertex 19.685 6.604 7.874
endloop
endfacet
facet normal 0.965925826289068 0.258819045102522 -1.37791022871735e-16
outer loop
vertex 19.7715484012258 5.9465996254396 2.032
vertex 20.0252954743875 5.334 7.874
vertex 20.0252954743875 5.334 2.032
endloop
endfacet
facet normal 0.866025403784438 0.500000000000001 -1.28212742231419e-17
outer loop
vertex 20.0252954743875 5.334 7.874
vertex 19.7715484012258 5.9465996254396 2.032
vertex 19.7715484012258 5.9465996254396 7.874
endloop
endfacet
facet normal -0.500000000000002 -0.866025403784437 -8.10883975744719e-18
outer loop
vertex 23.495 8.80370452561247 7.874
vertex 22.8824003745604 9.05745159877423 2.032
vertex 23.495 8.80370452561247 2.032
endloop
endfacet
facet normal -0.258819045102521 -0.965925826289068 -1.78115496032661e-16
outer loop
vertex 22.8824003745604 9.05745159877423 2.032
vertex 23.495 8.80370452561247 7.874
vertex 22.8824003745604 9.05745159877423 7.874
endloop
endfacet
facet normal -0.258819045102521 -0.965925826289068 -1.78115496032661e-16
outer loop
vertex 22.8824003745604 9.05745159877423 7.874
vertex 22.225 9.144 2.032
vertex 22.8824003745604 9.05745159877423 2.032
endloop
endfacet
facet normal -1.24755538539057e-16 -1.0 -7.61247189540797e-17
outer loop
vertex 22.225 9.144 2.032
vertex 22.8824003745604 9.05745159877423 7.874
vertex 22.225 9.144 7.874
endloop
endfacet
facet normal -0.707106781186548 -0.707106781186547 5.09295343919823e-16
outer loop
vertex 24.0210512242138 8.40005122421383 2.032
vertex 23.495 8.80370452561247 7.874
vertex 23.495 8.80370452561247 2.032
endloop
endfacet
facet normal -0.500000000000002 -0.866025403784437 -8.10883975744719e-18
outer loop
vertex 23.495 8.80370452561247 7.874
vertex 24.0210512242138 8.40005122421383 2.032
vertex 24.0210512242138 8.40005122421383 7.874
endloop
endfacet
facet normal -0.965925826289068 -0.258819045102523 2.55281009148392e-16
outer loop
vertex 24.6784515987742 7.2614003745604 7.874
vertex 24.4247045256125 7.874 2.032
vertex 24.6784515987742 7.2614003745604 2.032
endloop
endfacet
facet normal -0.866025403784437 -0.500000000000002 6.34234110428006e-16
outer loop
vertex 24.4247045256125 7.874 2.032
vertex 24.6784515987742 7.2614003745604 7.874
vertex 24.4247045256125 7.874 7.874
endloop
endfacet
facet normal -0.707106781186548 -0.707106781186547 5.09295343919823e-16
outer loop
vertex 24.0210512242138 8.40005122421383 7.874
vertex 24.4247045256125 7.874 2.032
vertex 24.4247045256125 7.874 7.874
endloop
endfacet
facet normal -0.866025403784437 -0.500000000000002 6.34234110428006e-16
outer loop
vertex 24.4247045256125 7.874 2.032
vertex 24.0210512242138 8.40005122421383 7.874
vertex 24.0210512242138 8.40005122421383 2.032
endloop
endfacet
facet normal -1.0 8.01999890608221e-17 8.09477829285808e-18
outer loop
vertex 24.765 6.604 7.874
vertex 24.6784515987742 5.9465996254396 2.032
vertex 24.6784515987742 5.9465996254396 7.874
endloop
endfacet
facet normal -0.965925826289068 0.258819045102522 7.13619073738936e-17
outer loop
vertex 24.6784515987742 5.9465996254396 2.032
vertex 24.765 6.604 7.874
vertex 24.765 6.604 2.032
endloop
endfacet
facet normal -0.965925826289068 -0.258819045102523 2.55281009148392e-16
outer loop
vertex 24.6784515987742 7.2614003745604 7.874
vertex 24.765 6.604 2.032
vertex 24.765 6.604 7.874
endloop
endfacet
facet normal -1.0 8.01999890608221e-17 8.09477829285808e-18
outer loop
vertex 24.765 6.604 2.032
vertex 24.6784515987742 7.2614003745604 7.874
vertex 24.6784515987742 7.2614003745604 2.032
endloop
endfacet
facet normal 0.5 0.866025403784439 5.30845507586128e-17
outer loop
vertex 20.955 4.40429547438753 7.874
vertex 21.5675996254396 4.15054840122577 2.032
vertex 20.955 4.40429547438753 2.032
endloop
endfacet
facet normal 0.258819045102521 0.965925826289068 -1.74653993721246e-18
outer loop
vertex 21.5675996254396 4.15054840122577 2.032
vertex 20.955 4.40429547438753 7.874
vertex 21.5675996254396 4.15054840122577 7.874
endloop
endfacet
facet normal 0.258819045102521 0.965925826289068 -1.74653993721246e-18
outer loop
vertex 21.5675996254396 4.15054840122577 7.874
vertex 22.225 4.064 2.032
vertex 21.5675996254396 4.15054840122577 2.032
endloop
endfacet
facet normal 2.67333296869407e-16 1.0 -9.04355781869998e-17
outer loop
vertex 22.225 4.064 2.032
vertex 21.5675996254396 4.15054840122577 7.874
vertex 22.225 4.064 7.874
endloop
endfacet
facet normal 2.67333296869407e-16 1.0 -9.04355781869998e-17
outer loop
vertex 22.225 4.064 7.874
vertex 22.8824003745604 4.15054840122577 2.032
vertex 22.225 4.064 2.032
endloop
endfacet
facet normal -0.258819045102521 0.965925826289068 -1.06879276904625e-16
outer loop
vertex 22.8824003745604 4.15054840122577 2.032
vertex 22.225 4.064 7.874
vertex 22.8824003745604 4.15054840122577 7.874
endloop
endfacet
facet normal -0.258819045102521 0.965925826289068 -1.06879276904625e-16
outer loop
vertex 22.8824003745604 4.15054840122577 7.874
vertex 23.495 4.40429547438753 2.032
vertex 22.8824003745604 4.15054840122577 2.032
endloop
endfacet
facet normal -0.500000000000003 0.866025403784437 1.22249150372785e-16
outer loop
vertex 23.495 4.40429547438753 2.032
vertex 22.8824003745604 4.15054840122577 7.874
vertex 23.495 4.40429547438753 7.874
endloop
endfacet
facet normal -0.500000000000003 0.866025403784437 1.22249150372785e-16
outer loop
vertex 23.495 4.40429547438753 7.874
vertex 24.0210512242138 4.80794877578617 2.032
vertex 23.495 4.40429547438753 2.032
endloop
endfacet
facet normal -0.707106781186549 0.707106781186546 4.87171179706248e-16
outer loop
vertex 24.0210512242138 4.80794877578617 2.032
vertex 23.495 4.40429547438753 7.874
vertex 24.0210512242138 4.80794877578617 7.874
endloop
endfacet
facet normal -0.866025403784438 0.500000000000002 3.89609648114191e-16
outer loop
vertex 24.4247045256125 5.334 7.874
vertex 24.0210512242138 4.80794877578617 2.032
vertex 24.0210512242138 4.80794877578617 7.874
endloop
endfacet
facet normal -0.707106781186549 0.707106781186546 4.87171179706248e-16
outer loop
vertex 24.0210512242138 4.80794877578617 2.032
vertex 24.4247045256125 5.334 7.874
vertex 24.4247045256125 5.334 2.032
endloop
endfacet
facet normal -0.965925826289068 0.258819045102522 7.13619073738936e-17
outer loop
vertex 24.6784515987742 5.9465996254396 7.874
vertex 24.4247045256125 5.334 2.032
vertex 24.4247045256125 5.334 7.874
endloop
endfacet
facet normal -0.866025403784438 0.500000000000001 3.8960964811419e-16
outer loop
vertex 24.4247045256125 5.334 2.032
vertex 24.6784515987742 5.9465996254396 7.874
vertex 24.6784515987742 5.9465996254396 2.032
endloop
endfacet
facet normal -0.258819045102521 0.965925826289068 -1.95738749901111e-16
outer loop
vertex 20.581499063599 12.7376289969356 7.874
vertex 22.225 12.954 2.032
vertex 20.581499063599 12.7376289969356 2.032
endloop
endfacet
facet normal -4.09911055199758e-16 1.0 -4.64646002262744e-17
outer loop
vertex 22.225 12.954 2.032
vertex 20.581499063599 12.7376289969356 7.874
vertex 22.225 12.954 7.874
endloop
endfacet
facet normal 1.0 5.70311033321402e-16 -2.49399845410995e-16
outer loop
vertex 28.575 6.604 2.032
vertex 28.3586289969356 8.24750093640101 7.874
vertex 28.575 6.604 7.874
endloop
endfacet
facet normal 0.965925826289069 0.25881904510252 3.89922039480534e-16
outer loop
vertex 28.3586289969356 8.24750093640101 7.874
vertex 28.575 6.604 2.032
vertex 28.3586289969356 8.24750093640101 2.032
endloop
endfacet
facet normal 0.965925826289068 0.258819045102521 3.89922039480534e-16
outer loop
vertex 28.3586289969356 8.24750093640101 2.032
vertex 27.7242613140312 9.779 7.874
vertex 28.3586289969356 8.24750093640101 7.874
endloop
endfacet
facet normal 0.866025403784439 0.499999999999999 9.36957750513396e-16
outer loop
vertex 27.7242613140312 9.779 7.874
vertex 28.3586289969356 8.24750093640101 2.032
vertex 27.7242613140312 9.77900000000001 2.032
endloop
endfacet
facet normal 0.965925826289068 -0.258819045102521 -6.02931761581603e-16
outer loop
vertex 28.3586289969356 4.960499063599 2.032
vertex 28.575 6.604 7.874
vertex 28.3586289969356 4.96049906359899 7.874
endloop
endfacet
facet normal 1.0 5.25755483843167e-16 -2.49399845410995e-16
outer loop
vertex 28.575 6.604 7.874
vertex 28.3586289969356 4.960499063599 2.032
vertex 28.575 6.604 2.032
endloop
endfacet
facet normal 0.866025403784439 0.499999999999999 9.36957750513396e-16
outer loop
vertex 27.7242613140312 9.77900000000001 2.032
vertex 26.7151280605346 11.0941280605346 7.874
vertex 27.7242613140312 9.779 7.874
endloop
endfacet
facet normal 0.707106781186547 0.707106781186549 8.17678539124377e-16
outer loop
vertex 26.7151280605346 11.0941280605346 7.874
vertex 27.7242613140312 9.77900000000001 2.032
vertex 26.7151280605346 11.0941280605346 2.032
endloop
endfacet
facet normal 0.499999999999999 -0.866025403784439 -2.38613461417444e-16
outer loop
vertex 25.4 1.10473868596882 7.874
vertex 23.868500936401 0.470371003064424 2.032
vertex 25.4 1.10473868596882 2.032
endloop
endfacet
facet normal 0.258819045102521 -0.965925826289068 -4.97063545974221e-16
outer loop
vertex 23.868500936401 0.470371003064424 2.032
vertex 25.4 1.10473868596882 7.874
vertex 23.868500936401 0.470371003064417 7.874
endloop
endfacet
facet normal 0.707106781186548 -0.707106781186547 6.68191879579582e-17
outer loop
vertex 26.7151280605346 2.11387193946542 7.874
vertex 25.4 1.10473868596882 2.032
vertex 26.7151280605346 2.11387193946543 2.032
endloop
endfacet
facet normal 0.499999999999999 -0.866025403784439 -2.38613461417444e-16
outer loop
vertex 25.4 1.10473868596882 2.032
vertex 26.7151280605346 2.11387193946542 7.874
vertex 25.4 1.10473868596882 7.874
endloop
endfacet
facet normal -0.965925826289068 -0.258819045102521 -6.15104081904058e-16
outer loop
vertex 16.0913710030644 4.96049906359899 7.874
vertex 16.7257386859688 3.429 2.032
vertex 16.7257386859688 3.429 7.874
endloop
endfacet
facet normal -0.866025403784439 -0.5 -5.33971369760318e-16
outer loop
vertex 16.7257386859688 3.429 2.032
vertex 16.0913710030644 4.96049906359899 7.874
vertex 16.0913710030644 4.960499063599 2.032
endloop
endfacet
facet normal 0.0 0.0 -1.0
outer loop
vertex 16.0913710030644 8.247500936401 1.778
vertex 16.0913710030644 4.96049906359899 1.778
vertex 15.875 6.604 1.778
endloop
endfacet
facet normal 0.0 0.0 -1.0
outer loop
vertex 16.0913710030644 4.96049906359899 1.778
vertex 16.0913710030644 8.247500936401 1.778
vertex 16.7257386859688 9.779 1.778
endloop
endfacet
facet normal 0.0 0.0 -1.0
outer loop
vertex 16.0913710030644 4.96049906359899 1.778
vertex 16.7257386859688 9.779 1.778
vertex 16.7257386859688 3.429 1.778
endloop
endfacet
facet normal 0.0 0.0 -1.0
outer loop
vertex 16.7257386859688 3.429 1.778
vertex 16.7257386859688 9.779 1.778
vertex 17.7348719394654 11.0941280605346 1.778
endloop
endfacet
facet normal 0.0 0.0 -1.0
outer loop
vertex 16.7257386859688 3.429 1.778
vertex 17.7348719394654 11.0941280605346 1.778
vertex 17.7348719394654 2.11387193946542 1.778
endloop
endfacet
facet normal 0.0 0.0 -1.0
outer loop
vertex 17.7348719394654 2.11387193946542 1.778
vertex 17.7348719394654 11.0941280605346 1.778
vertex 19.05 12.1032613140312 1.778
endloop
endfacet
facet normal 0.0 0.0 -1.0
outer loop
vertex 17.7348719394654 2.11387193946542 1.778
vertex 19.05 12.1032613140312 1.778
vertex 19.05 1.10473868596881 1.778
endloop
endfacet
facet normal 0.0 0.0 -1.0
outer loop
vertex 19.05 1.10473868596881 1.778
vertex 19.05 12.1032613140312 1.778
vertex 19.685 6.604 1.778
endloop
endfacet
facet normal 0.0 0.0 -1.0
outer loop
vertex 19.685 6.604 1.778
vertex 19.05 12.1032613140312 1.778
vertex 19.7715484012258 7.2614003745604 1.778
endloop
endfacet
facet normal 0.0 0.0 -1.0
outer loop
vertex 19.7715484012258 7.2614003745604 1.778
vertex 19.05 12.1032613140312 1.778
vertex 20.581499063599 12.7376289969356 1.778
endloop
endfacet
facet normal 0.0 0.0 -1.0
outer loop
vertex 19.7715484012258 7.2614003745604 1.778
vertex 20.581499063599 12.7376289969356 1.778
vertex 20.0252954743875 7.874 1.778
endloop
endfacet
facet normal 0.0 0.0 -1.0
outer loop
vertex 20.0252954743875 7.874 1.778
vertex 20.581499063599 12.7376289969356 1.778
vertex 20.4289487757862 8.40005122421383 1.778
endloop
endfacet
facet normal 0.0 0.0 -1.0
outer loop
vertex 20.4289487757862 8.40005122421383 1.778
vertex 20.581499063599 12.7376289969356 1.778
vertex 20.955 8.80370452561247 1.778
endloop
endfacet
facet normal 0.0 0.0 -1.0
outer loop
vertex 20.955 8.80370452561247 1.778
vertex 20.581499063599 12.7376289969356 1.778
vertex 22.225 12.954 1.778
endloop
endfacet
facet normal 0.0 0.0 -1.0
outer loop
vertex 20.955 8.80370452561247 1.778
vertex 22.225 12.954 1.778
vertex 21.5675996254396 9.05745159877423 1.778
endloop
endfacet
facet normal 0.0 0.0 -1.0
outer loop
vertex 21.5675996254396 9.05745159877423 1.778
vertex 22.225 12.954 1.778
vertex 22.225 9.144 1.778
endloop
endfacet
facet normal 0.0 0.0 -1.0
outer loop
vertex 22.225 9.144 1.778
vertex 22.225 12.954 1.778
vertex 23.868500936401 12.7376289969356 1.778
endloop
endfacet
facet normal 0.0 0.0 -1.0
outer loop
vertex 22.225 9.144 1.778
vertex 23.868500936401 12.7376289969356 1.778
vertex 22.8824003745604 9.05745159877423 1.778
endloop
endfacet
facet normal 0.0 0.0 -1.0
outer loop
vertex 22.8824003745604 9.05745159877423 1.778
vertex 23.868500936401 12.7376289969356 1.778
vertex 23.495 8.80370452561247 1.778
endloop
endfacet
facet normal 0.0 0.0 -1.0
outer loop
vertex 23.495 8.80370452561247 1.778
vertex 23.868500936401 12.7376289969356 1.778
vertex 24.0210512242138 8.40005122421383 1.778
endloop
endfacet
facet normal 0.0 0.0 -1.0
outer loop
vertex 24.0210512242138 8.40005122421383 1.778
vertex 23.868500936401 12.7376289969356 1.778
vertex 25.4 12.1032613140312 1.778
endloop
endfacet
facet normal 0.0 0.0 -1.0
outer loop
vertex 24.0210512242138 8.40005122421383 1.778
vertex 25.4 12.1032613140312 1.778
vertex 24.4247045256125 7.874 1.778
endloop
endfacet
facet normal 0.0 0.0 -1.0
outer loop
vertex 24.4247045256125 7.874 1.778
vertex 25.4 12.1032613140312 1.778
vertex 24.6784515987742 7.2614003745604 1.778
endloop
endfacet
facet normal 0.0 0.0 -1.0
outer loop
vertex 24.6784515987742 7.2614003745604 1.778
vertex 25.4 12.1032613140312 1.778
vertex 24.765 6.604 1.778
endloop
endfacet
facet normal 0.0 0.0 -1.0
outer loop
vertex 19.05 1.10473868596881 1.778
vertex 19.7715484012258 5.9465996254396 1.778
vertex 20.581499063599 0.470371003064416 1.778
endloop
endfacet
facet normal 0.0 0.0 -1.0
outer loop
vertex 19.7715484012258 5.9465996254396 1.778
vertex 19.05 1.10473868596881 1.778
vertex 19.685 6.604 1.778
endloop
endfacet
facet normal 0.0 0.0 -1.0
outer loop
vertex 20.581499063599 0.470371003064416 1.778
vertex 19.7715484012258 5.9465996254396 1.778
vertex 20.0252954743875 5.334 1.778
endloop
endfacet
facet normal 0.0 0.0 -1.0
outer loop
vertex 20.581499063599 0.470371003064416 1.778
vertex 20.0252954743875 5.334 1.778
vertex 20.4289487757862 4.80794877578617 1.778
endloop
endfacet
facet normal 0.0 0.0 -1.0
outer loop
vertex 20.581499063599 0.470371003064416 1.778
vertex 20.4289487757862 4.80794877578617 1.778
vertex 20.955 4.40429547438753 1.778
endloop
endfacet
facet normal 0.0 0.0 -1.0
outer loop
vertex 20.581499063599 0.470371003064416 1.778
vertex 20.955 4.40429547438753 1.778
vertex 22.225 0.254 1.778
endloop
endfacet
facet normal 0.0 0.0 -1.0
outer loop
vertex 22.225 0.254 1.778
vertex 20.955 4.40429547438753 1.778
vertex 21.5675996254396 4.15054840122577 1.778
endloop
endfacet
facet normal 0.0 0.0 -1.0
outer loop
vertex 22.225 0.254 1.778
vertex 21.5675996254396 4.15054840122577 1.778
vertex 22.225 4.064 1.778
endloop
endfacet
facet normal 0.0 0.0 -1.0
outer loop
vertex 22.225 0.254 1.778
vertex 22.225 4.064 1.778
vertex 22.8824003745604 4.15054840122577 1.778
endloop
endfacet
facet normal 0.0 0.0 -1.0
outer loop
vertex 22.225 0.254 1.778
vertex 22.8824003745604 4.15054840122577 1.778
vertex 23.868500936401 0.470371003064417 1.778
endloop
endfacet
facet normal 0.0 0.0 -1.0
outer loop
vertex 23.868500936401 0.470371003064417 1.778
vertex 22.8824003745604 4.15054840122577 1.778
vertex 23.495 4.40429547438753 1.778
endloop
endfacet
facet normal 0.0 0.0 -1.0
outer loop
vertex 23.868500936401 0.470371003064417 1.778
vertex 23.495 4.40429547438753 1.778
vertex 24.0210512242138 4.80794877578617 1.778
endloop
endfacet
facet normal 0.0 0.0 -1.0
outer loop
vertex 23.868500936401 0.470371003064417 1.778
vertex 24.0210512242138 4.80794877578617 1.778
vertex 25.4 1.10473868596882 1.778
endloop
endfacet
facet normal 0.0 0.0 -1.0
outer loop
vertex 25.4 1.10473868596882 1.778
vertex 24.0210512242138 4.80794877578617 1.778
vertex 24.4247045256125 5.334 1.778
endloop
endfacet
facet normal 0.0 0.0 -1.0
outer loop
vertex 25.4 1.10473868596882 1.778
vertex 24.4247045256125 5.334 1.778
vertex 24.6784515987742 5.9465996254396 1.778
endloop
endfacet
facet normal 0.0 0.0 -1.0
outer loop
vertex 25.4 1.10473868596882 1.778
vertex 24.6784515987742 5.9465996254396 1.778
vertex 24.765 6.604 1.778
endloop
endfacet
facet normal 0.0 0.0 -1.0
outer loop
vertex 25.4 1.10473868596882 1.778
vertex 24.765 6.604 1.778
vertex 25.4 12.1032613140312 1.778
endloop
endfacet
facet normal 0.0 0.0 -1.0
outer loop
vertex 25.4 1.10473868596882 1.778
vertex 25.4 12.1032613140312 1.778
vertex 26.7151280605346 11.0941280605346 1.778
endloop
endfacet
facet normal 0.0 0.0 -1.0
outer loop
vertex 25.4 1.10473868596882 1.778
vertex 26.7151280605346 11.0941280605346 1.778
vertex 26.7151280605346 2.11387193946542 1.778
endloop
endfacet
facet normal 0.0 0.0 -1.0
outer loop
vertex 26.7151280605346 2.11387193946542 1.778
vertex 26.7151280605346 11.0941280605346 1.778
vertex 27.7242613140312 9.779 1.778
endloop
endfacet
facet normal 0.0 0.0 -1.0
outer loop
vertex 26.7151280605346 2.11387193946542 1.778
vertex 27.7242613140312 9.779 1.778
vertex 27.7242613140312 3.429 1.778
endloop
endfacet
facet normal 0.0 0.0 -1.0
outer loop
vertex 27.7242613140312 3.429 1.778
vertex 27.7242613140312 9.779 1.778
vertex 28.3586289969356 8.24750093640101 1.778
endloop
endfacet
facet normal 0.0 0.0 -1.0
outer loop
vertex 27.7242613140312 3.429 1.778
vertex 28.3586289969356 8.24750093640101 1.778
vertex 28.3586289969356 4.96049906359899 1.778
endloop
endfacet
facet normal 0.0 0.0 -1.0
outer loop
vertex 28.3586289969356 4.96049906359899 1.778
vertex 28.3586289969356 8.24750093640101 1.778
vertex 28.575 6.604 1.778
endloop
endfacet
facet normal 0.866025403784438 0.500000000000001 -1.28212742231419e-17
outer loop
vertex 20.0252954743875 5.334 2.032
vertex 20.4289487757862 4.80794877578617 7.874
vertex 20.4289487757862 4.80794877578617 2.032
endloop
endfacet
facet normal 0.707106781186547 0.707106781186548 2.46005008202843e-17
outer loop
vertex 20.4289487757862 4.80794877578617 7.874
vertex 20.0252954743875 5.334 2.032
vertex 20.0252954743875 5.334 7.874
endloop
endfacet
facet normal 0.25881904510252 0.965925826289068 1.03700535892781e-17
outer loop
vertex 23.868500936401 12.7376289969356 7.874
vertex 25.4 12.1032613140312 2.032
vertex 23.868500936401 12.7376289969356 2.032
endloop
endfacet
facet normal 0.499999999999999 0.866025403784439 2.56728546802219e-16
outer loop
vertex 25.4 12.1032613140312 2.032
vertex 23.868500936401 12.7376289969356 7.874
vertex 25.4 12.1032613140312 7.874
endloop
endfacet
facet normal -0.5 0.866025403784439 -5.03324945075089e-17
outer loop
vertex 19.05 12.1032613140312 7.874
vertex 20.581499063599 12.7376289969356 2.032
vertex 19.05 12.1032613140312 2.032
endloop
endfacet
facet normal -0.258819045102521 0.965925826289068 -1.95738749901111e-16
outer loop
vertex 20.581499063599 12.7376289969356 2.032
vertex 19.05 12.1032613140312 7.874
vertex 20.581499063599 12.7376289969356 7.874
endloop
endfacet
facet normal 0.0 0.0 1.0
outer loop
vertex 19.05 1.10473868596881 7.874
vertex 19.7715484012258 5.9465996254396 7.874
vertex 19.685 6.604 7.874
endloop
endfacet
facet normal 0.0 0.0 1.0
outer loop
vertex 19.7715484012258 5.9465996254396 7.874
vertex 19.05 1.10473868596881 7.874
vertex 20.581499063599 0.470371003064416 7.874
endloop
endfacet
facet normal 0.0 0.0 1.0
outer loop
vertex 19.7715484012258 5.9465996254396 7.874
vertex 20.581499063599 0.470371003064416 7.874
vertex 20.0252954743875 5.334 7.874
endloop
endfacet
facet normal 0.0 0.0 1.0
outer loop
vertex 20.0252954743875 5.334 7.874
vertex 20.581499063599 0.470371003064416 7.874
vertex 20.4289487757862 4.80794877578617 7.874
endloop
endfacet
facet normal 0.0 0.0 1.0
outer loop
vertex 20.4289487757862 4.80794877578617 7.874
vertex 20.581499063599 0.470371003064416 7.874
vertex 20.955 4.40429547438753 7.874
endloop
endfacet
facet normal 0.0 0.0 1.0
outer loop
vertex 20.955 4.40429547438753 7.874
vertex 20.581499063599 0.470371003064416 7.874
vertex 22.225 0.254 7.874
endloop
endfacet
facet normal 0.0 0.0 1.0
outer loop
vertex 20.955 4.40429547438753 7.874
vertex 22.225 0.254 7.874
vertex 21.5675996254396 4.15054840122577 7.874
endloop
endfacet
facet normal 0.0 0.0 1.0
outer loop
vertex 21.5675996254396 4.15054840122577 7.874
vertex 22.225 0.254 7.874
vertex 22.225 4.064 7.874
endloop
endfacet
facet normal 0.0 0.0 1.0
outer loop
vertex 22.225 4.064 7.874
vertex 22.225 0.254 7.874
vertex 23.868500936401 0.470371003064417 7.874
endloop
endfacet
facet normal 0.0 0.0 1.0
outer loop
vertex 22.225 4.064 7.874
vertex 23.868500936401 0.470371003064417 7.874
vertex 22.8824003745604 4.15054840122577 7.874
endloop
endfacet
facet normal 0.0 0.0 1.0
outer loop
vertex 22.8824003745604 4.15054840122577 7.874
vertex 23.868500936401 0.470371003064417 7.874
vertex 23.495 4.40429547438753 7.874
endloop
endfacet
facet normal 0.0 0.0 1.0
outer loop
vertex 23.495 4.40429547438753 7.874
vertex 23.868500936401 0.470371003064417 7.874
vertex 24.0210512242138 4.80794877578617 7.874
endloop
endfacet
facet normal 0.0 0.0 1.0
outer loop
vertex 24.0210512242138 4.80794877578617 7.874
vertex 23.868500936401 0.470371003064417 7.874
vertex 25.4 1.10473868596882 7.874
endloop
endfacet
facet normal 0.0 0.0 1.0
outer loop
vertex 24.0210512242138 4.80794877578617 7.874
vertex 25.4 1.10473868596882 7.874
vertex 24.4247045256125 5.334 7.874
endloop
endfacet
facet normal 0.0 0.0 1.0
outer loop
vertex 24.4247045256125 5.334 7.874
vertex 25.4 1.10473868596882 7.874
vertex 24.6784515987742 5.9465996254396 7.874
endloop
endfacet
facet normal 0.0 0.0 1.0
outer loop
vertex 24.6784515987742 5.9465996254396 7.874
vertex 25.4 1.10473868596882 7.874
vertex 24.765 6.604 7.874
endloop
endfacet
facet normal 0.0 0.0 1.0
outer loop
vertex 24.765 6.604 7.874
vertex 25.4 1.10473868596882 7.874
vertex 25.4 12.1032613140312 7.874
endloop
endfacet
facet normal 0.0 0.0 1.0
outer loop
vertex 25.4 12.1032613140312 7.874
vertex 25.4 1.10473868596882 7.874
vertex 26.7151280605346 11.0941280605346 7.874
endloop
endfacet
facet normal 0.0 0.0 1.0
outer loop
vertex 26.7151280605346 11.0941280605346 7.874
vertex 25.4 1.10473868596882 7.874
vertex 26.7151280605346 2.11387193946542 7.874
endloop
endfacet
facet normal 0.0 0.0 1.0
outer loop
vertex 26.7151280605346 11.0941280605346 7.874
vertex 26.7151280605346 2.11387193946542 7.874
vertex 27.7242613140312 3.429 7.874
endloop
endfacet
facet normal 0.0 0.0 1.0
outer loop
vertex 26.7151280605346 11.0941280605346 7.874
vertex 27.7242613140312 3.429 7.874
vertex 27.7242613140312 9.779 7.874
endloop
endfacet
facet normal 0.0 0.0 1.0
outer loop
vertex 27.7242613140312 9.779 7.874
vertex 27.7242613140312 3.429 7.874
vertex 28.3586289969356 4.96049906359899 7.874
endloop
endfacet
facet normal 0.0 0.0 1.0
outer loop
vertex 27.7242613140312 9.779 7.874
vertex 28.3586289969356 4.96049906359899 7.874
vertex 28.3586289969356 8.24750093640101 7.874
endloop
endfacet
facet normal 0.0 0.0 1.0
outer loop
vertex 28.3586289969356 8.24750093640101 7.874
vertex 28.3586289969356 4.96049906359899 7.874
vertex 28.575 6.604 7.874
endloop
endfacet
facet normal 0.0 0.0 1.0
outer loop
vertex 16.0913710030644 4.96049906359899 7.874
vertex 16.0913710030644 8.247500936401 7.874
vertex 15.875 6.604 7.874
endloop
endfacet
facet normal 0.0 0.0 1.0
outer loop
vertex 16.0913710030644 8.247500936401 7.874
vertex 16.0913710030644 4.96049906359899 7.874
vertex 16.7257386859688 9.779 7.874
endloop
endfacet
facet normal 0.0 0.0 1.0
outer loop
vertex 16.7257386859688 9.779 7.874
vertex 16.0913710030644 4.96049906359899 7.874
vertex 16.7257386859688 3.429 7.874
endloop
endfacet
facet normal 0.0 0.0 1.0
outer loop
vertex 16.7257386859688 9.779 7.874
vertex 16.7257386859688 3.429 7.874
vertex 17.7348719394654 11.0941280605346 7.874
endloop
endfacet
facet normal 0.0 0.0 1.0
outer loop
vertex 17.7348719394654 11.0941280605346 7.874
vertex 16.7257386859688 3.429 7.874
vertex 17.7348719394654 2.11387193946542 7.874
endloop
endfacet
facet normal 0.0 0.0 1.0
outer loop
vertex 17.7348719394654 11.0941280605346 7.874
vertex 17.7348719394654 2.11387193946542 7.874
vertex 19.05 12.1032613140312 7.874
endloop
endfacet
facet normal 0.0 0.0 1.0
outer loop
vertex 19.05 12.1032613140312 7.874
vertex 17.7348719394654 2.11387193946542 7.874
vertex 19.05 1.10473868596881 7.874
endloop
endfacet
facet normal 0.0 0.0 1.0
outer loop
vertex 19.05 12.1032613140312 7.874
vertex 19.05 1.10473868596881 7.874
vertex 19.685 6.604 7.874
endloop
endfacet
facet normal 0.0 0.0 1.0
outer loop
vertex 19.05 12.1032613140312 7.874
vertex 19.685 6.604 7.874
vertex 19.7715484012258 7.2614003745604 7.874
endloop
endfacet
facet normal 0.0 0.0 1.0
outer loop
vertex 19.05 12.1032613140312 7.874
vertex 19.7715484012258 7.2614003745604 7.874
vertex 20.581499063599 12.7376289969356 7.874
endloop
endfacet
facet normal 0.0 0.0 1.0
outer loop
vertex 20.581499063599 12.7376289969356 7.874
vertex 19.7715484012258 7.2614003745604 7.874
vertex 20.0252954743875 7.874 7.874
endloop
endfacet
facet normal 0.0 0.0 1.0
outer loop
vertex 20.581499063599 12.7376289969356 7.874
vertex 20.0252954743875 7.874 7.874
vertex 20.4289487757862 8.40005122421383 7.874
endloop
endfacet
facet normal 0.0 0.0 1.0
outer loop
vertex 20.581499063599 12.7376289969356 7.874
vertex 20.4289487757862 8.40005122421383 7.874
vertex 20.955 8.80370452561247 7.874
endloop
endfacet
facet normal 0.0 0.0 1.0
outer loop
vertex 20.581499063599 12.7376289969356 7.874
vertex 20.955 8.80370452561247 7.874
vertex 22.225 12.954 7.874
endloop
endfacet
facet normal 0.0 0.0 1.0
outer loop
vertex 22.225 12.954 7.874
vertex 20.955 8.80370452561247 7.874
vertex 21.5675996254396 9.05745159877423 7.874
endloop
endfacet
facet normal 0.0 0.0 1.0
outer loop
vertex 22.225 12.954 7.874
vertex 21.5675996254396 9.05745159877423 7.874
vertex 22.225 9.144 7.874
endloop
endfacet
facet normal 0.0 0.0 1.0
outer loop
vertex 22.225 12.954 7.874
vertex 22.225 9.144 7.874
vertex 22.8824003745604 9.05745159877423 7.874
endloop
endfacet
facet normal 0.0 0.0 1.0
outer loop
vertex 22.225 12.954 7.874
vertex 22.8824003745604 9.05745159877423 7.874
vertex 23.868500936401 12.7376289969356 7.874
endloop
endfacet
facet normal 0.0 0.0 1.0
outer loop
vertex 23.868500936401 12.7376289969356 7.874
vertex 22.8824003745604 9.05745159877423 7.874
vertex 23.495 8.80370452561247 7.874
endloop
endfacet
facet normal 0.0 0.0 1.0
outer loop
vertex 23.868500936401 12.7376289969356 7.874
vertex 23.495 8.80370452561247 7.874
vertex 24.0210512242138 8.40005122421383 7.874
endloop
endfacet
facet normal 0.0 0.0 1.0
outer loop
vertex 23.868500936401 12.7376289969356 7.874
vertex 24.0210512242138 8.40005122421383 7.874
vertex 25.4 12.1032613140312 7.874
endloop
endfacet
facet normal 0.0 0.0 1.0
outer loop
vertex 25.4 12.1032613140312 7.874
vertex 24.0210512242138 8.40005122421383 7.874
vertex 24.4247045256125 7.874 7.874
endloop
endfacet
facet normal 0.0 0.0 1.0
outer loop
vertex 25.4 12.1032613140312 7.874
vertex 24.4247045256125 7.874 7.874
vertex 24.6784515987742 7.2614003745604 7.874
endloop
endfacet
facet normal 0.0 0.0 1.0
outer loop
vertex 25.4 12.1032613140312 7.874
vertex 24.6784515987742 7.2614003745604 7.874
vertex 24.765 6.604 7.874
endloop
endfacet
facet normal -0.866025403784439 -0.5 -5.33971369760318e-16
outer loop
vertex 16.7257386859688 3.429 7.874
vertex 17.7348719394654 2.11387193946542 2.032
vertex 17.7348719394654 2.11387193946542 7.874
endloop
endfacet
facet normal -0.707106781186548 -0.707106781186547 -2.14487169819602e-16
outer loop
vertex 17.7348719394654 2.11387193946542 2.032
vertex 16.7257386859688 3.429 7.874
vertex 16.7257386859688 3.429 2.032
endloop
endfacet
facet normal -4.81199934364933e-16 1.0 -4.64646002262744e-17
outer loop
vertex 22.225 12.954 7.874
vertex 23.868500936401 12.7376289969356 2.032
vertex 22.225 12.954 2.032
endloop
endfacet
facet normal 0.25881904510252 0.965925826289068 1.03700535892781e-17
outer loop
vertex 23.868500936401 12.7376289969356 2.032
vertex 22.225 12.954 7.874
vertex 23.868500936401 12.7376289969356 7.874
endloop
endfacet
facet normal -0.866025403784439 0.5 3.42279211579597e-16
outer loop
vertex 16.7257386859688 9.779 7.874
vertex 16.0913710030644 8.24750093640101 2.032
vertex 16.0913710030644 8.247500936401 7.874
endloop
endfacet
facet normal -0.965925826289069 0.25881904510252 3.114193484827e-17
outer loop
vertex 16.0913710030644 8.24750093640101 2.032
vertex 16.7257386859688 9.779 7.874
vertex 16.7257386859688 9.779 2.032
endloop
endfacet
facet normal 0.258819045102521 -0.965925826289068 -4.97063545974221e-16
outer loop
vertex 23.868500936401 0.470371003064417 7.874
vertex 22.225 0.254 2.032
vertex 23.868500936401 0.470371003064424 2.032
endloop
endfacet
facet normal 1.38122203382527e-15 -1.0 -2.3972346471538e-16
outer loop
vertex 22.225 0.254 2.032
vertex 23.868500936401 0.470371003064417 7.874
vertex 22.225 0.254 7.874
endloop
endfacet
facet normal 1.30102204476445e-15 -1.0 -2.3972346471538e-16
outer loop
vertex 22.225 0.254 7.874
vertex 20.581499063599 0.470371003064416 2.032
vertex 22.225 0.254 2.032
endloop
endfacet
facet normal -0.25881904510252 -0.965925826289068 4.32013061357847e-17
outer loop
vertex 20.581499063599 0.470371003064416 2.032
vertex 22.225 0.254 7.874
vertex 20.581499063599 0.470371003064416 7.874
endloop
endfacet
endsolid Camera-Base
