solid Foam Fin Base Design
facet normal 1.06187839191171e-14 0.325568154457157 0.945518575599317
outer loop
vertex -6.82386394196925 81.7476296443219 72.8757193027131
vertex -9.34806331424734 69.8278291013316 76.9800357745699
vertex -6.82386394196934 12.1527695043356 96.8391513919427
endloop
endfacet
facet normal -3.08569124149415e-14 0.325568154457157 0.945518575599317
outer loop
vertex -11.1953110428503 56.9479230275252 81.4149430923587
vertex -12.3215725268156 43.4149419936342 86.0747221524526
vertex -11.1953110428505 20.4193383766013 93.9927434620608
endloop
endfacet
facet normal -0.98202748158306 0.184397376021124 0.0402446658845274
outer loop
vertex -9.34806331424734 69.8278291013316 76.9800357745699
vertex -16.7929665642754 44.9300479231658 0.0
vertex -11.1953110428503 56.9479230275252 81.4149430923587
endloop
endfacet
facet normal 0.950076369503177 -0.285778461426577 0.12524201809425
outer loop
vertex 11.1953110428505 20.4193383766012 93.9927434620608
vertex 9.34806331424742 16.1260363519991 95.4710459013238
vertex 16.7929665642757 -1.43001597438836 0.0
endloop
endfacet
facet normal -0.967682673416733 0.250421434063124 0.029653818148998
outer loop
vertex -6.82386394196925 81.7476296443219 72.8757193027131
vertex -14.022094971371 61.2765139656451 0.0
vertex -9.34806331424734 69.8278291013316 76.9800357745699
endloop
endfacet
facet normal -0.967682673416733 0.250421434063124 0.029653818148998
outer loop
vertex -6.82386394196925 81.7476296443219 72.8757193027131
vertex -10.2357959129539 76.4044670495092 0.0
vertex -14.022094971371 61.2765139656451 0.0
endloop
endfacet
facet normal -0.655178731879552 -0.729029715664992 0.198132538897889
outer loop
vertex -2.8199664825479e-15 5.53531271910943 99.1177244928471
vertex -5.52432700070271 -16.4377625898016 0.0
vertex -4.22994972382185e-15 -20.32 0.0
endloop
endfacet
facet normal -0.655178731879552 -0.729029715664992 0.198132538897889
outer loop
vertex -2.8199664825479e-15 5.53531271910943 99.1177244928471
vertex -3.68288466713514 8.59425237430037 98.0644471021781
vertex -5.52432700070271 -16.4377625898016 0.0
endloop
endfacet
facet normal -0.995863809227019 0.0708884393252793 0.0568339919579682
outer loop
vertex -12.3215725268156 43.4149419936342 86.0747221524526
vertex -19.0500000000002 10.1600000000006 0.0
vertex -12.7000000000001 29.5514845393326 90.8482933696352
endloop
endfacet
facet normal -0.995863809227019 0.0708884393252793 0.0568339919579682
outer loop
vertex -12.3215725268156 43.4149419936342 86.0747221524526
vertex -18.4823587902233 27.7547351797058 0.0
vertex -19.0500000000002 10.1600000000006 0.0
endloop
endfacet
facet normal 0.709218027928437 -0.679849111500288 0.18658771249353
outer loop
vertex 3.68288466713513 8.59425237430034 98.0644471021781
vertex 5.52432700070269 -16.4377625898017 0.0
vertex 10.235795912954 -11.921489016503 0.0
endloop
endfacet
facet normal 0.810719404540406 -0.559794537808888 0.171359629262507
outer loop
vertex 6.82386394196932 12.1527695043355 96.8391513919427
vertex 3.68288466713513 8.59425237430034 98.0644471021781
vertex 10.235795912954 -11.921489016503 0.0
endloop
endfacet
facet normal 0.985893793627804 -0.136178382026949 0.0973081494773119
outer loop
vertex 12.3215725268157 24.930332054565 92.4394837753628
vertex 18.4823587902236 4.29508827343177 0.0
vertex 19.0500000000002 10.1600000000004 0.0
endloop
endfacet
facet normal 0.995270603496961 -0.0536093395656236 0.0810090397803353
outer loop
vertex 12.7000000000001 29.5514845393324 90.8482933696352
vertex 12.3215725268157 24.930332054565 92.4394837753628
vertex 19.0500000000002 10.1600000000004 0.0
endloop
endfacet
facet normal -1.76585213859693e-14 0.325568154457157 0.945518575599317
outer loop
vertex 12.7000000000001 29.5514845393324 90.8482933696352
vertex 12.3215725268155 43.4149419936342 86.0747221524526
vertex 12.3215725268157 24.930332054565 92.4394837753628
endloop
endfacet
facet normal -0.0 0.325568154457157 0.945518575599317
outer loop
vertex 6.82386394196932 12.1527695043355 96.8391513919427
vertex 6.82386394196924 81.7476296443219 72.8757193027131
vertex 3.68288466713513 8.59425237430034 98.0644471021781
endloop
endfacet
facet normal -0.98202748158306 0.184397376021124 0.0402446658845274
outer loop
vertex -9.34806331424734 69.8278291013316 76.9800357745699
vertex -14.022094971371 61.2765139656451 0.0
vertex -16.7929665642754 44.9300479231658 0.0
endloop
endfacet
facet normal -0.990858943471857 0.125585603529345 0.0492626666757454
outer loop
vertex -11.1953110428503 56.9479230275252 81.4149430923587
vertex -18.4823587902233 27.7547351797058 0.0
vertex -12.3215725268156 43.4149419936342 86.0747221524526
endloop
endfacet
facet normal -0.990858943471857 0.125585603529345 0.0492626666757454
outer loop
vertex -11.1953110428503 56.9479230275252 81.4149430923587
vertex -16.7929665642754 44.9300479231658 0.0
vertex -18.4823587902233 27.7547351797058 0.0
endloop
endfacet
facet normal -0.890947879295203 -0.430895801061566 0.143320218416286
outer loop
vertex -9.34806331424744 16.1260363519992 95.4710459013238
vertex -10.235795912954 -11.9214890165029 0.0
vertex -6.82386394196934 12.1527695043356 96.8391513919427
endloop
endfacet
facet normal -0.890947879295203 -0.430895801061566 0.143320218416286
outer loop
vertex -9.34806331424744 16.1260363519992 95.4710459013238
vertex -14.0220949713712 -6.87883798854803 0.0
vertex -10.235795912954 -11.9214890165029 0.0
endloop
endfacet
facet normal 0.709218027928437 -0.679849111500288 0.18658771249353
outer loop
vertex 3.68288466713513 8.59425237430034 98.0644471021781
vertex -4.22994972382185e-15 -20.32 0.0
vertex 5.52432700070269 -16.4377625898017 0.0
endloop
endfacet
facet normal 0.658877676209598 -0.727892850114123 0.18987418609537
outer loop
vertex -2.8199664825479e-15 5.53531271910943 99.1177244928471
vertex -4.22994972382185e-15 -20.32 0.0
vertex 3.68288466713513 8.59425237430034 98.0644471021781
endloop
endfacet
facet normal -0.950019162438903 -0.28819213075695 0.120037022491624
outer loop
vertex -11.1953110428505 20.4193383766013 93.9927434620608
vertex -14.0220949713712 -6.87883798854803 0.0
vertex -9.34806331424744 16.1260363519992 95.4710459013238
endloop
endfacet
facet normal -0.950019162438903 -0.28819213075695 0.120037022491624
outer loop
vertex -11.1953110428505 20.4193383766013 93.9927434620608
vertex -16.7929665642757 -1.43001597438824 0.0
vertex -14.0220949713712 -6.87883798854803 0.0
endloop
endfacet
facet normal -0.810465446782929 -0.562356853288516 0.164013807743086
outer loop
vertex -6.82386394196934 12.1527695043356 96.8391513919427
vertex -5.52432700070271 -16.4377625898016 0.0
vertex -3.68288466713514 8.59425237430037 98.0644471021781
endloop
endfacet
facet normal -0.810465446782929 -0.562356853288516 0.164013807743086
outer loop
vertex -6.82386394196934 12.1527695043356 96.8391513919427
vertex -10.235795912954 -11.9214890165029 0.0
vertex -5.52432700070271 -16.4377625898016 0.0
endloop
endfacet
facet normal 0.996956226942289 0.046559492516651 0.0625339525185012
outer loop
vertex 12.7000000000001 29.5514845393324 90.8482933696352
vertex 19.0500000000002 10.1600000000004 0.0
vertex 18.4823587902233 27.7547351797058 0.0
endloop
endfacet
facet normal 0.99567589236109 0.0722592186525809 0.058379128896074
outer loop
vertex 12.3215725268155 43.4149419936342 86.0747221524526
vertex 12.7000000000001 29.5514845393324 90.8482933696352
vertex 18.4823587902233 27.7547351797058 0.0
endloop
endfacet
facet normal 0.810719404540406 -0.559794537808888 0.171359629262507
outer loop
vertex 6.82386394196932 12.1527695043355 96.8391513919427
vertex 10.235795912954 -11.921489016503 0.0
vertex 14.0220949713711 -6.87883798854816 0.0
endloop
endfacet
facet normal 0.891131932557881 -0.428274230751354 0.149883494921865
outer loop
vertex 9.34806331424742 16.1260363519991 95.4710459013238
vertex 6.82386394196932 12.1527695043355 96.8391513919427
vertex 14.0220949713711 -6.87883798854816 0.0
endloop
endfacet
facet normal 0.891131932557881 -0.428274230751354 0.149883494921865
outer loop
vertex 9.34806331424742 16.1260363519991 95.4710459013238
vertex 14.0220949713711 -6.87883798854816 0.0
vertex 16.7929665642757 -1.43001597438836 0.0
endloop
endfacet
facet normal -0.98595033133885 -0.138118340136671 0.0939428988838569
outer loop
vertex -12.3215725268157 24.9303320545651 92.4394837753628
vertex -16.7929665642757 -1.43001597438824 0.0
vertex -11.1953110428505 20.4193383766013 93.9927434620608
endloop
endfacet
facet normal 0.982167364239791 0.184297128163419 0.0371730705346975
outer loop
vertex 9.34806331424732 69.8278291013315 76.9800357745699
vertex 11.1953110428503 56.9479230275251 81.4149430923587
vertex 14.022094971371 61.276513965645 0.0
endloop
endfacet
facet normal -0.924423930151508 0.38123283828963 0.0100955620384533
outer loop
vertex -1.40998324127395e-14 101.6 66.04
vertex -2.11497486191092e-14 101.6 0.0
vertex -5.52432700070266 89.9532877694053 0.0
endloop
endfacet
facet normal -6.17212140648771e-15 0.325568154457157 0.945518575599317
outer loop
vertex -3.68288466713514 8.59425237430037 98.0644471021781
vertex -6.82386394196925 81.7476296443219 72.8757193027131
vertex -6.82386394196934 12.1527695043356 96.8391513919427
endloop
endfacet
facet normal 1.42672915116694e-14 0.325568154457157 0.945518575599317
outer loop
vertex -6.82386394196934 12.1527695043356 96.8391513919427
vertex -9.34806331424734 69.8278291013316 76.9800357745699
vertex -9.34806331424744 16.1260363519992 95.4710459013238
endloop
endfacet
facet normal -0.98595033133885 -0.138118340136671 0.0939428988838569
outer loop
vertex -12.3215725268157 24.9303320545651 92.4394837753628
vertex -18.4823587902236 4.29508827343194 0.0
vertex -16.7929665642757 -1.43001597438824 0.0
endloop
endfacet
facet normal -0.944480792352173 0.328082355896221 0.017832572091459
outer loop
vertex -3.6828846671351 92.4231810344275 69.1998321720069
vertex -10.2357959129539 76.4044670495092 0.0
vertex -6.82386394196925 81.7476296443219 72.8757193027131
endloop
endfacet
facet normal 4.90514482943644e-14 0.325568154457158 0.945518575599316
outer loop
vertex -12.3215725268156 43.4149419936342 86.0747221524526
vertex -12.7000000000001 29.5514845393326 90.8482933696352
vertex -12.3215725268157 24.9303320545651 92.4394837753628
endloop
endfacet
facet normal -1.29954131312934e-14 0.325568154457158 0.945518575599316
outer loop
vertex -11.1953110428505 20.4193383766013 93.9927434620608
vertex -12.3215725268156 43.4149419936342 86.0747221524526
vertex -12.3215725268157 24.9303320545651 92.4394837753628
endloop
endfacet
facet normal 0.958988764579387 0.282225422319846 0.0262556738036844
outer loop
vertex 10.2357959129539 76.4044670495092 0.0
vertex 9.34806331424732 69.8278291013315 76.9800357745699
vertex 14.022094971371 61.276513965645 0.0
endloop
endfacet
facet normal 0.96810115166025 0.24941321682691 0.0239417506910047
outer loop
vertex 6.82386394196924 81.7476296443219 72.8757193027131
vertex 9.34806331424732 69.8278291013315 76.9800357745699
vertex 10.2357959129539 76.4044670495092 0.0
endloop
endfacet
facet normal 0.905841583774179 0.423541855647902 0.00795748828580096
outer loop
vertex -2.11497486191092e-14 101.6 0.0
vertex 3.68288466713509 92.4231810344275 69.1998321720069
vertex 5.52432700070263 89.9532877694053 0.0
endloop
endfacet
facet normal 0.926641389995658 0.375671318207003 0.014380369380765
outer loop
vertex 5.52432700070263 89.9532877694053 0.0
vertex 6.82386394196924 81.7476296443219 72.8757193027131
vertex 10.2357959129539 76.4044670495092 0.0
endloop
endfacet
facet normal -0.995308495870439 -0.0559801528616236 0.0789127399962313
outer loop
vertex -12.7000000000001 29.5514845393326 90.8482933696352
vertex -18.4823587902236 4.29508827343194 0.0
vertex -12.3215725268157 24.9303320545651 92.4394837753628
endloop
endfacet
facet normal 0.928052139003824 0.372450301772502 -2.07990688194266e-16
outer loop
vertex -1.40998324127395e-14 101.6 66.04
vertex 3.68288466713509 92.4231810344275 69.1998321720069
vertex -2.11497486191092e-14 101.6 0.0
endloop
endfacet
facet normal 0.978752914974579 0.201505086943462 0.0379266577050181
outer loop
vertex 14.022094971371 61.276513965645 0.0
vertex 11.1953110428503 56.9479230275251 81.4149430923587
vertex 16.7929665642754 44.9300479231658 0.0
endloop
endfacet
facet normal 0.950076369503177 -0.285778461426577 0.12524201809425
outer loop
vertex 11.1953110428505 20.4193383766012 93.9927434620608
vertex 16.7929665642757 -1.43001597438836 0.0
vertex 18.4823587902236 4.29508827343177 0.0
endloop
endfacet
facet normal -0.924423930151508 0.38123283828963 0.0100955620384533
outer loop
vertex -1.40998324127395e-14 101.6 66.04
vertex -5.52432700070266 89.9532877694053 0.0
vertex -3.6828846671351 92.4231810344275 69.1998321720069
endloop
endfacet
facet normal -3.30869314550223e-15 0.325568154457157 0.945518575599317
outer loop
vertex 6.82386394196924 81.7476296443219 72.8757193027131
vertex 3.68288466713509 92.4231810344275 69.1998321720069
vertex 3.68288466713513 8.59425237430034 98.0644471021781
endloop
endfacet
facet normal 6.18849238574998e-15 0.325568154457157 0.945518575599317
outer loop
vertex -2.8199664825479e-15 5.53531271910943 99.1177244928471
vertex -3.6828846671351 92.4231810344275 69.1998321720069
vertex -3.68288466713514 8.59425237430037 98.0644471021781
endloop
endfacet
facet normal -4.49821769390824e-15 0.325568154457158 0.945518575599317
outer loop
vertex 11.1953110428505 20.4193383766012 93.9927434620608
vertex 11.1953110428503 56.9479230275251 81.4149430923587
vertex 9.34806331424742 16.1260363519991 95.4710459013238
endloop
endfacet
facet normal 6.80684699943268e-15 0.325568154457156 0.945518575599317
outer loop
vertex 3.68288466713509 92.4231810344275 69.1998321720069
vertex -1.40998324127395e-14 101.6 66.04
vertex -2.8199664825479e-15 5.53531271910943 99.1177244928471
endloop
endfacet
facet normal 2.12652214875702e-14 0.325568154457157 0.945518575599317
outer loop
vertex 12.3215725268157 24.930332054565 92.4394837753628
vertex 12.3215725268155 43.4149419936342 86.0747221524526
vertex 11.1953110428505 20.4193383766012 93.9927434620608
endloop
endfacet
facet normal 0.99041737898949 0.12921739154225 0.0487471139515494
outer loop
vertex 16.7929665642754 44.9300479231658 0.0
vertex 12.3215725268155 43.4149419936342 86.0747221524526
vertex 18.4823587902233 27.7547351797058 0.0
endloop
endfacet
facet normal -0.995308495870439 -0.0559801528616236 0.0789127399962313
outer loop
vertex -12.7000000000001 29.5514845393326 90.8482933696352
vertex -19.0500000000002 10.1600000000006 0.0
vertex -18.4823587902236 4.29508827343194 0.0
endloop
endfacet
facet normal 0.985893793627804 -0.136178382026949 0.0973081494773119
outer loop
vertex 12.3215725268157 24.930332054565 92.4394837753628
vertex 11.1953110428505 20.4193383766012 93.9927434620608
vertex 18.4823587902236 4.29508827343177 0.0
endloop
endfacet
facet normal -7.13364575583473e-15 0.325568154457157 0.945518575599317
outer loop
vertex 9.34806331424742 16.1260363519991 95.4710459013238
vertex 9.34806331424732 69.8278291013315 76.9800357745699
vertex 6.82386394196932 12.1527695043355 96.8391513919427
endloop
endfacet
facet normal -6.80684699943272e-15 0.325568154457157 0.945518575599317
outer loop
vertex -2.8199664825479e-15 5.53531271910943 99.1177244928471
vertex -1.40998324127395e-14 101.6 66.04
vertex -3.6828846671351 92.4231810344275 69.1998321720069
endloop
endfacet
facet normal 1.90586811974637e-14 0.325568154457158 0.945518575599317
outer loop
vertex 12.3215725268155 43.4149419936342 86.0747221524526
vertex 11.1953110428503 56.9479230275251 81.4149430923587
vertex 11.1953110428505 20.4193383766012 93.9927434620608
endloop
endfacet
facet normal -1.33201331341352e-14 0.325568154457157 0.945518575599317
outer loop
vertex -9.34806331424734 69.8278291013316 76.9800357745699
vertex -11.1953110428503 56.9479230275252 81.4149430923587
vertex -9.34806331424744 16.1260363519992 95.4710459013238
endloop
endfacet
facet normal 0.945281468003042 0.326118763098725 0.00946037023434007
outer loop
vertex 3.68288466713509 92.4231810344275 69.1998321720069
vertex 6.82386394196924 81.7476296443219 72.8757193027131
vertex 5.52432700070263 89.9532877694053 0.0
endloop
endfacet
facet normal 2.36335224678731e-15 0.325568154457157 0.945518575599317
outer loop
vertex -3.6828846671351 92.4231810344275 69.1998321720069
vertex -6.82386394196925 81.7476296443219 72.8757193027131
vertex -3.68288466713514 8.59425237430037 98.0644471021781
endloop
endfacet
facet normal -2.75044106033333e-15 0.325568154457157 0.945518575599317
outer loop
vertex 3.68288466713513 8.59425237430034 98.0644471021781
vertex 3.68288466713509 92.4231810344275 69.1998321720069
vertex -2.8199664825479e-15 5.53531271910943 99.1177244928471
endloop
endfacet
facet normal 0.990801271559351 0.126283147333941 0.0486354497851897
outer loop
vertex 11.1953110428503 56.9479230275251 81.4149430923587
vertex 12.3215725268155 43.4149419936342 86.0747221524526
vertex 16.7929665642754 44.9300479231658 0.0
endloop
endfacet
facet normal 2.6989306163449e-15 0.325568154457157 0.945518575599317
outer loop
vertex -9.34806331424744 16.1260363519992 95.4710459013238
vertex -11.1953110428503 56.9479230275252 81.4149430923587
vertex -11.1953110428505 20.4193383766013 93.9927434620608
endloop
endfacet
facet normal -0.944480792352173 0.328082355896221 0.017832572091459
outer loop
vertex -3.6828846671351 92.4231810344275 69.1998321720069
vertex -5.52432700070266 89.9532877694053 0.0
vertex -10.2357959129539 76.4044670495092 0.0
endloop
endfacet
facet normal -7.96408793933784e-15 0.325568154457157 0.945518575599317
outer loop
vertex 9.34806331424732 69.8278291013315 76.9800357745699
vertex 6.82386394196924 81.7476296443219 72.8757193027131
vertex 6.82386394196932 12.1527695043355 96.8391513919427
endloop
endfacet
facet normal 1.83151830594358e-14 0.325568154457157 0.945518575599317
outer loop
vertex 11.1953110428503 56.9479230275251 81.4149430923587
vertex 9.34806331424732 69.8278291013315 76.9800357745699
vertex 9.34806331424742 16.1260363519991 95.4710459013238
endloop
endfacet
facet normal 0.0 0.0 -1.0
outer loop
vertex -18.4823587902233 27.7547351797058 0.0
vertex -18.4823587902236 4.29508827343194 0.0
vertex -19.0500000000002 10.1600000000006 0.0
endloop
endfacet
facet normal 0.0 0.0 -1.0
outer loop
vertex -18.4823587902236 4.29508827343194 0.0
vertex -18.4823587902233 27.7547351797058 0.0
vertex -16.7929665642757 -1.43001597438824 0.0
endloop
endfacet
facet normal 0.0 0.0 -1.0
outer loop
vertex -16.7929665642757 -1.43001597438824 0.0
vertex -18.4823587902233 27.7547351797058 0.0
vertex -16.7929665642754 44.9300479231658 0.0
endloop
endfacet
facet normal 0.0 0.0 -1.0
outer loop
vertex -16.7929665642757 -1.43001597438824 0.0
vertex -16.7929665642754 44.9300479231658 0.0
vertex -14.0220949713712 -6.87883798854803 0.0
endloop
endfacet
facet normal 0.0 0.0 -1.0
outer loop
vertex -14.0220949713712 -6.87883798854803 0.0
vertex -16.7929665642754 44.9300479231658 0.0
vertex -14.022094971371 61.2765139656451 0.0
endloop
endfacet
facet normal 0.0 0.0 -1.0
outer loop
vertex -14.0220949713712 -6.87883798854803 0.0
vertex -14.022094971371 61.2765139656451 0.0
vertex -10.235795912954 -11.9214890165029 0.0
endloop
endfacet
facet normal 0.0 0.0 -1.0
outer loop
vertex -10.235795912954 -11.9214890165029 0.0
vertex -14.022094971371 61.2765139656451 0.0
vertex -10.2357959129539 76.4044670495092 0.0
endloop
endfacet
facet normal 0.0 0.0 -1.0
outer loop
vertex -10.235795912954 -11.9214890165029 0.0
vertex -10.2357959129539 76.4044670495092 0.0
vertex -5.52432700070271 -16.4377625898016 0.0
endloop
endfacet
facet normal 0.0 0.0 -1.0
outer loop
vertex -5.52432700070271 -16.4377625898016 0.0
vertex -10.2357959129539 76.4044670495092 0.0
vertex -5.52432700070266 89.9532877694053 0.0
endloop
endfacet
facet normal 0.0 0.0 -1.0
outer loop
vertex -5.52432700070271 -16.4377625898016 0.0
vertex -5.52432700070266 89.9532877694053 0.0
vertex -4.22994972382185e-15 -20.32 0.0
endloop
endfacet
facet normal 0.0 0.0 -1.0
outer loop
vertex -4.22994972382185e-15 -20.32 0.0
vertex -5.52432700070266 89.9532877694053 0.0
vertex -2.11497486191092e-14 101.6 0.0
endloop
endfacet
facet normal 0.0 0.0 -1.0
outer loop
vertex -4.22994972382185e-15 -20.32 0.0
vertex -2.11497486191092e-14 101.6 0.0
vertex 5.52432700070263 89.9532877694053 0.0
endloop
endfacet
facet normal 0.0 0.0 -1.0
outer loop
vertex -4.22994972382185e-15 -20.32 0.0
vertex 5.52432700070263 89.9532877694053 0.0
vertex 5.52432700070269 -16.4377625898017 0.0
endloop
endfacet
facet normal 0.0 0.0 -1.0
outer loop
vertex 5.52432700070269 -16.4377625898017 0.0
vertex 5.52432700070263 89.9532877694053 0.0
vertex 10.2357959129539 76.4044670495092 0.0
endloop
endfacet
facet normal 0.0 0.0 -1.0
outer loop
vertex 5.52432700070269 -16.4377625898017 0.0
vertex 10.2357959129539 76.4044670495092 0.0
vertex 10.235795912954 -11.921489016503 0.0
endloop
endfacet
facet normal 0.0 0.0 -1.0
outer loop
vertex 10.235795912954 -11.921489016503 0.0
vertex 10.2357959129539 76.4044670495092 0.0
vertex 14.022094971371 61.276513965645 0.0
endloop
endfacet
facet normal 0.0 0.0 -1.0
outer loop
vertex 10.235795912954 -11.921489016503 0.0
vertex 14.022094971371 61.276513965645 0.0
vertex 14.0220949713711 -6.87883798854816 0.0
endloop
endfacet
facet normal 0.0 0.0 -1.0
outer loop
vertex 14.0220949713711 -6.87883798854816 0.0
vertex 14.022094971371 61.276513965645 0.0
vertex 16.7929665642754 44.9300479231658 0.0
endloop
endfacet
facet normal 0.0 0.0 -1.0
outer loop
vertex 14.0220949713711 -6.87883798854816 0.0
vertex 16.7929665642754 44.9300479231658 0.0
vertex 16.7929665642757 -1.43001597438836 0.0
endloop
endfacet
facet normal 0.0 0.0 -1.0
outer loop
vertex 16.7929665642757 -1.43001597438836 0.0
vertex 16.7929665642754 44.9300479231658 0.0
vertex 18.4823587902233 27.7547351797058 0.0
endloop
endfacet
facet normal 0.0 0.0 -1.0
outer loop
vertex 16.7929665642757 -1.43001597438836 0.0
vertex 18.4823587902233 27.7547351797058 0.0
vertex 18.4823587902236 4.29508827343177 0.0
endloop
endfacet
facet normal 0.0 0.0 -1.0
outer loop
vertex 18.4823587902236 4.29508827343177 0.0
vertex 18.4823587902233 27.7547351797058 0.0
vertex 19.0500000000002 10.1600000000004 0.0
endloop
endfacet
endsolid Foam Fin Base Design
