solid Foam Fin Covered V2 006
facet normal -0.984970936645068 -0.13325239057095 0.109891102331648
outer loop
vertex -12.3215725268157 24.9303320545651 92.4394837753628
vertex -18.3379194881891 -1.43001597438825 0.0
vertex -11.1953110428505 20.4193383766013 93.9927434620608
endloop
endfacet
facet normal 0.890520831151246 -0.425004184484918 0.162308633337859
outer loop
vertex 9.34806331424742 16.1260363519991 95.4710459013238
vertex 6.82386394196933 12.1527695043355 96.8391513919427
vertex 15.3121277087373 -6.87883798854816 0.0
endloop
endfacet
facet normal -0.653641452547954 -0.729486596749339 0.201499768421875
outer loop
vertex 0.0 5.53531271910943 99.1177244928471
vertex -3.68288466713514 8.59425237430037 98.0644471021781
vertex -6.03256508476735 -16.4377625898016 0.0
endloop
endfacet
facet normal 0.633119332965672 0.76007845385219 -0.146426275697931
outer loop
vertex -3.67748704810222 -0.967240346337985 10.16
vertex -2.66592162514411 11.6399190306933 80.4920815745611
vertex -3.20168808955824 -1.37611804799597 10.16
endloop
endfacet
facet normal 0.584316590424388 0.797301352774919 -0.1512768158645
outer loop
vertex -2.66592162514411 11.6399190306933 80.4920815745611
vertex -3.67748704810222 -0.967240346337985 10.16
vertex -6.4009900063604 14.6814353007986 79.6141930126497
endloop
endfacet
facet normal 0.514099066720023 0.842842450012059 -0.159118679152608
outer loop
vertex -0.33650221464796 -3.05879514412782 10.16
vertex 0.0 10.0483782721871 80.9514562099828
vertex 0.0 -3.2705944561906 10.16
endloop
endfacet
facet normal 0.526055747194256 0.835786113916551 -0.157247965418199
outer loop
vertex 0.0 10.0483782721871 80.9514562099828
vertex -0.33650221464796 -3.05879514412782 10.16
vertex -2.66592162514411 11.6399190306933 80.4920815745611
endloop
endfacet
facet normal -0.525326643253059 0.835974829188525 -0.158675779032875
outer loop
vertex 0.0 10.0483782721871 80.9514562099828
vertex 2.86753461729204 -1.58653798183232 10.16
vertex 0.0 -3.2705944561906 10.16
endloop
endfacet
facet normal 0.583391736146553 -0.78349785846426 0.213974736774763
outer loop
vertex 6.03256508476733 -16.4377625898017 0.0
vertex 5.08 -14.3006677487288 10.16
vertex 5.08 -17.0507827156964 5.10377041242495e-16
endloop
endfacet
facet normal 0.527670983867963 -0.819942012089389 0.221942401524857
outer loop
vertex 5.08 -14.3006677487288 10.16
vertex 6.03256508476733 -16.4377625898017 0.0
vertex 3.68288466713512 8.59425237430034 98.0644471021781
endloop
endfacet
facet normal 0.527670983867963 -0.819942012089389 0.221942401524857
outer loop
vertex 5.08 -14.3006677487288 10.16
vertex 3.68288466713512 8.59425237430034 98.0644471021781
vertex 0.381566503700416 -17.3243291651173 10.16
endloop
endfacet
facet normal -0.974780156398033 0.211990534134891 -0.0697399464427022
outer loop
vertex 12.7307174231495 25.1972465124026 76.578960068929
vertex 14.1003316736302 8.73430013828378 0.0
vertex 11.4636842875042 21.5496351852783 77.6317889799083
endloop
endfacet
facet normal 0.701175733310137 0.699491332128119 -0.138074136950485
outer loop
vertex -6.4009900063604 14.6814353007986 79.6141930126497
vertex -5.08 -1.81372701271364 1.29769032294818e-16
vertex -7.87321770782329 0.423829267041153 0.0
endloop
endfacet
facet normal 0.618164891661084 0.771676286922991 -0.149625782933243
outer loop
vertex -5.08 -1.81372701271364 1.29769032294818e-16
vertex -6.4009900063604 14.6814353007986 79.6141930126497
vertex -5.08 0.156267375300325 10.16
endloop
endfacet
facet normal 0.618164891661084 0.771676286922991 -0.149625782933243
outer loop
vertex -5.08 0.156267375300325 10.16
vertex -6.4009900063604 14.6814353007986 79.6141930126497
vertex -3.67748704810222 -0.967240346337985 10.16
endloop
endfacet
facet normal 0.94271554582299 0.333084837369917 0.0184902887462301
outer loop
vertex 3.68288466713509 92.4231810344275 69.1998321720069
vertex 6.82386394196924 81.747629644322 72.8757193027131
vertex 6.63289930559144 89.7906972512654 0.0
endloop
endfacet
facet normal -0.940909864283441 0.336700822026932 0.0363480912910837
outer loop
vertex -3.6828846671351 92.4231810344275 69.1998321720069
vertex -6.63289930559146 89.7906972512654 0.0
vertex -12.1438453590159 76.1427455726984 0.0
endloop
endfacet
facet normal -0.890355320035049 -0.428749661249853 0.15310497073388
outer loop
vertex -9.34806331424744 16.1260363519992 95.4710459013238
vertex -15.3121277087373 -6.87883798854804 0.0
vertex -11.1774891369458 -11.9214890165029 0.0
endloop
endfacet
facet normal 0.0 -0.277314653302378 -0.960779154157594
outer loop
vertex -13.156756835752 41.8434508776425 71.7742800627372
vertex -12.7307174231495 25.1972465124027 76.578960068929
vertex -13.1721809098056 29.0720530792854 75.4605546215805
endloop
endfacet
facet normal 0.0 -0.277314653302378 -0.960779154157594
outer loop
vertex -12.7307174231495 25.1972465124027 76.578960068929
vertex -13.156756835752 41.8434508776425 71.7742800627372
vertex -11.9867117527412 54.3770531208354 68.1566416640892
endloop
endfacet
facet normal 0.0 -0.277314653302378 -0.960779154157594
outer loop
vertex -12.7307174231495 25.1972465124027 76.578960068929
vertex -11.9867117527412 54.3770531208354 68.1566416640892
vertex -11.4636842875043 21.5496351852784 77.6317889799083
endloop
endfacet
facet normal 0.0 -0.277314653302378 -0.960779154157594
outer loop
vertex -11.4636842875043 21.5496351852784 77.6317889799083
vertex -11.9867117527412 54.3770531208354 68.1566416640892
vertex -9.69584907763018 66.3199370521097 64.7095053450922
endloop
endfacet
facet normal 0.0 -0.277314653302378 -0.960779154157594
outer loop
vertex -11.4636842875043 21.5496351852784 77.6317889799083
vertex -9.69584907763018 66.3199370521097 64.7095053450922
vertex -9.34860030098088 18.0163270449649 78.6516259712725
endloop
endfacet
facet normal 0.0 -0.277314653302378 -0.960779154157594
outer loop
vertex -9.34860030098088 18.0163270449649 78.6516259712725
vertex -9.69584907763018 66.3199370521097 64.7095053450922
vertex -6.35051460927848 77.3708454004311 61.5198245490115
endloop
endfacet
facet normal 0.0 -0.277314653302378 -0.960779154157594
outer loop
vertex -9.34860030098088 18.0163270449649 78.6516259712725
vertex -6.35051460927848 77.3708454004311 61.5198245490115
vertex -6.4009900063604 14.6814353007986 79.6141930126497
endloop
endfacet
facet normal 0.0 -0.277314653302378 -0.960779154157594
outer loop
vertex -6.4009900063604 14.6814353007986 79.6141930126497
vertex -6.35051460927848 77.3708454004311 61.5198245490115
vertex -2.66592162514411 11.6399190306933 80.4920815745611
endloop
endfacet
facet normal 0.0 -0.277314653302378 -0.960779154157594
outer loop
vertex -2.66592162514411 11.6399190306933 80.4920815745611
vertex -6.35051460927848 77.3708454004311 61.5198245490115
vertex -2.0506993748492 87.2491274925796 58.668604930275
endloop
endfacet
facet normal 0.0 -0.277314653302378 -0.960779154157594
outer loop
vertex -2.66592162514411 11.6399190306933 80.4920815745611
vertex -2.0506993748492 87.2491274925796 58.668604930275
vertex 0.0 10.0483782721871 80.9514562099828
endloop
endfacet
facet normal 0.0 -0.277314653302378 -0.960779154157594
outer loop
vertex 0.0 10.0483782721871 80.9514562099828
vertex -2.0506993748492 87.2491274925796 58.668604930275
vertex -1.12798659301916e-14 90.6361116464068 57.6910021874441
endloop
endfacet
facet normal 0.0 -0.277314653302378 -0.960779154157594
outer loop
vertex 0.0 10.0483782721871 80.9514562099828
vertex -1.12798659301916e-14 90.6361116464068 57.6910021874441
vertex 2.0506993748492 87.2491274925796 58.668604930275
endloop
endfacet
facet normal 0.0 -0.277314653302378 -0.960779154157594
outer loop
vertex 0.0 10.0483782721871 80.9514562099828
vertex 2.0506993748492 87.2491274925796 58.668604930275
vertex 2.66592162514406 11.6399190306933 80.4920815745611
endloop
endfacet
facet normal 0.0 -0.277314653302378 -0.960779154157594
outer loop
vertex 2.66592162514406 11.6399190306933 80.4920815745611
vertex 2.0506993748492 87.2491274925796 58.668604930275
vertex 6.35051460927841 77.3708454004311 61.5198245490115
endloop
endfacet
facet normal 0.0 -0.277314653302378 -0.960779154157594
outer loop
vertex 2.66592162514406 11.6399190306933 80.4920815745611
vertex 6.35051460927841 77.3708454004311 61.5198245490115
vertex 6.40099000636042 14.6814353007986 79.6141930126497
endloop
endfacet
facet normal 0.0 -0.277314653302378 -0.960779154157594
outer loop
vertex 6.40099000636042 14.6814353007986 79.6141930126497
vertex 6.35051460927841 77.3708454004311 61.5198245490115
vertex 9.69584907763011 66.31993705211 64.7095053450921
endloop
endfacet
facet normal 0.0 -0.277314653302378 -0.960779154157594
outer loop
vertex 6.40099000636042 14.6814353007986 79.6141930126497
vertex 9.69584907763011 66.31993705211 64.7095053450921
vertex 9.34860030098086 18.0163270449648 78.6516259712726
endloop
endfacet
facet normal 0.0 -0.277314653302378 -0.960779154157594
outer loop
vertex 9.34860030098086 18.0163270449648 78.6516259712726
vertex 9.69584907763011 66.31993705211 64.7095053450921
vertex 11.4636842875042 21.5496351852783 77.6317889799083
endloop
endfacet
facet normal 0.0 -0.277314653302378 -0.960779154157594
outer loop
vertex 11.4636842875042 21.5496351852783 77.6317889799083
vertex 9.69584907763011 66.31993705211 64.7095053450921
vertex 11.9867117527412 54.3770531208353 68.1566416640893
endloop
endfacet
facet normal 0.0 -0.277314653302378 -0.960779154157594
outer loop
vertex 11.4636842875042 21.5496351852783 77.6317889799083
vertex 11.9867117527412 54.3770531208353 68.1566416640893
vertex 12.7307174231495 25.1972465124026 76.578960068929
endloop
endfacet
facet normal 0.0 -0.277314653302378 -0.960779154157594
outer loop
vertex 12.7307174231495 25.1972465124026 76.578960068929
vertex 11.9867117527412 54.3770531208353 68.1566416640893
vertex 13.156756835752 41.8434508776416 71.7742800627374
endloop
endfacet
facet normal 0.0 -0.277314653302378 -0.960779154157594
outer loop
vertex 12.7307174231495 25.1972465124026 76.578960068929
vertex 13.156756835752 41.8434508776416 71.7742800627374
vertex 13.1721809098056 29.0720530792853 75.4605546215806
endloop
endfacet
facet normal 0.989052924106581 -0.101632792737491 0.106981721600469
outer loop
vertex 20.255680767693 11.1125 5.96118001753374
vertex 20.8026000000003 10.1600000000003 0.0
vertex 20.4046043496753 11.1125 4.46242262984237
endloop
endfacet
facet normal 0.996066728523319 0.0011159363300182 0.0885992495169182
outer loop
vertex 20.4046043496753 11.1125 4.46242262984237
vertex 20.8026000000003 10.1600000000003 0.0
vertex 20.8015328733471 11.1125 0.0
endloop
endfacet
facet normal -0.988178554439532 0.133181767718938 0.0759326102083725
outer loop
vertex -11.1953110428503 56.9479230275252 81.4149430923587
vertex -19.5712614336293 31.4325 10.16
vertex -19.5287888042567 31.4325 10.6507927480342
endloop
endfacet
facet normal -0.992588957982849 0.0859580274575278 0.0858974854470878
outer loop
vertex -19.5712614336293 31.4325 10.16
vertex -11.1953110428503 56.9479230275252 81.4149430923587
vertex -18.2923351758609 46.2007318811062 10.16
endloop
endfacet
facet normal 0.991774103911059 0.0983784712031368 0.0818889688245614
outer loop
vertex 18.4800585351152 44.5203807345223 10.16
vertex 12.3215725268155 43.4149419936342 86.0747221524526
vertex 19.7843004346899 29.4598198265124 10.16
endloop
endfacet
facet normal 0.991774103911059 0.0983784712031368 0.0818889688245614
outer loop
vertex 18.4800585351152 44.5203807345223 10.16
vertex 11.1953110428503 56.9479230275251 81.4149430923587
vertex 12.3215725268155 43.4149419936342 86.0747221524526
endloop
endfacet
facet normal 0.987726836275634 0.135795498646027 0.0771704570959864
outer loop
vertex 11.1953110428503 56.9479230275251 81.4149430923587
vertex 18.4800585351152 44.5203807345223 10.16
vertex 18.2923351758609 46.2007318811062 10.16
endloop
endfacet
facet normal 0.994916736421299 0.0499425212151094 0.0874438800801359
outer loop
vertex 12.7000000000001 29.5514845393324 90.8482933696352
vertex 19.8964474136764 12.3286426416183 10.16
vertex 19.879101564705 27.8112670294138 10.16
endloop
endfacet
facet normal 0.993939344032324 0.0698774020571626 0.0848630017518601
outer loop
vertex 19.7843004346899 29.4598198265124 10.16
vertex 12.7000000000001 29.5514845393324 90.8482933696352
vertex 19.879101564705 27.8112670294138 10.16
endloop
endfacet
facet normal 0.994916736421299 0.0499425212151094 0.0874438800801359
outer loop
vertex 12.7000000000001 29.5514845393324 90.8482933696352
vertex 19.7843004346899 29.4598198265124 10.16
vertex 12.3215725268155 43.4149419936342 86.0747221524526
endloop
endfacet
facet normal -0.99567975520301 0.0476467468130752 0.0796970049437556
outer loop
vertex -20.5596833631362 11.1125 2.46538312608885
vertex -20.8026000000003 10.1600000000005 0.0
vertex -20.4046043496754 11.1125 4.46242262984124
endloop
endfacet
facet normal -0.9952222097933 0.00111499017942211 0.097629452170134
outer loop
vertex -20.8015328733471 11.1125 0.0
vertex -20.8026000000003 10.1600000000005 0.0
vertex -20.5596833631362 11.1125 2.46538312608885
endloop
endfacet
facet normal -0.988178554439532 0.133181767718938 0.0759326102083725
outer loop
vertex -11.1953110428503 56.9479230275252 81.4149430923587
vertex -17.9902321803274 47.988934762557 10.16
vertex -18.2923351758609 46.2007318811062 10.16
endloop
endfacet
facet normal -0.982910006348683 0.169544316795802 0.0717122309085254
outer loop
vertex -17.9902321803274 47.988934762557 10.16
vertex -11.1953110428503 56.9479230275252 81.4149430923587
vertex -9.34806331424734 69.8278291013316 76.9800357745699
endloop
endfacet
facet normal -0.974780156398033 0.211990534134891 -0.0697399464427022
outer loop
vertex 12.7307174231495 25.1972465124026 76.578960068929
vertex 13.9871231899345 11.1125 10.16
vertex 14.1003316736302 8.73430013828378 0.0
endloop
endfacet
facet normal -0.93927586968971 0.331661444673128 -0.0880995274446605
outer loop
vertex 13.9871231899345 11.1125 10.16
vertex 12.7307174231495 25.1972465124026 76.578960068929
vertex 15.270305746439 14.7465142367747 10.16
endloop
endfacet
facet normal -0.93927586968971 0.331661444673128 -0.0880995274446605
outer loop
vertex 14.9400819826835 11.1125 0.0
vertex 14.1003316736302 8.73430013828378 0.0
vertex 13.9871231899345 11.1125 10.16
endloop
endfacet
facet normal -0.997967182753461 -0.0527306725203311 -0.0357907575035098
outer loop
vertex 13.156756835752 41.8434508776416 71.7742800627374
vertex 15.5573052143804 36.4331289841374 10.16
vertex 15.7544581701013 34.5004964397402 10.16
endloop
endfacet
facet normal -0.994651502789883 -0.0986118259398617 -0.0307261416815521
outer loop
vertex 15.5573052143804 36.4331289841374 10.16
vertex 13.156756835752 41.8434508776416 71.7742800627374
vertex 11.9867117527412 54.3770531208353 68.1566416640893
endloop
endfacet
facet normal -0.989471182160672 -0.14220936604764 -0.0268937889091564
outer loop
vertex 11.9867117527412 54.3770531208353 68.1566416640893
vertex 14.3326823307307 49.3379883797417 10.16
vertex 15.5573052143804 36.4331289841374 10.16
endloop
endfacet
facet normal 0.99466597227269 -0.0983632500290486 -0.0310527719623782
outer loop
vertex -14.5190222033149 47.5193021933426 10.16
vertex -13.156756835752 41.8434508776425 71.7742800627372
vertex -15.7544581701013 34.5004964397412 10.16
endloop
endfacet
facet normal 0.999162303231889 -0.00728019672412154 -0.0402702189713949
outer loop
vertex -15.7774600470544 32.7218075070875 10.16
vertex -15.1699708864788 31.4325 25.4
vertex -15.7790428964199 31.4325 10.16
endloop
endfacet
facet normal 0.999201588818308 -0.00122669385864598 -0.0399334461967112
outer loop
vertex -15.1699708864788 31.4325 25.4
vertex -13.1721809098056 29.0720530792854 75.4605546215805
vertex -15.1820195281714 21.6182975096929 25.4
endloop
endfacet
facet normal 0.999116389828085 -0.011265363029872 -0.040491124616385
outer loop
vertex -13.1721809098056 29.0720530792854 75.4605546215805
vertex -15.1699708864788 31.4325 25.4
vertex -15.7774600470544 32.7218075070875 10.16
endloop
endfacet
facet normal 0.999162303231889 -0.00728019672412154 -0.0402702189713949
outer loop
vertex -15.7774600470544 32.7218075070875 10.16
vertex -13.156756835752 41.8434508776425 71.7742800627372
vertex -13.1721809098056 29.0720530792854 75.4605546215805
endloop
endfacet
facet normal 0.997960031885744 -0.052424295356029 -0.036434434468352
outer loop
vertex -13.156756835752 41.8434508776425 71.7742800627372
vertex -15.7774600470544 32.7218075070875 10.16
vertex -15.7544581701013 34.5004964397412 10.16
endloop
endfacet
facet normal -0.993705287736622 0.0984179155655817 -0.0535136900241818
outer loop
vertex 13.1721809098056 29.0720530792853 75.4605546215806
vertex 15.7938773227051 19.3491409703918 10.16
vertex 15.3239867007488 15.2919111407967 10.16
endloop
endfacet
facet normal 0.970224799800659 -0.241344538910452 -0.0204120403162756
outer loop
vertex -11.9258943654851 62.9060330259368 0.0
vertex -13.366602307345 54.2925 10.16
vertex -13.6054468269439 54.2925 0.0
endloop
endfacet
facet normal 0.981253760917938 -0.191334631736219 -0.0230676262924249
outer loop
vertex -13.366602307345 54.2925 10.16
vertex -11.9258943654851 62.9060330259368 0.0
vertex -11.9867117527412 54.3770531208354 68.1566416640892
endloop
endfacet
facet normal 0.989361848489404 -0.142774027427582 -0.0279053730621462
outer loop
vertex -11.9867117527412 54.3770531208354 68.1566416640892
vertex -14.3326823307307 49.3379883797418 10.16
vertex -13.366602307345 54.2925 10.16
endloop
endfacet
facet normal -0.989471182160672 -0.14220936604764 -0.0268937889091564
outer loop
vertex 11.9867117527412 54.3770531208353 68.1566416640893
vertex 13.9511024525775 51.2601585647924 10.16
vertex 14.3326823307307 49.3379883797417 10.16
endloop
endfacet
facet normal -0.980867684019805 -0.193294126061243 -0.0231509670606708
outer loop
vertex 13.9511024525775 51.2601585647924 10.16
vertex 11.9867117527412 54.3770531208353 68.1566416640893
vertex 9.69584907763011 66.31993705211 64.7095053450921
endloop
endfacet
facet normal -0.997967182753461 -0.0527306725203311 -0.0357907575035098
outer loop
vertex 13.156756835752 41.8434508776416 71.7742800627374
vertex 15.7774600470545 32.7218075070866 10.16
vertex 13.1721809098056 29.0720530792853 75.4605546215806
endloop
endfacet
facet normal -0.999162303231889 -0.00728019672411662 -0.0402702189713955
outer loop
vertex 15.7774600470545 32.7218075070866 10.16
vertex 13.156756835752 41.8434508776416 71.7742800627374
vertex 15.7544581701013 34.5004964397402 10.16
endloop
endfacet
facet normal -0.999162303231889 -0.00728019672411662 -0.0402702189713955
outer loop
vertex 15.7774600470545 32.7218075070866 10.16
vertex 15.7938773227051 19.3491409703918 10.16
vertex 13.1721809098056 29.0720530792853 75.4605546215806
endloop
endfacet
facet normal -0.974780156398033 0.211990534134891 -0.0697399464427022
outer loop
vertex 12.7307174231495 25.1972465124026 76.578960068929
vertex 15.3239867007488 15.2919111407967 10.16
vertex 15.270305746439 14.7465142367747 10.16
endloop
endfacet
facet normal -0.992928952711462 0.105238201526635 -0.0549273684674434
outer loop
vertex 15.3239867007488 15.2919111407967 10.16
vertex 12.7307174231495 25.1972465124026 76.578960068929
vertex 13.1721809098056 29.0720530792853 75.4605546215806
endloop
endfacet
facet normal 0.99466597227269 -0.0983632500290486 -0.0310527719623782
outer loop
vertex -14.5190222033149 47.5193021933426 10.16
vertex -11.9867117527412 54.3770531208354 68.1566416640892
vertex -13.156756835752 41.8434508776425 71.7742800627372
endloop
endfacet
facet normal 0.989361848489404 -0.142774027427582 -0.0279053730621462
outer loop
vertex -11.9867117527412 54.3770531208354 68.1566416640892
vertex -14.5190222033149 47.5193021933426 10.16
vertex -14.3326823307307 49.3379883797418 10.16
endloop
endfacet
facet normal 0.993981585859992 -0.0473893340939686 0.0987666845924564
outer loop
vertex 19.8964474136764 12.3286426416183 10.16
vertex 12.3215725268157 24.930332054565 92.4394837753628
vertex 19.8704524413126 11.7834034153531 10.16
endloop
endfacet
facet normal 0.984809940273702 -0.130527507996239 0.114507428555525
outer loop
vertex 12.3215725268157 24.930332054565 92.4394837753628
vertex 19.8964474136764 12.3286426416183 10.16
vertex 12.7000000000001 29.5514845393324 90.8482933696352
endloop
endfacet
facet normal -3.19418226983927e-15 -1.0 -9.59000805609006e-16
outer loop
vertex -13.366602307345 54.2925 10.16
vertex -17.5917243526351 54.2925 0.0
vertex -13.6054468269439 54.2925 0.0
endloop
endfacet
facet normal -3.19418226983927e-15 -1.0 -9.59000805609006e-16
outer loop
vertex -17.5917243526351 54.2925 0.0
vertex -13.366602307345 54.2925 10.16
vertex -16.8685588080548 54.2925 10.16
endloop
endfacet
facet normal 0.0 0.0 -1.0
outer loop
vertex -16.4014684979203 60.9814841685745 0.0
vertex -13.6054468269439 54.2925 0.0
vertex -17.5917243526351 54.2925 0.0
endloop
endfacet
facet normal 0.0 0.0 -1.0
outer loop
vertex -13.6054468269439 54.2925 0.0
vertex -16.4014684979203 60.9814841685745 0.0
vertex -12.1438453590159 76.1427455726984 0.0
endloop
endfacet
facet normal 0.0 0.0 -1.0
outer loop
vertex -13.6054468269439 54.2925 0.0
vertex -12.1438453590159 76.1427455726984 0.0
vertex -11.9258943654851 62.9060330259368 0.0
endloop
endfacet
facet normal 0.0 0.0 -1.0
outer loop
vertex -11.9258943654851 62.9060330259368 0.0
vertex -12.1438453590159 76.1427455726984 0.0
vertex -6.63289930559146 89.7906972512654 0.0
endloop
endfacet
facet normal 0.0 0.0 -1.0
outer loop
vertex -11.9258943654851 62.9060330259368 0.0
vertex -6.63289930559146 89.7906972512654 0.0
vertex -7.81113296941252 76.277550086328 0.0
endloop
endfacet
facet normal 0.0 0.0 -1.0
outer loop
vertex -7.81113296941252 76.277550086328 0.0
vertex -6.63289930559146 89.7906972512654 0.0
vertex -2.52236023106451 88.2301980822355 0.0
endloop
endfacet
facet normal 0.0 0.0 -1.0
outer loop
vertex -2.52236023106451 88.2301980822355 0.0
vertex -6.63289930559146 89.7906972512654 0.0
vertex -2.25597318603832e-14 101.6 0.0
endloop
endfacet
facet normal 0.0 0.0 -1.0
outer loop
vertex -2.52236023106451 88.2301980822355 0.0
vertex -2.25597318603832e-14 101.6 0.0
vertex -1.69197988952874e-14 92.3284237636613 0.0
endloop
endfacet
facet normal 0.0 0.0 -1.0
outer loop
vertex -1.69197988952874e-14 92.3284237636613 0.0
vertex -2.25597318603832e-14 101.6 0.0
vertex 6.63289930559144 89.7906972512654 0.0
endloop
endfacet
facet normal 0.0 0.0 -1.0
outer loop
vertex -1.69197988952874e-14 92.3284237636613 0.0
vertex 6.63289930559144 89.7906972512654 0.0
vertex 2.52236023106451 88.2301980822355 0.0
endloop
endfacet
facet normal 0.0 0.0 -1.0
outer loop
vertex 2.52236023106451 88.2301980822355 0.0
vertex 6.63289930559144 89.7906972512654 0.0
vertex 7.81113296941244 76.277550086328 0.0
endloop
endfacet
facet normal 0.0 0.0 -1.0
outer loop
vertex 7.81113296941244 76.277550086328 0.0
vertex 6.63289930559144 89.7906972512654 0.0
vertex 12.1438453590158 76.1427455726983 0.0
endloop
endfacet
facet normal 0.0 0.0 -1.0
outer loop
vertex 7.81113296941244 76.277550086328 0.0
vertex 12.1438453590158 76.1427455726983 0.0
vertex 11.925894365485 62.9060330259372 0.0
endloop
endfacet
facet normal 0.0 0.0 -1.0
outer loop
vertex 11.925894365485 62.9060330259372 0.0
vertex 12.1438453590158 76.1427455726983 0.0
vertex 13.6054468269438 54.2925 0.0
endloop
endfacet
facet normal 0.0 0.0 -1.0
outer loop
vertex 13.6054468269438 54.2925 0.0
vertex 12.1438453590158 76.1427455726983 0.0
vertex 16.4014684979203 60.9814841685745 0.0
endloop
endfacet
facet normal 0.0 0.0 -1.0
outer loop
vertex 13.6054468269438 54.2925 0.0
vertex 16.4014684979203 60.9814841685745 0.0
vertex 17.5917243526351 54.2925 0.0
endloop
endfacet
facet normal 0.0 1.0 0.0
outer loop
vertex 13.9871231899345 11.1125 10.16
vertex 20.8015328733471 11.1125 0.0
vertex 14.9400819826835 11.1125 0.0
endloop
endfacet
facet normal 0.0 1.0 0.0
outer loop
vertex 20.8015328733471 11.1125 0.0
vertex 13.9871231899345 11.1125 10.16
vertex 20.4046043496753 11.1125 4.46242262984237
endloop
endfacet
facet normal 0.0 1.0 0.0
outer loop
vertex 20.4046043496753 11.1125 4.46242262984237
vertex 13.9871231899345 11.1125 10.16
vertex 20.255680767693 11.1125 5.96118001753374
endloop
endfacet
facet normal 0.0 1.0 0.0
outer loop
vertex 20.255680767693 11.1125 5.96118001753374
vertex 13.9871231899345 11.1125 10.16
vertex 19.7995444670846 11.1125 10.16
endloop
endfacet
facet normal 3.07189005716947e-17 -3.59406860228279e-18 -1.0
outer loop
vertex 16.8524641676805 54.2925 10.16
vertex 13.9511024525775 51.2601585647924 10.16
vertex 13.359826316972 54.2925 10.16
endloop
endfacet
facet normal 3.07189005716947e-17 -3.59406860228279e-18 -1.0
outer loop
vertex 13.9511024525775 51.2601585647924 10.16
vertex 16.8524641676805 54.2925 10.16
vertex 14.3326823307307 49.3379883797417 10.16
endloop
endfacet
facet normal 3.07189005716947e-17 -3.59406860228279e-18 -1.0
outer loop
vertex 14.3326823307307 49.3379883797417 10.16
vertex 16.8524641676805 54.2925 10.16
vertex 15.5573052143804 36.4331289841374 10.16
endloop
endfacet
facet normal 3.07189005716947e-17 -3.59406860228279e-18 -1.0
outer loop
vertex 15.5573052143804 36.4331289841374 10.16
vertex 16.8524641676805 54.2925 10.16
vertex 15.7544581701013 34.5004964397402 10.16
endloop
endfacet
facet normal 3.07189005716947e-17 -3.59406860228279e-18 -1.0
outer loop
vertex 15.7544581701013 34.5004964397402 10.16
vertex 16.8524641676805 54.2925 10.16
vertex 15.7774600470545 32.7218075070866 10.16
endloop
endfacet
facet normal 3.07189005716947e-17 -3.59406860228279e-18 -1.0
outer loop
vertex 15.7774600470545 32.7218075070866 10.16
vertex 16.8524641676805 54.2925 10.16
vertex 15.7938773227051 19.3491409703918 10.16
endloop
endfacet
facet normal 3.07189005716947e-17 -3.59406860228279e-18 -1.0
outer loop
vertex 15.270305746439 14.7465142367747 10.16
vertex 19.7995444670846 11.1125 10.16
vertex 13.9871231899345 11.1125 10.16
endloop
endfacet
facet normal 3.07189005716947e-17 -3.59406860228279e-18 -1.0
outer loop
vertex 19.7995444670846 11.1125 10.16
vertex 15.270305746439 14.7465142367747 10.16
vertex 15.3239867007488 15.2919111407967 10.16
endloop
endfacet
facet normal 3.07189005716947e-17 -3.59406860228279e-18 -1.0
outer loop
vertex 19.7995444670846 11.1125 10.16
vertex 15.3239867007488 15.2919111407967 10.16
vertex 15.7938773227051 19.3491409703918 10.16
endloop
endfacet
facet normal 3.07189005716947e-17 -3.59406860228279e-18 -1.0
outer loop
vertex 19.7995444670846 11.1125 10.16
vertex 15.7938773227051 19.3491409703918 10.16
vertex 16.8524641676805 54.2925 10.16
endloop
endfacet
facet normal 3.07189005716947e-17 -3.59406860228279e-18 -1.0
outer loop
vertex 19.7995444670846 11.1125 10.16
vertex 16.8524641676805 54.2925 10.16
vertex 18.2923351758609 46.2007318811062 10.16
endloop
endfacet
facet normal 3.07189005716947e-17 -3.59406860228279e-18 -1.0
outer loop
vertex 19.7995444670846 11.1125 10.16
vertex 18.2923351758609 46.2007318811062 10.16
vertex 18.4800585351152 44.5203807345223 10.16
endloop
endfacet
facet normal 3.07189005716947e-17 -3.59406860228279e-18 -1.0
outer loop
vertex 19.7995444670846 11.1125 10.16
vertex 18.4800585351152 44.5203807345223 10.16
vertex 19.7843004346899 29.4598198265124 10.16
endloop
endfacet
facet normal 3.07189005716947e-17 -3.59406860228279e-18 -1.0
outer loop
vertex 19.7995444670846 11.1125 10.16
vertex 19.7843004346899 29.4598198265124 10.16
vertex 19.879101564705 27.8112670294138 10.16
endloop
endfacet
facet normal 3.07189005716947e-17 -3.59406860228279e-18 -1.0
outer loop
vertex 19.7995444670846 11.1125 10.16
vertex 19.879101564705 27.8112670294138 10.16
vertex 19.8704524413126 11.7834034153531 10.16
endloop
endfacet
facet normal 3.07189005716947e-17 -3.59406860228279e-18 -1.0
outer loop
vertex 19.8704524413126 11.7834034153531 10.16
vertex 19.879101564705 27.8112670294138 10.16
vertex 19.8964474136764 12.3286426416183 10.16
endloop
endfacet
facet normal -3.31767639264922e-31 -1.0 -2.22044604925031e-15
outer loop
vertex 16.8524641676805 54.2925 10.16
vertex 13.6054468269438 54.2925 0.0
vertex 17.5917243526351 54.2925 0.0
endloop
endfacet
facet normal -3.31767639264922e-31 -1.0 -2.22044604925031e-15
outer loop
vertex 13.6054468269438 54.2925 0.0
vertex 16.8524641676805 54.2925 10.16
vertex 13.359826316972 54.2925 10.16
endloop
endfacet
facet normal -0.994100474525507 -0.0505882146343229 0.0959431033908835
outer loop
vertex -12.7000000000001 29.5514845393326 90.8482933696352
vertex -18.5372185341907 15.5816066040455 25.4
vertex -18.0906602932307 11.3564478362776 25.4
endloop
endfacet
facet normal -0.994018139884765 0.0758510746062845 0.0785783180088716
outer loop
vertex -12.3215725268156 43.4149419936342 86.0747221524526
vertex -18.2870746338279 31.4325 25.4
vertex -18.2999128877799 19.9732820590728 25.4
endloop
endfacet
facet normal -0.9952222097933 0.00111499017942123 0.097629452170134
outer loop
vertex -18.2870746338279 31.4325 25.4
vertex -12.3215725268156 43.4149419936342 86.0747221524526
vertex -18.7293777183069 31.4325 20.8912186502234
endloop
endfacet
facet normal -0.99555480057611 0.0537951353435335 0.0773092650542864
outer loop
vertex -12.7000000000001 29.5514845393326 90.8482933696352
vertex -18.2999128877799 19.9732820590728 25.4
vertex -18.5372185341907 15.5816066040455 25.4
endloop
endfacet
facet normal -0.995802595950497 0.0336543793933997 0.0851150553421427
outer loop
vertex -18.2999128877799 19.9732820590728 25.4
vertex -12.7000000000001 29.5514845393326 90.8482933696352
vertex -12.3215725268156 43.4149419936342 86.0747221524526
endloop
endfacet
facet normal -0.993878337255448 -0.0534133474766546 0.0967102116928881
outer loop
vertex -18.1629349435159 11.1125 24.5225096263257
vertex -20.8026000000003 10.1600000000005 0.0
vertex -20.1827357989241 4.29508827343194 0.0
endloop
endfacet
facet normal -0.988376836550354 -0.104461831092023 0.110448878743142
outer loop
vertex -20.8026000000003 10.1600000000005 0.0
vertex -18.1629349435159 11.1125 24.5225096263257
vertex -20.4046043496754 11.1125 4.46242262984124
endloop
endfacet
facet normal -0.988376836550354 -0.104461831092023 0.110448878743142
outer loop
vertex -20.4046043496754 11.1125 4.46242262984124
vertex -18.1629349435159 11.1125 24.5225096263257
vertex -19.7679129493764 11.1125 10.16
endloop
endfacet
facet normal 0.939394751538539 0.331703422250749 -0.0866622204249828
outer loop
vertex -14.9400819826835 11.1125 0.0
vertex -13.6110370569788 11.1125 14.4064832592957
vertex -14.1003316736302 8.7343001382839 0.0
endloop
endfacet
facet normal 0.871204729451944 0.478752366302257 -0.108620859601436
outer loop
vertex -13.6110370569788 11.1125 14.4064832592957
vertex -14.9400819826835 11.1125 0.0
vertex -14.0027889457831 11.1125 10.16
endloop
endfacet
facet normal -0.994018139884765 0.0758510746062845 0.0785783180088716
outer loop
vertex -12.3215725268156 43.4149419936342 86.0747221524526
vertex -19.5287888042567 31.4325 10.6507927480342
vertex -18.7293777183069 31.4325 20.8912186502234
endloop
endfacet
facet normal -0.992445293592386 0.0885104245622084 0.0849602493530985
outer loop
vertex -19.5287888042567 31.4325 10.6507927480342
vertex -12.3215725268156 43.4149419936342 86.0747221524526
vertex -11.1953110428503 56.9479230275252 81.4149430923587
endloop
endfacet
facet normal 0.849644471595085 0.515294226579966 -0.112143354423094
outer loop
vertex -12.8828640874059 11.1125 20.1517715784678
vertex -14.1003316736302 8.7343001382839 0.0
vertex -13.6110370569788 11.1125 14.4064832592957
endloop
endfacet
facet normal -1.0462418012769e-16 -1.33066166562917e-17 -1.0
outer loop
vertex -18.2923351758609 46.2007318811062 10.16
vertex -15.7790428964199 31.4325 10.16
vertex -19.5712614336293 31.4325 10.16
endloop
endfacet
facet normal -1.0462418012769e-16 -1.33066166562917e-17 -1.0
outer loop
vertex -15.7790428964199 31.4325 10.16
vertex -18.2923351758609 46.2007318811062 10.16
vertex -17.9902321803274 47.988934762557 10.16
endloop
endfacet
facet normal -1.0462418012769e-16 -1.33066166562917e-17 -1.0
outer loop
vertex -15.7790428964199 31.4325 10.16
vertex -17.9902321803274 47.988934762557 10.16
vertex -16.8685588080548 54.2925 10.16
endloop
endfacet
facet normal -1.0462418012769e-16 -1.33066166562917e-17 -1.0
outer loop
vertex -15.7790428964199 31.4325 10.16
vertex -16.8685588080548 54.2925 10.16
vertex -15.7774600470544 32.7218075070875 10.16
endloop
endfacet
facet normal -1.0462418012769e-16 -1.33066166562917e-17 -1.0
outer loop
vertex -15.7774600470544 32.7218075070875 10.16
vertex -16.8685588080548 54.2925 10.16
vertex -15.7544581701013 34.5004964397412 10.16
endloop
endfacet
facet normal -1.0462418012769e-16 -1.33066166562917e-17 -1.0
outer loop
vertex -15.7544581701013 34.5004964397412 10.16
vertex -16.8685588080548 54.2925 10.16
vertex -14.5190222033149 47.5193021933426 10.16
endloop
endfacet
facet normal -1.0462418012769e-16 -1.33066166562917e-17 -1.0
outer loop
vertex -14.5190222033149 47.5193021933426 10.16
vertex -16.8685588080548 54.2925 10.16
vertex -14.3326823307307 49.3379883797418 10.16
endloop
endfacet
facet normal -1.0462418012769e-16 -1.33066166562917e-17 -1.0
outer loop
vertex -14.3326823307307 49.3379883797418 10.16
vertex -16.8685588080548 54.2925 10.16
vertex -13.366602307345 54.2925 10.16
endloop
endfacet
facet normal 0.90873674250787 0.405563877307569 -0.0985671052605099
outer loop
vertex -11.4636842875043 21.5496351852784 77.6317889799083
vertex -13.2376587340058 12.927292654248 25.4
vertex -14.2862069142893 15.8968147972816 25.4
endloop
endfacet
facet normal 0.972896657666098 0.219815341028617 -0.0717865541073509
outer loop
vertex -14.6875907203867 17.1444614451515 25.4
vertex -11.4636842875043 21.5496351852784 77.6317889799083
vertex -14.2862069142893 15.8968147972816 25.4
endloop
endfacet
facet normal 0.90873674250787 0.405563877307569 -0.0985671052605099
outer loop
vertex -11.4636842875043 21.5496351852784 77.6317889799083
vertex -14.6875907203867 17.1444614451515 25.4
vertex -12.7307174231495 25.1972465124027 76.578960068929
endloop
endfacet
facet normal 0.974811944951022 0.21142040523188 -0.0710146761760845
outer loop
vertex -12.7307174231495 25.1972465124027 76.578960068929
vertex -14.6875907203867 17.1444614451515 25.4
vertex -15.050486479564 20.2778534099407 25.4
endloop
endfacet
facet normal 0.993745513057061 0.0975127399169257 -0.0544161817187993
outer loop
vertex -15.1820195281714 21.6182975096929 25.4
vertex -12.7307174231495 25.1972465124027 76.578960068929
vertex -15.050486479564 20.2778534099407 25.4
endloop
endfacet
facet normal 0.974811944951022 0.21142040523188 -0.0710146761760845
outer loop
vertex -12.7307174231495 25.1972465124027 76.578960068929
vertex -15.1820195281714 21.6182975096929 25.4
vertex -13.1721809098056 29.0720530792854 75.4605546215805
endloop
endfacet
facet normal 0.903165707829851 0.41757639279837 -0.0996075317318264
outer loop
vertex -13.2376587340058 12.927292654248 25.4
vertex -9.34860030098088 18.0163270449649 78.6516259712725
vertex -12.565792808415 11.7318666922902 25.4
endloop
endfacet
facet normal 0.813327188878692 0.569021415679805 -0.121299267633549
outer loop
vertex -9.34860030098088 18.0163270449649 78.6516259712725
vertex -13.2376587340058 12.927292654248 25.4
vertex -11.4636842875043 21.5496351852784 77.6317889799083
endloop
endfacet
facet normal 0.0 -1.0 0.0
outer loop
vertex -15.7790428964199 31.4325 10.16
vertex -19.5287888042567 31.4325 10.6507927480342
vertex -19.5712614336293 31.4325 10.16
endloop
endfacet
facet normal 0.0 -1.0 0.0
outer loop
vertex -19.5287888042567 31.4325 10.6507927480342
vertex -15.7790428964199 31.4325 10.16
vertex -15.1699708864788 31.4325 25.4
endloop
endfacet
facet normal 0.0 -1.0 0.0
outer loop
vertex -19.5287888042567 31.4325 10.6507927480342
vertex -15.1699708864788 31.4325 25.4
vertex -18.7293777183069 31.4325 20.8912186502234
endloop
endfacet
facet normal 0.0 -1.0 0.0
outer loop
vertex -18.7293777183069 31.4325 20.8912186502234
vertex -15.1699708864788 31.4325 25.4
vertex -18.2870746338279 31.4325 25.4
endloop
endfacet
facet normal -4.07474201604196e-17 1.0 3.63736916536164e-18
outer loop
vertex -20.5596833631362 11.1125 2.46538312608885
vertex -14.9400819826835 11.1125 0.0
vertex -20.8015328733471 11.1125 0.0
endloop
endfacet
facet normal -4.07474201604196e-17 1.0 3.63736916536164e-18
outer loop
vertex -14.9400819826835 11.1125 0.0
vertex -20.5596833631362 11.1125 2.46538312608885
vertex -14.0027889457831 11.1125 10.16
endloop
endfacet
facet normal -4.07474201604196e-17 1.0 3.63736916536164e-18
outer loop
vertex -14.0027889457831 11.1125 10.16
vertex -20.5596833631362 11.1125 2.46538312608885
vertex -20.4046043496754 11.1125 4.46242262984124
endloop
endfacet
facet normal -4.07474201604196e-17 1.0 3.63736916536164e-18
outer loop
vertex -14.0027889457831 11.1125 10.16
vertex -20.4046043496754 11.1125 4.46242262984124
vertex -19.7679129493764 11.1125 10.16
endloop
endfacet
facet normal -4.07474201604196e-17 1.0 3.63736916536164e-18
outer loop
vertex -14.0027889457831 11.1125 10.16
vertex -19.7679129493764 11.1125 10.16
vertex -13.6110370569788 11.1125 14.4064832592957
endloop
endfacet
facet normal -4.07474201604196e-17 1.0 3.63736916536164e-18
outer loop
vertex -13.6110370569788 11.1125 14.4064832592957
vertex -19.7679129493764 11.1125 10.16
vertex -18.1629349435159 11.1125 24.5225096263257
endloop
endfacet
facet normal -4.07474201604196e-17 1.0 3.63736916536164e-18
outer loop
vertex -13.6110370569788 11.1125 14.4064832592957
vertex -18.1629349435159 11.1125 24.5225096263257
vertex -12.8828640874059 11.1125 20.1517715784678
endloop
endfacet
facet normal -4.07474201604196e-17 1.0 3.63736916536164e-18
outer loop
vertex -12.8828640874059 11.1125 20.1517715784678
vertex -18.1629349435159 11.1125 24.5225096263257
vertex -12.1889012975168 11.1125 25.4
endloop
endfacet
facet normal -4.07474201604196e-17 1.0 3.63736916536164e-18
outer loop
vertex -12.1889012975168 11.1125 25.4
vertex -18.1629349435159 11.1125 24.5225096263257
vertex -18.0787426627385 11.1125 25.4
endloop
endfacet
facet normal -2.76049148334919e-16 -8.65150758850443e-17 -1.0
outer loop
vertex -18.2999128877799 19.9732820590728 25.4
vertex -18.0906602932307 11.3564478362776 25.4
vertex -18.5372185341907 15.5816066040455 25.4
endloop
endfacet
facet normal -2.76049148334919e-16 -8.65150758850443e-17 -1.0
outer loop
vertex -18.0906602932307 11.3564478362776 25.4
vertex -18.2999128877799 19.9732820590728 25.4
vertex -18.2870746338279 31.4325 25.4
endloop
endfacet
facet normal -2.76049148334919e-16 -8.65150758850443e-17 -1.0
outer loop
vertex -18.0906602932307 11.3564478362776 25.4
vertex -18.2870746338279 31.4325 25.4
vertex -15.1699708864788 31.4325 25.4
endloop
endfacet
facet normal -2.76049148334919e-16 -8.65150758850443e-17 -1.0
outer loop
vertex -18.0906602932307 11.3564478362776 25.4
vertex -15.1699708864788 31.4325 25.4
vertex -18.0787426627385 11.1125 25.4
endloop
endfacet
facet normal -2.76049148334919e-16 -8.65150758850443e-17 -1.0
outer loop
vertex -18.0787426627385 11.1125 25.4
vertex -15.1699708864788 31.4325 25.4
vertex -15.1820195281714 21.6182975096929 25.4
endloop
endfacet
facet normal -2.76049148334919e-16 -8.65150758850443e-17 -1.0
outer loop
vertex -18.0787426627385 11.1125 25.4
vertex -12.565792808415 11.7318666922902 25.4
vertex -12.1889012975168 11.1125 25.4
endloop
endfacet
facet normal -2.76049148334919e-16 -8.65150758850443e-17 -1.0
outer loop
vertex -12.565792808415 11.7318666922902 25.4
vertex -18.0787426627385 11.1125 25.4
vertex -13.2376587340058 12.927292654248 25.4
endloop
endfacet
facet normal -2.76049148334919e-16 -8.65150758850443e-17 -1.0
outer loop
vertex -13.2376587340058 12.927292654248 25.4
vertex -18.0787426627385 11.1125 25.4
vertex -14.2862069142893 15.8968147972816 25.4
endloop
endfacet
facet normal -2.76049148334919e-16 -8.65150758850443e-17 -1.0
outer loop
vertex -14.2862069142893 15.8968147972816 25.4
vertex -18.0787426627385 11.1125 25.4
vertex -14.6875907203867 17.1444614451515 25.4
endloop
endfacet
facet normal -2.76049148334919e-16 -8.65150758850443e-17 -1.0
outer loop
vertex -14.6875907203867 17.1444614451515 25.4
vertex -18.0787426627385 11.1125 25.4
vertex -15.050486479564 20.2778534099407 25.4
endloop
endfacet
facet normal -2.76049148334919e-16 -8.65150758850443e-17 -1.0
outer loop
vertex -15.050486479564 20.2778534099407 25.4
vertex -18.0787426627385 11.1125 25.4
vertex -15.1820195281714 21.6182975096929 25.4
endloop
endfacet
facet normal 0.810092288298046 -0.55792170774673 0.18020502896703
outer loop
vertex 6.82386394196933 12.1527695043355 96.8391513919427
vertex 3.68288466713512 8.59425237430034 98.0644471021781
vertex 11.1774891369458 -11.921489016503 0.0
endloop
endfacet
facet normal 0.813327188878692 0.569021415679805 -0.121299267633549
outer loop
vertex -9.34860030098088 18.0163270449649 78.6516259712725
vertex -6.4009900063604 14.6814353007986 79.6141930126497
vertex -11.4987783702065 4.45902351950732 0.0
endloop
endfacet
facet normal -0.58412606867934 0.797088823371758 -0.153121336021621
outer loop
vertex 2.66592162514406 11.6399190306933 80.4920815745611
vertex 5.08 0.128536816097104 10.16
vertex 3.20168808955816 -1.37611804799601 10.16
endloop
endfacet
facet normal -0.676821284632213 0.722376143568978 -0.141723871917231
outer loop
vertex 7.87321770782331 0.423829267041125 0.0
vertex 5.08 0.128536816097104 10.16
vertex 2.66592162514406 11.6399190306933 80.4920815745611
endloop
endfacet
facet normal -0.61835842120952 0.771917876449291 -0.14756576478739
outer loop
vertex 5.08 0.128536816097104 10.16
vertex 7.87321770782331 0.423829267041125 0.0
vertex 5.08 -1.81372701271367 3.46226144988846e-16
endloop
endfacet
facet normal -0.978698249362376 0.193587670734147 0.0683633705631019
outer loop
vertex -9.34806331424734 69.8278291013316 76.9800357745699
vertex -16.8685588080548 54.2925 10.16
vertex -17.9902321803274 47.988934762557 10.16
endloop
endfacet
facet normal -0.98212596884214 0.17476213951496 0.0699054784551394
outer loop
vertex -16.8685588080548 54.2925 10.16
vertex -9.34806331424734 69.8278291013316 76.9800357745699
vertex -17.5917243526351 54.2925 0.0
endloop
endfacet
facet normal -0.98212596884214 0.17476213951496 0.0699054784551394
outer loop
vertex -17.5917243526351 54.2925 0.0
vertex -9.34806331424734 69.8278291013316 76.9800357745699
vertex -16.4014684979203 60.9814841685745 0.0
endloop
endfacet
facet normal -0.58412606867934 0.797088823371758 -0.153121336021621
outer loop
vertex 2.66592162514406 11.6399190306933 80.4920815745611
vertex 6.40099000636042 14.6814353007986 79.6141930126497
vertex 7.87321770782331 0.423829267041125 0.0
endloop
endfacet
facet normal -0.813195197860248 0.569662437826195 -0.119156523560187
outer loop
vertex 9.34860030098086 18.0163270449648 78.6516259712726
vertex 11.4987783702064 4.45902351950722 0.0
vertex 7.87321770782331 0.423829267041125 0.0
endloop
endfacet
facet normal 0.890520831151246 -0.425004184484918 0.162308633337859
outer loop
vertex 9.34806331424742 16.1260363519991 95.4710459013238
vertex 15.3121277087373 -6.87883798854816 0.0
vertex 18.337919488189 -1.43001597438836 0.0
endloop
endfacet
facet normal 0.971016326375125 -0.238096587759491 -0.0209119298546093
outer loop
vertex -9.69584907763018 66.3199370521097 64.7095053450922
vertex -11.9867117527412 54.3770531208354 68.1566416640892
vertex -11.9258943654851 62.9060330259368 0.0
endloop
endfacet
facet normal 0.88480771315575 -0.465712280276113 -0.0150792155006349
outer loop
vertex -2.52236023106451 88.2301980822355 0.0
vertex -6.35051460927848 77.3708454004311 61.5198245490115
vertex -7.81113296941252 76.277550086328 0.0
endloop
endfacet
facet normal 0.701175733310137 0.699491332128119 -0.138074136950485
outer loop
vertex -6.4009900063604 14.6814353007986 79.6141930126497
vertex -7.87321770782329 0.423829267041153 0.0
vertex -11.4987783702065 4.45902351950732 0.0
endloop
endfacet
facet normal -0.813195197860248 0.569662437826195 -0.119156523560187
outer loop
vertex 9.34860030098086 18.0163270449648 78.6516259712726
vertex 7.87321770782331 0.423829267041125 0.0
vertex 6.40099000636042 14.6814353007986 79.6141930126497
endloop
endfacet
facet normal 0.968053709349303 -0.215971467784843 0.127390505603503
outer loop
vertex 20.1827357989241 4.29508827343177 0.0
vertex 19.7995444670846 11.1125 10.16
vertex 12.3215725268157 24.930332054565 92.4394837753628
endloop
endfacet
facet normal 0.988708241349437 -0.104496857360214 0.107407729189025
outer loop
vertex 19.7995444670846 11.1125 10.16
vertex 20.1827357989241 4.29508827343177 0.0
vertex 20.8026000000003 10.1600000000003 0.0
endloop
endfacet
facet normal 0.988708241349437 -0.104496857360214 0.107407729189025
outer loop
vertex 19.7995444670846 11.1125 10.16
vertex 20.8026000000003 10.1600000000003 0.0
vertex 20.255680767693 11.1125 5.96118001753374
endloop
endfacet
facet normal 0.984809940273702 -0.130527507996239 0.114507428555525
outer loop
vertex 12.3215725268157 24.930332054565 92.4394837753628
vertex 19.7995444670846 11.1125 10.16
vertex 19.8704524413126 11.7834034153531 10.16
endloop
endfacet
facet normal -0.964030106018343 0.260002709132593 0.0551774041974989
outer loop
vertex -6.82386394196925 81.747629644322 72.8757193027131
vertex -12.1438453590159 76.1427455726984 0.0
vertex -16.4014684979203 60.9814841685745 0.0
endloop
endfacet
facet normal 0.707704612639138 -0.680415022061525 0.190235588159267
outer loop
vertex 3.68288466713512 8.59425237430034 98.0644471021781
vertex 6.03256508476733 -16.4377625898017 0.0
vertex 11.1774891369458 -11.921489016503 0.0
endloop
endfacet
facet normal 0.98201798279672 0.17474292418726 0.0714534247628925
outer loop
vertex 16.8524641676805 54.2925 10.16
vertex 11.1953110428503 56.9479230275251 81.4149430923587
vertex 18.2923351758609 46.2007318811062 10.16
endloop
endfacet
facet normal 0.987726836275634 0.135795498646027 0.0771704570959864
outer loop
vertex 11.1953110428503 56.9479230275251 81.4149430923587
vertex 16.8524641676805 54.2925 10.16
vertex 17.5917243526351 54.2925 0.0
endloop
endfacet
facet normal 0.987726836275634 0.135795498646027 0.0771704570959864
outer loop
vertex 11.1953110428503 56.9479230275251 81.4149430923587
vertex 17.5917243526351 54.2925 0.0
vertex 16.4014684979203 60.9814841685745 0.0
endloop
endfacet
facet normal -0.971109253974837 -0.237748968081311 -0.0205486014294908
outer loop
vertex 9.69584907763011 66.31993705211 64.7095053450921
vertex 7.81113296941244 76.277550086328 0.0
vertex 11.925894365485 62.9060330259372 0.0
endloop
endfacet
facet normal -0.93699148440127 -0.348992165471645 -0.0158564371444443
outer loop
vertex 7.81113296941244 76.277550086328 0.0
vertex 9.69584907763011 66.31993705211 64.7095053450921
vertex 6.35051460927841 77.3708454004311 61.5198245490115
endloop
endfacet
facet normal -0.908637598506385 0.406215957669676 -0.0967796999120078
outer loop
vertex 11.4636842875042 21.5496351852783 77.6317889799083
vertex 14.1003316736302 8.73430013828378 0.0
vertex 11.4987783702064 4.45902351950722 0.0
endloop
endfacet
facet normal 0.851599632983427 -0.523960723528973 -0.0155956821424418
outer loop
vertex -1.69197988952874e-14 92.3284237636613 0.0
vertex -2.0506993748492 87.2491274925796 58.668604930275
vertex -2.52236023106451 88.2301980822355 0.0
endloop
endfacet
facet normal 0.851599632983427 -0.523960723528973 -0.0155956821424418
outer loop
vertex -1.69197988952874e-14 92.3284237636613 0.0
vertex -1.12798659301916e-14 90.6361116464068 57.6910021874441
vertex -2.0506993748492 87.2491274925796 58.668604930275
endloop
endfacet
facet normal 0.792568688415944 0.597142728986736 -0.123512895524734
outer loop
vertex -11.4987783702065 4.45902351950732 0.0
vertex -12.1889012975168 11.1125 25.4
vertex -9.34860030098088 18.0163270449649 78.6516259712725
endloop
endfacet
facet normal 0.848870127490656 0.516546900065389 -0.112244406038043
outer loop
vertex -12.1889012975168 11.1125 25.4
vertex -11.4987783702065 4.45902351950732 0.0
vertex -14.1003316736302 8.7343001382839 0.0
endloop
endfacet
facet normal 0.848870127490656 0.516546900065389 -0.112244406038043
outer loop
vertex -12.1889012975168 11.1125 25.4
vertex -14.1003316736302 8.7343001382839 0.0
vertex -12.8828640874059 11.1125 20.1517715784678
endloop
endfacet
facet normal 0.813327188878692 0.569021415679805 -0.121299267633549
outer loop
vertex -9.34860030098088 18.0163270449649 78.6516259712725
vertex -12.1889012975168 11.1125 25.4
vertex -12.565792808415 11.7318666922902 25.4
endloop
endfacet
facet normal -0.884787581672182 -0.465759870424466 -0.0147877794437216
outer loop
vertex 2.52236023106451 88.2301980822355 0.0
vertex 7.81113296941244 76.277550086328 0.0
vertex 2.0506993748492 87.2491274925796 58.668604930275
endloop
endfacet
facet normal 4.06694565194254e-16 0.325568154457157 0.945518575599317
outer loop
vertex -12.3215725268157 24.9303320545651 92.4394837753628
vertex -12.3215725268156 43.4149419936342 86.0747221524526
vertex -12.7000000000001 29.5514845393326 90.8482933696352
endloop
endfacet
facet normal 4.06694565194254e-16 0.325568154457157 0.945518575599317
outer loop
vertex -12.3215725268156 43.4149419936342 86.0747221524526
vertex -12.3215725268157 24.9303320545651 92.4394837753628
vertex -11.1953110428505 20.4193383766013 93.9927434620608
endloop
endfacet
facet normal 4.06694565194254e-16 0.325568154457157 0.945518575599317
outer loop
vertex -12.3215725268156 43.4149419936342 86.0747221524526
vertex -11.1953110428505 20.4193383766013 93.9927434620608
vertex -11.1953110428503 56.9479230275252 81.4149430923587
endloop
endfacet
facet normal 4.06694565194254e-16 0.325568154457157 0.945518575599317
outer loop
vertex -11.1953110428503 56.9479230275252 81.4149430923587
vertex -11.1953110428505 20.4193383766013 93.9927434620608
vertex -9.34806331424744 16.1260363519992 95.4710459013238
endloop
endfacet
facet normal 4.06694565194254e-16 0.325568154457157 0.945518575599317
outer loop
vertex -11.1953110428503 56.9479230275252 81.4149430923587
vertex -9.34806331424744 16.1260363519992 95.4710459013238
vertex -9.34806331424734 69.8278291013316 76.9800357745699
endloop
endfacet
facet normal 4.06694565194254e-16 0.325568154457157 0.945518575599317
outer loop
vertex -9.34806331424734 69.8278291013316 76.9800357745699
vertex -9.34806331424744 16.1260363519992 95.4710459013238
vertex -6.82386394196934 12.1527695043356 96.8391513919427
endloop
endfacet
facet normal 4.06694565194254e-16 0.325568154457157 0.945518575599317
outer loop
vertex -9.34806331424734 69.8278291013316 76.9800357745699
vertex -6.82386394196934 12.1527695043356 96.8391513919427
vertex -6.82386394196925 81.747629644322 72.8757193027131
endloop
endfacet
facet normal 4.06694565194254e-16 0.325568154457157 0.945518575599317
outer loop
vertex -6.82386394196925 81.747629644322 72.8757193027131
vertex -6.82386394196934 12.1527695043356 96.8391513919427
vertex -3.68288466713514 8.59425237430037 98.0644471021781
endloop
endfacet
facet normal 4.06694565194254e-16 0.325568154457157 0.945518575599317
outer loop
vertex -6.82386394196925 81.747629644322 72.8757193027131
vertex -3.68288466713514 8.59425237430037 98.0644471021781
vertex -3.6828846671351 92.4231810344275 69.1998321720069
endloop
endfacet
facet normal 4.06694565194254e-16 0.325568154457157 0.945518575599317
outer loop
vertex -3.6828846671351 92.4231810344275 69.1998321720069
vertex -3.68288466713514 8.59425237430037 98.0644471021781
vertex 0.0 5.53531271910943 99.1177244928471
endloop
endfacet
facet normal 4.06694565194254e-16 0.325568154457157 0.945518575599317
outer loop
vertex -3.6828846671351 92.4231810344275 69.1998321720069
vertex 0.0 5.53531271910943 99.1177244928471
vertex -1.12798659301916e-14 101.6 66.04
endloop
endfacet
facet normal 4.06694565194254e-16 0.325568154457157 0.945518575599317
outer loop
vertex -1.12798659301916e-14 101.6 66.04
vertex 0.0 5.53531271910943 99.1177244928471
vertex 3.68288466713509 92.4231810344275 69.1998321720069
endloop
endfacet
facet normal 4.06694565194254e-16 0.325568154457157 0.945518575599317
outer loop
vertex 3.68288466713509 92.4231810344275 69.1998321720069
vertex 0.0 5.53531271910943 99.1177244928471
vertex 3.68288466713512 8.59425237430034 98.0644471021781
endloop
endfacet
facet normal 4.06694565194254e-16 0.325568154457157 0.945518575599317
outer loop
vertex 3.68288466713509 92.4231810344275 69.1998321720069
vertex 3.68288466713512 8.59425237430034 98.0644471021781
vertex 6.82386394196924 81.747629644322 72.8757193027131
endloop
endfacet
facet normal 4.06694565194254e-16 0.325568154457157 0.945518575599317
outer loop
vertex 6.82386394196924 81.747629644322 72.8757193027131
vertex 3.68288466713512 8.59425237430034 98.0644471021781
vertex 6.82386394196933 12.1527695043355 96.8391513919427
endloop
endfacet
facet normal 4.06694565194254e-16 0.325568154457157 0.945518575599317
outer loop
vertex 6.82386394196924 81.747629644322 72.8757193027131
vertex 6.82386394196933 12.1527695043355 96.8391513919427
vertex 9.34806331424732 69.8278291013315 76.9800357745699
endloop
endfacet
facet normal 4.06694565194254e-16 0.325568154457157 0.945518575599317
outer loop
vertex 9.34806331424732 69.8278291013315 76.9800357745699
vertex 6.82386394196933 12.1527695043355 96.8391513919427
vertex 9.34806331424742 16.1260363519991 95.4710459013238
endloop
endfacet
facet normal 4.06694565194254e-16 0.325568154457157 0.945518575599317
outer loop
vertex 9.34806331424732 69.8278291013315 76.9800357745699
vertex 9.34806331424742 16.1260363519991 95.4710459013238
vertex 11.1953110428503 56.9479230275251 81.4149430923587
endloop
endfacet
facet normal 4.06694565194254e-16 0.325568154457157 0.945518575599317
outer loop
vertex 11.1953110428503 56.9479230275251 81.4149430923587
vertex 9.34806331424742 16.1260363519991 95.4710459013238
vertex 11.1953110428505 20.4193383766012 93.9927434620608
endloop
endfacet
facet normal 4.06694565194254e-16 0.325568154457157 0.945518575599317
outer loop
vertex 11.1953110428503 56.9479230275251 81.4149430923587
vertex 11.1953110428505 20.4193383766012 93.9927434620608
vertex 12.3215725268155 43.4149419936342 86.0747221524526
endloop
endfacet
facet normal 4.06694565194254e-16 0.325568154457157 0.945518575599317
outer loop
vertex 12.3215725268155 43.4149419936342 86.0747221524526
vertex 11.1953110428505 20.4193383766012 93.9927434620608
vertex 12.3215725268157 24.930332054565 92.4394837753628
endloop
endfacet
facet normal 4.06694565194254e-16 0.325568154457157 0.945518575599317
outer loop
vertex 12.3215725268155 43.4149419936342 86.0747221524526
vertex 12.3215725268157 24.930332054565 92.4394837753628
vertex 12.7000000000001 29.5514845393324 90.8482933696352
endloop
endfacet
facet normal 0.978846177406047 0.194404886542888 0.0637722593751955
outer loop
vertex 9.34806331424732 69.8278291013315 76.9800357745699
vertex 11.1953110428503 56.9479230275251 81.4149430923587
vertex 16.4014684979203 60.9814841685745 0.0
endloop
endfacet
facet normal -0.984970936645068 -0.13325239057095 0.109891102331648
outer loop
vertex -12.3215725268157 24.9303320545651 92.4394837753628
vertex -20.1827357989241 4.29508827343194 0.0
vertex -18.3379194881891 -1.43001597438825 0.0
endloop
endfacet
facet normal 0.949307551166632 -0.281160676410861 0.140583951211366
outer loop
vertex 11.1953110428505 20.4193383766012 93.9927434620608
vertex 9.34806331424742 16.1260363519991 95.4710459013238
vertex 18.337919488189 -1.43001597438836 0.0
endloop
endfacet
facet normal -0.809794634438175 -0.561581871523688 0.169877754903621
outer loop
vertex -6.82386394196934 12.1527695043356 96.8391513919427
vertex -11.1774891369458 -11.9214890165029 0.0
vertex -6.03256508476735 -16.4377625898016 0.0
endloop
endfacet
facet normal 0.949307551166632 -0.281160676410861 0.140583951211366
outer loop
vertex 11.1953110428505 20.4193383766012 93.9927434620608
vertex 18.337919488189 -1.43001597438836 0.0
vertex 20.1827357989241 4.29508827343177 0.0
endloop
endfacet
facet normal 0.877442137527367 0.479385590711196 0.0168745580648283
outer loop
vertex -2.25597318603832e-14 101.6 0.0
vertex 3.68288466713509 92.4231810344275 69.1998321720069
vertex 6.63289930559144 89.7906972512654 0.0
endloop
endfacet
facet normal 0.947175071855165 0.317039786980846 0.0484268182653325
outer loop
vertex 12.1438453590158 76.1427455726983 0.0
vertex 9.34806331424732 69.8278291013315 76.9800357745699
vertex 16.4014684979203 60.9814841685745 0.0
endloop
endfacet
facet normal -0.91976093611506 0.391844534653236 0.022308766418998
outer loop
vertex -1.12798659301916e-14 101.6 66.04
vertex -6.63289930559146 89.7906972512654 0.0
vertex -3.6828846671351 92.4231810344275 69.1998321720069
endloop
endfacet
facet normal -0.964030106018343 0.260002709132593 0.0551774041974989
outer loop
vertex -6.82386394196925 81.747629644322 72.8757193027131
vertex -16.4014684979203 60.9814841685745 0.0
vertex -9.34806331424734 69.8278291013316 76.9800357745699
endloop
endfacet
facet normal -0.984970936645068 -0.13325239057095 0.109891102331648
outer loop
vertex -12.3215725268157 24.9303320545651 92.4394837753628
vertex -18.0787426627385 11.1125 25.4
vertex -20.1827357989241 4.29508827343194 0.0
endloop
endfacet
facet normal -0.994253712862813 -0.048572467565713 0.0953953345457183
outer loop
vertex -18.0787426627385 11.1125 25.4
vertex -12.3215725268157 24.9303320545651 92.4394837753628
vertex -18.0906602932307 11.3564478362776 25.4
endloop
endfacet
facet normal -0.992214596339166 -0.0718757161865972 0.101705831859186
outer loop
vertex -18.0906602932307 11.3564478362776 25.4
vertex -12.3215725268157 24.9303320545651 92.4394837753628
vertex -12.7000000000001 29.5514845393326 90.8482933696352
endloop
endfacet
facet normal -0.993878337255448 -0.0534133474766546 0.0967102116928881
outer loop
vertex -18.1629349435159 11.1125 24.5225096263257
vertex -20.1827357989241 4.29508827343194 0.0
vertex -18.0787426627385 11.1125 25.4
endloop
endfacet
facet normal 0.90382056567324 0.426950635654994 0.0286625152403105
outer loop
vertex 6.63289930559144 89.7906972512654 0.0
vertex 6.82386394196924 81.747629644322 72.8757193027131
vertex 12.1438453590158 76.1427455726983 0.0
endloop
endfacet
facet normal 0.88480771315575 -0.465712280276113 -0.0150792155006349
outer loop
vertex -2.52236023106451 88.2301980822355 0.0
vertex -2.0506993748492 87.2491274925796 58.668604930275
vertex -6.35051460927848 77.3708454004311 61.5198245490115
endloop
endfacet
facet normal -0.940909864283441 0.336700822026932 0.0363480912910837
outer loop
vertex -3.6828846671351 92.4231810344275 69.1998321720069
vertex -12.1438453590159 76.1427455726984 0.0
vertex -6.82386394196925 81.747629644322 72.8757193027131
endloop
endfacet
facet normal -0.809794634438175 -0.561581871523688 0.169877754903621
outer loop
vertex -6.82386394196934 12.1527695043356 96.8391513919427
vertex -6.03256508476735 -16.4377625898016 0.0
vertex -3.68288466713514 8.59425237430037 98.0644471021781
endloop
endfacet
facet normal 0.984809940273702 -0.130527507996239 0.114507428555525
outer loop
vertex 12.3215725268157 24.930332054565 92.4394837753628
vertex 11.1953110428505 20.4193383766012 93.9927434620608
vertex 20.1827357989241 4.29508827343177 0.0
endloop
endfacet
facet normal -0.949332387155764 -0.284590006624635 0.13332871718624
outer loop
vertex -11.1953110428505 20.4193383766013 93.9927434620608
vertex -15.3121277087373 -6.87883798854804 0.0
vertex -9.34806331424744 16.1260363519992 95.4710459013238
endloop
endfacet
facet normal -0.871885586738262 0.489709631963755 2.98094845279403e-16
outer loop
vertex -2.25597318603832e-14 101.6 0.0
vertex -6.63289930559146 89.7906972512654 0.0
vertex -1.12798659301916e-14 101.6 66.04
endloop
endfacet
facet normal 0.810092288298046 -0.55792170774673 0.18020502896703
outer loop
vertex 6.82386394196933 12.1527695043355 96.8391513919427
vertex 11.1774891369458 -11.921489016503 0.0
vertex 15.3121277087373 -6.87883798854816 0.0
endloop
endfacet
facet normal -0.890355320035049 -0.428749661249853 0.15310497073388
outer loop
vertex -9.34806331424744 16.1260363519992 95.4710459013238
vertex -11.1774891369458 -11.9214890165029 0.0
vertex -6.82386394196934 12.1527695043356 96.8391513919427
endloop
endfacet
facet normal 0.964943891013063 0.258724693803917 0.0441001135218474
outer loop
vertex 6.82386394196924 81.747629644322 72.8757193027131
vertex 9.34806331424732 69.8278291013315 76.9800357745699
vertex 12.1438453590158 76.1427455726983 0.0
endloop
endfacet
facet normal 0.936944958225403 -0.349109207807526 -0.0160282962288533
outer loop
vertex -7.81113296941252 76.277550086328 0.0
vertex -9.69584907763018 66.3199370521097 64.7095053450922
vertex -11.9258943654851 62.9060330259368 0.0
endloop
endfacet
facet normal 0.971016326375125 -0.238096587759491 -0.0209119298546093
outer loop
vertex -9.69584907763018 66.3199370521097 64.7095053450922
vertex -7.81113296941252 76.277550086328 0.0
vertex -6.35051460927848 77.3708454004311 61.5198245490115
endloop
endfacet
facet normal -0.971109253974837 -0.237748968081311 -0.0205486014294908
outer loop
vertex 9.69584907763011 66.31993705211 64.7095053450921
vertex 13.359826316972 54.2925 10.16
vertex 13.9511024525775 51.2601585647924 10.16
endloop
endfacet
facet normal -0.981238738085208 -0.191331702434661 -0.0237216889028168
outer loop
vertex 13.359826316972 54.2925 10.16
vertex 9.69584907763011 66.31993705211 64.7095053450921
vertex 13.6054468269438 54.2925 0.0
endloop
endfacet
facet normal -0.981238738085208 -0.191331702434661 -0.0237216889028168
outer loop
vertex 13.6054468269438 54.2925 0.0
vertex 9.69584907763011 66.31993705211 64.7095053450921
vertex 11.925894365485 62.9060330259372 0.0
endloop
endfacet
facet normal -0.949332387155764 -0.284590006624635 0.13332871718624
outer loop
vertex -11.1953110428505 20.4193383766013 93.9927434620608
vertex -18.3379194881891 -1.43001597438825 0.0
vertex -15.3121277087373 -6.87883798854804 0.0
endloop
endfacet
facet normal 0.877442137527367 0.479385590711196 0.0168745580648283
outer loop
vertex -2.25597318603832e-14 101.6 0.0
vertex -1.12798659301916e-14 101.6 66.04
vertex 3.68288466713509 92.4231810344275 69.1998321720069
endloop
endfacet
facet normal -0.853240533199476 -0.521285233864749 -0.0155659069779984
outer loop
vertex -1.12798659301916e-14 90.6361116464068 57.6910021874441
vertex 2.52236023106451 88.2301980822355 0.0
vertex 2.0506993748492 87.2491274925796 58.668604930275
endloop
endfacet
facet normal -0.851522866598087 -0.524092029456472 -0.0153737542836226
outer loop
vertex -1.69197988952874e-14 92.3284237636613 0.0
vertex 2.52236023106451 88.2301980822355 0.0
vertex -1.12798659301916e-14 90.6361116464068 57.6910021874441
endloop
endfacet
facet normal -0.89128857545292 -0.453188569017568 -0.0149932044244388
outer loop
vertex 2.0506993748492 87.2491274925796 58.668604930275
vertex 7.81113296941244 76.277550086328 0.0
vertex 6.35051460927841 77.3708454004311 61.5198245490115
endloop
endfacet
facet normal -0.908637598506385 0.406215957669676 -0.0967796999120078
outer loop
vertex 11.4636842875042 21.5496351852783 77.6317889799083
vertex 11.4987783702064 4.45902351950722 0.0
vertex 9.34860030098086 18.0163270449648 78.6516259712726
endloop
endfacet
facet normal 0.707704612639138 -0.680415022061525 0.190235588159267
outer loop
vertex 3.68288466713512 8.59425237430034 98.0644471021781
vertex -1.04338759854272e-13 -17.6697174337866 10.16
vertex 0.381566503700416 -17.3243291651173 10.16
endloop
endfacet
facet normal 0.6588776762096 -0.727892850114121 0.18987418609537
outer loop
vertex -1.04338759854272e-13 -17.6697174337866 10.16
vertex 3.68288466713512 8.59425237430034 98.0644471021781
vertex 0.0 5.53531271910943 99.1177244928471
endloop
endfacet
facet normal -0.653641452547954 -0.729486596749339 0.201499768421875
outer loop
vertex 0.0 5.53531271910943 99.1177244928471
vertex -5.08 -14.4005001494831 10.16
vertex -1.04338759854272e-13 -17.6697174337866 10.16
endloop
endfacet
facet normal -0.587554891505497 -0.780666983207034 0.212927947433853
outer loop
vertex -6.03256508476735 -16.4377625898016 0.0
vertex -5.08 -14.4005001494831 10.16
vertex 0.0 5.53531271910943 99.1177244928471
endloop
endfacet
facet normal -0.528599853780658 -0.821385372608444 0.214262139091241
outer loop
vertex -5.08 -14.4005001494831 10.16
vertex -6.03256508476735 -16.4377625898016 0.0
vertex -5.08 -17.0507827156966 3.98213564937285e-14
endloop
endfacet
facet normal -0.525326643253059 0.835974829188525 -0.158675779032875
outer loop
vertex 0.0 10.0483782721871 80.9514562099828
vertex 3.20168808955816 -1.37611804799601 10.16
vertex 2.86753461729204 -1.58653798183232 10.16
endloop
endfacet
facet normal -0.570201122401504 0.807000377931989 -0.153691476763327
outer loop
vertex 3.20168808955816 -1.37611804799601 10.16
vertex 0.0 10.0483782721871 80.9514562099828
vertex 2.66592162514406 11.6399190306933 80.4920815745611
endloop
endfacet
facet normal 0.584316590424388 0.797301352774919 -0.1512768158645
outer loop
vertex -2.66592162514411 11.6399190306933 80.4920815745611
vertex -0.33650221464796 -3.05879514412782 10.16
vertex -3.20168808955824 -1.37611804799597 10.16
endloop
endfacet
facet normal 2.68276610196958e-16 -4.38032621159036e-16 -1.0
outer loop
vertex -20.8015328733471 11.1125 0.0
vertex -20.1827357989241 4.29508827343194 0.0
vertex -20.8026000000003 10.1600000000005 0.0
endloop
endfacet
facet normal 2.68276610196958e-16 -4.38032621159036e-16 -1.0
outer loop
vertex -20.1827357989241 4.29508827343194 0.0
vertex -20.8015328733471 11.1125 0.0
vertex -14.9400819826835 11.1125 0.0
endloop
endfacet
facet normal 2.68276610196958e-16 -4.38032621159036e-16 -1.0
outer loop
vertex -20.1827357989241 4.29508827343194 0.0
vertex -14.9400819826835 11.1125 0.0
vertex -18.3379194881891 -1.43001597438825 0.0
endloop
endfacet
facet normal 2.68276610196958e-16 -4.38032621159036e-16 -1.0
outer loop
vertex -18.3379194881891 -1.43001597438825 0.0
vertex -14.9400819826835 11.1125 0.0
vertex -15.3121277087373 -6.87883798854804 0.0
endloop
endfacet
facet normal 2.68276610196958e-16 -4.38032621159036e-16 -1.0
outer loop
vertex -15.3121277087373 -6.87883798854804 0.0
vertex -14.9400819826835 11.1125 0.0
vertex -11.1774891369458 -11.9214890165029 0.0
endloop
endfacet
facet normal 2.68276610196958e-16 -4.38032621159036e-16 -1.0
outer loop
vertex -11.1774891369458 -11.9214890165029 0.0
vertex -14.9400819826835 11.1125 0.0
vertex -14.1003316736302 8.7343001382839 0.0
endloop
endfacet
facet normal 2.68276610196958e-16 -4.38032621159036e-16 -1.0
outer loop
vertex -11.1774891369458 -11.9214890165029 0.0
vertex -14.1003316736302 8.7343001382839 0.0
vertex -11.4987783702065 4.45902351950732 0.0
endloop
endfacet
facet normal 2.68276610196958e-16 -4.38032621159036e-16 -1.0
outer loop
vertex -11.1774891369458 -11.9214890165029 0.0
vertex -11.4987783702065 4.45902351950732 0.0
vertex -7.87321770782329 0.423829267041153 0.0
endloop
endfacet
facet normal 2.68276610196958e-16 -4.38032621159036e-16 -1.0
outer loop
vertex -11.1774891369458 -11.9214890165029 0.0
vertex -7.87321770782329 0.423829267041153 0.0
vertex -6.03256508476735 -16.4377625898016 0.0
endloop
endfacet
facet normal 2.68276610196958e-16 -4.38032621159036e-16 -1.0
outer loop
vertex -6.03256508476735 -16.4377625898016 0.0
vertex -7.87321770782329 0.423829267041153 0.0
vertex -5.08 -1.81372701271364 1.29769032294818e-16
endloop
endfacet
facet normal 2.68276610196958e-16 -4.38032621159036e-16 -1.0
outer loop
vertex -6.03256508476735 -16.4377625898016 0.0
vertex -5.08 -1.81372701271364 1.29769032294818e-16
vertex -5.08 -17.0507827156966 3.98213564937285e-14
endloop
endfacet
facet normal -1.48785821255344e-17 -1.48674490376766e-18 -1.0
outer loop
vertex 7.87321770782331 0.423829267041125 0.0
vertex 5.08 -17.0507827156964 5.10377041242495e-16
vertex 5.08 -1.81372701271367 3.46226144988846e-16
endloop
endfacet
facet normal -1.48785821255344e-17 -1.48674490376766e-18 -1.0
outer loop
vertex 5.08 -17.0507827156964 5.10377041242495e-16
vertex 7.87321770782331 0.423829267041125 0.0
vertex 6.03256508476733 -16.4377625898017 0.0
endloop
endfacet
facet normal -1.48785821255344e-17 -1.48674490376766e-18 -1.0
outer loop
vertex 6.03256508476733 -16.4377625898017 0.0
vertex 7.87321770782331 0.423829267041125 0.0
vertex 11.1774891369458 -11.921489016503 0.0
endloop
endfacet
facet normal -1.48785821255344e-17 -1.48674490376766e-18 -1.0
outer loop
vertex 11.1774891369458 -11.921489016503 0.0
vertex 7.87321770782331 0.423829267041125 0.0
vertex 11.4987783702064 4.45902351950722 0.0
endloop
endfacet
facet normal -1.48785821255344e-17 -1.48674490376766e-18 -1.0
outer loop
vertex 11.1774891369458 -11.921489016503 0.0
vertex 11.4987783702064 4.45902351950722 0.0
vertex 15.3121277087373 -6.87883798854816 0.0
endloop
endfacet
facet normal -1.48785821255344e-17 -1.48674490376766e-18 -1.0
outer loop
vertex 15.3121277087373 -6.87883798854816 0.0
vertex 11.4987783702064 4.45902351950722 0.0
vertex 14.1003316736302 8.73430013828378 0.0
endloop
endfacet
facet normal -1.48785821255344e-17 -1.48674490376766e-18 -1.0
outer loop
vertex 15.3121277087373 -6.87883798854816 0.0
vertex 14.1003316736302 8.73430013828378 0.0
vertex 14.9400819826835 11.1125 0.0
endloop
endfacet
facet normal -1.48785821255344e-17 -1.48674490376766e-18 -1.0
outer loop
vertex 15.3121277087373 -6.87883798854816 0.0
vertex 14.9400819826835 11.1125 0.0
vertex 20.8015328733471 11.1125 0.0
endloop
endfacet
facet normal -1.48785821255344e-17 -1.48674490376766e-18 -1.0
outer loop
vertex 15.3121277087373 -6.87883798854816 0.0
vertex 20.8015328733471 11.1125 0.0
vertex 18.337919488189 -1.43001597438836 0.0
endloop
endfacet
facet normal -1.48785821255344e-17 -1.48674490376766e-18 -1.0
outer loop
vertex 18.337919488189 -1.43001597438836 0.0
vertex 20.8015328733471 11.1125 0.0
vertex 20.1827357989241 4.29508827343177 0.0
endloop
endfacet
facet normal -1.48785821255344e-17 -1.48674490376766e-18 -1.0
outer loop
vertex 20.1827357989241 4.29508827343177 0.0
vertex 20.8015328733471 11.1125 0.0
vertex 20.8026000000003 10.1600000000003 0.0
endloop
endfacet
facet normal 1.0 0.0 0.0
outer loop
vertex -5.08 -1.81372701271364 1.29769032294818e-16
vertex -5.08 -14.4005001494831 10.16
vertex -5.08 -17.0507827156966 3.98213564937285e-14
endloop
endfacet
facet normal 1.0 0.0 0.0
outer loop
vertex -5.08 -14.4005001494831 10.16
vertex -5.08 -1.81372701271364 1.29769032294818e-16
vertex -5.08 0.156267375300325 10.16
endloop
endfacet
facet normal -1.0 0.0 0.0
outer loop
vertex 5.08 -14.3006677487288 10.16
vertex 5.08 -1.81372701271367 3.46226144988846e-16
vertex 5.08 -17.0507827156964 5.10377041242495e-16
endloop
endfacet
facet normal -1.0 0.0 0.0
outer loop
vertex 5.08 -1.81372701271367 3.46226144988846e-16
vertex 5.08 -14.3006677487288 10.16
vertex 5.08 0.128536816097104 10.16
endloop
endfacet
facet normal -8.41206841274782e-17 2.55661748738586e-18 -1.0
outer loop
vertex -3.67748704810222 -0.967240346337985 10.16
vertex -5.08 -14.4005001494831 10.16
vertex -5.08 0.156267375300325 10.16
endloop
endfacet
facet normal -8.41206841274782e-17 2.55661748738586e-18 -1.0
outer loop
vertex -5.08 -14.4005001494831 10.16
vertex -3.67748704810222 -0.967240346337985 10.16
vertex -1.04338759854272e-13 -17.6697174337866 10.16
endloop
endfacet
facet normal -8.41206841274782e-17 2.55661748738586e-18 -1.0
outer loop
vertex -1.04338759854272e-13 -17.6697174337866 10.16
vertex -3.67748704810222 -0.967240346337985 10.16
vertex -3.20168808955824 -1.37611804799597 10.16
endloop
endfacet
facet normal -8.41206841274782e-17 2.55661748738586e-18 -1.0
outer loop
vertex -1.04338759854272e-13 -17.6697174337866 10.16
vertex -3.20168808955824 -1.37611804799597 10.16
vertex -0.33650221464796 -3.05879514412782 10.16
endloop
endfacet
facet normal -8.41206841274782e-17 2.55661748738586e-18 -1.0
outer loop
vertex -1.04338759854272e-13 -17.6697174337866 10.16
vertex -0.33650221464796 -3.05879514412782 10.16
vertex 0.0 -3.2705944561906 10.16
endloop
endfacet
facet normal -8.41206841274782e-17 2.55661748738586e-18 -1.0
outer loop
vertex -1.04338759854272e-13 -17.6697174337866 10.16
vertex 0.0 -3.2705944561906 10.16
vertex 0.381566503700416 -17.3243291651173 10.16
endloop
endfacet
facet normal -8.41206841274782e-17 2.55661748738586e-18 -1.0
outer loop
vertex 0.381566503700416 -17.3243291651173 10.16
vertex 0.0 -3.2705944561906 10.16
vertex 2.86753461729204 -1.58653798183232 10.16
endloop
endfacet
facet normal -8.41206841274782e-17 2.55661748738586e-18 -1.0
outer loop
vertex 0.381566503700416 -17.3243291651173 10.16
vertex 2.86753461729204 -1.58653798183232 10.16
vertex 5.08 -14.3006677487288 10.16
endloop
endfacet
facet normal -8.41206841274782e-17 2.55661748738586e-18 -1.0
outer loop
vertex 5.08 -14.3006677487288 10.16
vertex 2.86753461729204 -1.58653798183232 10.16
vertex 3.20168808955816 -1.37611804799601 10.16
endloop
endfacet
facet normal -8.41206841274782e-17 2.55661748738586e-18 -1.0
outer loop
vertex 5.08 -14.3006677487288 10.16
vertex 3.20168808955816 -1.37611804799601 10.16
vertex 5.08 0.128536816097104 10.16
endloop
endfacet
endsolid Foam Fin Covered V2 006
