solid Foam Fin Covered 007
facet normal -0.984970936645068 -0.13325239057095 0.109891102331648
outer loop
vertex -12.3215725268157 24.9303320545651 92.4394837753628
vertex -18.3379194881891 -1.43001597438825 0.0
vertex -11.1953110428505 20.4193383766013 93.9927434620608
endloop
endfacet
facet normal -1.81128096816209e-16 -2.15797863636248e-16 -1.0
outer loop
vertex -18.2999128877799 19.9732820590728 25.4
vertex -18.0906602932307 11.3564478362776 25.4
vertex -18.5372185341907 15.5816066040456 25.4
endloop
endfacet
facet normal -1.81128096816209e-16 -2.15797863636248e-16 -1.0
outer loop
vertex -18.0906602932307 11.3564478362776 25.4
vertex -18.2999128877799 19.9732820590728 25.4
vertex -18.2870746338279 31.4325 25.4
endloop
endfacet
facet normal -1.81128096816209e-16 -2.15797863636248e-16 -1.0
outer loop
vertex -18.0906602932307 11.3564478362776 25.4
vertex -18.2870746338279 31.4325 25.4
vertex -5.07999999999999 31.4325 25.4
endloop
endfacet
facet normal -1.81128096816209e-16 -2.15797863636248e-16 -1.0
outer loop
vertex -18.0906602932307 11.3564478362776 25.4
vertex -5.07999999999999 31.4325 25.4
vertex -18.0787426627385 11.1125 25.4
endloop
endfacet
facet normal -1.81128096816209e-16 -2.15797863636248e-16 -1.0
outer loop
vertex -18.0787426627385 11.1125 25.4
vertex -5.07999999999999 31.4325 25.4
vertex -5.07999999999999 11.1125 25.4
endloop
endfacet
facet normal 0.964943891013063 0.258724693803917 0.0441001135218474
outer loop
vertex 6.82386394196923 81.7476296443219 72.8757193027131
vertex 9.34806331424732 69.8278291013315 76.9800357745699
vertex 12.1438453590158 76.1427455726984 0.0
endloop
endfacet
facet normal -1.0 0.0 0.0
outer loop
vertex -5.07999999999999 11.1125 25.4
vertex -5.07999999999999 31.4325 10.16
vertex -5.07999999999999 11.1125 10.16
endloop
endfacet
facet normal -1.0 0.0 0.0
outer loop
vertex -5.07999999999999 31.4325 10.16
vertex -5.07999999999999 11.1125 25.4
vertex -5.07999999999999 31.4325 25.4
endloop
endfacet
facet normal 0.993177883803692 0.0799691835739961 0.0848682555595907
outer loop
vertex 12.3215725268155 43.4149419936342 86.0747221524526
vertex 12.7000000000001 29.5514845393324 90.8482933696352
vertex 20.783070019748 27.5921446615658 0.0
endloop
endfacet
facet normal 0.947175071855165 0.317039786980846 0.0484268182653325
outer loop
vertex 12.1438453590158 76.1427455726984 0.0
vertex 9.34806331424732 69.8278291013315 76.9800357745699
vertex 16.4014684979203 60.9814841685745 0.0
endloop
endfacet
facet normal -0.978698249362376 0.193587670734147 0.0683633705631019
outer loop
vertex -9.34806331424734 69.8278291013316 76.9800357745699
vertex -19.304275710259 44.668326446355 0.0
vertex -11.1953110428503 56.9479230275252 81.4149430923587
endloop
endfacet
facet normal -0.890355320035048 -0.428749661249853 0.15310497073388
outer loop
vertex -9.34806331424744 16.1260363519992 95.4710459013238
vertex -15.3121277087373 -6.87883798854804 0.0
vertex -11.1774891369458 -11.9214890165029 0.0
endloop
endfacet
facet normal -0.653641452547953 -0.729486596749339 0.201499768421875
outer loop
vertex 0.0 5.53531271910943 99.1177244928471
vertex -5.08 -14.4005001494829 10.16
vertex 0.0 -17.6697174337864 10.16
endloop
endfacet
facet normal -0.528599853780644 -0.821385372608453 0.214262139091242
outer loop
vertex -5.08 -14.4005001494829 10.16
vertex -6.03256508476735 -16.4377625898016 0.0
vertex -5.08 -17.0507827156964 0.0
endloop
endfacet
facet normal -0.587554891505489 -0.780666983207039 0.212927947433853
outer loop
vertex -6.03256508476735 -16.4377625898016 0.0
vertex -5.08 -14.4005001494829 10.16
vertex 0.0 5.53531271910943 99.1177244928471
endloop
endfacet
facet normal 0.0 -1.0 0.0
outer loop
vertex 19.883581555127 23.8125 10.16
vertex 16.51 23.8125 0.0
vertex 20.7873045179715 23.8125 0.0
endloop
endfacet
facet normal 0.0 -1.0 0.0
outer loop
vertex 16.51 23.8125 0.0
vertex 19.883581555127 23.8125 10.16
vertex 16.51 23.8125 10.16
endloop
endfacet
facet normal -1.0 0.0 0.0
outer loop
vertex 5.08 -14.3006677487288 10.16
vertex 5.08 11.1125 0.0
vertex 5.08 -17.0507827156964 1.36100544331332e-15
endloop
endfacet
facet normal -1.0 0.0 0.0
outer loop
vertex 5.08 11.1125 0.0
vertex 5.08 -14.3006677487288 10.16
vertex 5.08 11.1125 10.16
endloop
endfacet
facet normal -0.993878337255449 -0.0534133474766529 0.0967102116928886
outer loop
vertex -18.1629349435159 11.1125 24.5225096263257
vertex -20.8026000000003 10.1600000000005 0.0
vertex -20.1827357989241 4.29508827343195 0.0
endloop
endfacet
facet normal -0.988376836550354 -0.104461831092023 0.110448878743143
outer loop
vertex -20.8026000000003 10.1600000000005 0.0
vertex -18.1629349435159 11.1125 24.5225096263257
vertex -20.4046043496754 11.1125 4.46242262984121
endloop
endfacet
facet normal -0.9952222097933 0.00111499017942802 0.0976294521701334
outer loop
vertex -20.8015328733471 11.1125 0.0
vertex -20.8026000000003 10.1600000000005 0.0
vertex -20.5596833631362 11.1125 2.46538312608884
endloop
endfacet
facet normal 0.890520831151246 -0.425004184484918 0.162308633337859
outer loop
vertex 9.34806331424742 16.1260363519991 95.4710459013238
vertex 6.82386394196932 12.1527695043355 96.8391513919427
vertex 15.3121277087373 -6.87883798854815 0.0
endloop
endfacet
facet normal 0.94271554582299 0.333084837369917 0.0184902887462302
outer loop
vertex 3.68288466713509 92.4231810344275 69.1998321720069
vertex 6.82386394196923 81.7476296443219 72.8757193027131
vertex 6.63289930559144 89.7906972512655 0.0
endloop
endfacet
facet normal 0.877442137527367 0.479385590711196 0.0168745580648283
outer loop
vertex -2.25597318603832e-14 101.6 0.0
vertex -1.12798659301916e-14 101.6 66.04
vertex 3.68288466713509 92.4231810344275 69.1998321720069
endloop
endfacet
facet normal -0.967297693772028 -0.216637495077446 0.13192182287205
outer loop
vertex -20.1827357989241 4.29508827343195 0.0
vertex -18.0787426627385 11.1125 25.4
vertex -18.1629349435159 11.1125 24.5225096263257
endloop
endfacet
facet normal -0.994253712862813 -0.0485724675657111 0.0953953345457188
outer loop
vertex -18.0787426627385 11.1125 25.4
vertex -20.1827357989241 4.29508827343195 0.0
vertex -12.3215725268157 24.9303320545651 92.4394837753628
endloop
endfacet
facet normal -0.994253712862813 -0.0485724675657111 0.0953953345457188
outer loop
vertex -18.0787426627385 11.1125 25.4
vertex -12.3215725268157 24.9303320545651 92.4394837753628
vertex -18.0906602932307 11.3564478362776 25.4
endloop
endfacet
facet normal -0.992214596339166 -0.0718757161865964 0.101705831859186
outer loop
vertex -18.0906602932307 11.3564478362776 25.4
vertex -12.3215725268157 24.9303320545651 92.4394837753628
vertex -12.7000000000001 29.5514845393326 90.8482933696352
endloop
endfacet
facet normal 0.810092288298046 -0.55792170774673 0.18020502896703
outer loop
vertex 6.82386394196932 12.1527695043355 96.8391513919427
vertex 11.1774891369457 -11.921489016503 0.0
vertex 15.3121277087373 -6.87883798854815 0.0
endloop
endfacet
facet normal 0.583391736146553 -0.78349785846426 0.213974736774763
outer loop
vertex 6.03256508476733 -16.4377625898017 0.0
vertex 5.08 -14.3006677487288 10.16
vertex 5.08 -17.0507827156964 1.36100544331332e-15
endloop
endfacet
facet normal 0.527670983867963 -0.819942012089389 0.221942401524858
outer loop
vertex 5.08 -14.3006677487288 10.16
vertex 6.03256508476733 -16.4377625898017 0.0
vertex 3.68288466713512 8.59425237430034 98.0644471021781
endloop
endfacet
facet normal 0.707704612639137 -0.680415022061526 0.190235588159267
outer loop
vertex 3.68288466713512 8.59425237430034 98.0644471021781
vertex 0.381566503700419 -17.3243291651173 10.16
vertex 5.08 -14.3006677487288 10.16
endloop
endfacet
facet normal 0.0 0.0 -1.0
outer loop
vertex -20.8015328733471 11.1125 0.0
vertex -20.1827357989241 4.29508827343195 0.0
vertex -20.8026000000003 10.1600000000005 0.0
endloop
endfacet
facet normal 0.0 0.0 -1.0
outer loop
vertex -20.1827357989241 4.29508827343195 0.0
vertex -20.8015328733471 11.1125 0.0
vertex -5.07999999999999 11.1125 0.0
endloop
endfacet
facet normal 0.0 0.0 -1.0
outer loop
vertex -20.1827357989241 4.29508827343195 0.0
vertex -5.07999999999999 11.1125 0.0
vertex -18.3379194881891 -1.43001597438825 0.0
endloop
endfacet
facet normal 0.0 0.0 -1.0
outer loop
vertex -18.3379194881891 -1.43001597438825 0.0
vertex -5.07999999999999 11.1125 0.0
vertex -15.3121277087373 -6.87883798854804 0.0
endloop
endfacet
facet normal 0.0 0.0 -1.0
outer loop
vertex -15.3121277087373 -6.87883798854804 0.0
vertex -5.07999999999999 11.1125 0.0
vertex -11.1774891369458 -11.9214890165029 0.0
endloop
endfacet
facet normal 0.0 0.0 -1.0
outer loop
vertex -11.1774891369458 -11.9214890165029 0.0
vertex -5.07999999999999 11.1125 0.0
vertex -6.03256508476735 -16.4377625898016 0.0
endloop
endfacet
facet normal 0.0 0.0 -1.0
outer loop
vertex -6.03256508476735 -16.4377625898016 0.0
vertex -5.07999999999999 11.1125 0.0
vertex -5.08 -17.0507827156964 0.0
endloop
endfacet
facet normal -0.91976093611506 0.391844534653236 0.0223087664189981
outer loop
vertex -1.12798659301916e-14 101.6 66.04
vertex -6.63289930559146 89.7906972512655 0.0
vertex -3.6828846671351 92.4231810344275 69.1998321720069
endloop
endfacet
facet normal 4.33404455266491e-16 0.325568154457157 0.945518575599317
outer loop
vertex -12.3215725268157 24.9303320545651 92.4394837753628
vertex -12.3215725268156 43.4149419936342 86.0747221524526
vertex -12.7000000000001 29.5514845393326 90.8482933696352
endloop
endfacet
facet normal 4.33404455266491e-16 0.325568154457157 0.945518575599317
outer loop
vertex -12.3215725268156 43.4149419936342 86.0747221524526
vertex -12.3215725268157 24.9303320545651 92.4394837753628
vertex -11.1953110428505 20.4193383766013 93.9927434620608
endloop
endfacet
facet normal 4.33404455266491e-16 0.325568154457157 0.945518575599317
outer loop
vertex -12.3215725268156 43.4149419936342 86.0747221524526
vertex -11.1953110428505 20.4193383766013 93.9927434620608
vertex -11.1953110428503 56.9479230275252 81.4149430923587
endloop
endfacet
facet normal 4.33404455266491e-16 0.325568154457157 0.945518575599317
outer loop
vertex -11.1953110428503 56.9479230275252 81.4149430923587
vertex -11.1953110428505 20.4193383766013 93.9927434620608
vertex -9.34806331424744 16.1260363519992 95.4710459013238
endloop
endfacet
facet normal 4.33404455266491e-16 0.325568154457157 0.945518575599317
outer loop
vertex -11.1953110428503 56.9479230275252 81.4149430923587
vertex -9.34806331424744 16.1260363519992 95.4710459013238
vertex -9.34806331424734 69.8278291013316 76.9800357745699
endloop
endfacet
facet normal 4.33404455266491e-16 0.325568154457157 0.945518575599317
outer loop
vertex -9.34806331424734 69.8278291013316 76.9800357745699
vertex -9.34806331424744 16.1260363519992 95.4710459013238
vertex -6.82386394196934 12.1527695043356 96.8391513919427
endloop
endfacet
facet normal 4.33404455266491e-16 0.325568154457157 0.945518575599317
outer loop
vertex -9.34806331424734 69.8278291013316 76.9800357745699
vertex -6.82386394196934 12.1527695043356 96.8391513919427
vertex -6.82386394196925 81.7476296443219 72.8757193027131
endloop
endfacet
facet normal 4.33404455266491e-16 0.325568154457157 0.945518575599317
outer loop
vertex -6.82386394196925 81.7476296443219 72.8757193027131
vertex -6.82386394196934 12.1527695043356 96.8391513919427
vertex -3.68288466713514 8.59425237430036 98.0644471021781
endloop
endfacet
facet normal 4.33404455266491e-16 0.325568154457157 0.945518575599317
outer loop
vertex -6.82386394196925 81.7476296443219 72.8757193027131
vertex -3.68288466713514 8.59425237430036 98.0644471021781
vertex -3.6828846671351 92.4231810344275 69.1998321720069
endloop
endfacet
facet normal 4.33404455266491e-16 0.325568154457157 0.945518575599317
outer loop
vertex -3.6828846671351 92.4231810344275 69.1998321720069
vertex -3.68288466713514 8.59425237430036 98.0644471021781
vertex 0.0 5.53531271910943 99.1177244928471
endloop
endfacet
facet normal 4.33404455266491e-16 0.325568154457157 0.945518575599317
outer loop
vertex -3.6828846671351 92.4231810344275 69.1998321720069
vertex 0.0 5.53531271910943 99.1177244928471
vertex -1.12798659301916e-14 101.6 66.04
endloop
endfacet
facet normal 4.33404455266491e-16 0.325568154457157 0.945518575599317
outer loop
vertex -1.12798659301916e-14 101.6 66.04
vertex 0.0 5.53531271910943 99.1177244928471
vertex 3.68288466713509 92.4231810344275 69.1998321720069
endloop
endfacet
facet normal 4.33404455266491e-16 0.325568154457157 0.945518575599317
outer loop
vertex 3.68288466713509 92.4231810344275 69.1998321720069
vertex 0.0 5.53531271910943 99.1177244928471
vertex 3.68288466713512 8.59425237430034 98.0644471021781
endloop
endfacet
facet normal 4.33404455266491e-16 0.325568154457157 0.945518575599317
outer loop
vertex 3.68288466713509 92.4231810344275 69.1998321720069
vertex 3.68288466713512 8.59425237430034 98.0644471021781
vertex 6.82386394196923 81.7476296443219 72.8757193027131
endloop
endfacet
facet normal 4.33404455266491e-16 0.325568154457157 0.945518575599317
outer loop
vertex 6.82386394196923 81.7476296443219 72.8757193027131
vertex 3.68288466713512 8.59425237430034 98.0644471021781
vertex 6.82386394196932 12.1527695043355 96.8391513919427
endloop
endfacet
facet normal 4.33404455266491e-16 0.325568154457157 0.945518575599317
outer loop
vertex 6.82386394196923 81.7476296443219 72.8757193027131
vertex 6.82386394196932 12.1527695043355 96.8391513919427
vertex 9.34806331424732 69.8278291013315 76.9800357745699
endloop
endfacet
facet normal 4.33404455266491e-16 0.325568154457157 0.945518575599317
outer loop
vertex 9.34806331424732 69.8278291013315 76.9800357745699
vertex 6.82386394196932 12.1527695043355 96.8391513919427
vertex 9.34806331424742 16.1260363519991 95.4710459013238
endloop
endfacet
facet normal 4.33404455266491e-16 0.325568154457157 0.945518575599317
outer loop
vertex 9.34806331424732 69.8278291013315 76.9800357745699
vertex 9.34806331424742 16.1260363519991 95.4710459013238
vertex 11.1953110428503 56.9479230275251 81.4149430923587
endloop
endfacet
facet normal 4.33404455266491e-16 0.325568154457157 0.945518575599317
outer loop
vertex 11.1953110428503 56.9479230275251 81.4149430923587
vertex 9.34806331424742 16.1260363519991 95.4710459013238
vertex 11.1953110428505 20.4193383766012 93.9927434620608
endloop
endfacet
facet normal 4.33404455266491e-16 0.325568154457157 0.945518575599317
outer loop
vertex 11.1953110428503 56.9479230275251 81.4149430923587
vertex 11.1953110428505 20.4193383766012 93.9927434620608
vertex 12.3215725268155 43.4149419936342 86.0747221524526
endloop
endfacet
facet normal 4.33404455266491e-16 0.325568154457157 0.945518575599317
outer loop
vertex 12.3215725268155 43.4149419936342 86.0747221524526
vertex 11.1953110428505 20.4193383766012 93.9927434620608
vertex 12.3215725268157 24.930332054565 92.4394837753628
endloop
endfacet
facet normal 4.33404455266491e-16 0.325568154457157 0.945518575599317
outer loop
vertex 12.3215725268155 43.4149419936342 86.0747221524526
vertex 12.3215725268157 24.930332054565 92.4394837753628
vertex 12.7000000000001 29.5514845393324 90.8482933696352
endloop
endfacet
facet normal 1.0 -2.09635108736632e-16 2.73421394660911e-17
outer loop
vertex -5.07999999999999 11.1125 0.0
vertex -5.08 -14.4005001494829 10.16
vertex -5.08 -17.0507827156964 0.0
endloop
endfacet
facet normal 1.0 -2.09635108736632e-16 2.73421394660911e-17
outer loop
vertex -5.08 -14.4005001494829 10.16
vertex -5.07999999999999 11.1125 0.0
vertex -5.07999999999999 11.1125 10.16
endloop
endfacet
facet normal 0.989052924106581 -0.101632792737491 0.106981721600469
outer loop
vertex 20.255680767693 11.1125 5.96118001753374
vertex 20.8026000000003 10.1600000000003 0.0
vertex 20.4046043496753 11.1125 4.46242262984236
endloop
endfacet
facet normal -0.99555480057611 0.0537951353435336 0.0773092650542865
outer loop
vertex -12.7000000000001 29.5514845393326 90.8482933696352
vertex -18.2999128877799 19.9732820590728 25.4
vertex -18.5372185341907 15.5816066040456 25.4
endloop
endfacet
facet normal -0.995802595950497 0.0336543793933997 0.0851150553421429
outer loop
vertex -18.2999128877799 19.9732820590728 25.4
vertex -12.7000000000001 29.5514845393326 90.8482933696352
vertex -12.3215725268156 43.4149419936342 86.0747221524526
endloop
endfacet
facet normal -0.809794634438175 -0.561581871523687 0.169877754903621
outer loop
vertex -6.82386394196934 12.1527695043356 96.8391513919427
vertex -11.1774891369458 -11.9214890165029 0.0
vertex -6.03256508476735 -16.4377625898016 0.0
endloop
endfacet
facet normal 0.810092288298046 -0.55792170774673 0.18020502896703
outer loop
vertex 6.82386394196932 12.1527695043355 96.8391513919427
vertex 3.68288466713512 8.59425237430034 98.0644471021781
vertex 11.1774891369457 -11.921489016503 0.0
endloop
endfacet
facet normal -0.653641452547953 -0.729486596749339 0.201499768421875
outer loop
vertex 0.0 5.53531271910943 99.1177244928471
vertex -3.68288466713514 8.59425237430036 98.0644471021781
vertex -6.03256508476735 -16.4377625898016 0.0
endloop
endfacet
facet normal 0.890520831151246 -0.425004184484918 0.162308633337859
outer loop
vertex 9.34806331424742 16.1260363519991 95.4710459013238
vertex 15.3121277087373 -6.87883798854815 0.0
vertex 18.337919488189 -1.43001597438837 0.0
endloop
endfacet
facet normal 0.995466949947069 0.0414355888711099 0.0856074969730141
outer loop
vertex 20.783070019748 27.5921446615658 0.0
vertex 19.3935031332088 33.9725 10.16
vertex 12.3215725268155 43.4149419936342 86.0747221524526
endloop
endfacet
facet normal 0.992932252333573 0.0859877566873232 0.0818024937007468
outer loop
vertex 19.3935031332088 33.9725 10.16
vertex 20.783070019748 27.5921446615658 0.0
vertex 20.2305323807192 33.9725 3.34838175592071e-16
endloop
endfacet
facet normal 0.993177883803692 0.0799691835739961 0.0848682555595907
outer loop
vertex 12.3215725268155 43.4149419936342 86.0747221524526
vertex 19.3935031332088 33.9725 10.16
vertex 18.4800585351152 44.5203807345223 10.16
endloop
endfacet
facet normal -0.99567975520301 0.0476467468130797 0.0796970049437547
outer loop
vertex -20.5596833631362 11.1125 2.46538312608884
vertex -20.8026000000003 10.1600000000005 0.0
vertex -20.4046043496754 11.1125 4.46242262984121
endloop
endfacet
facet normal -0.964030106018343 0.260002709132593 0.0551774041974989
outer loop
vertex -6.82386394196925 81.7476296443219 72.8757193027131
vertex -12.1438453590159 76.1427455726984 0.0
vertex -16.4014684979203 60.9814841685745 0.0
endloop
endfacet
facet normal 1.86286280277784e-19 -3.00542474080388e-17 -1.0
outer loop
vertex 0.0 -17.6697174337864 10.16
vertex -5.08 -14.4005001494829 10.16
vertex -5.07999999999999 11.1125 10.16
endloop
endfacet
facet normal 1.86286280277784e-19 -3.00542474080388e-17 -1.0
outer loop
vertex 18.2923351758609 46.2007318811062 10.16
vertex 16.51 33.9725 10.16
vertex 15.8130440173336 60.1338196646985 10.16
endloop
endfacet
facet normal 1.86286280277784e-19 -3.00542474080388e-17 -1.0
outer loop
vertex 16.51 33.9725 10.16
vertex 18.2923351758609 46.2007318811062 10.16
vertex 19.3935031332088 33.9725 10.16
endloop
endfacet
facet normal 1.86286280277784e-19 -3.00542474080388e-17 -1.0
outer loop
vertex 19.3935031332088 33.9725 10.16
vertex 18.2923351758609 46.2007318811062 10.16
vertex 18.4800585351152 44.5203807345223 10.16
endloop
endfacet
facet normal 1.86286280277784e-19 -3.00542474080388e-17 -1.0
outer loop
vertex 9.97172435263507 54.2925 10.16
vertex -16.51 31.4325 10.16
vertex -16.51 54.2925 10.16
endloop
endfacet
facet normal 1.86286280277784e-19 -3.00542474080388e-17 -1.0
outer loop
vertex -16.51 31.4325 10.16
vertex 9.97172435263507 54.2925 10.16
vertex -5.07999999999999 31.4325 10.16
endloop
endfacet
facet normal 1.86286280277784e-19 -3.00542474080388e-17 -1.0
outer loop
vertex -5.07999999999999 31.4325 10.16
vertex 9.97172435263507 54.2925 10.16
vertex -5.07999999999999 11.1125 10.16
endloop
endfacet
facet normal 1.86286280277784e-19 -3.00542474080388e-17 -1.0
outer loop
vertex -5.07999999999999 11.1125 10.16
vertex 9.97172435263507 54.2925 10.16
vertex 0.0 -17.6697174337864 10.16
endloop
endfacet
facet normal 1.86286280277784e-19 -3.00542474080388e-17 -1.0
outer loop
vertex 0.0 -17.6697174337864 10.16
vertex 9.97172435263507 54.2925 10.16
vertex 0.381566503700419 -17.3243291651173 10.16
endloop
endfacet
facet normal 1.86286280277784e-19 -3.00542474080388e-17 -1.0
outer loop
vertex 0.381566503700419 -17.3243291651173 10.16
vertex 9.97172435263507 54.2925 10.16
vertex 5.08 11.1125 10.16
endloop
endfacet
facet normal 1.86286280277784e-19 -3.00542474080388e-17 -1.0
outer loop
vertex 5.08 11.1125 10.16
vertex 9.97172435263507 54.2925 10.16
vertex 16.51 23.8125 10.16
endloop
endfacet
facet normal 1.86286280277784e-19 -3.00542474080388e-17 -1.0
outer loop
vertex 5.08 11.1125 10.16
vertex 16.51 23.8125 10.16
vertex 19.7995444670846 11.1125 10.16
endloop
endfacet
facet normal 1.86286280277784e-19 -3.00542474080388e-17 -1.0
outer loop
vertex 16.51 23.8125 10.16
vertex 9.97172435263507 54.2925 10.16
vertex 15.8130440173336 60.1338196646985 10.16
endloop
endfacet
facet normal 1.86286280277784e-19 -3.00542474080388e-17 -1.0
outer loop
vertex 16.51 23.8125 10.16
vertex 15.8130440173336 60.1338196646985 10.16
vertex 16.51 33.9725 10.16
endloop
endfacet
facet normal 1.86286280277784e-19 -3.00542474080388e-17 -1.0
outer loop
vertex 19.7995444670846 11.1125 10.16
vertex 16.51 23.8125 10.16
vertex 19.883581555127 23.8125 10.16
endloop
endfacet
facet normal 1.86286280277784e-19 -3.00542474080388e-17 -1.0
outer loop
vertex 19.7995444670846 11.1125 10.16
vertex 19.883581555127 23.8125 10.16
vertex 19.8704524413126 11.7834034153531 10.16
endloop
endfacet
facet normal 1.86286280277784e-19 -3.00542474080388e-17 -1.0
outer loop
vertex 19.8704524413126 11.7834034153531 10.16
vertex 19.883581555127 23.8125 10.16
vertex 19.8964474136764 12.3286426416183 10.16
endloop
endfacet
facet normal 1.86286280277784e-19 -3.00542474080388e-17 -1.0
outer loop
vertex 5.08 -14.3006677487288 10.16
vertex 0.381566503700419 -17.3243291651173 10.16
vertex 5.08 11.1125 10.16
endloop
endfacet
facet normal -0.978698249362376 0.193587670734147 0.0683633705631019
outer loop
vertex -9.34806331424734 69.8278291013316 76.9800357745699
vertex -16.4014684979203 60.9814841685745 0.0
vertex -19.304275710259 44.668326446355 0.0
endloop
endfacet
facet normal 0.996066728523319 0.00111593633002707 0.088599249516917
outer loop
vertex 20.4046043496753 11.1125 4.46242262984236
vertex 20.8026000000003 10.1600000000003 0.0
vertex 20.8015328733471 11.1125 0.0
endloop
endfacet
facet normal 0.993981585859992 -0.0473893340939699 0.0987666845924566
outer loop
vertex 19.8964474136764 12.3286426416183 10.16
vertex 12.3215725268157 24.930332054565 92.4394837753628
vertex 19.8704524413126 11.7834034153531 10.16
endloop
endfacet
facet normal 0.984809940273702 -0.130527507996239 0.114507428555525
outer loop
vertex 12.3215725268157 24.930332054565 92.4394837753628
vertex 19.8964474136764 12.3286426416183 10.16
vertex 12.7000000000001 29.5514845393324 90.8482933696352
endloop
endfacet
facet normal 0.0 1.0 0.0
outer loop
vertex 5.08 11.1125 10.16
vertex 20.8015328733471 11.1125 0.0
vertex 5.08 11.1125 0.0
endloop
endfacet
facet normal 0.0 1.0 0.0
outer loop
vertex 20.8015328733471 11.1125 0.0
vertex 5.08 11.1125 10.16
vertex 20.4046043496753 11.1125 4.46242262984236
endloop
endfacet
facet normal 0.0 1.0 0.0
outer loop
vertex 20.4046043496753 11.1125 4.46242262984236
vertex 5.08 11.1125 10.16
vertex 20.255680767693 11.1125 5.96118001753374
endloop
endfacet
facet normal 0.0 1.0 0.0
outer loop
vertex 20.255680767693 11.1125 5.96118001753374
vertex 5.08 11.1125 10.16
vertex 19.7995444670846 11.1125 10.16
endloop
endfacet
facet normal -0.994018139884765 0.0758510746062845 0.0785783180088717
outer loop
vertex -12.3215725268156 43.4149419936342 86.0747221524526
vertex -18.2870746338279 31.4325 25.4
vertex -18.2999128877799 19.9732820590728 25.4
endloop
endfacet
facet normal -0.9952222097933 0.00111499017942107 0.0976294521701341
outer loop
vertex -18.2870746338279 31.4325 25.4
vertex -12.3215725268156 43.4149419936342 86.0747221524526
vertex -18.729377718307 31.4325 20.8912186502234
endloop
endfacet
facet normal -0.890355320035048 -0.428749661249853 0.15310497073388
outer loop
vertex -9.34806331424744 16.1260363519992 95.4710459013238
vertex -11.1774891369458 -11.9214890165029 0.0
vertex -6.82386394196934 12.1527695043356 96.8391513919427
endloop
endfacet
facet normal -0.940909864283441 0.336700822026932 0.0363480912910837
outer loop
vertex -3.6828846671351 92.4231810344275 69.1998321720069
vertex -6.63289930559146 89.7906972512655 0.0
vertex -12.1438453590159 76.1427455726984 0.0
endloop
endfacet
facet normal -0.0 -1.0 -0.0
outer loop
vertex -5.07999999999999 31.4325 25.4
vertex -16.51 31.4325 10.16
vertex -5.07999999999999 31.4325 10.16
endloop
endfacet
facet normal -0.0 -1.0 -0.0
outer loop
vertex -16.51 31.4325 10.16
vertex -5.07999999999999 31.4325 25.4
vertex -19.5287888042567 31.4325 10.6507927480341
endloop
endfacet
facet normal -0.0 -1.0 -0.0
outer loop
vertex -19.5287888042567 31.4325 10.6507927480341
vertex -5.07999999999999 31.4325 25.4
vertex -18.729377718307 31.4325 20.8912186502234
endloop
endfacet
facet normal -0.0 -1.0 -0.0
outer loop
vertex -18.729377718307 31.4325 20.8912186502234
vertex -5.07999999999999 31.4325 25.4
vertex -18.2870746338279 31.4325 25.4
endloop
endfacet
facet normal -0.0 -1.0 -0.0
outer loop
vertex -16.51 31.4325 1.80080290989862e-17
vertex -19.5287888042567 31.4325 10.6507927480341
vertex -20.450495929564 31.4325 1.40411940177206e-17
endloop
endfacet
facet normal -0.0 -1.0 -0.0
outer loop
vertex -19.5287888042567 31.4325 10.6507927480341
vertex -16.51 31.4325 1.80080290989862e-17
vertex -16.51 31.4325 10.16
endloop
endfacet
facet normal 0.707704612639137 -0.680415022061526 0.190235588159267
outer loop
vertex 3.68288466713512 8.59425237430034 98.0644471021781
vertex 0.0 -17.6697174337864 10.16
vertex 0.381566503700419 -17.3243291651173 10.16
endloop
endfacet
facet normal 0.658877676209598 -0.727892850114123 0.18987418609537
outer loop
vertex 0.0 -17.6697174337864 10.16
vertex 3.68288466713512 8.59425237430034 98.0644471021781
vertex 0.0 5.53531271910943 99.1177244928471
endloop
endfacet
facet normal 0.978846177406047 0.194404886542888 0.0637722593751955
outer loop
vertex 9.34806331424732 69.8278291013315 76.9800357745699
vertex 11.1953110428503 56.9479230275251 81.4149430923587
vertex 16.4014684979203 60.9814841685745 0.0
endloop
endfacet
facet normal 1.0 0.0 0.0
outer loop
vertex -16.51 54.2925 0.0
vertex -16.51 31.4325 10.16
vertex -16.51 31.4325 1.80080290989862e-17
endloop
endfacet
facet normal 1.0 0.0 0.0
outer loop
vertex -16.51 31.4325 10.16
vertex -16.51 54.2925 0.0
vertex -16.51 54.2925 10.16
endloop
endfacet
facet normal 0.877442137527367 0.479385590711196 0.0168745580648283
outer loop
vertex -2.25597318603832e-14 101.6 0.0
vertex 3.68288466713509 92.4231810344275 69.1998321720069
vertex 6.63289930559144 89.7906972512655 0.0
endloop
endfacet
facet normal -0.994100474525507 -0.0505882146343211 0.095943103390884
outer loop
vertex -12.7000000000001 29.5514845393326 90.8482933696352
vertex -18.5372185341907 15.5816066040456 25.4
vertex -18.0906602932307 11.3564478362776 25.4
endloop
endfacet
facet normal 0.949307551166632 -0.281160676410861 0.140583951211366
outer loop
vertex 11.1953110428505 20.4193383766012 93.9927434620608
vertex 18.337919488189 -1.43001597438837 0.0
vertex 20.1827357989241 4.29508827343177 0.0
endloop
endfacet
facet normal -0.871885586738262 0.489709631963755 2.98094845279403e-16
outer loop
vertex -2.25597318603832e-14 101.6 0.0
vertex -6.63289930559146 89.7906972512655 0.0
vertex -1.12798659301916e-14 101.6 66.04
endloop
endfacet
facet normal -0.949332387155764 -0.284590006624635 0.13332871718624
outer loop
vertex -11.1953110428505 20.4193383766013 93.9927434620608
vertex -15.3121277087373 -6.87883798854804 0.0
vertex -9.34806331424744 16.1260363519992 95.4710459013238
endloop
endfacet
facet normal -0.940909864283441 0.336700822026932 0.0363480912910837
outer loop
vertex -3.6828846671351 92.4231810344275 69.1998321720069
vertex -12.1438453590159 76.1427455726984 0.0
vertex -6.82386394196925 81.7476296443219 72.8757193027131
endloop
endfacet
facet normal -0.994018139884765 0.0758510746062845 0.0785783180088717
outer loop
vertex -12.3215725268156 43.4149419936342 86.0747221524526
vertex -19.5287888042567 31.4325 10.6507927480341
vertex -18.729377718307 31.4325 20.8912186502234
endloop
endfacet
facet normal -0.992445293592386 0.0885104245622078 0.0849602493530986
outer loop
vertex -19.5287888042567 31.4325 10.6507927480341
vertex -12.3215725268156 43.4149419936342 86.0747221524526
vertex -11.1953110428503 56.9479230275252 81.4149430923587
endloop
endfacet
facet normal -0.988178554439532 0.133181767718938 0.0759326102083726
outer loop
vertex -11.1953110428503 56.9479230275252 81.4149430923587
vertex -20.450495929564 31.4325 1.40411940177206e-17
vertex -19.5287888042567 31.4325 10.6507927480341
endloop
endfacet
facet normal -0.992588957982849 0.0859580274575272 0.0858974854470879
outer loop
vertex -20.450495929564 31.4325 1.40411940177206e-17
vertex -11.1953110428503 56.9479230275252 81.4149430923587
vertex -19.304275710259 44.668326446355 0.0
endloop
endfacet
facet normal -0.984970936645068 -0.13325239057095 0.109891102331648
outer loop
vertex -12.3215725268157 24.9303320545651 92.4394837753628
vertex -20.1827357989241 4.29508827343195 0.0
vertex -18.3379194881891 -1.43001597438825 0.0
endloop
endfacet
facet normal -0.949332387155764 -0.284590006624635 0.13332871718624
outer loop
vertex -11.1953110428505 20.4193383766013 93.9927434620608
vertex -18.3379194881891 -1.43001597438825 0.0
vertex -15.3121277087373 -6.87883798854804 0.0
endloop
endfacet
facet normal 0.949307551166632 -0.281160676410861 0.140583951211366
outer loop
vertex 11.1953110428505 20.4193383766012 93.9927434620608
vertex 9.34806331424742 16.1260363519991 95.4710459013238
vertex 18.337919488189 -1.43001597438837 0.0
endloop
endfacet
facet normal -0.809794634438175 -0.561581871523687 0.169877754903621
outer loop
vertex -6.82386394196934 12.1527695043356 96.8391513919427
vertex -6.03256508476735 -16.4377625898016 0.0
vertex -3.68288466713514 8.59425237430036 98.0644471021781
endloop
endfacet
facet normal 0.707704612639137 -0.680415022061526 0.190235588159267
outer loop
vertex 3.68288466713512 8.59425237430034 98.0644471021781
vertex 6.03256508476733 -16.4377625898017 0.0
vertex 11.1774891369457 -11.921489016503 0.0
endloop
endfacet
facet normal 0.984809940273702 -0.130527507996239 0.114507428555525
outer loop
vertex 12.3215725268157 24.930332054565 92.4394837753628
vertex 11.1953110428505 20.4193383766012 93.9927434620608
vertex 20.1827357989241 4.29508827343177 0.0
endloop
endfacet
facet normal -3.9822951995667e-17 1.0 -1.60451138101376e-16
outer loop
vertex -20.5596833631362 11.1125 2.46538312608884
vertex -5.07999999999999 11.1125 0.0
vertex -20.8015328733471 11.1125 0.0
endloop
endfacet
facet normal -3.9822951995667e-17 1.0 -1.60451138101376e-16
outer loop
vertex -5.07999999999999 11.1125 0.0
vertex -20.5596833631362 11.1125 2.46538312608884
vertex -5.07999999999999 11.1125 10.16
endloop
endfacet
facet normal -3.9822951995667e-17 1.0 -1.60451138101376e-16
outer loop
vertex -5.07999999999999 11.1125 10.16
vertex -20.5596833631362 11.1125 2.46538312608884
vertex -20.4046043496754 11.1125 4.46242262984121
endloop
endfacet
facet normal -3.9822951995667e-17 1.0 -1.60451138101376e-16
outer loop
vertex -5.07999999999999 11.1125 10.16
vertex -20.4046043496754 11.1125 4.46242262984121
vertex -18.1629349435159 11.1125 24.5225096263257
endloop
endfacet
facet normal -3.9822951995667e-17 1.0 -1.60451138101376e-16
outer loop
vertex -5.07999999999999 11.1125 10.16
vertex -18.1629349435159 11.1125 24.5225096263257
vertex -5.07999999999999 11.1125 25.4
endloop
endfacet
facet normal -3.9822951995667e-17 1.0 -1.60451138101376e-16
outer loop
vertex -5.07999999999999 11.1125 25.4
vertex -18.1629349435159 11.1125 24.5225096263257
vertex -18.0787426627385 11.1125 25.4
endloop
endfacet
facet normal -1.85986046855915e-17 -1.20381634919102e-17 -1.0
outer loop
vertex 20.8015328733471 11.1125 0.0
vertex 5.08 -17.0507827156964 1.36100544331332e-15
vertex 5.08 11.1125 0.0
endloop
endfacet
facet normal -1.85986046855915e-17 -1.20381634919102e-17 -1.0
outer loop
vertex 5.08 -17.0507827156964 1.36100544331332e-15
vertex 20.8015328733471 11.1125 0.0
vertex 6.03256508476733 -16.4377625898017 0.0
endloop
endfacet
facet normal -1.85986046855915e-17 -1.20381634919102e-17 -1.0
outer loop
vertex 6.03256508476733 -16.4377625898017 0.0
vertex 20.8015328733471 11.1125 0.0
vertex 11.1774891369457 -11.921489016503 0.0
endloop
endfacet
facet normal -1.85986046855915e-17 -1.20381634919102e-17 -1.0
outer loop
vertex 11.1774891369457 -11.921489016503 0.0
vertex 20.8015328733471 11.1125 0.0
vertex 15.3121277087373 -6.87883798854815 0.0
endloop
endfacet
facet normal -1.85986046855915e-17 -1.20381634919102e-17 -1.0
outer loop
vertex 15.3121277087373 -6.87883798854815 0.0
vertex 20.8015328733471 11.1125 0.0
vertex 18.337919488189 -1.43001597438837 0.0
endloop
endfacet
facet normal -1.85986046855915e-17 -1.20381634919102e-17 -1.0
outer loop
vertex 18.337919488189 -1.43001597438837 0.0
vertex 20.8015328733471 11.1125 0.0
vertex 20.1827357989241 4.29508827343177 0.0
endloop
endfacet
facet normal -1.85986046855915e-17 -1.20381634919102e-17 -1.0
outer loop
vertex 20.1827357989241 4.29508827343177 0.0
vertex 20.8015328733471 11.1125 0.0
vertex 20.8026000000003 10.1600000000003 0.0
endloop
endfacet
facet normal -0.964030106018343 0.260002709132593 0.0551774041974989
outer loop
vertex -6.82386394196925 81.7476296443219 72.8757193027131
vertex -16.4014684979203 60.9814841685745 0.0
vertex -9.34806331424734 69.8278291013316 76.9800357745699
endloop
endfacet
facet normal 0.968053709349303 -0.215971467784843 0.127390505603504
outer loop
vertex 20.1827357989241 4.29508827343177 0.0
vertex 19.7995444670846 11.1125 10.16
vertex 12.3215725268157 24.930332054565 92.4394837753628
endloop
endfacet
facet normal 0.988708241349437 -0.104496857360214 0.107407729189025
outer loop
vertex 19.7995444670846 11.1125 10.16
vertex 20.1827357989241 4.29508827343177 0.0
vertex 20.8026000000003 10.1600000000003 0.0
endloop
endfacet
facet normal 0.988708241349437 -0.104496857360214 0.107407729189025
outer loop
vertex 19.7995444670846 11.1125 10.16
vertex 20.8026000000003 10.1600000000003 0.0
vertex 20.255680767693 11.1125 5.96118001753374
endloop
endfacet
facet normal 0.984809940273702 -0.130527507996239 0.114507428555525
outer loop
vertex 12.3215725268157 24.930332054565 92.4394837753628
vertex 19.7995444670846 11.1125 10.16
vertex 19.8704524413126 11.7834034153531 10.16
endloop
endfacet
facet normal 0.90382056567324 0.426950635654994 0.0286625152403105
outer loop
vertex 6.63289930559144 89.7906972512655 0.0
vertex 6.82386394196923 81.7476296443219 72.8757193027131
vertex 12.1438453590158 76.1427455726984 0.0
endloop
endfacet
facet normal 0.995466949947069 0.0414355888711099 0.0856074969730141
outer loop
vertex 20.783070019748 27.5921446615658 0.0
vertex 19.883581555127 23.8125 10.16
vertex 20.7873045179715 23.8125 0.0
endloop
endfacet
facet normal 0.996066728523318 0.00111593633002118 0.0885992495169202
outer loop
vertex 19.883581555127 23.8125 10.16
vertex 12.7000000000001 29.5514845393324 90.8482933696352
vertex 19.8964474136764 12.3286426416183 10.16
endloop
endfacet
facet normal 0.994916736421299 0.0499425212151094 0.0874438800801359
outer loop
vertex 12.7000000000001 29.5514845393324 90.8482933696352
vertex 19.883581555127 23.8125 10.16
vertex 20.783070019748 27.5921446615658 0.0
endloop
endfacet
facet normal -8.98316364624337e-20 -1.56812842629315e-19 -1.0
outer loop
vertex -16.4014684979203 60.9814841685745 0.0
vertex -16.51 54.2925 0.0
vertex -19.304275710259 44.668326446355 0.0
endloop
endfacet
facet normal -8.98316364624337e-20 -1.56812842629315e-19 -1.0
outer loop
vertex -16.51 54.2925 0.0
vertex -16.4014684979203 60.9814841685745 0.0
vertex 9.97172435263507 54.2925 0.0
endloop
endfacet
facet normal -8.98316364624337e-20 -1.56812842629315e-19 -1.0
outer loop
vertex 9.97172435263507 54.2925 0.0
vertex -16.4014684979203 60.9814841685745 0.0
vertex -12.1438453590159 76.1427455726984 0.0
endloop
endfacet
facet normal -8.98316364624337e-20 -1.56812842629315e-19 -1.0
outer loop
vertex 9.97172435263507 54.2925 0.0
vertex -12.1438453590159 76.1427455726984 0.0
vertex -6.63289930559146 89.7906972512655 0.0
endloop
endfacet
facet normal -8.98316364624337e-20 -1.56812842629315e-19 -1.0
outer loop
vertex 9.97172435263507 54.2925 0.0
vertex -6.63289930559146 89.7906972512655 0.0
vertex -2.25597318603832e-14 101.6 0.0
endloop
endfacet
facet normal -8.98316364624337e-20 -1.56812842629315e-19 -1.0
outer loop
vertex 9.97172435263507 54.2925 0.0
vertex -2.25597318603832e-14 101.6 0.0
vertex 6.63289930559144 89.7906972512655 0.0
endloop
endfacet
facet normal -8.98316364624337e-20 -1.56812842629315e-19 -1.0
outer loop
vertex 9.97172435263507 54.2925 0.0
vertex 6.63289930559144 89.7906972512655 0.0
vertex 12.1438453590158 76.1427455726984 0.0
endloop
endfacet
facet normal -8.98316364624337e-20 -1.56812842629315e-19 -1.0
outer loop
vertex 9.97172435263507 54.2925 0.0
vertex 12.1438453590158 76.1427455726984 0.0
vertex 16.4406298833565 60.7614055307215 0.0
endloop
endfacet
facet normal -8.98316364624337e-20 -1.56812842629315e-19 -1.0
outer loop
vertex 16.4406298833565 60.7614055307215 0.0
vertex 12.1438453590158 76.1427455726984 0.0
vertex 16.4014684979203 60.9814841685745 0.0
endloop
endfacet
facet normal -8.98316364624337e-20 -1.56812842629315e-19 -1.0
outer loop
vertex -19.304275710259 44.668326446355 0.0
vertex -16.51 31.4325 1.80080290989862e-17
vertex -20.450495929564 31.4325 1.40411940177206e-17
endloop
endfacet
facet normal -8.98316364624337e-20 -1.56812842629315e-19 -1.0
outer loop
vertex -16.51 31.4325 1.80080290989862e-17
vertex -19.304275710259 44.668326446355 0.0
vertex -16.51 54.2925 0.0
endloop
endfacet
facet normal 0.991774103911059 0.0983784712031371 0.0818889688245613
outer loop
vertex 18.4800585351152 44.5203807345223 10.16
vertex 11.1953110428503 56.9479230275251 81.4149430923587
vertex 12.3215725268155 43.4149419936342 86.0747221524526
endloop
endfacet
facet normal 0.987726836275634 0.135795498646028 0.0771704570959864
outer loop
vertex 11.1953110428503 56.9479230275251 81.4149430923587
vertex 18.4800585351152 44.5203807345223 10.16
vertex 18.2923351758609 46.2007318811062 10.16
endloop
endfacet
facet normal 0.98201798279672 0.17474292418726 0.0714534247628925
outer loop
vertex 15.8130440173336 60.1338196646985 10.16
vertex 11.1953110428503 56.9479230275251 81.4149430923587
vertex 18.2923351758609 46.2007318811062 10.16
endloop
endfacet
facet normal 0.987726836275634 0.135795498646028 0.0771704570959864
outer loop
vertex 11.1953110428503 56.9479230275251 81.4149430923587
vertex 15.8130440173336 60.1338196646985 10.16
vertex 16.4014684979203 60.9814841685745 0.0
endloop
endfacet
facet normal 0.973758042063112 0.218130939406699 0.0649166295410199
outer loop
vertex 16.4014684979203 60.9814841685745 0.0
vertex 15.8130440173336 60.1338196646985 10.16
vertex 16.4406298833565 60.7614055307215 0.0
endloop
endfacet
facet normal 2.56105338888045e-17 1.83696799912884e-17 -1.0
outer loop
vertex 20.2305323807192 33.9725 3.34838175592071e-16
vertex 16.51 23.8125 0.0
vertex 16.51 33.9725 0.0
endloop
endfacet
facet normal 2.56105338888045e-17 1.83696799912884e-17 -1.0
outer loop
vertex 16.51 23.8125 0.0
vertex 20.2305323807192 33.9725 3.34838175592071e-16
vertex 20.7873045179715 23.8125 0.0
endloop
endfacet
facet normal 2.56105338888045e-17 1.83696799912884e-17 -1.0
outer loop
vertex 20.7873045179715 23.8125 0.0
vertex 20.2305323807192 33.9725 3.34838175592071e-16
vertex 20.783070019748 27.5921446615658 0.0
endloop
endfacet
facet normal -1.0 0.0 0.0
outer loop
vertex 16.51 33.9725 10.16
vertex 16.51 23.8125 0.0
vertex 16.51 23.8125 10.16
endloop
endfacet
facet normal -1.0 0.0 0.0
outer loop
vertex 16.51 23.8125 0.0
vertex 16.51 33.9725 10.16
vertex 16.51 33.9725 0.0
endloop
endfacet
facet normal -5.29192182134978e-16 1.0 -3.52308954710109e-16
outer loop
vertex 16.51 33.9725 10.16
vertex 20.2305323807192 33.9725 3.34838175592071e-16
vertex 16.51 33.9725 0.0
endloop
endfacet
facet normal -5.29192182134978e-16 1.0 -3.52308954710109e-16
outer loop
vertex 20.2305323807192 33.9725 3.34838175592071e-16
vertex 16.51 33.9725 10.16
vertex 19.3935031332088 33.9725 10.16
endloop
endfacet
facet normal 1.27784721795156e-15 -1.0 0.0
outer loop
vertex 9.97172435263507 54.2925 10.16
vertex -16.51 54.2925 0.0
vertex 9.97172435263507 54.2925 0.0
endloop
endfacet
facet normal 1.27784721795156e-15 -1.0 0.0
outer loop
vertex -16.51 54.2925 0.0
vertex 9.97172435263507 54.2925 10.16
vertex -16.51 54.2925 10.16
endloop
endfacet
facet normal 0.707106781186547 -0.707106781186548 -2.07531303715667e-16
outer loop
vertex 15.8130440173336 60.1338196646985 10.16
vertex 9.97172435263507 54.2925 0.0
vertex 16.4406298833565 60.7614055307215 0.0
endloop
endfacet
facet normal 0.707106781186547 -0.707106781186548 -2.07531303715667e-16
outer loop
vertex 9.97172435263507 54.2925 0.0
vertex 15.8130440173336 60.1338196646985 10.16
vertex 9.97172435263507 54.2925 10.16
endloop
endfacet
endsolid Foam Fin Covered 007
